<?xml version="1.0" standalone="no"?>
<!DOCTYPE svg PUBLIC "-//W3C//DTD SVG 1.1//EN" "http://www.w3.org/Graphics/SVG/1.1/DTD/svg11.dtd" >
<svg xmlns="http://www.w3.org/2000/svg" xmlns:xlink="http://www.w3.org/1999/xlink" version="1.1">
<metadata>
Created by FontForge 20170731 at Fri Jul 31 19:47:49 2015
 By Aleksey,,,
Copyright 2015 Dalton Maag Ltd. Modification of this file requires prior written permission from Dalton Maag Ltd.
</metadata>
<defs>
<font id="AktivGroteskCd-Bold" horiz-adv-x="352" >
  <font-face 
    font-family="Aktiv Grotesk Cd"
    font-weight="700"
    font-stretch="condensed"
    units-per-em="1000"
    panose-1="2 11 8 6 2 2 3 2 2 4"
    ascent="750"
    descent="-250"
    x-height="522"
    cap-height="714"
    bbox="-164 -226 817 922"
    underline-thickness="68"
    underline-position="-269"
    unicode-range="U+0020-2122"
  />
<missing-glyph horiz-adv-x="390" 
d="M35 0v750h320v-750h-320zM305 700h-220v-650h220v650z" />
    <glyph glyph-name="f_f" unicode="ff" horiz-adv-x="622" 
d="M79 0v422h-66v100h66v27q0 81 41.5 127t115.5 46q50 0 92 -16l-17 -93q-26 8 -45 8q-26 0 -40.5 -17.5t-14.5 -49.5v-32h92v-100h-92v-422h-132zM390 0v422h-66v100h66v27q0 81 41.5 127t115.5 46q50 0 92 -16l-17 -93q-26 8 -45 8q-26 0 -40.5 -17.5t-14.5 -49.5v-32h92
v-100h-92v-422h-132z" />
    <glyph glyph-name="f_i" unicode="fi" horiz-adv-x="549" 
d="M79 0v422h-66v100h66v27q0 81 41.5 127t115.5 46q50 0 92 -16l-17 -93q-26 8 -45 8q-26 0 -40.5 -17.5t-14.5 -49.5v-32h92v-100h-92v-422h-132zM364 0v522h132v-522h-132zM362 600v114h136v-114h-136z" />
    <glyph glyph-name="f_l" unicode="fl" horiz-adv-x="549" 
d="M79 0v422h-66v100h66v27q0 81 41.5 127t115.5 46q50 0 92 -16l-17 -93q-26 8 -45 8q-26 0 -40.5 -17.5t-14.5 -49.5v-32h92v-100h-92v-422h-132zM364 0v714h132v-714h-132z" />
    <glyph glyph-name="f_f_i" unicode="ffi" horiz-adv-x="860" 
d="M79 0v422h-66v100h66v27q0 81 41.5 127t115.5 46q50 0 92 -16l-17 -93q-26 8 -45 8q-26 0 -40.5 -17.5t-14.5 -49.5v-32h92v-100h-92v-422h-132zM390 0v422h-66v100h66v27q0 81 41.5 127t115.5 46q50 0 92 -16l-17 -93q-26 8 -45 8q-26 0 -40.5 -17.5t-14.5 -49.5v-32h92
v-100h-92v-422h-132zM675 0v522h132v-522h-132zM673 600v114h136v-114h-136z" />
    <glyph glyph-name="f_f_l" unicode="ffl" horiz-adv-x="860" 
d="M79 0v422h-66v100h66v27q0 81 41.5 127t115.5 46q50 0 92 -16l-17 -93q-26 8 -45 8q-26 0 -40.5 -17.5t-14.5 -49.5v-32h92v-100h-92v-422h-132zM390 0v422h-66v100h66v27q0 81 41.5 127t115.5 46q50 0 92 -16l-17 -93q-26 8 -45 8q-26 0 -40.5 -17.5t-14.5 -49.5v-32h92
v-100h-92v-422h-132zM675 0v714h132v-714h-132z" />
    <glyph glyph-name=".notdef" horiz-adv-x="390" 
d="M35 0v750h320v-750h-320zM305 700h-220v-650h220v650z" />
    <glyph glyph-name=".null" horiz-adv-x="0" 
 />
    <glyph glyph-name="nonmarkingreturn" horiz-adv-x="333" 
 />
    <glyph glyph-name="space" unicode=" " horiz-adv-x="168" 
 />
    <glyph glyph-name="space" unicode="&#xa0;" horiz-adv-x="168" 
 />
    <glyph glyph-name="exclam" unicode="!" horiz-adv-x="231" 
d="M56 216l-13 498h145l-13 -498h-119zM49 0v158h133v-158h-133z" />
    <glyph glyph-name="quotedbl" unicode="&#x22;" horiz-adv-x="343" 
d="M32 443l-6 271h123l-6 -271h-111zM200 443l-6 271h123l-6 -271h-111z" />
    <glyph glyph-name="numbersign" unicode="#" horiz-adv-x="500" 
d="M249 0l22 166h-88l-21 -166h-102l21 166h-57v96h70l21 167h-65v96h77l22 166h102l-22 -166h88l21 166h102l-21 -166h57v-96h-70l-21 -167h65v-96h-77l-22 -166h-102zM304 429h-87l-21 -167h87z" />
    <glyph glyph-name="dollar" unicode="$" horiz-adv-x="500" 
d="M218 -118v102q-179 16 -192 222h132q4 -46 18.5 -71.5t41.5 -35.5v202l-22 8q-83 29 -122.5 78.5t-39.5 124.5q0 82 49.5 134.5t134.5 61.5v91h66v-91q76 -9 120.5 -57t59.5 -138l-126 -16q-14 77 -54 95v-184l23 -8q87 -31 127 -81t40 -129q0 -57 -22.5 -101.5
t-65 -71.5t-102.5 -33v-102h-66zM284 97q29 7 44 29.5t15 58.5q0 34 -14 55.5t-45 36.5v-180zM218 595q-26 -7 -40 -27.5t-14 -52.5t12 -50.5t42 -31.5v162z" />
    <glyph glyph-name="percent" unicode="%" horiz-adv-x="842" 
d="M215 0l299 691h112l-299 -691h-112zM664 -13q-72 0 -109 54.5t-37 160.5t38.5 161.5t111.5 55.5q72 0 109 -54.5t37 -160.5t-38.5 -161.5t-111.5 -55.5zM666 79q25 0 35.5 28.5t10.5 94.5q0 67 -10.5 96t-35.5 29t-35.5 -28.5t-10.5 -94.5q0 -67 10.5 -96t35.5 -29z
M174 272q-72 0 -109 54.5t-37 160.5t38.5 161.5t111.5 55.5q72 0 109 -54.5t37 -160.5t-38.5 -161.5t-111.5 -55.5zM176 364q25 0 35.5 28.5t10.5 94.5q0 67 -10.5 96t-35.5 29t-35.5 -28.5t-10.5 -94.5q0 -67 10.5 -96t35.5 -29z" />
    <glyph glyph-name="ampersand" unicode="&#x26;" horiz-adv-x="564" 
d="M437 0l-27 36q-65 -53 -159 -53q-104 0 -167 55.5t-63 147.5q0 62 31.5 110.5t101.5 91.5q-37 56 -50.5 91.5t-13.5 75.5q0 47 22 85t63.5 60t94.5 22q75 0 122 -43.5t47 -112.5q0 -57 -33 -104t-106 -94l109 -151q14 56 14 135h115q0 -138 -55 -234l88 -118h-134z
M211 305q-31 -24 -44.5 -49.5t-13.5 -58.5q0 -50 30 -80.5t80 -30.5q51 0 85 32zM249 443q39 28 56 55.5t17 60.5q0 29 -14.5 46t-40.5 17q-27 0 -43 -18t-16 -49q0 -26 9 -51t32 -61z" />
    <glyph glyph-name="quotesingle" unicode="'" horiz-adv-x="175" 
d="M32 443l-6 271h123l-6 -271h-111z" />
    <glyph glyph-name="parenleft" unicode="(" horiz-adv-x="276" 
d="M152 -124q-56 103 -83 208.5t-27 220.5t27 220.5t83 208.5h119q-93 -208 -93 -429t93 -429h-119z" />
    <glyph glyph-name="parenright" unicode=")" horiz-adv-x="276" 
d="M5 -124q93 208 93 429t-93 429h119q56 -103 83 -208.5t27 -220.5t-27 -220.5t-83 -208.5h-119z" />
    <glyph glyph-name="asterisk" unicode="*" 
d="M229 386l-53 96l-53 -96l-89 66l76 79l-103 22l41 107l87 -51l-16 105h114l-16 -105l87 51l41 -107l-103 -22l76 -79z" />
    <glyph glyph-name="plus" unicode="+" horiz-adv-x="500" 
d="M188 114v167h-145v119h145v167h124v-167h145v-119h-145v-167h-124z" />
    <glyph glyph-name="comma" unicode="," horiz-adv-x="229" 
d="M19 -105l33 263h129l-58 -263h-104z" />
    <glyph glyph-name="hyphen" unicode="-" horiz-adv-x="315" 
d="M29 232v134h257v-134h-257z" />
    <glyph glyph-name="period" unicode="." horiz-adv-x="229" 
d="M48 0v158h133v-158h-133z" />
    <glyph glyph-name="slash" unicode="/" horiz-adv-x="329" 
d="M3 0l194 734h129l-194 -734h-129z" />
    <glyph glyph-name="zero" unicode="0" horiz-adv-x="500" 
d="M248 -18q-113 0 -166.5 88.5t-53.5 274.5q0 187 54.5 276t169.5 89q113 0 166.5 -88.5t53.5 -274.5q0 -187 -54.5 -276t-169.5 -89zM249 103q49 0 68 53.5t19 189.5q0 95 -8.5 147t-26.5 74t-50 22q-49 0 -68 -53.5t-19 -189.5q0 -95 8.5 -147t26.5 -74t50 -22z" />
    <glyph glyph-name="one" unicode="1" horiz-adv-x="500" 
d="M247 0v539l-126 -82l-64 100l207 134h116v-691h-133z" />
    <glyph glyph-name="two" unicode="2" horiz-adv-x="500" 
d="M46 0v102q74 74 146 154q73 82 99 131.5t26 104.5q0 48 -18.5 73.5t-52.5 25.5q-35 0 -55.5 -25.5t-29.5 -80.5l-124 16q14 101 70 155t147 54q89 0 142.5 -56t53.5 -150q0 -68 -30 -130.5t-105 -150.5q-50 -59 -93 -103h242l-14 -120h-404z" />
    <glyph glyph-name="three" unicode="3" horiz-adv-x="500" 
d="M191 303v108h53q37 0 59 25t22 68q0 40 -21 64.5t-56 24.5q-77 0 -88 -101l-120 15q10 97 66.5 150t148.5 53q57 0 102.5 -23t71.5 -66t26 -98q0 -100 -91 -155q51 -23 78 -67t27 -103q0 -96 -61.5 -156t-159.5 -60q-208 0 -214 232h124q3 -59 25 -87t66 -28
q41 0 63.5 27t22.5 77q0 100 -94 100h-50z" />
    <glyph glyph-name="four" unicode="4" horiz-adv-x="500" 
d="M292 0v155h-263v105l252 431h133v-431h67l-12 -105h-55v-155h-122zM292 513l-146 -253h146v253z" />
    <glyph glyph-name="five" unicode="5" horiz-adv-x="500" 
d="M178 191q5 -48 24 -70t56 -22q81 0 81 122q0 58 -21 88.5t-61 30.5q-27 0 -46.5 -11t-35.5 -35h-115l25 397h353v-120h-246l-11 -160q45 39 108 39q86 0 133 -59.5t47 -166.5q0 -115 -55.5 -178.5t-156.5 -63.5q-195 0 -208 209h129z" />
    <glyph glyph-name="six" unicode="6" horiz-adv-x="500" 
d="M341 515q-7 42 -25.5 61.5t-50.5 19.5q-47 0 -71.5 -48.5t-29.5 -150.5l-1 -19q24 31 58 48.5t71 17.5q82 0 129.5 -59.5t47.5 -163.5q0 -110 -57.5 -174.5t-154.5 -64.5q-112 0 -166 80.5t-54 249.5q0 198 59 298t175 100q158 0 190 -179zM258 96q42 0 64 31.5t22 90.5
q0 58 -22 89t-62 31q-43 0 -66 -31.5t-23 -88.5q0 -58 23 -90t64 -32z" />
    <glyph glyph-name="seven" unicode="7" horiz-adv-x="500" 
d="M130 0q46 294 194 571h-278v120h413v-110q-77 -147 -123 -287t-67 -294h-139z" />
    <glyph glyph-name="eight" unicode="8" horiz-adv-x="500" 
d="M365 355q52 -23 79.5 -67.5t27.5 -105.5q0 -95 -58.5 -147.5t-165.5 -52.5q-105 0 -162.5 52t-57.5 148q0 61 27.5 105.5t79.5 67.5q-91 52 -91 163q0 86 57 139t151 53q92 0 148 -52.5t56 -139.5q0 -111 -91 -163zM249 91q46 0 69.5 27t23.5 78q0 50 -23.5 76.5
t-67.5 26.5q-45 0 -69 -26.5t-24 -76.5q0 -105 91 -105zM249 405q85 0 85 98q0 48 -21 73t-62 25t-63 -25.5t-22 -72.5q0 -98 83 -98z" />
    <glyph glyph-name="nine" unicode="9" horiz-adv-x="500" 
d="M337 314q-23 -31 -57 -48.5t-71 -17.5q-83 0 -130.5 60t-47.5 163q0 110 57.5 174.5t155.5 64.5q111 0 165 -81t54 -248q0 -202 -56 -300.5t-171 -98.5q-172 0 -198 190h122q8 -40 26.5 -58t52.5 -18q46 0 69 47.5t28 151.5zM240 354q43 0 66 31.5t23 88.5q0 58 -23 90
t-64 32q-42 0 -64 -31.5t-22 -90.5q0 -58 22 -89t62 -31z" />
    <glyph glyph-name="colon" unicode=":" horiz-adv-x="229" 
d="M48 364v158h133v-158h-133zM48 0v158h133v-158h-133z" />
    <glyph glyph-name="semicolon" unicode=";" horiz-adv-x="229" 
d="M19 -105l33 263h129l-58 -263h-104zM48 364v158h133v-158h-133z" />
    <glyph glyph-name="less" unicode="&#x3c;" horiz-adv-x="500" 
d="M41 284v114l394 185v-128l-267 -112l267 -112v-133z" />
    <glyph glyph-name="equal" unicode="=" horiz-adv-x="500" 
d="M63 168v119h374v-119h-374zM63 394v119h374v-119h-374z" />
    <glyph glyph-name="greater" unicode="&#x3e;" horiz-adv-x="500" 
d="M65 98v128l267 112l-267 112v133l394 -186v-114z" />
    <glyph glyph-name="question" unicode="?" horiz-adv-x="419" 
d="M148 216v24q0 49 12 81.5t47 76.5q38 48 50 73t12 59q0 79 -61 79q-34 0 -52.5 -23.5t-25.5 -75.5l-122 14q12 99 65 150.5t144 51.5q85 0 136 -49t51 -129q0 -48 -16.5 -86t-61.5 -94q-32 -39 -44.5 -68.5t-12.5 -67.5v-16h-121zM142 0v158h133v-158h-133z" />
    <glyph glyph-name="at" unicode="@" horiz-adv-x="806" 
d="M651 -54q-45 -78 -124 -123t-171 -45q-98 0 -170.5 45.5t-112 132t-39.5 206.5q0 148 53 268.5t150 192t222 71.5q91 0 161.5 -43t111 -123.5t40.5 -188.5q0 -96 -27 -175t-77.5 -126.5t-114.5 -47.5q-57 0 -84 47q-10 19 -16 39q-24 -44 -52 -65t-64 -21q-55 0 -87 50
t-32 137q0 80 22 147t61.5 107.5t89.5 40.5q30 0 54.5 -18.5t38.5 -52.5l9 60h111l-53 -311q-1 -14 -2 -21t-1 -12q0 -38 28 -38q25 0 48 33t37.5 91t14.5 126q0 130 -59.5 201.5t-167.5 71.5q-90 0 -161 -53t-112 -152t-41 -229q0 -143 61.5 -220.5t174.5 -77.5
q103 0 160 76h120zM451 247q5 40 5 61q0 30 -11.5 48t-31.5 18q-33 0 -54 -52t-21 -134q0 -94 45 -94q23 0 38 27.5t24 85.5z" />
    <glyph glyph-name="A" unicode="A" horiz-adv-x="569" 
d="M420 0l-37 162h-200l-39 -162h-138l198 714h166l193 -714h-143zM284 589l-74 -311h146z" />
    <glyph glyph-name="B" unicode="B" horiz-adv-x="544" 
d="M67 0v714h210q101 0 159 -48t58 -132q0 -52 -25.5 -91t-75.5 -63q58 -21 90.5 -67t32.5 -106q0 -97 -62 -152t-171 -55h-216zM273 114q107 0 107 102q0 50 -27 76t-78 26h-77v-204h75zM268 425q44 0 67 23.5t23 66.5q0 85 -95 85h-65v-175h70z" />
    <glyph glyph-name="B" unicode="&#xe000;" horiz-adv-x="544" 
d="M67 0v714h210q101 0 159 -48t58 -132q0 -52 -25.5 -91t-75.5 -63q58 -21 90.5 -67t32.5 -106q0 -97 -62 -152t-171 -55h-216zM273 114q107 0 107 102q0 50 -27 76t-78 26h-77v-204h75zM268 425q44 0 67 23.5t23 66.5q0 85 -95 85h-65v-175h70z" />
    <glyph glyph-name="C" unicode="C" horiz-adv-x="571" 
d="M551 259q-9 -134 -74 -205.5t-176 -71.5q-129 0 -195 94t-66 278q0 183 68.5 280.5t198.5 97.5q203 0 238 -257l-139 -18q-12 79 -36 114t-66 35q-60 0 -88.5 -60.5t-28.5 -187.5q0 -128 29 -189t90 -61q47 0 73 37t32 114h140z" />
    <glyph glyph-name="D" unicode="D" horiz-adv-x="604" 
d="M67 0v714h204q142 0 217.5 -90.5t75.5 -261.5t-79.5 -266.5t-221.5 -95.5h-196zM269 126q148 0 148 234q0 228 -141 228h-68v-462h61z" />
    <glyph glyph-name="E" unicode="E" horiz-adv-x="501" 
d="M67 0v714h392v-126h-251v-159h235v-126h-235v-177h268l-15 -126h-394z" />
    <glyph glyph-name="E" unicode="&#xe001;" horiz-adv-x="501" 
d="M67 0v714h392v-126h-251v-159h235v-126h-235v-177h268l-15 -126h-394z" />
    <glyph glyph-name="F" unicode="F" horiz-adv-x="470" 
d="M67 0v714h379v-126h-238v-172h222v-126h-222v-290h-141z" />
    <glyph glyph-name="G" unicode="G" horiz-adv-x="597" 
d="M421 275h-102v116h233v-331q-103 -78 -234 -78q-138 0 -208 94.5t-70 278.5q0 185 70 281t204 96q101 0 159.5 -54.5t75.5 -165.5l-140 -17q-11 57 -35 84t-65 27q-64 0 -93 -59t-29 -189q0 -131 33 -190.5t106 -59.5q52 0 95 24v143z" />
    <glyph glyph-name="H" unicode="H" horiz-adv-x="619" 
d="M411 0v305h-203v-305h-141v714h141v-279h203v279h141v-714h-141z" />
    <glyph glyph-name="I" unicode="I" horiz-adv-x="275" 
d="M67 0v714h141v-714h-141z" />
    <glyph glyph-name="J" unicode="J" horiz-adv-x="505" 
d="M309 714h141v-481q0 -117 -58.5 -184t-161.5 -67t-157.5 63.5t-59.5 190.5h137q4 -68 23 -98t58 -30q40 0 59 29t19 89v488z" />
    <glyph glyph-name="K" unicode="K" horiz-adv-x="577" 
d="M424 0l-160 334l-58 -73v-261h-139v714h139v-282l210 282h142l-201 -273l218 -441h-151z" />
    <glyph glyph-name="L" unicode="L" horiz-adv-x="471" 
d="M67 0v714h141v-588h251l-15 -126h-377z" />
    <glyph glyph-name="M" unicode="M" horiz-adv-x="749" 
d="M556 0v482l-135 -482h-96l-134 481v-481h-124v714h169l140 -524l141 524h165v-714h-126z" />
    <glyph glyph-name="N" unicode="N" horiz-adv-x="610" 
d="M411 0l-216 467v-467h-128v714h132l216 -467v467h128v-714h-132z" />
    <glyph glyph-name="O" unicode="O" horiz-adv-x="626" 
d="M310 -18q-132 0 -201 95t-69 278q0 184 70.5 280.5t205.5 96.5q132 0 201 -95t69 -278q0 -184 -70.5 -280.5t-205.5 -96.5zM312 108q67 0 97 59.5t30 190.5t-29.5 189.5t-95.5 58.5q-67 0 -97 -59.5t-30 -190.5t29.5 -189.5t95.5 -58.5z" />
    <glyph glyph-name="P" unicode="P" horiz-adv-x="527" 
d="M67 0v714h196q114 0 177.5 -60t63.5 -168q0 -109 -64.5 -172t-175.5 -63h-61v-251h-136zM258 370q110 0 110 114q0 111 -110 111h-55v-225h55z" />
    <glyph glyph-name="Q" unicode="Q" horiz-adv-x="626" 
d="M481 -92l-63 93q-50 -19 -108 -19q-132 0 -201 95t-69 278q0 184 70.5 280.5t205.5 96.5q132 0 201 -95t69 -278q0 -206 -88 -302l64 -94zM280 207l81 55l55 -83q26 66 26 179q0 129 -30.5 188.5t-97.5 59.5t-98.5 -60t-31.5 -190t31 -190.5t97 -60.5q21 0 33 4z" />
    <glyph glyph-name="R" unicode="R" horiz-adv-x="557" 
d="M393 0l-105 271q-7 -1 -31 -1h-56v-270h-134v714h204q115 0 177.5 -56t62.5 -160q0 -61 -26 -109.5t-75 -78.5l130 -310h-147zM260 385q59 0 87 26.5t28 82.5q0 53 -28 79t-86 26h-60v-214h59z" />
    <glyph glyph-name="S" unicode="S" horiz-adv-x="521" 
d="M202 315q-85 25 -125 75.5t-40 132.5q0 95 62 152t164 57q97 0 151 -49t68 -151l-134 -18q-10 56 -30 79.5t-59 23.5t-60 -22.5t-21 -66.5q0 -37 16 -57.5t55 -32.5l76 -24q61 -19 98 -47.5t54 -69.5t17 -98q0 -100 -61.5 -158.5t-167.5 -58.5q-223 0 -238 232h140
q5 -61 28.5 -89t71.5 -28q41 0 63.5 24.5t22.5 70.5q0 41 -18.5 65t-58.5 36z" />
    <glyph glyph-name="S" unicode="&#xe002;" horiz-adv-x="521" 
d="M202 315q-85 25 -125 75.5t-40 132.5q0 95 62 152t164 57q97 0 151 -49t68 -151l-134 -18q-10 56 -30 79.5t-59 23.5t-60 -22.5t-21 -66.5q0 -37 16 -57.5t55 -32.5l76 -24q61 -19 98 -47.5t54 -69.5t17 -98q0 -100 -61.5 -158.5t-167.5 -58.5q-223 0 -238 232h140
q5 -61 28.5 -89t71.5 -28q41 0 63.5 24.5t22.5 70.5q0 41 -18.5 65t-58.5 36z" />
    <glyph glyph-name="T" unicode="T" horiz-adv-x="487" 
d="M173 0v588h-162v126h465v-126h-162v-588h-141z" />
    <glyph glyph-name="U" unicode="U" horiz-adv-x="592" 
d="M396 714h141v-458q0 -133 -62 -203.5t-179 -70.5t-179 70.5t-62 203.5v458h141v-468q0 -70 24.5 -104t75.5 -34t75.5 34t24.5 104v468z" />
    <glyph glyph-name="V" unicode="V" horiz-adv-x="549" 
d="M190 0l-184 714h151l122 -563l118 563h146l-184 -714h-169z" />
    <glyph glyph-name="W" unicode="W" horiz-adv-x="791" 
d="M493 0l-96 500l-98 -500h-146l-143 714h147l80 -516l97 513h131l95 -513l79 516h142l-140 -714h-148z" />
    <glyph glyph-name="X" unicode="X" horiz-adv-x="540" 
d="M381 0l-116 256l-118 -256h-144l187 371l-175 343h156l104 -232l104 232h144l-173 -346l187 -368h-156z" />
    <glyph glyph-name="Y" unicode="Y" horiz-adv-x="520" 
d="M190 0v284l-187 430h152l109 -299l109 299h144l-186 -430v-284h-141z" />
    <glyph glyph-name="Z" unicode="Z" horiz-adv-x="484" 
d="M22 0v107l277 483h-268v124h423v-107l-277 -483h289l-15 -124h-429z" />
    <glyph glyph-name="bracketleft" unicode="[" horiz-adv-x="297" 
d="M67 -124v858h223v-112h-91v-634h91v-112h-223z" />
    <glyph glyph-name="backslash" unicode="\" horiz-adv-x="329" 
d="M326 0h-129l-194 734h129z" />
    <glyph glyph-name="bracketright" unicode="]" horiz-adv-x="297" 
d="M230 -124h-223v112h91v634h-91v112h223v-858z" />
    <glyph glyph-name="asciicircum" unicode="^" horiz-adv-x="500" 
d="M338 296l-90 265l-89 -265h-131l165 418h114l165 -418h-134z" />
    <glyph glyph-name="underscore" unicode="_" horiz-adv-x="400" 
d="M0 -175v52h400v-52h-400z" />
    <glyph glyph-name="grave" unicode="`" horiz-adv-x="497" 
d="M259 587l-127 159h136l97 -159h-106z" />
    <glyph glyph-name="a" unicode="a" horiz-adv-x="459" 
d="M289 0v58q-23 -34 -55.5 -52.5t-70.5 -18.5q-64 0 -100 41t-36 114q0 79 52.5 124.5t150.5 53.5l54 4v31q0 47 -14 69t-45 22q-28 0 -43 -17t-21 -54l-118 10q12 78 58 115.5t129 37.5q92 0 135.5 -47.5t43.5 -148.5v-342h-120zM284 241l-40 -4q-45 -4 -69.5 -26
t-24.5 -59q0 -33 14 -50.5t41 -17.5q36 0 57.5 28.5t21.5 77.5v51z" />
    <glyph glyph-name="b" unicode="b" horiz-adv-x="495" 
d="M53 0v714h132v-246q22 34 52 52t64 18q78 0 119 -69t41 -202q0 -137 -43 -210t-123 -73q-32 0 -62 18t-52 50v-52h-128zM183 237q0 -79 17 -115.5t54 -36.5q38 0 55 41t17 135t-17 135t-55 41q-37 0 -54 -36t-17 -115v-49z" />
    <glyph glyph-name="b" unicode="&#xe003;" horiz-adv-x="495" 
d="M53 0v714h132v-246q22 34 52 52t64 18q78 0 119 -69t41 -202q0 -137 -43 -210t-123 -73q-32 0 -62 18t-52 50v-52h-128zM183 237q0 -79 17 -115.5t54 -36.5q38 0 55 41t17 135t-17 135t-55 41q-37 0 -54 -36t-17 -115v-49z" />
    <glyph glyph-name="c" unicode="c" horiz-adv-x="444" 
d="M426 197q-15 -213 -190 -213q-202 0 -202 274q0 139 52 209.5t154 70.5q163 0 182 -196l-123 -13q-6 59 -20 84t-42 25q-37 0 -52.5 -40.5t-15.5 -137.5q0 -96 16 -136t54 -40q29 0 44 27t19 86h124z" />
    <glyph glyph-name="d" unicode="d" horiz-adv-x="495" 
d="M314 0v60q-20 -36 -52 -56t-68 -20q-78 0 -119 69t-41 202q0 137 43 210t123 73q30 0 58.5 -16t51.5 -46v238h132v-714h-128zM312 285q0 79 -17 115.5t-54 36.5q-38 0 -55 -41t-17 -135t17 -135t55 -41q37 0 54 36t17 115v49z" />
    <glyph glyph-name="e" unicode="e" horiz-adv-x="458" 
d="M429 159q-8 -86 -56.5 -130.5t-134.5 -44.5q-104 0 -154 66.5t-50 205.5q0 138 53 210t155 72q94 0 141.5 -65t47.5 -192v-51h-268q2 -152 77 -152q30 0 45 18.5t20 62.5h124zM306 310q0 71 -16.5 103.5t-51.5 32.5q-36 0 -53 -31.5t-21 -104.5h142z" />
    <glyph glyph-name="f" unicode="f" horiz-adv-x="311" 
d="M79 0v422h-66v100h66v27q0 81 41.5 127t115.5 46q50 0 92 -16l-17 -93q-26 8 -45 8q-26 0 -40.5 -17.5t-14.5 -49.5v-32h92v-100h-92v-422h-132z" />
    <glyph glyph-name="g" unicode="g" horiz-adv-x="495" 
d="M310 89q-22 -34 -52 -52t-64 -18q-76 0 -118 66.5t-42 187.5q0 125 44 195t122 70q32 0 62 -18t52 -50v52h128v-497q0 -112 -52 -171t-151 -59q-93 0 -140 42t-54 131h128q6 -38 22 -54t48 -16q35 0 51 26t16 84v81zM312 295q0 72 -17.5 107t-53.5 35q-37 0 -54.5 -38.5
t-17.5 -119.5q0 -82 17.5 -120.5t54.5 -38.5q36 0 53.5 35t17.5 107v33z" />
    <glyph glyph-name="h" unicode="h" horiz-adv-x="497" 
d="M315 0v377q0 29 -13 44t-38 15q-32 0 -55.5 -22.5t-23.5 -52.5v-361h-132v714h132v-245q24 33 57.5 51t71.5 18q62 0 97.5 -39.5t35.5 -108.5v-390h-132z" />
    <glyph glyph-name="i" unicode="i" horiz-adv-x="238" 
d="M53 0v522h132v-522h-132zM51 600v114h136v-114h-136z" />
    <glyph glyph-name="j" unicode="j" horiz-adv-x="238" 
d="M53 522h132v-555q0 -82 -37.5 -127t-104.5 -45q-46 0 -98 16l19 96q27 -7 43 -7q46 0 46 57v565zM51 600v114h136v-114h-136z" />
    <glyph glyph-name="k" unicode="k" horiz-adv-x="475" 
d="M335 0l-110 240l-44 -49v-191h-128v714h128v-378l145 186h135l-150 -186l163 -336h-139z" />
    <glyph glyph-name="l" unicode="l" horiz-adv-x="238" 
d="M53 0v714h132v-714h-132z" />
    <glyph glyph-name="m" unicode="m" horiz-adv-x="719" 
d="M537 0v384q0 25 -11 38.5t-31 13.5q-27 0 -47.5 -22.5t-20.5 -52.5v-361h-132v384q0 52 -42 52q-27 0 -47.5 -23t-20.5 -52v-361h-132v522h128v-57q25 35 57.5 54t67.5 19q77 0 108 -81q25 39 59 60t72 21q57 0 90.5 -40.5t33.5 -110.5v-387h-132z" />
    <glyph glyph-name="n" unicode="n" horiz-adv-x="497" 
d="M315 0v377q0 29 -13 44t-38 15q-32 0 -55.5 -22.5t-23.5 -52.5v-361h-132v522h128v-57q26 35 60.5 54t72.5 19q62 0 97.5 -39.5t35.5 -108.5v-390h-132z" />
    <glyph glyph-name="o" unicode="o" horiz-adv-x="483" 
d="M240 -16q-105 0 -155.5 67.5t-50.5 207.5q0 138 53 208.5t156 70.5q105 0 155.5 -67.5t50.5 -207.5q0 -138 -53 -208.5t-156 -70.5zM241 84q28 0 43.5 18t22.5 56.5t7 103.5q0 97 -16 136.5t-56 39.5q-28 0 -43.5 -18t-22.5 -56.5t-7 -103.5q0 -97 16 -136.5t56 -39.5z
" />
    <glyph glyph-name="p" unicode="p" horiz-adv-x="495" 
d="M53 -194v716h128v-60q20 36 52 56t68 20q78 0 119 -69t41 -202q0 -137 -43 -210t-123 -73q-30 0 -58.5 16t-51.5 46v-240h-132zM183 237q0 -79 17 -115.5t54 -36.5q38 0 55 41t17 135t-17 135t-55 41q-37 0 -54 -36t-17 -115v-49z" />
    <glyph glyph-name="q" unicode="q" horiz-adv-x="495" 
d="M310 -194v248q-22 -34 -52 -52t-64 -18q-78 0 -119 69t-41 202q0 137 43 210t123 73q32 0 62 -18t52 -50v52h128v-716h-132zM312 285q0 79 -17 115.5t-54 36.5q-38 0 -55 -41t-17 -135t17 -135t55 -41q37 0 54 36t17 115v49z" />
    <glyph glyph-name="r" unicode="r" horiz-adv-x="333" 
d="M53 0v522h128v-70q21 38 50 58.5t61 20.5q16 0 36 -5l-15 -120q-15 4 -39 4q-38 0 -63.5 -27t-25.5 -67v-316h-132z" />
    <glyph glyph-name="s" unicode="s" horiz-adv-x="396" 
d="M160 223q-71 19 -104 56.5t-33 101.5q0 71 48.5 114t130.5 43q77 0 118.5 -35.5t55.5 -115.5l-114 -12q-7 39 -21.5 55.5t-41.5 16.5t-42 -15.5t-15 -42.5t12.5 -41.5t43.5 -23.5l48 -14q75 -22 107 -59.5t32 -104.5q0 -75 -49 -118.5t-133 -43.5q-89 0 -134.5 42
t-52.5 130h118q4 -40 21 -59t49 -19q28 0 43.5 17t15.5 46q0 28 -13.5 45t-43.5 25z" />
    <glyph glyph-name="s" unicode="&#xe004;" horiz-adv-x="396" 
d="M160 223q-71 19 -104 56.5t-33 101.5q0 71 48.5 114t130.5 43q77 0 118.5 -35.5t55.5 -115.5l-114 -12q-7 39 -21.5 55.5t-41.5 16.5t-42 -15.5t-15 -42.5t12.5 -41.5t43.5 -23.5l48 -14q75 -22 107 -59.5t32 -104.5q0 -75 -49 -118.5t-133 -43.5q-89 0 -134.5 42
t-52.5 130h118q4 -40 21 -59t49 -19q28 0 43.5 17t15.5 46q0 28 -13.5 45t-43.5 25z" />
    <glyph glyph-name="t" unicode="t" horiz-adv-x="321" 
d="M312 8q-54 -18 -100 -18q-137 0 -137 154v278h-66v100h66v139h132v-139h95v-100h-95v-275q0 -25 11.5 -39t32.5 -14t45 8z" />
    <glyph glyph-name="u" unicode="u" horiz-adv-x="486" 
d="M305 0v57q-24 -35 -57 -54t-69 -19q-61 0 -95 43t-34 119v376h132v-368q0 -67 51 -67q29 0 48.5 22.5t19.5 55.5v357h132v-522h-128z" />
    <glyph glyph-name="v" unicode="v" horiz-adv-x="438" 
d="M149 0l-145 522h135l83 -399l82 399h130l-145 -522h-140z" />
    <glyph glyph-name="w" unicode="w" horiz-adv-x="627" 
d="M384 0l-68 343l-71 -343h-126l-111 522h136l50 -365l72 361h103l69 -360l53 364h128l-111 -522h-124z" />
    <glyph glyph-name="x" unicode="x" horiz-adv-x="446" 
d="M302 0l-86 172l-82 -172h-130l147 265l-138 257h140l75 -158l77 158h130l-142 -250l149 -272h-140z" />
    <glyph glyph-name="y" unicode="y" horiz-adv-x="444" 
d="M176 11l-172 511h138l90 -364l78 364h130l-163 -557q-27 -93 -62.5 -131t-95.5 -38q-44 0 -89 16l21 98q27 -8 49 -8q23 0 37 13.5t24 45.5z" />
    <glyph glyph-name="y" unicode="&#xe006;" horiz-adv-x="444" 
d="M176 11l-172 511h138l90 -364l78 364h130l-163 -557q-27 -93 -62.5 -131t-95.5 -38q-44 0 -89 16l21 98q27 -8 49 -8q23 0 37 13.5t24 45.5z" />
    <glyph glyph-name="z" unicode="z" horiz-adv-x="382" 
d="M15 0v91l211 324h-198v107h343v-91l-211 -324h213l-13 -107h-345z" />
    <glyph glyph-name="braceleft" unicode="{" horiz-adv-x="297" 
d="M225 -124q-140 0 -140 149v156q0 36 -11.5 52t-37.5 16h-8v112h8q26 0 37.5 16t11.5 52v156q0 149 140 149h67v-112h-37q-42 0 -42 -51v-164q0 -81 -64 -102q64 -21 64 -102v-164q0 -51 42 -51h37v-112h-67z" />
    <glyph glyph-name="bar" unicode="|" horiz-adv-x="261" 
d="M67 -124v858h127v-858h-127z" />
    <glyph glyph-name="braceright" unicode="}" horiz-adv-x="297" 
d="M212 25q0 -149 -140 -149h-67v112h37q42 0 42 51v164q0 81 64 102q-64 21 -64 102v164q0 51 -42 51h-37v112h67q140 0 140 -149v-156q0 -36 11.5 -52t37.5 -16h8v-112h-8q-26 0 -37.5 -16t-11.5 -52v-156z" />
    <glyph glyph-name="asciitilde" unicode="~" horiz-adv-x="500" 
d="M478 442q0 -106 -31 -158.5t-94 -52.5q-28 0 -54 12t-64 41q-27 20 -40 27t-22 7q-22 0 -31.5 -18.5t-9.5 -60.5h-110q0 106 31 158.5t94 52.5q28 0 54 -12t64 -41q27 -20 40 -27t22 -7q22 0 31.5 18.5t9.5 60.5h110z" />
    <glyph glyph-name="exclamdown" unicode="&#xa1;" horiz-adv-x="231" 
d="M188 -192h-145l13 498h119zM182 364h-133v158h133v-158z" />
    <glyph glyph-name="cent" unicode="&#xa2;" horiz-adv-x="500" 
d="M219 -10v90q-90 11 -137 80.5t-47 192.5q0 122 47.5 193.5t136.5 83.5v89h66v-88q71 -7 113 -54.5t51 -130.5l-120 -13q-10 73 -44 91v-338q40 18 47 97h121q-8 -89 -50.5 -140.5t-117.5 -61.5v-91h-66zM219 525q-27 -13 -38.5 -53.5t-11.5 -116.5t12 -115.5t38 -52.5
v338z" />
    <glyph glyph-name="sterling" unicode="&#xa3;" horiz-adv-x="500" 
d="M58 0v100q27 41 40 80.5t13 85.5q0 5 -0.5 11.5t-1.5 16.5h-74v106h53q-10 44 -10 93q0 100 54.5 158.5t146.5 58.5q171 0 192 -184l-119 -17q-8 45 -25 64t-49 19q-75 0 -75 -106q0 -36 9 -86h188v-106h-169q0 -5 0.5 -11t0.5 -11q0 -76 -45 -156h295l-14 -116h-410z
" />
    <glyph glyph-name="currency" unicode="&#xa4;" horiz-adv-x="500" 
d="M399 95l-56 61q-40 -25 -93 -25t-93 25l-56 -61l-78 71l54 59q-34 50 -34 122t34 122l-54 59l78 71l56 -61q40 25 93 25t93 -25l56 61l78 -71l-54 -59q34 -50 34 -122t-34 -122l54 -59zM250 222q47 0 72.5 32.5t25.5 92.5t-25.5 92.5t-72.5 32.5t-72.5 -32.5t-25.5 -92.5
t25.5 -92.5t72.5 -32.5z" />
    <glyph glyph-name="yen" unicode="&#xa5;" horiz-adv-x="500" 
d="M184 0v140h-125v77h125v70l-4 9h-121v77h88l-136 318h142l101 -278l99 278h135l-136 -318h88v-77h-121l-4 -9v-70h125v-77h-125v-140h-131z" />
    <glyph glyph-name="brokenbar" unicode="&#xa6;" horiz-adv-x="261" 
d="M67 -124v353h127v-353h-127zM67 397v337h127v-337h-127z" />
    <glyph glyph-name="section" unicode="&#xa7;" horiz-adv-x="448" 
d="M182 141q-76 20 -112 60t-36 104q0 41 22 74.5t61 53.5q-39 23 -59 56.5t-20 74.5q0 75 53 121.5t138 46.5q79 0 124 -37.5t60 -116.5l-113 -16q-8 43 -24.5 61t-49.5 18q-30 0 -47.5 -18.5t-17.5 -49.5q0 -32 14.5 -50t49.5 -29l46 -14q79 -24 114 -63t35 -102
q0 -41 -21 -75t-59 -54q77 -47 77 -135q0 -78 -53 -125t-140 -47q-93 0 -140.5 45.5t-55.5 140.5h117q6 -47 25.5 -69.5t55.5 -22.5q31 0 49.5 19.5t18.5 53.5q0 67 -66 83zM219 238q12 -3 22 -3q29 0 47 20t18 51q0 57 -63 77l-10 3q-7 3 -20 3q-28 0 -46.5 -21t-18.5 -53
q0 -30 14.5 -48t45.5 -26z" />
    <glyph glyph-name="dieresis" unicode="&#xa8;" horiz-adv-x="497" 
d="M99 600v114h121v-114h-121zM278 600v114h121v-114h-121z" />
    <glyph glyph-name="copyright" unicode="&#xa9;" horiz-adv-x="680" 
d="M340 0q-86 0 -154 43.5t-107 124.5t-39 189q0 103 36.5 183.5t104.5 127t159 46.5q86 0 154 -43.5t107 -124.5t39 -189q0 -103 -36.5 -183.5t-104.5 -127t-159 -46.5zM340 76q65 0 114.5 34t77 97.5t27.5 149.5q0 83 -26.5 146.5t-76 99t-116.5 35.5q-65 0 -114.5 -34
t-77 -97.5t-27.5 -149.5q0 -83 26.5 -146.5t76 -99t116.5 -35.5zM489 308q-7 -75 -44.5 -114.5t-101.5 -39.5q-74 0 -114 51.5t-40 148.5t41 151.5t115 54.5q122 0 140 -140l-89 -13q-10 66 -51 66q-30 0 -44.5 -28.5t-14.5 -88.5q0 -59 14.5 -87t45.5 -28q47 0 54 67h89z
" />
    <glyph glyph-name="ordfeminine" unicode="&#xaa;" horiz-adv-x="359" 
d="M218 338v39q-34 -48 -89 -48q-47 0 -75.5 31t-28.5 83q0 58 41 93t116 40l33 2v21q0 31 -9.5 45.5t-29.5 14.5q-37 0 -44 -46l-90 8q18 111 139 111q133 0 133 -144v-250h-96zM215 513l-23 -1q-32 -2 -49.5 -17t-17.5 -43q0 -22 10 -34t29 -12q23 0 37 20t14 51v36z" />
    <glyph glyph-name="guillemotleft" unicode="&#xab;" horiz-adv-x="474" 
d="M116 30l-96 227l96 225h135l-93 -224l93 -228h-135zM313 30l-96 227l96 225h135l-93 -224l93 -228h-135z" />
    <glyph glyph-name="logicalnot" unicode="&#xac;" horiz-adv-x="500" 
d="M315 166v155h-265v121h389v-276h-124z" />
    <glyph glyph-name="uni00AD" unicode="&#xad;" horiz-adv-x="315" 
d="M29 232v134h257v-134h-257z" />
    <glyph glyph-name="registered" unicode="&#xae;" horiz-adv-x="440" 
d="M220 290q-85 0 -137 60.5t-52 160.5t52 160.5t137 60.5t137 -60.5t52 -160.5t-52 -160.5t-137 -60.5zM220 343q62 0 96 43.5t34 124.5t-34 124.5t-96 43.5t-96 -43.5t-34 -124.5t34 -124.5t96 -43.5zM251 408l-26 71h-20v-71h-55v212h79q33 0 52.5 -18.5t19.5 -49.5
q0 -41 -29 -59l37 -85h-58zM223 524q22 0 22 26q0 25 -22 25h-18v-51h18z" />
    <glyph glyph-name="macron" unicode="&#xaf;" horiz-adv-x="497" 
d="M130 612v103h238v-103h-238z" />
    <glyph glyph-name="degree" unicode="&#xb0;" horiz-adv-x="298" 
d="M284 580q0 -57 -38.5 -95.5t-96.5 -38.5t-96.5 38.5t-38.5 95.5t38.5 95.5t96.5 38.5t96.5 -38.5t38.5 -95.5zM149 528q21 0 35 15t14 37t-14 37t-35 15t-35 -15t-14 -37t14 -37t35 -15z" />
    <glyph glyph-name="plusminus" unicode="&#xb1;" horiz-adv-x="500" 
d="M53 0v119h135v162h-145v119h145v167h124v-167h145v-119h-145v-162h135v-119h-394z" />
    <glyph glyph-name="uni00B2" unicode="&#xb2;" 
d="M51 406v76q57 53 86 83q48 49 63.5 73.5t15.5 53.5q0 23 -9.5 36t-27.5 13q-19 0 -30 -13.5t-16 -44.5l-89 11q11 65 46.5 98t93.5 33q57 0 91.5 -34.5t34.5 -90.5q0 -77 -81 -159q-10 -11 -21 -21.5t-29 -27.5h139l-9 -86h-258z" />
    <glyph glyph-name="uni00B3" unicode="&#xb3;" 
d="M148 576v76h31q18 0 27.5 12t9.5 35q0 22 -10 34t-28 12q-19 0 -29.5 -12.5t-14.5 -40.5l-89 11q10 60 45 91t93 31t93.5 -31.5t35.5 -83.5q0 -28 -13.5 -52t-38.5 -39q30 -13 46 -38t16 -57q0 -60 -39 -95.5t-103 -35.5t-100 37.5t-39 105.5h90q5 -63 49 -63q43 0 43 53
q0 24 -11.5 37t-31.5 13h-32z" />
    <glyph glyph-name="acute" unicode="&#xb4;" horiz-adv-x="497" 
d="M132 587l97 159h136l-127 -159h-106z" />
    <glyph glyph-name="mu" unicode="&#xb5;" horiz-adv-x="489" 
d="M308 0v57q-20 -32 -48.5 -50.5t-57.5 -18.5q-16 0 -25 3v-185h-124v716h132v-368q0 -67 51 -67q29 0 48.5 22.5t19.5 55.5v357h132v-522h-128z" />
    <glyph glyph-name="paragraph" unicode="&#xb6;" horiz-adv-x="567" 
d="M407 -139v739h-70v-739h-122v396q-95 9 -148 68t-53 157q0 112 70 172t201 60h244v-853h-122z" />
    <glyph glyph-name="periodcentered" unicode="&#xb7;" horiz-adv-x="229" 
d="M48 294v158h133v-158h-133z" />
    <glyph glyph-name="cedilla" unicode="&#xb8;" horiz-adv-x="497" 
d="M160 -143q24 -4 50 -4q17 0 26 7t9 20q0 28 -43 28h-24l33 104l67 -12l-15 -48q75 -14 75 -80q0 -43 -30.5 -66t-88.5 -23q-28 0 -59 6v68z" />
    <glyph glyph-name="uni00B9" unicode="&#xb9;" 
d="M167 406v298l-81 -50l-44 73l132 85h93v-406h-100z" />
    <glyph glyph-name="ordmasculine" unicode="&#xba;" horiz-adv-x="378" 
d="M186 322q-75 0 -115 52.5t-40 151.5t42 152.5t119 53.5q75 0 115 -52.5t40 -151.5t-42 -152.5t-119 -53.5zM188 413q29 0 41 25.5t12 87.5t-11.5 88.5t-39.5 26.5q-29 0 -41 -25.5t-12 -87.5t11.5 -88.5t39.5 -26.5z" />
    <glyph glyph-name="guillemotright" unicode="&#xbb;" horiz-adv-x="474" 
d="M26 30l93 224l-93 228h135l96 -227l-96 -225h-135zM223 30l93 224l-93 228h135l96 -227l-96 -225h-135z" />
    <glyph glyph-name="onequarter" unicode="&#xbc;" horiz-adv-x="842" 
d="M232 0l299 691h112l-299 -691h-112zM688 0v88h-165v69l153 249h101v-243h40l-8 -75h-32v-88h-89zM689 292l-80 -129h80v129zM167 285v298l-81 -50l-44 73l132 85h93v-406h-100z" />
    <glyph glyph-name="onehalf" unicode="&#xbd;" horiz-adv-x="842" 
d="M212 0l299 691h112l-299 -691h-112zM541 0v76q57 53 86 83q48 49 63.5 73.5t15.5 53.5q0 23 -9.5 36t-27.5 13q-19 0 -30 -13.5t-16 -44.5l-89 11q11 65 46.5 98t93.5 33q57 0 91.5 -34.5t34.5 -90.5q0 -77 -81 -159q-10 -11 -21 -21.5t-29 -27.5h139l-9 -86h-258z
M167 285v298l-81 -50l-44 73l132 85h93v-406h-100z" />
    <glyph glyph-name="threequarters" unicode="&#xbe;" horiz-adv-x="842" 
d="M243 0l299 691h112l-299 -691h-112zM688 0v88h-165v69l153 249h101v-243h40l-8 -75h-32v-88h-89zM689 292l-80 -129h80v129zM148 455v76h31q18 0 27.5 12t9.5 35q0 22 -10 34t-28 12q-19 0 -29.5 -12.5t-14.5 -40.5l-89 11q10 60 45 91t93 31t93.5 -31.5t35.5 -83.5
q0 -28 -13.5 -52t-38.5 -39q30 -13 46 -38t16 -57q0 -60 -39 -95.5t-103 -35.5t-100 37.5t-39 105.5h90q5 -63 49 -63q43 0 43 53q0 24 -11.5 37t-31.5 13h-32z" />
    <glyph glyph-name="questiondown" unicode="&#xbf;" horiz-adv-x="419" 
d="M411 -2q-12 -99 -65 -150.5t-144 -51.5q-85 0 -136 49t-51 129q0 48 16.5 86t61.5 94q32 39 44.5 68.5t12.5 67.5v16h121v-24q0 -49 -12 -81.5t-47 -76.5q-38 -48 -50 -73t-12 -59q0 -79 61 -79q34 0 52.5 23.5t25.5 75.5zM144 364v158h133v-158h-133z" />
    <glyph glyph-name="Agrave" unicode="&#xc0;" horiz-adv-x="569" 
d="M420 0l-37 162h-200l-39 -162h-138l198 714h166l193 -714h-143zM284 589l-74 -311h146zM253 773l-130 149h147l98 -149h-115z" />
    <glyph glyph-name="Aacute" unicode="&#xc1;" horiz-adv-x="569" 
d="M420 0l-37 162h-200l-39 -162h-138l198 714h166l193 -714h-143zM284 589l-74 -311h146zM206 773l98 149h147l-130 -149h-115z" />
    <glyph glyph-name="Acircumflex" unicode="&#xc2;" horiz-adv-x="569" 
d="M420 0l-37 162h-200l-39 -162h-138l198 714h166l193 -714h-143zM284 589l-74 -311h146zM333 773l-47 78l-47 -78h-112l98 149h125l97 -149h-114z" />
    <glyph glyph-name="Atilde" unicode="&#xc3;" horiz-adv-x="569" 
d="M420 0l-37 162h-200l-39 -162h-138l198 714h166l193 -714h-143zM284 589l-74 -311h146zM446 912q-1 -69 -25 -105.5t-69 -36.5q-33 0 -71 28q-15 11 -23.5 15t-16.5 4q-27 0 -27 -46h-86q1 69 25 105.5t69 36.5q33 0 71 -28q15 -11 23.5 -15t16.5 -4q27 0 27 46h86z" />
    <glyph glyph-name="Adieresis" unicode="&#xc4;" horiz-adv-x="569" 
d="M420 0l-37 162h-200l-39 -162h-138l198 714h166l193 -714h-143zM284 589l-74 -311h146zM128 780v126h127v-126h-127zM319 780v126h127v-126h-127z" />
    <glyph glyph-name="Aring" unicode="&#xc5;" horiz-adv-x="569" 
d="M420 0l-37 162h-200l-39 -162h-138l198 702q-22 31 -22 73q0 51 29.5 84t75.5 33t75.5 -33t29.5 -84q0 -44 -23 -73l194 -702h-143zM284 589l-74 -311h146zM287 724q16 0 25.5 13.5t9.5 37.5t-9.5 37.5t-25.5 13.5t-25.5 -13.5t-9.5 -37.5t9.5 -37.5t25.5 -13.5z" />
    <glyph glyph-name="AE" unicode="&#xc6;" horiz-adv-x="838" 
d="M421 0v183h-204l-70 -183h-141l296 714h494v-126h-234v-159h218v-126h-218v-177h251l-15 -126h-377zM421 588h-49l-111 -289h160v289z" />
    <glyph glyph-name="Ccedilla" unicode="&#xc7;" horiz-adv-x="571" 
d="M551 259q-9 -134 -74 -205.5t-176 -71.5q-129 0 -195 94t-66 278q0 183 68.5 280.5t198.5 97.5q203 0 238 -257l-139 -18q-12 79 -36 114t-66 35q-60 0 -88.5 -60.5t-28.5 -187.5q0 -128 29 -189t90 -61q47 0 73 37t32 114h140zM216 -151q29 -4 51 -4q36 0 36 29
q0 30 -45 30h-25l35 108l71 -12l-15 -49q77 -15 77 -85q0 -44 -32 -68t-92 -24q-25 0 -61 6v69z" />
    <glyph glyph-name="Egrave" unicode="&#xc8;" horiz-adv-x="501" 
d="M67 0v714h392v-126h-251v-159h235v-126h-235v-177h268l-15 -126h-394zM229 773l-130 149h147l98 -149h-115z" />
    <glyph glyph-name="Eacute" unicode="&#xc9;" horiz-adv-x="501" 
d="M67 0v714h392v-126h-251v-159h235v-126h-235v-177h268l-15 -126h-394zM182 773l98 149h147l-130 -149h-115z" />
    <glyph glyph-name="Ecircumflex" unicode="&#xca;" horiz-adv-x="501" 
d="M67 0v714h392v-126h-251v-159h235v-126h-235v-177h268l-15 -126h-394zM309 773l-47 78l-47 -78h-112l98 149h125l97 -149h-114z" />
    <glyph glyph-name="Edieresis" unicode="&#xcb;" horiz-adv-x="501" 
d="M67 0v714h392v-126h-251v-159h235v-126h-235v-177h268l-15 -126h-394zM104 780v126h127v-126h-127zM295 780v126h127v-126h-127z" />
    <glyph glyph-name="Igrave" unicode="&#xcc;" horiz-adv-x="275" 
d="M67 0v714h141v-714h-141zM104 773l-130 149h147l98 -149h-115z" />
    <glyph glyph-name="Iacute" unicode="&#xcd;" horiz-adv-x="275" 
d="M67 0v714h141v-714h-141zM57 773l98 149h147l-130 -149h-115z" />
    <glyph glyph-name="Icircumflex" unicode="&#xce;" horiz-adv-x="275" 
d="M67 0v714h141v-714h-141zM184 773l-47 78l-47 -78h-112l98 149h125l97 -149h-114z" />
    <glyph glyph-name="Idieresis" unicode="&#xcf;" horiz-adv-x="275" 
d="M67 0v714h141v-714h-141zM-21 780v126h127v-126h-127zM170 780v126h127v-126h-127z" />
    <glyph glyph-name="Eth" unicode="&#xd0;" horiz-adv-x="617" 
d="M80 0v307h-63v120h63v287h204q142 0 217.5 -90.5t75.5 -261.5t-79.5 -266.5t-221.5 -95.5h-196zM282 126q148 0 148 234q0 228 -141 228h-68v-161h96v-120h-96v-181h61z" />
    <glyph glyph-name="Ntilde" unicode="&#xd1;" horiz-adv-x="610" 
d="M411 0l-216 467v-467h-128v714h132l216 -467v467h128v-714h-132zM464 912q-1 -69 -25 -105.5t-69 -36.5q-33 0 -71 28q-15 11 -23.5 15t-16.5 4q-27 0 -27 -46h-86q1 69 25 105.5t69 36.5q33 0 71 -28q15 -11 23.5 -15t16.5 -4q27 0 27 46h86z" />
    <glyph glyph-name="Ograve" unicode="&#xd2;" horiz-adv-x="626" 
d="M310 -18q-132 0 -201 95t-69 278q0 184 70.5 280.5t205.5 96.5q132 0 201 -95t69 -278q0 -184 -70.5 -280.5t-205.5 -96.5zM312 108q67 0 97 59.5t30 190.5t-29.5 189.5t-95.5 58.5q-67 0 -97 -59.5t-30 -190.5t29.5 -189.5t95.5 -58.5zM279 773l-130 149h147l98 -149
h-115z" />
    <glyph glyph-name="Oacute" unicode="&#xd3;" horiz-adv-x="626" 
d="M310 -18q-132 0 -201 95t-69 278q0 184 70.5 280.5t205.5 96.5q132 0 201 -95t69 -278q0 -184 -70.5 -280.5t-205.5 -96.5zM312 108q67 0 97 59.5t30 190.5t-29.5 189.5t-95.5 58.5q-67 0 -97 -59.5t-30 -190.5t29.5 -189.5t95.5 -58.5zM232 773l98 149h147l-130 -149
h-115z" />
    <glyph glyph-name="Ocircumflex" unicode="&#xd4;" horiz-adv-x="626" 
d="M310 -18q-132 0 -201 95t-69 278q0 184 70.5 280.5t205.5 96.5q132 0 201 -95t69 -278q0 -184 -70.5 -280.5t-205.5 -96.5zM312 108q67 0 97 59.5t30 190.5t-29.5 189.5t-95.5 58.5q-67 0 -97 -59.5t-30 -190.5t29.5 -189.5t95.5 -58.5zM359 773l-47 78l-47 -78h-112
l98 149h125l97 -149h-114z" />
    <glyph glyph-name="Otilde" unicode="&#xd5;" horiz-adv-x="626" 
d="M310 -18q-132 0 -201 95t-69 278q0 184 70.5 280.5t205.5 96.5q132 0 201 -95t69 -278q0 -184 -70.5 -280.5t-205.5 -96.5zM312 108q67 0 97 59.5t30 190.5t-29.5 189.5t-95.5 58.5q-67 0 -97 -59.5t-30 -190.5t29.5 -189.5t95.5 -58.5zM472 912q-1 -69 -25 -105.5
t-69 -36.5q-33 0 -71 28q-15 11 -23.5 15t-16.5 4q-27 0 -27 -46h-86q1 69 25 105.5t69 36.5q33 0 71 -28q15 -11 23.5 -15t16.5 -4q27 0 27 46h86z" />
    <glyph glyph-name="Odieresis" unicode="&#xd6;" horiz-adv-x="626" 
d="M310 -18q-132 0 -201 95t-69 278q0 184 70.5 280.5t205.5 96.5q132 0 201 -95t69 -278q0 -184 -70.5 -280.5t-205.5 -96.5zM312 108q67 0 97 59.5t30 190.5t-29.5 189.5t-95.5 58.5q-67 0 -97 -59.5t-30 -190.5t29.5 -189.5t95.5 -58.5zM154 780v126h127v-126h-127z
M345 780v126h127v-126h-127z" />
    <glyph glyph-name="multiply" unicode="&#xd7;" horiz-adv-x="500" 
d="M250 254l-126 -126l-87 87l126 126l-126 126l87 87l126 -126l126 126l87 -87l-126 -126l126 -126l-87 -87z" />
    <glyph glyph-name="Oslash" unicode="&#xd8;" horiz-adv-x="626" 
d="M73 -24l46 88q-79 96 -79 291q0 184 70.5 280.5t205.5 96.5q73 0 132 -32l39 75l66 -37l-46 -88q79 -96 79 -291q0 -184 -70.5 -280.5t-205.5 -96.5q-73 0 -132 32l-39 -75zM387 583q-27 26 -73 26q-67 0 -99 -61.5t-32 -191.5q0 -91 13 -142zM239 131q27 -26 73 -26
q67 0 99 61.5t32 191.5q0 91 -13 142z" />
    <glyph glyph-name="Ugrave" unicode="&#xd9;" horiz-adv-x="592" 
d="M396 714h141v-458q0 -133 -62 -203.5t-179 -70.5t-179 70.5t-62 203.5v458h141v-468q0 -70 24.5 -104t75.5 -34t75.5 34t24.5 104v468zM262 773l-130 149h147l98 -149h-115z" />
    <glyph glyph-name="Uacute" unicode="&#xda;" horiz-adv-x="592" 
d="M396 714h141v-458q0 -133 -62 -203.5t-179 -70.5t-179 70.5t-62 203.5v458h141v-468q0 -70 24.5 -104t75.5 -34t75.5 34t24.5 104v468zM215 773l98 149h147l-130 -149h-115z" />
    <glyph glyph-name="Ucircumflex" unicode="&#xdb;" horiz-adv-x="592" 
d="M396 714h141v-458q0 -133 -62 -203.5t-179 -70.5t-179 70.5t-62 203.5v458h141v-468q0 -70 24.5 -104t75.5 -34t75.5 34t24.5 104v468zM342 773l-47 78l-47 -78h-112l98 149h125l97 -149h-114z" />
    <glyph glyph-name="Udieresis" unicode="&#xdc;" horiz-adv-x="592" 
d="M396 714h141v-458q0 -133 -62 -203.5t-179 -70.5t-179 70.5t-62 203.5v458h141v-468q0 -70 24.5 -104t75.5 -34t75.5 34t24.5 104v468zM137 780v126h127v-126h-127zM328 780v126h127v-126h-127z" />
    <glyph glyph-name="Yacute" unicode="&#xdd;" horiz-adv-x="520" 
d="M190 0v284l-187 430h152l109 -299l109 299h144l-186 -430v-284h-141zM180 773l98 149h147l-130 -149h-115z" />
    <glyph glyph-name="Thorn" unicode="&#xde;" horiz-adv-x="527" 
d="M67 0v714h136v-121h60q114 0 177.5 -60t63.5 -168q0 -109 -64.5 -172t-175.5 -63h-61v-130h-136zM258 249q110 0 110 114q0 111 -110 111h-55v-225h55z" />
    <glyph glyph-name="germandbls" unicode="&#xdf;" horiz-adv-x="502" 
d="M229 101q22 -7 42 -7q77 0 77 117q0 58 -24 85t-74 27h-25v106h18q32 0 49 25t17 72q0 87 -62 87q-37 0 -54.5 -25.5t-17.5 -78.5v-509h-128v502q0 103 54.5 161.5t150.5 58.5q85 0 135 -48.5t50 -130.5q0 -98 -80 -148q60 -17 92 -66.5t32 -123.5q0 -103 -50 -162
t-137 -59q-38 0 -81 15z" />
    <glyph glyph-name="agrave" unicode="&#xe0;" horiz-adv-x="459" 
d="M289 0v58q-23 -34 -55.5 -52.5t-70.5 -18.5q-64 0 -100 41t-36 114q0 79 52.5 124.5t150.5 53.5l54 4v31q0 47 -14 69t-45 22q-28 0 -43 -17t-21 -54l-118 10q12 78 58 115.5t129 37.5q92 0 135.5 -47.5t43.5 -148.5v-342h-120zM284 241l-40 -4q-45 -4 -69.5 -26
t-24.5 -59q0 -33 14 -50.5t41 -17.5q36 0 57.5 28.5t21.5 77.5v51zM202 587l-127 159h136l97 -159h-106z" />
    <glyph glyph-name="aacute" unicode="&#xe1;" horiz-adv-x="459" 
d="M289 0v58q-23 -34 -55.5 -52.5t-70.5 -18.5q-64 0 -100 41t-36 114q0 79 52.5 124.5t150.5 53.5l54 4v31q0 47 -14 69t-45 22q-28 0 -43 -17t-21 -54l-118 10q12 78 58 115.5t129 37.5q92 0 135.5 -47.5t43.5 -148.5v-342h-120zM284 241l-40 -4q-45 -4 -69.5 -26
t-24.5 -59q0 -33 14 -50.5t41 -17.5q36 0 57.5 28.5t21.5 77.5v51zM150 587l97 159h136l-127 -159h-106z" />
    <glyph glyph-name="acircumflex" unicode="&#xe2;" horiz-adv-x="459" 
d="M289 0v58q-23 -34 -55.5 -52.5t-70.5 -18.5q-64 0 -100 41t-36 114q0 79 52.5 124.5t150.5 53.5l54 4v31q0 47 -14 69t-45 22q-28 0 -43 -17t-21 -54l-118 10q12 78 58 115.5t129 37.5q92 0 135.5 -47.5t43.5 -148.5v-342h-120zM284 241l-40 -4q-45 -4 -69.5 -26
t-24.5 -59q0 -33 14 -50.5t41 -17.5q36 0 57.5 28.5t21.5 77.5v51zM277 587l-48 88l-49 -88h-108l100 159h116l98 -159h-109z" />
    <glyph glyph-name="atilde" unicode="&#xe3;" horiz-adv-x="459" 
d="M289 0v58q-23 -34 -55.5 -52.5t-70.5 -18.5q-64 0 -100 41t-36 114q0 79 52.5 124.5t150.5 53.5l54 4v31q0 47 -14 69t-45 22q-28 0 -43 -17t-21 -54l-118 10q12 78 58 115.5t129 37.5q92 0 135.5 -47.5t43.5 -148.5v-342h-120zM284 241l-40 -4q-45 -4 -69.5 -26
t-24.5 -59q0 -33 14 -50.5t41 -17.5q36 0 57.5 28.5t21.5 77.5v51zM384 733q0 -69 -23 -105.5t-67 -36.5q-16 0 -31 6t-38 22q-27 20 -41 20q-27 0 -27 -46h-83q0 69 23 105.5t67 36.5q16 0 31 -6t38 -22q27 -20 41 -20q27 0 27 46h83z" />
    <glyph glyph-name="adieresis" unicode="&#xe4;" horiz-adv-x="459" 
d="M289 0v58q-23 -34 -55.5 -52.5t-70.5 -18.5q-64 0 -100 41t-36 114q0 79 52.5 124.5t150.5 53.5l54 4v31q0 47 -14 69t-45 22q-28 0 -43 -17t-21 -54l-118 10q12 78 58 115.5t129 37.5q92 0 135.5 -47.5t43.5 -148.5v-342h-120zM284 241l-40 -4q-45 -4 -69.5 -26
t-24.5 -59q0 -33 14 -50.5t41 -17.5q36 0 57.5 28.5t21.5 77.5v51zM79 600v114h121v-114h-121zM258 600v114h121v-114h-121z" />
    <glyph glyph-name="aring" unicode="&#xe5;" horiz-adv-x="459" 
d="M289 0v58q-23 -34 -55.5 -52.5t-70.5 -18.5q-64 0 -100 41t-36 114q0 79 52.5 124.5t150.5 53.5l54 4v31q0 47 -14 69t-45 22q-28 0 -43 -17t-21 -54l-118 10q12 78 58 115.5t129 37.5q92 0 135.5 -47.5t43.5 -148.5v-342h-120zM284 241l-40 -4q-45 -4 -69.5 -26
t-24.5 -59q0 -33 14 -50.5t41 -17.5q36 0 57.5 28.5t21.5 77.5v51zM229 579q-45 0 -74 32t-29 81t29 81t74 32t74 -32t29 -81t-29 -81t-74 -32zM229 645q15 0 24 12.5t9 34.5t-9 34.5t-24 12.5t-24 -12.5t-9 -34.5t9 -34.5t24 -12.5z" />
    <glyph glyph-name="ae" unicode="&#xe6;" horiz-adv-x="699" 
d="M670 159q-8 -86 -56 -130.5t-133 -44.5q-52 0 -91.5 24.5t-56.5 67.5q-25 -43 -65.5 -66t-92.5 -23q-69 0 -108.5 41.5t-39.5 114.5q0 78 52 124t150 53l53 4v31q0 47 -14 69t-44 22q-28 0 -42.5 -16.5t-20.5 -54.5l-118 10q12 78 57.5 115.5t128.5 37.5q90 0 127 -69
q20 32 54 50.5t74 18.5q93 0 140.5 -65t47.5 -192v-51h-268q2 -152 77 -152q30 0 45 18.5t20 62.5h124zM282 241l-39 -4q-93 -9 -93 -85q0 -68 54 -68q36 0 57 29t21 78v50zM547 310q0 71 -16.5 103.5t-51.5 32.5q-36 0 -53 -31.5t-21 -104.5h142z" />
    <glyph glyph-name="ccedilla" unicode="&#xe7;" horiz-adv-x="444" 
d="M426 197q-15 -213 -190 -213q-202 0 -202 274q0 139 52 209.5t154 70.5q163 0 182 -196l-123 -13q-6 59 -20 84t-42 25q-37 0 -52.5 -40.5t-15.5 -137.5q0 -96 16 -136t54 -40q29 0 44 27t19 86h124zM159 -143q24 -4 50 -4q17 0 26 7t9 20q0 28 -43 28h-24l33 104l67 -12
l-15 -48q75 -14 75 -80q0 -43 -30.5 -66t-88.5 -23q-28 0 -59 6v68z" />
    <glyph glyph-name="egrave" unicode="&#xe8;" horiz-adv-x="458" 
d="M429 159q-8 -86 -56.5 -130.5t-134.5 -44.5q-104 0 -154 66.5t-50 205.5q0 138 53 210t155 72q94 0 141.5 -65t47.5 -192v-51h-268q2 -152 77 -152q30 0 45 18.5t20 62.5h124zM306 310q0 71 -16.5 103.5t-51.5 32.5q-36 0 -53 -31.5t-21 -104.5h142zM214 587l-127 159
h136l97 -159h-106z" />
    <glyph glyph-name="eacute" unicode="&#xe9;" horiz-adv-x="458" 
d="M429 159q-8 -86 -56.5 -130.5t-134.5 -44.5q-104 0 -154 66.5t-50 205.5q0 138 53 210t155 72q94 0 141.5 -65t47.5 -192v-51h-268q2 -152 77 -152q30 0 45 18.5t20 62.5h124zM306 310q0 71 -16.5 103.5t-51.5 32.5q-36 0 -53 -31.5t-21 -104.5h142zM162 587l97 159h136
l-127 -159h-106z" />
    <glyph glyph-name="ecircumflex" unicode="&#xea;" horiz-adv-x="458" 
d="M429 159q-8 -86 -56.5 -130.5t-134.5 -44.5q-104 0 -154 66.5t-50 205.5q0 138 53 210t155 72q94 0 141.5 -65t47.5 -192v-51h-268q2 -152 77 -152q30 0 45 18.5t20 62.5h124zM306 310q0 71 -16.5 103.5t-51.5 32.5q-36 0 -53 -31.5t-21 -104.5h142zM289 587l-48 88
l-49 -88h-108l100 159h116l98 -159h-109z" />
    <glyph glyph-name="edieresis" unicode="&#xeb;" horiz-adv-x="458" 
d="M429 159q-8 -86 -56.5 -130.5t-134.5 -44.5q-104 0 -154 66.5t-50 205.5q0 138 53 210t155 72q94 0 141.5 -65t47.5 -192v-51h-268q2 -152 77 -152q30 0 45 18.5t20 62.5h124zM306 310q0 71 -16.5 103.5t-51.5 32.5q-36 0 -53 -31.5t-21 -104.5h142zM91 600v114h121v-114
h-121zM270 600v114h121v-114h-121z" />
    <glyph glyph-name="igrave" unicode="&#xec;" horiz-adv-x="238" 
d="M53 0v522h132v-522h-132zM92 587l-127 159h136l97 -159h-106z" />
    <glyph glyph-name="iacute" unicode="&#xed;" horiz-adv-x="238" 
d="M53 0v522h132v-522h-132zM40 587l97 159h136l-127 -159h-106z" />
    <glyph glyph-name="icircumflex" unicode="&#xee;" horiz-adv-x="238" 
d="M53 0v522h132v-522h-132zM167 587l-48 88l-49 -88h-108l100 159h116l98 -159h-109z" />
    <glyph glyph-name="idieresis" unicode="&#xef;" horiz-adv-x="238" 
d="M53 0v522h132v-522h-132zM-31 600v114h121v-114h-121zM148 600v114h121v-114h-121z" />
    <glyph glyph-name="eth" unicode="&#xf0;" horiz-adv-x="486" 
d="M146 562l48 54q-45 17 -99 23l20 101q84 -9 153 -42l60 68l47 -44l-53 -59q67 -54 98.5 -150.5t31.5 -246.5q0 -139 -53.5 -210.5t-157.5 -71.5q-102 0 -154.5 64t-52.5 188q0 119 49.5 187.5t135.5 68.5q32 0 60.5 -14t45.5 -38q-5 49 -22.5 83.5t-50.5 61.5l-59 -65z
M242 84q40 0 57.5 35.5t17.5 118.5q0 82 -17 118t-56 36q-40 0 -57.5 -36t-17.5 -119t16.5 -118t56.5 -35z" />
    <glyph glyph-name="ntilde" unicode="&#xf1;" horiz-adv-x="497" 
d="M315 0v377q0 29 -13 44t-38 15q-32 0 -55.5 -22.5t-23.5 -52.5v-361h-132v522h128v-57q26 35 60.5 54t72.5 19q62 0 97.5 -39.5t35.5 -108.5v-390h-132zM405 733q0 -69 -23 -105.5t-67 -36.5q-16 0 -31 6t-38 22q-27 20 -41 20q-27 0 -27 -46h-83q0 69 23 105.5t67 36.5
q16 0 31 -6t38 -22q27 -20 41 -20q27 0 27 46h83z" />
    <glyph glyph-name="ograve" unicode="&#xf2;" horiz-adv-x="483" 
d="M240 -16q-105 0 -155.5 67.5t-50.5 207.5q0 138 53 208.5t156 70.5q105 0 155.5 -67.5t50.5 -207.5q0 -138 -53 -208.5t-156 -70.5zM241 84q28 0 43.5 18t22.5 56.5t7 103.5q0 97 -16 136.5t-56 39.5q-28 0 -43.5 -18t-22.5 -56.5t-7 -103.5q0 -97 16 -136.5t56 -39.5z
M215 587l-127 159h136l97 -159h-106z" />
    <glyph glyph-name="oacute" unicode="&#xf3;" horiz-adv-x="483" 
d="M240 -16q-105 0 -155.5 67.5t-50.5 207.5q0 138 53 208.5t156 70.5q105 0 155.5 -67.5t50.5 -207.5q0 -138 -53 -208.5t-156 -70.5zM241 84q28 0 43.5 18t22.5 56.5t7 103.5q0 97 -16 136.5t-56 39.5q-28 0 -43.5 -18t-22.5 -56.5t-7 -103.5q0 -97 16 -136.5t56 -39.5z
M163 587l97 159h136l-127 -159h-106z" />
    <glyph glyph-name="ocircumflex" unicode="&#xf4;" horiz-adv-x="483" 
d="M240 -16q-105 0 -155.5 67.5t-50.5 207.5q0 138 53 208.5t156 70.5q105 0 155.5 -67.5t50.5 -207.5q0 -138 -53 -208.5t-156 -70.5zM241 84q28 0 43.5 18t22.5 56.5t7 103.5q0 97 -16 136.5t-56 39.5q-28 0 -43.5 -18t-22.5 -56.5t-7 -103.5q0 -97 16 -136.5t56 -39.5z
M290 587l-48 88l-49 -88h-108l100 159h116l98 -159h-109z" />
    <glyph glyph-name="otilde" unicode="&#xf5;" horiz-adv-x="483" 
d="M240 -16q-105 0 -155.5 67.5t-50.5 207.5q0 138 53 208.5t156 70.5q105 0 155.5 -67.5t50.5 -207.5q0 -138 -53 -208.5t-156 -70.5zM241 84q28 0 43.5 18t22.5 56.5t7 103.5q0 97 -16 136.5t-56 39.5q-28 0 -43.5 -18t-22.5 -56.5t-7 -103.5q0 -97 16 -136.5t56 -39.5z
M397 733q0 -69 -23 -105.5t-67 -36.5q-16 0 -31 6t-38 22q-27 20 -41 20q-27 0 -27 -46h-83q0 69 23 105.5t67 36.5q16 0 31 -6t38 -22q27 -20 41 -20q27 0 27 46h83z" />
    <glyph glyph-name="odieresis" unicode="&#xf6;" horiz-adv-x="483" 
d="M240 -16q-105 0 -155.5 67.5t-50.5 207.5q0 138 53 208.5t156 70.5q105 0 155.5 -67.5t50.5 -207.5q0 -138 -53 -208.5t-156 -70.5zM241 84q28 0 43.5 18t22.5 56.5t7 103.5q0 97 -16 136.5t-56 39.5q-28 0 -43.5 -18t-22.5 -56.5t-7 -103.5q0 -97 16 -136.5t56 -39.5z
M92 600v114h121v-114h-121zM271 600v114h121v-114h-121z" />
    <glyph glyph-name="divide" unicode="&#xf7;" horiz-adv-x="500" 
d="M43 281v119h414v-119h-414zM192 85v122h116v-122h-116zM192 474v122h116v-122h-116z" />
    <glyph glyph-name="oslash" unicode="&#xf8;" horiz-adv-x="483" 
d="M52 -31l39 75q-57 68 -57 215q0 138 53 208.5t156 70.5q59 0 96 -19l34 66l58 -32l-39 -75q57 -67 57 -215q0 -138 -53 -208.5t-156 -70.5q-59 0 -96 19l-34 -66zM287 421q-16 19 -45 19q-41 0 -58.5 -42t-17.5 -138q0 -38 3 -67zM196 101q16 -19 45 -19q41 0 58.5 42
t17.5 138q0 23 -2 67z" />
    <glyph glyph-name="ugrave" unicode="&#xf9;" horiz-adv-x="486" 
d="M305 0v57q-24 -35 -57 -54t-69 -19q-61 0 -95 43t-34 119v376h132v-368q0 -67 51 -67q29 0 48.5 22.5t19.5 55.5v357h132v-522h-128zM215 587l-127 159h136l97 -159h-106z" />
    <glyph glyph-name="uacute" unicode="&#xfa;" horiz-adv-x="486" 
d="M305 0v57q-24 -35 -57 -54t-69 -19q-61 0 -95 43t-34 119v376h132v-368q0 -67 51 -67q29 0 48.5 22.5t19.5 55.5v357h132v-522h-128zM163 587l97 159h136l-127 -159h-106z" />
    <glyph glyph-name="ucircumflex" unicode="&#xfb;" horiz-adv-x="486" 
d="M305 0v57q-24 -35 -57 -54t-69 -19q-61 0 -95 43t-34 119v376h132v-368q0 -67 51 -67q29 0 48.5 22.5t19.5 55.5v357h132v-522h-128zM290 587l-48 88l-49 -88h-108l100 159h116l98 -159h-109z" />
    <glyph glyph-name="udieresis" unicode="&#xfc;" horiz-adv-x="486" 
d="M305 0v57q-24 -35 -57 -54t-69 -19q-61 0 -95 43t-34 119v376h132v-368q0 -67 51 -67q29 0 48.5 22.5t19.5 55.5v357h132v-522h-128zM92 600v114h121v-114h-121zM271 600v114h121v-114h-121z" />
    <glyph glyph-name="yacute" unicode="&#xfd;" horiz-adv-x="444" 
d="M176 11l-172 511h138l90 -364l78 364h130l-163 -557q-27 -93 -62.5 -131t-95.5 -38q-44 0 -89 16l21 98q27 -8 49 -8q23 0 37 13.5t24 45.5zM147 587l97 159h136l-127 -159h-106z" />
    <glyph glyph-name="thorn" unicode="&#xfe;" horiz-adv-x="495" 
d="M53 -194v908h132v-246q20 33 50.5 51.5t65.5 18.5q78 0 119 -69t41 -202q0 -137 -43 -210t-123 -73q-30 0 -58.5 16t-51.5 46v-240h-132zM183 237q0 -79 17 -115.5t54 -36.5q38 0 55 41t17 135t-17 135t-55 41q-37 0 -54 -36t-17 -115v-49z" />
    <glyph glyph-name="ydieresis" unicode="&#xff;" horiz-adv-x="444" 
d="M176 11l-172 511h138l90 -364l78 364h130l-163 -557q-27 -93 -62.5 -131t-95.5 -38q-44 0 -89 16l21 98q27 -8 49 -8q23 0 37 13.5t24 45.5zM76 600v114h121v-114h-121zM255 600v114h121v-114h-121z" />
    <glyph glyph-name="OE" unicode="&#x152;" horiz-adv-x="841" 
d="M424 0v54q-25 -34 -62 -53t-77 -19q-117 0 -181 97.5t-64 275.5q0 179 65.5 278t183.5 99q41 0 77 -18.5t58 -50.5v51h375v-126h-234v-159h218v-126h-218v-177h251l-15 -126h-377zM305 108q62 0 90.5 59.5t28.5 189.5t-28.5 189.5t-90.5 59.5q-61 0 -89.5 -59.5
t-28.5 -189.5q0 -128 28.5 -188.5t89.5 -60.5z" />
    <glyph glyph-name="oe" unicode="&#x153;" horiz-adv-x="740" 
d="M711 159q-8 -86 -56.5 -130.5t-133.5 -44.5q-49 0 -85.5 21.5t-56.5 61.5q-21 -40 -57.5 -61.5t-81.5 -21.5q-105 0 -155.5 67.5t-50.5 207.5q0 138 53 208.5t156 70.5q48 0 86.5 -23t55.5 -62q19 39 56.5 62t82.5 23q94 0 141.5 -65t47.5 -192v-51h-268q2 -152 77 -152
q30 0 45 18.5t20 62.5h124zM241 84q28 0 43.5 18t22.5 56.5t7 103.5q0 97 -16 136.5t-56 39.5q-28 0 -43.5 -18t-22.5 -56.5t-7 -103.5q0 -97 16 -136.5t56 -39.5zM588 310q0 71 -16.5 103.5t-51.5 32.5q-36 0 -53 -31.5t-21 -104.5h142z" />
    <glyph glyph-name="Ydieresis" unicode="&#x178;" horiz-adv-x="520" 
d="M190 0v284l-187 430h152l109 -299l109 299h144l-186 -430v-284h-141zM102 780v126h127v-126h-127zM293 780v126h127v-126h-127z" />
    <glyph glyph-name="uni02BC" unicode="&#x2bc;" horiz-adv-x="497" 
d="M168 451l33 263h129l-58 -263h-104z" />
    <glyph glyph-name="tilde" unicode="&#x2dc;" horiz-adv-x="497" 
d="M404 733q0 -69 -23 -105.5t-67 -36.5q-16 0 -31 6t-38 22q-27 20 -41 20q-27 0 -27 -46h-83q0 69 23 105.5t67 36.5q16 0 31 -6t38 -22q27 -20 41 -20q27 0 27 46h83z" />
    <glyph glyph-name="endash" unicode="&#x2013;" horiz-adv-x="390" 
d="M0 237v126h390v-126h-390z" />
    <glyph glyph-name="emdash" unicode="&#x2014;" horiz-adv-x="780" 
d="M0 237v126h780v-126h-780z" />
    <glyph glyph-name="quoteleft" unicode="&#x2018;" horiz-adv-x="204" 
d="M27 451l51 263h102l-24 -263h-129z" />
    <glyph glyph-name="quoteright" unicode="&#x2019;" horiz-adv-x="204" 
d="M24 451l24 263h129l-51 -263h-102z" />
    <glyph glyph-name="quotedblleft" unicode="&#x201c;" horiz-adv-x="373" 
d="M27 451l51 263h102l-24 -263h-129zM196 451l51 263h102l-24 -263h-129z" />
    <glyph glyph-name="quotedblright" unicode="&#x201d;" horiz-adv-x="373" 
d="M24 451l24 263h129l-51 -263h-102zM193 451l24 263h129l-51 -263h-102z" />
    <glyph glyph-name="quotedblbase" unicode="&#x201e;" horiz-adv-x="373" 
d="M24 -104l24 263h129l-51 -263h-102zM193 -104l24 263h129l-51 -263h-102z" />
    <glyph glyph-name="bullet" unicode="&#x2022;" horiz-adv-x="336" 
d="M168 148q-62 0 -101 41.5t-39 106.5t39 106.5t101 41.5t101 -41.5t39 -106.5t-39 -106.5t-101 -41.5z" />
    <glyph glyph-name="ellipsis" unicode="&#x2026;" horiz-adv-x="780" 
d="M64 0v158h133v-158h-133zM324 0v158h133v-158h-133zM584 0v158h133v-158h-133z" />
    <glyph glyph-name="guilsinglleft" unicode="&#x2039;" horiz-adv-x="277" 
d="M116 30l-96 227l96 225h135l-93 -224l93 -228h-135z" />
    <glyph glyph-name="guilsinglright" unicode="&#x203a;" horiz-adv-x="277" 
d="M26 30l93 224l-93 228h135l96 -227l-96 -225h-135z" />
    <glyph glyph-name="Euro" unicode="&#x20ac;" horiz-adv-x="500" 
d="M490 200q-7 -105 -59.5 -161.5t-144.5 -56.5q-95 0 -149.5 63t-69.5 191h-59l11 73h42v74h-53l11 73h49q16 124 72.5 189t149.5 65q82 0 131 -48.5t63 -143.5l-120 -17q-8 46 -26.5 68t-52.5 22q-36 0 -57.5 -33t-29.5 -102h175l-11 -73h-169v-74h164l-11 -73h-148
q9 -68 31 -101.5t60 -33.5q36 0 55.5 24t24.5 75h121z" />
    <glyph glyph-name="trademark" unicode="&#x2122;" horiz-adv-x="736" 
d="M612 314v262l-63 -262h-71l-62 261v-261h-79v400h113l65 -286l63 286h115v-400h-81zM106 314v312h-93v88h279v-88h-93v-312h-93z" />
    <glyph glyph-name="zero.pnum" horiz-adv-x="514" 
d="M255 -18q-113 0 -166.5 88.5t-53.5 274.5q0 187 54.5 276t169.5 89q113 0 166.5 -88.5t53.5 -274.5q0 -187 -54.5 -276t-169.5 -89zM256 103q49 0 68 53.5t19 189.5q0 95 -8.5 147t-26.5 74t-50 22q-49 0 -68 -53.5t-19 -189.5q0 -95 8.5 -147t26.5 -74t50 -22z" />
    <glyph glyph-name="one.pnum" horiz-adv-x="429" 
d="M210 0v539l-126 -82l-64 100l207 134h116v-691h-133z" />
    <glyph glyph-name="two.pnum" horiz-adv-x="482" 
d="M39 0v102q74 74 146 154q73 82 99 131.5t26 104.5q0 48 -18.5 73.5t-52.5 25.5q-35 0 -55.5 -25.5t-29.5 -80.5l-124 16q14 101 70 155t147 54q89 0 142.5 -56t53.5 -150q0 -68 -30 -130.5t-105 -150.5q-50 -59 -93 -103h242l-14 -120h-404z" />
    <glyph glyph-name="three.pnum" horiz-adv-x="483" 
d="M183 303v108h53q37 0 59 25t22 68q0 40 -21 64.5t-56 24.5q-77 0 -88 -101l-120 15q10 97 66.5 150t148.5 53q57 0 102.5 -23t71.5 -66t26 -98q0 -100 -91 -155q51 -23 78 -67t27 -103q0 -96 -61.5 -156t-159.5 -60q-208 0 -214 232h124q3 -59 25 -87t66 -28
q41 0 63.5 27t22.5 77q0 100 -94 100h-50z" />
    <glyph glyph-name="four.pnum" horiz-adv-x="481" 
d="M284 0v155h-263v105l252 431h133v-431h67l-12 -105h-55v-155h-122zM284 513l-146 -253h146v253z" />
    <glyph glyph-name="five.pnum" horiz-adv-x="490" 
d="M171 191q5 -48 24 -70t56 -22q81 0 81 122q0 58 -21 88.5t-61 30.5q-27 0 -46.5 -11t-35.5 -35h-115l25 397h353v-120h-246l-11 -160q45 39 108 39q86 0 133 -59.5t47 -166.5q0 -115 -55.5 -178.5t-156.5 -63.5q-195 0 -208 209h129z" />
    <glyph glyph-name="six.pnum" horiz-adv-x="499" 
d="M342 515q-7 42 -25.5 61.5t-50.5 19.5q-47 0 -71.5 -48.5t-29.5 -150.5l-1 -19q24 31 58 48.5t71 17.5q82 0 129.5 -59.5t47.5 -163.5q0 -110 -57.5 -174.5t-154.5 -64.5q-112 0 -166 80.5t-54 249.5q0 198 59 298t175 100q158 0 190 -179zM259 96q42 0 64 31.5t22 90.5
q0 58 -22 89t-62 31q-43 0 -66 -31.5t-23 -88.5q0 -58 23 -90t64 -32z" />
    <glyph glyph-name="seven.pnum" horiz-adv-x="454" 
d="M106 0q46 294 194 571h-278v120h413v-110q-77 -147 -123 -287t-67 -294h-139z" />
    <glyph glyph-name="eight.pnum" horiz-adv-x="496" 
d="M364 355q52 -23 79.5 -67.5t27.5 -105.5q0 -95 -58.5 -147.5t-165.5 -52.5q-105 0 -162.5 52t-57.5 148q0 61 27.5 105.5t79.5 67.5q-91 52 -91 163q0 86 57 139t151 53q92 0 148 -52.5t56 -139.5q0 -111 -91 -163zM248 91q46 0 69.5 27t23.5 78q0 50 -23.5 76.5
t-67.5 26.5q-45 0 -69 -26.5t-24 -76.5q0 -105 91 -105zM248 405q85 0 85 98q0 48 -21 73t-62 25t-63 -25.5t-22 -72.5q0 -98 83 -98z" />
    <glyph glyph-name="nine.pnum" horiz-adv-x="499" 
d="M336 314q-23 -31 -57 -48.5t-71 -17.5q-83 0 -130.5 60t-47.5 163q0 110 57.5 174.5t155.5 64.5q111 0 165 -81t54 -248q0 -202 -56 -300.5t-171 -98.5q-172 0 -198 190h122q8 -40 26.5 -58t52.5 -18q46 0 69 47.5t28 151.5zM239 354q43 0 66 31.5t23 88.5q0 58 -23 90
t-64 32q-42 0 -64 -31.5t-22 -90.5q0 -58 22 -89t62 -31z" />
    <glyph glyph-name="uni2080" 
d="M174 -135q-72 0 -109 54.5t-37 160.5t38.5 161.5t111.5 55.5q72 0 109 -54.5t37 -160.5t-38.5 -161.5t-111.5 -55.5zM176 -43q25 0 35.5 28.5t10.5 94.5q0 67 -10.5 96t-35.5 29t-35.5 -28.5t-10.5 -94.5q0 -67 10.5 -96t35.5 -29z" />
    <glyph glyph-name="uni2081" 
d="M167 -122v298l-81 -50l-44 73l132 85h93v-406h-100z" />
    <glyph glyph-name="uni2082" 
d="M51 -122v76q57 53 86 83q48 49 63.5 73.5t15.5 53.5q0 23 -9.5 36t-27.5 13q-19 0 -30 -13.5t-16 -44.5l-89 11q11 65 46.5 98t93.5 33q57 0 91.5 -34.5t34.5 -90.5q0 -77 -81 -159q-10 -11 -21 -21.5t-29 -27.5h139l-9 -86h-258z" />
    <glyph glyph-name="uni2083" 
d="M148 48v76h31q18 0 27.5 12t9.5 35q0 22 -10 34t-28 12q-19 0 -29.5 -12.5t-14.5 -40.5l-89 11q10 60 45 91t93 31t93.5 -31.5t35.5 -83.5q0 -28 -13.5 -52t-38.5 -39q30 -13 46 -38t16 -57q0 -60 -39 -95.5t-103 -35.5t-100 37.5t-39 105.5h90q5 -63 49 -63q43 0 43 53
q0 24 -11.5 37t-31.5 13h-32z" />
    <glyph glyph-name="uni2084" 
d="M198 -122v88h-165v69l153 249h101v-243h40l-8 -75h-32v-88h-89zM199 170l-80 -129h80v129z" />
    <glyph glyph-name="uni2085" 
d="M57 42l16 242h221v-86h-147l-5 -79q26 21 62 21q52 0 81.5 -35t29.5 -97q0 -65 -36.5 -104t-98.5 -39q-59 0 -93 32t-38 91h90q3 -23 13.5 -33.5t29.5 -10.5q41 0 41 62q0 28 -11 43.5t-31 15.5q-27 0 -41 -23h-83z" />
    <glyph glyph-name="uni2086" 
d="M224 175q-4 22 -13 31.5t-26 9.5q-24 0 -36 -25.5t-14 -81.5q12 13 31 20.5t40 7.5q52 0 81 -34.5t29 -96.5q0 -65 -36 -103t-96 -38q-68 0 -104.5 50.5t-36.5 145.5q0 116 37 176t110 60q53 0 83 -27.5t39 -84.5zM183 -56q43 0 43 60q0 62 -44 62q-20 0 -31.5 -16.5
t-11.5 -45.5t11.5 -44.5t32.5 -15.5z" />
    <glyph glyph-name="uni2087" 
d="M99 -122q37 172 112 320h-160v86h262v-73q-40 -82 -66 -161.5t-44 -171.5h-104z" />
    <glyph glyph-name="uni2088" 
d="M253 89q29 -14 45.5 -40t16.5 -60q0 -60 -36.5 -92t-103.5 -32t-102.5 32t-35.5 91q0 35 16 61t46 40q-25 15 -39 39t-14 53q0 54 34.5 85t96.5 31q61 0 95 -30.5t34 -85.5q0 -30 -14 -54t-39 -38zM176 -56q22 0 33.5 13t11.5 38q0 24 -12 37.5t-34 13.5
q-21 0 -32.5 -13.5t-11.5 -38.5q0 -24 11.5 -37t33.5 -13zM175 123q41 0 41 48t-40 48t-40 -49q0 -23 10.5 -35t28.5 -12z" />
    <glyph glyph-name="uni2089" 
d="M129 -15q3 -20 12.5 -29.5t27.5 -9.5q24 0 35 25.5t12 82.5q-12 -14 -30.5 -21.5t-38.5 -7.5q-52 0 -81.5 35t-29.5 96q0 65 36 103t98 38q139 0 139 -196q0 -236 -143 -236q-56 0 -88.5 31t-37.5 89h89zM170 96q20 0 31.5 16.5t11.5 45.5t-11.5 44.5t-32.5 15.5
q-43 0 -43 -60q0 -62 44 -62z" />
    <glyph glyph-name="uni2070" 
d="M174 393q-72 0 -109 54.5t-37 160.5t38.5 161.5t111.5 55.5q72 0 109 -54.5t37 -160.5t-38.5 -161.5t-111.5 -55.5zM176 485q25 0 35.5 28.5t10.5 94.5q0 67 -10.5 96t-35.5 29t-35.5 -28.5t-10.5 -94.5q0 -67 10.5 -96t35.5 -29z" />
    <glyph glyph-name="uni2074" 
d="M198 406v88h-165v69l153 249h101v-243h40l-8 -75h-32v-88h-89zM199 698l-80 -129h80v129z" />
    <glyph glyph-name="uni2075" 
d="M57 570l16 242h221v-86h-147l-5 -79q26 21 62 21q52 0 81.5 -35t29.5 -97q0 -65 -36.5 -104t-98.5 -39q-59 0 -93 32t-38 91h90q3 -23 13.5 -33.5t29.5 -10.5q41 0 41 62q0 28 -11 43.5t-31 15.5q-27 0 -41 -23h-83z" />
    <glyph glyph-name="uni2076" 
d="M224 703q-4 22 -13 31.5t-26 9.5q-24 0 -36 -25.5t-14 -81.5q12 13 31 20.5t40 7.5q52 0 81 -34.5t29 -96.5q0 -65 -36 -103t-96 -38q-68 0 -104.5 50.5t-36.5 145.5q0 116 37 176t110 60q53 0 83 -27.5t39 -84.5zM183 472q43 0 43 60q0 62 -44 62q-20 0 -31.5 -16.5
t-11.5 -45.5t11.5 -44.5t32.5 -15.5z" />
    <glyph glyph-name="uni2077" 
d="M99 406q37 172 112 320h-160v86h262v-73q-40 -82 -66 -161.5t-44 -171.5h-104z" />
    <glyph glyph-name="uni2078" 
d="M253 617q29 -14 45.5 -40t16.5 -60q0 -60 -36.5 -92t-103.5 -32t-102.5 32t-35.5 91q0 35 16 61t46 40q-25 15 -39 39t-14 53q0 54 34.5 85t96.5 31q61 0 95 -30.5t34 -85.5q0 -30 -14 -54t-39 -38zM176 472q22 0 33.5 13t11.5 38q0 24 -12 37.5t-34 13.5
q-21 0 -32.5 -13.5t-11.5 -38.5q0 -24 11.5 -37t33.5 -13zM175 651q41 0 41 48t-40 48t-40 -49q0 -23 10.5 -35t28.5 -12z" />
    <glyph glyph-name="uni2079" 
d="M129 513q3 -20 12.5 -29.5t27.5 -9.5q24 0 35 25.5t12 82.5q-12 -14 -30.5 -21.5t-38.5 -7.5q-52 0 -81.5 35t-29.5 96q0 65 36 103t98 38q139 0 139 -196q0 -236 -143 -236q-56 0 -88.5 31t-37.5 89h89zM170 624q20 0 31.5 16.5t11.5 45.5t-11.5 44.5t-32.5 15.5
q-43 0 -43 -60q0 -62 44 -62z" />
    <glyph glyph-name="zero.dnom" 
d="M174 -13q-72 0 -109 54.5t-37 160.5t38.5 161.5t111.5 55.5q72 0 109 -54.5t37 -160.5t-38.5 -161.5t-111.5 -55.5zM176 79q25 0 35.5 28.5t10.5 94.5q0 67 -10.5 96t-35.5 29t-35.5 -28.5t-10.5 -94.5q0 -67 10.5 -96t35.5 -29z" />
    <glyph glyph-name="one.dnom" 
d="M167 0v298l-81 -50l-44 73l132 85h93v-406h-100z" />
    <glyph glyph-name="two.dnom" 
d="M51 0v76q57 53 86 83q48 49 63.5 73.5t15.5 53.5q0 23 -9.5 36t-27.5 13q-19 0 -30 -13.5t-16 -44.5l-89 11q11 65 46.5 98t93.5 33q57 0 91.5 -34.5t34.5 -90.5q0 -77 -81 -159q-10 -11 -21 -21.5t-29 -27.5h139l-9 -86h-258z" />
    <glyph glyph-name="three.dnom" 
d="M148 170v76h31q18 0 27.5 12t9.5 35q0 22 -10 34t-28 12q-19 0 -29.5 -12.5t-14.5 -40.5l-89 11q10 60 45 91t93 31t93.5 -31.5t35.5 -83.5q0 -28 -13.5 -52t-38.5 -39q30 -13 46 -38t16 -57q0 -60 -39 -95.5t-103 -35.5t-100 37.5t-39 105.5h90q5 -63 49 -63q43 0 43 53
q0 24 -11.5 37t-31.5 13h-32z" />
    <glyph glyph-name="four.dnom" 
d="M198 0v88h-165v69l153 249h101v-243h40l-8 -75h-32v-88h-89zM199 292l-80 -129h80v129z" />
    <glyph glyph-name="five.dnom" 
d="M57 164l16 242h221v-86h-147l-5 -79q26 21 62 21q52 0 81.5 -35t29.5 -97q0 -65 -36.5 -104t-98.5 -39q-59 0 -93 32t-38 91h90q3 -23 13.5 -33.5t29.5 -10.5q41 0 41 62q0 28 -11 43.5t-31 15.5q-27 0 -41 -23h-83z" />
    <glyph glyph-name="six.dnom" 
d="M224 297q-4 22 -13 31.5t-26 9.5q-24 0 -36 -25.5t-14 -81.5q12 13 31 20.5t40 7.5q52 0 81 -34.5t29 -96.5q0 -65 -36 -103t-96 -38q-68 0 -104.5 50.5t-36.5 145.5q0 116 37 176t110 60q53 0 83 -27.5t39 -84.5zM183 66q43 0 43 60q0 62 -44 62q-20 0 -31.5 -16.5
t-11.5 -45.5t11.5 -44.5t32.5 -15.5z" />
    <glyph glyph-name="seven.dnom" 
d="M99 0q37 172 112 320h-160v86h262v-73q-40 -82 -66 -161.5t-44 -171.5h-104z" />
    <glyph glyph-name="eight.dnom" 
d="M253 211q29 -14 45.5 -40t16.5 -60q0 -60 -36.5 -92t-103.5 -32t-102.5 32t-35.5 91q0 35 16 61t46 40q-25 15 -39 39t-14 53q0 54 34.5 85t96.5 31q61 0 95 -30.5t34 -85.5q0 -30 -14 -54t-39 -38zM176 66q22 0 33.5 13t11.5 38q0 24 -12 37.5t-34 13.5
q-21 0 -32.5 -13.5t-11.5 -38.5q0 -24 11.5 -37t33.5 -13zM175 245q41 0 41 48t-40 48t-40 -49q0 -23 10.5 -35t28.5 -12z" />
    <glyph glyph-name="nine.dnom" 
d="M129 107q3 -20 12.5 -29.5t27.5 -9.5q24 0 35 25.5t12 82.5q-12 -14 -30.5 -21.5t-38.5 -7.5q-52 0 -81.5 35t-29.5 96q0 65 36 103t98 38q139 0 139 -196q0 -236 -143 -236q-56 0 -88.5 31t-37.5 89h89zM170 218q20 0 31.5 16.5t11.5 45.5t-11.5 44.5t-32.5 15.5
q-43 0 -43 -60q0 -62 44 -62z" />
    <glyph glyph-name="zero.numr" 
d="M174 272q-72 0 -109 54.5t-37 160.5t38.5 161.5t111.5 55.5q72 0 109 -54.5t37 -160.5t-38.5 -161.5t-111.5 -55.5zM176 364q25 0 35.5 28.5t10.5 94.5q0 67 -10.5 96t-35.5 29t-35.5 -28.5t-10.5 -94.5q0 -67 10.5 -96t35.5 -29z" />
    <glyph glyph-name="one.numr" 
d="M167 285v298l-81 -50l-44 73l132 85h93v-406h-100z" />
    <glyph glyph-name="two.numr" 
d="M51 285v76q57 53 86 83q48 49 63.5 73.5t15.5 53.5q0 23 -9.5 36t-27.5 13q-19 0 -30 -13.5t-16 -44.5l-89 11q11 65 46.5 98t93.5 33q57 0 91.5 -34.5t34.5 -90.5q0 -77 -81 -159q-10 -11 -21 -21.5t-29 -27.5h139l-9 -86h-258z" />
    <glyph glyph-name="three.numr" 
d="M148 455v76h31q18 0 27.5 12t9.5 35q0 22 -10 34t-28 12q-19 0 -29.5 -12.5t-14.5 -40.5l-89 11q10 60 45 91t93 31t93.5 -31.5t35.5 -83.5q0 -28 -13.5 -52t-38.5 -39q30 -13 46 -38t16 -57q0 -60 -39 -95.5t-103 -35.5t-100 37.5t-39 105.5h90q5 -63 49 -63q43 0 43 53
q0 24 -11.5 37t-31.5 13h-32z" />
    <glyph glyph-name="four.numr" 
d="M198 285v88h-165v69l153 249h101v-243h40l-8 -75h-32v-88h-89zM199 577l-80 -129h80v129z" />
    <glyph glyph-name="five.numr" 
d="M57 449l16 242h221v-86h-147l-5 -79q26 21 62 21q52 0 81.5 -35t29.5 -97q0 -65 -36.5 -104t-98.5 -39q-59 0 -93 32t-38 91h90q3 -23 13.5 -33.5t29.5 -10.5q41 0 41 62q0 28 -11 43.5t-31 15.5q-27 0 -41 -23h-83z" />
    <glyph glyph-name="six.numr" 
d="M224 582q-4 22 -13 31.5t-26 9.5q-24 0 -36 -25.5t-14 -81.5q12 13 31 20.5t40 7.5q52 0 81 -34.5t29 -96.5q0 -65 -36 -103t-96 -38q-68 0 -104.5 50.5t-36.5 145.5q0 116 37 176t110 60q53 0 83 -27.5t39 -84.5zM183 351q43 0 43 60q0 62 -44 62q-20 0 -31.5 -16.5
t-11.5 -45.5t11.5 -44.5t32.5 -15.5z" />
    <glyph glyph-name="seven.numr" 
d="M99 285q37 172 112 320h-160v86h262v-73q-40 -82 -66 -161.5t-44 -171.5h-104z" />
    <glyph glyph-name="eight.numr" 
d="M253 496q29 -14 45.5 -40t16.5 -60q0 -60 -36.5 -92t-103.5 -32t-102.5 32t-35.5 91q0 35 16 61t46 40q-25 15 -39 39t-14 53q0 54 34.5 85t96.5 31q61 0 95 -30.5t34 -85.5q0 -30 -14 -54t-39 -38zM176 351q22 0 33.5 13t11.5 38q0 24 -12 37.5t-34 13.5
q-21 0 -32.5 -13.5t-11.5 -38.5q0 -24 11.5 -37t33.5 -13zM175 530q41 0 41 48t-40 48t-40 -49q0 -23 10.5 -35t28.5 -12z" />
    <glyph glyph-name="nine.numr" 
d="M129 392q3 -20 12.5 -29.5t27.5 -9.5q24 0 35 25.5t12 82.5q-12 -14 -30.5 -21.5t-38.5 -7.5q-52 0 -81.5 35t-29.5 96q0 65 36 103t98 38q139 0 139 -196q0 -236 -143 -236q-56 0 -88.5 31t-37.5 89h89zM170 503q20 0 31.5 16.5t11.5 45.5t-11.5 44.5t-32.5 15.5
q-43 0 -43 -60q0 -62 44 -62z" />
    <glyph glyph-name="fraction" horiz-adv-x="107" 
d="M-152 0l299 691h112l-299 -691h-112z" />
    <glyph glyph-name="onethird" horiz-adv-x="842" 
d="M214 0l299 691h112l-299 -691h-112zM638 170v76h31q18 0 27.5 12t9.5 35q0 22 -10 34t-28 12q-19 0 -29.5 -12.5t-14.5 -40.5l-89 11q10 60 45 91t93 31t93.5 -31.5t35.5 -83.5q0 -28 -13.5 -52t-38.5 -39q30 -13 46 -38t16 -57q0 -60 -39 -95.5t-103 -35.5t-100 37.5
t-39 105.5h90q5 -63 49 -63q43 0 43 53q0 24 -11.5 37t-31.5 13h-32zM167 285v298l-81 -50l-44 73l132 85h93v-406h-100z" />
    <glyph glyph-name="twothirds" horiz-adv-x="842" 
d="M233 0l299 691h112l-299 -691h-112zM638 170v76h31q18 0 27.5 12t9.5 35q0 22 -10 34t-28 12q-19 0 -29.5 -12.5t-14.5 -40.5l-89 11q10 60 45 91t93 31t93.5 -31.5t35.5 -83.5q0 -28 -13.5 -52t-38.5 -39q30 -13 46 -38t16 -57q0 -60 -39 -95.5t-103 -35.5t-100 37.5
t-39 105.5h90q5 -63 49 -63q43 0 43 53q0 24 -11.5 37t-31.5 13h-32zM51 285v76q57 53 86 83q48 49 63.5 73.5t15.5 53.5q0 23 -9.5 36t-27.5 13q-19 0 -30 -13.5t-16 -44.5l-89 11q11 65 46.5 98t93.5 33q57 0 91.5 -34.5t34.5 -90.5q0 -77 -81 -159q-10 -11 -21 -21.5
t-29 -27.5h139l-9 -86h-258z" />
    <glyph glyph-name="onefifth" horiz-adv-x="842" 
d="M213 0l299 691h112l-299 -691h-112zM547 164l16 242h221v-86h-147l-5 -79q26 21 62 21q52 0 81.5 -35t29.5 -97q0 -65 -36.5 -104t-98.5 -39q-59 0 -93 32t-38 91h90q3 -23 13.5 -33.5t29.5 -10.5q41 0 41 62q0 28 -11 43.5t-31 15.5q-27 0 -41 -23h-83zM167 285v298
l-81 -50l-44 73l132 85h93v-406h-100z" />
    <glyph glyph-name="twofifths" horiz-adv-x="842" 
d="M232 0l299 691h112l-299 -691h-112zM547 164l16 242h221v-86h-147l-5 -79q26 21 62 21q52 0 81.5 -35t29.5 -97q0 -65 -36.5 -104t-98.5 -39q-59 0 -93 32t-38 91h90q3 -23 13.5 -33.5t29.5 -10.5q41 0 41 62q0 28 -11 43.5t-31 15.5q-27 0 -41 -23h-83zM51 285v76
q57 53 86 83q48 49 63.5 73.5t15.5 53.5q0 23 -9.5 36t-27.5 13q-19 0 -30 -13.5t-16 -44.5l-89 11q11 65 46.5 98t93.5 33q57 0 91.5 -34.5t34.5 -90.5q0 -77 -81 -159q-10 -11 -21 -21.5t-29 -27.5h139l-9 -86h-258z" />
    <glyph glyph-name="threefifths" horiz-adv-x="842" 
d="M219 0l299 691h112l-299 -691h-112zM547 164l16 242h221v-86h-147l-5 -79q26 21 62 21q52 0 81.5 -35t29.5 -97q0 -65 -36.5 -104t-98.5 -39q-59 0 -93 32t-38 91h90q3 -23 13.5 -33.5t29.5 -10.5q41 0 41 62q0 28 -11 43.5t-31 15.5q-27 0 -41 -23h-83zM148 455v76h31
q18 0 27.5 12t9.5 35q0 22 -10 34t-28 12q-19 0 -29.5 -12.5t-14.5 -40.5l-89 11q10 60 45 91t93 31t93.5 -31.5t35.5 -83.5q0 -28 -13.5 -52t-38.5 -39q30 -13 46 -38t16 -57q0 -60 -39 -95.5t-103 -35.5t-100 37.5t-39 105.5h90q5 -63 49 -63q43 0 43 53q0 24 -11.5 37
t-31.5 13h-32z" />
    <glyph glyph-name="fourfifths" horiz-adv-x="842" 
d="M228 0l299 691h112l-299 -691h-112zM547 164l16 242h221v-86h-147l-5 -79q26 21 62 21q52 0 81.5 -35t29.5 -97q0 -65 -36.5 -104t-98.5 -39q-59 0 -93 32t-38 91h90q3 -23 13.5 -33.5t29.5 -10.5q41 0 41 62q0 28 -11 43.5t-31 15.5q-27 0 -41 -23h-83zM198 285v88h-165
v69l153 249h101v-243h40l-8 -75h-32v-88h-89zM199 577l-80 -129h80v129z" />
    <glyph glyph-name="onesixth" horiz-adv-x="842" 
d="M216 0l299 691h112l-299 -691h-112zM714 297q-4 22 -13 31.5t-26 9.5q-24 0 -36 -25.5t-14 -81.5q12 13 31 20.5t40 7.5q52 0 81 -34.5t29 -96.5q0 -65 -36 -103t-96 -38q-68 0 -104.5 50.5t-36.5 145.5q0 116 37 176t110 60q53 0 83 -27.5t39 -84.5zM673 66q43 0 43 60
q0 62 -44 62q-20 0 -31.5 -16.5t-11.5 -45.5t11.5 -44.5t32.5 -15.5zM167 285v298l-81 -50l-44 73l132 85h93v-406h-100z" />
    <glyph glyph-name="fivesixths" horiz-adv-x="842" 
d="M225 0l299 691h112l-299 -691h-112zM714 297q-4 22 -13 31.5t-26 9.5q-24 0 -36 -25.5t-14 -81.5q12 13 31 20.5t40 7.5q52 0 81 -34.5t29 -96.5q0 -65 -36 -103t-96 -38q-68 0 -104.5 50.5t-36.5 145.5q0 116 37 176t110 60q53 0 83 -27.5t39 -84.5zM673 66q43 0 43 60
q0 62 -44 62q-20 0 -31.5 -16.5t-11.5 -45.5t11.5 -44.5t32.5 -15.5zM57 449l16 242h221v-86h-147l-5 -79q26 21 62 21q52 0 81.5 -35t29.5 -97q0 -65 -36.5 -104t-98.5 -39q-59 0 -93 32t-38 91h90q3 -23 13.5 -33.5t29.5 -10.5q41 0 41 62q0 28 -11 43.5t-31 15.5
q-27 0 -41 -23h-83z" />
    <glyph glyph-name="oneseventh" horiz-adv-x="842" 
d="M201 0l299 691h112l-299 -691h-112zM589 0q37 172 112 320h-160v86h262v-73q-40 -82 -66 -161.5t-44 -171.5h-104zM167 285v298l-81 -50l-44 73l132 85h93v-406h-100z" />
    <glyph glyph-name="twosevenths" horiz-adv-x="842" 
d="M222 0l299 691h112l-299 -691h-112zM589 0q37 172 112 320h-160v86h262v-73q-40 -82 -66 -161.5t-44 -171.5h-104zM51 285v76q57 53 86 83q48 49 63.5 73.5t15.5 53.5q0 23 -9.5 36t-27.5 13q-19 0 -30 -13.5t-16 -44.5l-89 11q11 65 46.5 98t93.5 33q57 0 91.5 -34.5
t34.5 -90.5q0 -77 -81 -159q-10 -11 -21 -21.5t-29 -27.5h139l-9 -86h-258z" />
    <glyph glyph-name="threesevenths" horiz-adv-x="842" 
d="M213 0l299 691h112l-299 -691h-112zM589 0q37 172 112 320h-160v86h262v-73q-40 -82 -66 -161.5t-44 -171.5h-104zM148 455v76h31q18 0 27.5 12t9.5 35q0 22 -10 34t-28 12q-19 0 -29.5 -12.5t-14.5 -40.5l-89 11q10 60 45 91t93 31t93.5 -31.5t35.5 -83.5
q0 -28 -13.5 -52t-38.5 -39q30 -13 46 -38t16 -57q0 -60 -39 -95.5t-103 -35.5t-100 37.5t-39 105.5h90q5 -63 49 -63q43 0 43 53q0 24 -11.5 37t-31.5 13h-32z" />
    <glyph glyph-name="foursevenths" horiz-adv-x="842" 
d="M215 0l299 691h112l-299 -691h-112zM589 0q37 172 112 320h-160v86h262v-73q-40 -82 -66 -161.5t-44 -171.5h-104zM198 285v88h-165v69l153 249h101v-243h40l-8 -75h-32v-88h-89zM199 577l-80 -129h80v129z" />
    <glyph glyph-name="fivesevenths" horiz-adv-x="842" 
d="M204 0l299 691h112l-299 -691h-112zM589 0q37 172 112 320h-160v86h262v-73q-40 -82 -66 -161.5t-44 -171.5h-104zM57 449l16 242h221v-86h-147l-5 -79q26 21 62 21q52 0 81.5 -35t29.5 -97q0 -65 -36.5 -104t-98.5 -39q-59 0 -93 32t-38 91h90q3 -23 13.5 -33.5
t29.5 -10.5q41 0 41 62q0 28 -11 43.5t-31 15.5q-27 0 -41 -23h-83z" />
    <glyph glyph-name="sixsevenths" horiz-adv-x="842" 
d="M208 0l299 691h112l-299 -691h-112zM589 0q37 172 112 320h-160v86h262v-73q-40 -82 -66 -161.5t-44 -171.5h-104zM224 582q-4 22 -13 31.5t-26 9.5q-24 0 -36 -25.5t-14 -81.5q12 13 31 20.5t40 7.5q52 0 81 -34.5t29 -96.5q0 -65 -36 -103t-96 -38q-68 0 -104.5 50.5
t-36.5 145.5q0 116 37 176t110 60q53 0 83 -27.5t39 -84.5zM183 351q43 0 43 60q0 62 -44 62q-20 0 -31.5 -16.5t-11.5 -45.5t11.5 -44.5t32.5 -15.5z" />
    <glyph glyph-name="oneeighth" horiz-adv-x="842" 
d="M210 0l299 691h112l-299 -691h-112zM743 211q29 -14 45.5 -40t16.5 -60q0 -60 -36.5 -92t-103.5 -32t-102.5 32t-35.5 91q0 35 16 61t46 40q-25 15 -39 39t-14 53q0 54 34.5 85t96.5 31q61 0 95 -30.5t34 -85.5q0 -30 -14 -54t-39 -38zM666 66q22 0 33.5 13t11.5 38
q0 24 -12 37.5t-34 13.5q-21 0 -32.5 -13.5t-11.5 -38.5q0 -24 11.5 -37t33.5 -13zM665 245q41 0 41 48t-40 48t-40 -49q0 -23 10.5 -35t28.5 -12zM167 285v298l-81 -50l-44 73l132 85h93v-406h-100z" />
    <glyph glyph-name="threeeighths" horiz-adv-x="842" 
d="M222 0l299 691h112l-299 -691h-112zM743 211q29 -14 45.5 -40t16.5 -60q0 -60 -36.5 -92t-103.5 -32t-102.5 32t-35.5 91q0 35 16 61t46 40q-25 15 -39 39t-14 53q0 54 34.5 85t96.5 31q61 0 95 -30.5t34 -85.5q0 -30 -14 -54t-39 -38zM666 66q22 0 33.5 13t11.5 38
q0 24 -12 37.5t-34 13.5q-21 0 -32.5 -13.5t-11.5 -38.5q0 -24 11.5 -37t33.5 -13zM665 245q41 0 41 48t-40 48t-40 -49q0 -23 10.5 -35t28.5 -12zM148 455v76h31q18 0 27.5 12t9.5 35q0 22 -10 34t-28 12q-19 0 -29.5 -12.5t-14.5 -40.5l-89 11q10 60 45 91t93 31
t93.5 -31.5t35.5 -83.5q0 -28 -13.5 -52t-38.5 -39q30 -13 46 -38t16 -57q0 -60 -39 -95.5t-103 -35.5t-100 37.5t-39 105.5h90q5 -63 49 -63q43 0 43 53q0 24 -11.5 37t-31.5 13h-32z" />
    <glyph glyph-name="fiveeighths" horiz-adv-x="842" 
d="M219 0l299 691h112l-299 -691h-112zM743 211q29 -14 45.5 -40t16.5 -60q0 -60 -36.5 -92t-103.5 -32t-102.5 32t-35.5 91q0 35 16 61t46 40q-25 15 -39 39t-14 53q0 54 34.5 85t96.5 31q61 0 95 -30.5t34 -85.5q0 -30 -14 -54t-39 -38zM666 66q22 0 33.5 13t11.5 38
q0 24 -12 37.5t-34 13.5q-21 0 -32.5 -13.5t-11.5 -38.5q0 -24 11.5 -37t33.5 -13zM665 245q41 0 41 48t-40 48t-40 -49q0 -23 10.5 -35t28.5 -12zM57 449l16 242h221v-86h-147l-5 -79q26 21 62 21q52 0 81.5 -35t29.5 -97q0 -65 -36.5 -104t-98.5 -39q-59 0 -93 32t-38 91
h90q3 -23 13.5 -33.5t29.5 -10.5q41 0 41 62q0 28 -11 43.5t-31 15.5q-27 0 -41 -23h-83z" />
    <glyph glyph-name="seveneighths" horiz-adv-x="842" 
d="M195 0l299 691h112l-299 -691h-112zM743 211q29 -14 45.5 -40t16.5 -60q0 -60 -36.5 -92t-103.5 -32t-102.5 32t-35.5 91q0 35 16 61t46 40q-25 15 -39 39t-14 53q0 54 34.5 85t96.5 31q61 0 95 -30.5t34 -85.5q0 -30 -14 -54t-39 -38zM666 66q22 0 33.5 13t11.5 38
q0 24 -12 37.5t-34 13.5q-21 0 -32.5 -13.5t-11.5 -38.5q0 -24 11.5 -37t33.5 -13zM665 245q41 0 41 48t-40 48t-40 -49q0 -23 10.5 -35t28.5 -12zM99 285q37 172 112 320h-160v86h262v-73q-40 -82 -66 -161.5t-44 -171.5h-104z" />
    <glyph glyph-name="oneninth" horiz-adv-x="842" 
d="M211 0l299 691h112l-299 -691h-112zM619 107q3 -20 12.5 -29.5t27.5 -9.5q24 0 35 25.5t12 82.5q-12 -14 -30.5 -21.5t-38.5 -7.5q-52 0 -81.5 35t-29.5 96q0 65 36 103t98 38q139 0 139 -196q0 -236 -143 -236q-56 0 -88.5 31t-37.5 89h89zM660 218q20 0 31.5 16.5
t11.5 45.5t-11.5 44.5t-32.5 15.5q-43 0 -43 -60q0 -62 44 -62zM167 285v298l-81 -50l-44 73l132 85h93v-406h-100z" />
    <glyph glyph-name="twoninths" horiz-adv-x="842" 
d="M225 0l299 691h112l-299 -691h-112zM619 107q3 -20 12.5 -29.5t27.5 -9.5q24 0 35 25.5t12 82.5q-12 -14 -30.5 -21.5t-38.5 -7.5q-52 0 -81.5 35t-29.5 96q0 65 36 103t98 38q139 0 139 -196q0 -236 -143 -236q-56 0 -88.5 31t-37.5 89h89zM660 218q20 0 31.5 16.5
t11.5 45.5t-11.5 44.5t-32.5 15.5q-43 0 -43 -60q0 -62 44 -62zM51 285v76q57 53 86 83q48 49 63.5 73.5t15.5 53.5q0 23 -9.5 36t-27.5 13q-19 0 -30 -13.5t-16 -44.5l-89 11q11 65 46.5 98t93.5 33q57 0 91.5 -34.5t34.5 -90.5q0 -77 -81 -159q-10 -11 -21 -21.5
t-29 -27.5h139l-9 -86h-258z" />
    <glyph glyph-name="fourninths" horiz-adv-x="842" 
d="M224 0l299 691h112l-299 -691h-112zM619 107q3 -20 12.5 -29.5t27.5 -9.5q24 0 35 25.5t12 82.5q-12 -14 -30.5 -21.5t-38.5 -7.5q-52 0 -81.5 35t-29.5 96q0 65 36 103t98 38q139 0 139 -196q0 -236 -143 -236q-56 0 -88.5 31t-37.5 89h89zM660 218q20 0 31.5 16.5
t11.5 45.5t-11.5 44.5t-32.5 15.5q-43 0 -43 -60q0 -62 44 -62zM198 285v88h-165v69l153 249h101v-243h40l-8 -75h-32v-88h-89zM199 577l-80 -129h80v129z" />
    <glyph glyph-name="fiveninths" horiz-adv-x="842" 
d="M215 0l299 691h112l-299 -691h-112zM619 107q3 -20 12.5 -29.5t27.5 -9.5q24 0 35 25.5t12 82.5q-12 -14 -30.5 -21.5t-38.5 -7.5q-52 0 -81.5 35t-29.5 96q0 65 36 103t98 38q139 0 139 -196q0 -236 -143 -236q-56 0 -88.5 31t-37.5 89h89zM660 218q20 0 31.5 16.5
t11.5 45.5t-11.5 44.5t-32.5 15.5q-43 0 -43 -60q0 -62 44 -62zM57 449l16 242h221v-86h-147l-5 -79q26 21 62 21q52 0 81.5 -35t29.5 -97q0 -65 -36.5 -104t-98.5 -39q-59 0 -93 32t-38 91h90q3 -23 13.5 -33.5t29.5 -10.5q41 0 41 62q0 28 -11 43.5t-31 15.5
q-27 0 -41 -23h-83z" />
    <glyph glyph-name="sevenninths" horiz-adv-x="842" 
d="M191 0l299 691h112l-299 -691h-112zM619 107q3 -20 12.5 -29.5t27.5 -9.5q24 0 35 25.5t12 82.5q-12 -14 -30.5 -21.5t-38.5 -7.5q-52 0 -81.5 35t-29.5 96q0 65 36 103t98 38q139 0 139 -196q0 -236 -143 -236q-56 0 -88.5 31t-37.5 89h89zM660 218q20 0 31.5 16.5
t11.5 45.5t-11.5 44.5t-32.5 15.5q-43 0 -43 -60q0 -62 44 -62zM99 285q37 172 112 320h-160v86h262v-73q-40 -82 -66 -161.5t-44 -171.5h-104z" />
    <glyph glyph-name="eightninths" horiz-adv-x="842" 
d="M217 0l299 691h112l-299 -691h-112zM619 107q3 -20 12.5 -29.5t27.5 -9.5q24 0 35 25.5t12 82.5q-12 -14 -30.5 -21.5t-38.5 -7.5q-52 0 -81.5 35t-29.5 96q0 65 36 103t98 38q139 0 139 -196q0 -236 -143 -236q-56 0 -88.5 31t-37.5 89h89zM660 218q20 0 31.5 16.5
t11.5 45.5t-11.5 44.5t-32.5 15.5q-43 0 -43 -60q0 -62 44 -62zM253 496q29 -14 45.5 -40t16.5 -60q0 -60 -36.5 -92t-103.5 -32t-102.5 32t-35.5 91q0 35 16 61t46 40q-25 15 -39 39t-14 53q0 54 34.5 85t96.5 31q61 0 95 -30.5t34 -85.5q0 -30 -14 -54t-39 -38zM176 351
q22 0 33.5 13t11.5 38q0 24 -12 37.5t-34 13.5q-21 0 -32.5 -13.5t-11.5 -38.5q0 -24 11.5 -37t33.5 -13zM175 530q41 0 41 48t-40 48t-40 -49q0 -23 10.5 -35t28.5 -12z" />
    <glyph glyph-name="hyphen.case" horiz-adv-x="315" 
d="M29 294v134h257v-134h-257z" />
    <glyph glyph-name="endash.case" horiz-adv-x="390" 
d="M0 299v126h390v-126h-390z" />
    <glyph glyph-name="emdash.case" horiz-adv-x="780" 
d="M0 299v126h780v-126h-780z" />
    <glyph glyph-name="parenleft.case" horiz-adv-x="276" 
d="M152 -72q-56 103 -83 208.5t-27 220.5t27 220.5t83 208.5h119q-93 -208 -93 -429t93 -429h-119z" />
    <glyph glyph-name="parenright.case" horiz-adv-x="276" 
d="M5 -72q93 208 93 429t-93 429h119q56 -103 83 -208.5t27 -220.5t-27 -220.5t-83 -208.5h-119z" />
    <glyph glyph-name="slash.case" horiz-adv-x="329" 
d="M3 -9l194 734h129l-194 -734h-129z" />
    <glyph glyph-name="backslash.case" horiz-adv-x="329" 
d="M326 -9h-129l-194 734h129z" />
    <glyph glyph-name="bracketleft.case" horiz-adv-x="297" 
d="M67 -72v858h223v-112h-91v-634h91v-112h-223z" />
    <glyph glyph-name="bracketright.case" horiz-adv-x="297" 
d="M230 -72h-223v112h91v634h-91v112h223v-858z" />
    <glyph glyph-name="braceleft.case" horiz-adv-x="297" 
d="M225 -72q-140 0 -140 149v156q0 36 -11.5 52t-37.5 16h-8v112h8q26 0 37.5 16t11.5 52v156q0 149 140 149h67v-112h-37q-42 0 -42 -51v-164q0 -81 -64 -102q64 -21 64 -102v-164q0 -51 42 -51h37v-112h-67z" />
    <glyph glyph-name="braceright.case" horiz-adv-x="297" 
d="M212 77q0 -149 -140 -149h-67v112h37q42 0 42 51v164q0 81 64 102q-64 21 -64 102v164q0 51 -42 51h-37v112h67q140 0 140 -149v-156q0 -36 11.5 -52t37.5 -16h8v-112h-8q-26 0 -37.5 -16t-11.5 -52v-156z" />
    <glyph glyph-name="bullet.case" horiz-adv-x="336" 
d="M168 209q-62 0 -101 41.5t-39 106.5t39 106.5t101 41.5t101 -41.5t39 -106.5t-39 -106.5t-101 -41.5z" />
    <glyph glyph-name="guilsinglleft.case" horiz-adv-x="277" 
d="M116 130l-96 227l96 225h135l-93 -224l93 -228h-135z" />
    <glyph glyph-name="guilsinglright.case" horiz-adv-x="277" 
d="M26 130l93 224l-93 228h135l96 -227l-96 -225h-135z" />
    <glyph glyph-name="guillemotleft.case" horiz-adv-x="474" 
d="M116 130l-96 227l96 225h135l-93 -224l93 -228h-135zM313 130l-96 227l96 225h135l-93 -224l93 -228h-135z" />
    <glyph glyph-name="guillemotright.case" horiz-adv-x="474" 
d="M26 130l93 224l-93 228h135l96 -227l-96 -225h-135zM223 130l93 224l-93 228h135l96 -227l-96 -225h-135z" />
    <glyph glyph-name="at.case" horiz-adv-x="806" 
d="M651 66q-45 -78 -124 -123t-171 -45q-98 0 -170.5 45.5t-112 132t-39.5 206.5q0 148 53 268.5t150 192t222 71.5q91 0 161.5 -43t111 -123.5t40.5 -188.5q0 -96 -27 -175t-77.5 -126.5t-114.5 -47.5q-57 0 -84 47q-10 19 -16 39q-24 -44 -52 -65t-64 -21q-55 0 -87 50
t-32 137q0 80 22 147t61.5 107.5t89.5 40.5q30 0 54.5 -18.5t38.5 -52.5l9 60h111l-53 -311q-1 -14 -2 -21t-1 -12q0 -38 28 -38q25 0 48 33t37.5 91t14.5 126q0 130 -59.5 201.5t-167.5 71.5q-90 0 -161 -53t-112 -152t-41 -229q0 -143 61.5 -220.5t174.5 -77.5
q103 0 160 76h120zM451 367q5 40 5 61q0 30 -11.5 48t-31.5 18q-33 0 -54 -52t-21 -134q0 -94 45 -94q23 0 38 27.5t24 85.5z" />
    <glyph glyph-name="periodcentered.case" horiz-adv-x="229" 
d="M48 277v158h133v-158h-133z" />
    <glyph glyph-name="questiondown.case" horiz-adv-x="419" 
d="M411 190q-12 -99 -65 -150.5t-144 -51.5q-85 0 -136 49t-51 129q0 48 16.5 86t61.5 94q32 39 44.5 68.5t12.5 67.5v16h121v-24q0 -49 -12 -81.5t-47 -76.5q-38 -48 -50 -73t-12 -59q0 -79 61 -79q34 0 52.5 23.5t25.5 75.5zM144 556v158h133v-158h-133z" />
    <glyph glyph-name="exclamdown.case" horiz-adv-x="231" 
d="M188 0h-145l13 498h119zM182 556h-133v158h133v-158z" />
    <glyph glyph-name="periodcentered.loclCAT" horiz-adv-x="229" 
d="M48 295v158h133v-158h-133z" />
    <glyph glyph-name="dotlessi" horiz-adv-x="238" 
d="M53 0v522h132v-522h-132z" />
    <glyph glyph-name="i.locl" horiz-adv-x="238" 
d="M53 0v522h132v-522h-132zM51 600v114h136v-114h-136z" />
    <glyph glyph-name="uni0327" horiz-adv-x="0" 
d="M-77 -143q24 -4 50 -4q17 0 26 7t9 20q0 28 -43 28h-24l33 104l67 -12l-15 -48q75 -14 75 -80q0 -43 -30.5 -66t-88.5 -23q-28 0 -59 6v68z" />
    <glyph glyph-name="uni0327.cap" horiz-adv-x="0" 
d="M-85 -151q29 -4 51 -4q36 0 36 29q0 30 -45 30h-25l35 108l71 -12l-15 -49q77 -15 77 -85q0 -44 -32 -68t-92 -24q-25 0 -61 6v69z" />
    <glyph glyph-name="acutecomb" horiz-adv-x="0" 
d="M-79 587l97 159h136l-127 -159h-106z" />
    <glyph glyph-name="acutecomb.cap" horiz-adv-x="0" 
d="M-81 773l98 149h147l-130 -149h-115z" />
    <glyph glyph-name="gravecomb" horiz-adv-x="0" 
d="M-27 587l-127 159h136l97 -159h-106z" />
    <glyph glyph-name="gravecomb.cap" horiz-adv-x="0" 
d="M-34 773l-130 149h147l98 -149h-115z" />
    <glyph glyph-name="uni0302" horiz-adv-x="0" 
d="M48 587l-48 88l-49 -88h-108l100 159h116l98 -159h-109z" />
    <glyph glyph-name="uni0302.cap" horiz-adv-x="0" 
d="M46 773l-47 78l-47 -78h-112l98 149h125l97 -149h-114z" />
    <glyph glyph-name="tildecomb" horiz-adv-x="0" 
d="M155 733q0 -69 -23 -105.5t-67 -36.5q-16 0 -31 6t-38 22q-27 20 -41 20q-27 0 -27 -46h-83q0 69 23 105.5t67 36.5q16 0 31 -6t38 -22q27 -20 41 -20q27 0 27 46h83z" />
    <glyph glyph-name="tildecomb.cap" horiz-adv-x="0" 
d="M159 912q-1 -69 -25 -105.5t-69 -36.5q-33 0 -71 28q-15 11 -23.5 15t-16.5 4q-27 0 -27 -46h-86q1 69 25 105.5t69 36.5q33 0 71 -28q15 -11 23.5 -15t16.5 -4q27 0 27 46h86z" />
    <glyph glyph-name="uni0304" horiz-adv-x="0" 
d="M-119 612v103h238v-103h-238z" />
    <glyph glyph-name="uni0308" horiz-adv-x="0" 
d="M-150 600v114h121v-114h-121zM29 600v114h121v-114h-121z" />
    <glyph glyph-name="uni0308.cap" horiz-adv-x="0" 
d="M-159 780v126h127v-126h-127zM32 780v126h127v-126h-127z" />
    <glyph glyph-name="uni030A" horiz-adv-x="0" 
d="M0 579q-45 0 -74 32t-29 81t29 81t74 32t74 -32t29 -81t-29 -81t-74 -32zM0 645q15 0 24 12.5t9 34.5t-9 34.5t-24 12.5t-24 -12.5t-9 -34.5t9 -34.5t24 -12.5z" />
    <glyph glyph-name="uniFEFF" horiz-adv-x="0" 
 />
    </font>
</defs>
</svg>
