<?xml version="1.0" standalone="no"?>
<!DOCTYPE svg PUBLIC "-//W3C//DTD SVG 1.1//EN" "http://www.w3.org/Graphics/SVG/1.1/DTD/svg11.dtd" >
<svg xmlns="http://www.w3.org/2000/svg" xmlns:xlink="http://www.w3.org/1999/xlink" version="1.1">
<metadata>
Created by FontForge 20170731 at Fri Aug 17 17:29:11 2018
 By Aleksey,,,
Copyright (c) 2008 by Henrik Kubel, A2/SW/HK. All rights reserved. Reworked 2017.
</metadata>
<defs>
<font id="MyFontRegular" horiz-adv-x="786" >
  <font-face 
    font-family="My Font"
    font-weight="500"
    font-stretch="normal"
    units-per-em="2048"
    panose-1="0 0 0 0 0 0 0 0 0 0"
    ascent="1638"
    descent="-410"
    x-height="1149"
    cap-height="1434"
    bbox="-137 -344 1706 1976"
    underline-thickness="102"
    underline-position="-1020"
    unicode-range="U+000D-FB04"
  />
<missing-glyph horiz-adv-x="966" 
d="M0 0h885v1434h-885v-1434zM102 102v1229h680v-1229h-680z" />
    <glyph glyph-name=".notdef" horiz-adv-x="966" 
d="M0 0h885v1434h-885v-1434zM102 102v1229h680v-1229h-680z" />
    <glyph glyph-name=".notdef" horiz-adv-x="966" 
d="M0 0h885v1434h-885v-1434zM102 102v1229h680v-1229h-680z" />
    <glyph glyph-name="glyph1" horiz-adv-x="0" 
 />
    <glyph glyph-name="glyph2" horiz-adv-x="682" 
 />
    <glyph glyph-name="uni000D" unicode="&#xd;" horiz-adv-x="512" 
 />
    <glyph glyph-name="space" unicode=" " horiz-adv-x="249" 
 />
    <glyph glyph-name="exclam" unicode="!" horiz-adv-x="389" 
d="M41 1079l80 -622h147l80 622v355h-307v-355zM45 0h297v311h-297v-311z" />
    <glyph glyph-name="quotedbl" unicode="&#x22;" horiz-adv-x="729" 
d="M41 829h238l55 605h-293v-605zM418 829h235l60 605h-295v-605z" />
    <glyph glyph-name="numbersign" unicode="#" horiz-adv-x="1052" 
d="M18 422h172l-73 -422h184l74 422h203l-76 -422h184l74 422h174l31 174h-172l41 238h172l30 172h-172l76 428h-184l-76 -428h-203l78 428h-184l-76 -428h-174l-31 -172h174l-41 -238h-174zM408 596l38 238h203l-41 -238h-200z" />
    <glyph glyph-name="dollar" unicode="$" horiz-adv-x="796" 
d="M37 207q0 -96 59 -152q58 -55 154 -55h49v-197h201v197h47q97 0 155 55t58 152v278q0 87 -31 154q-30 62 -104 115l-232 172q-37 29 -53 53q-21 27 -21 78v94q0 45 48 45h63q47 0 47 -45v-197l283 27v246q0 96 -58 151q-59 56 -155 56h-47v196h-201v-196h-49
q-95 0 -154 -56t-59 -151v-244q0 -92 31 -152q29 -60 114 -120l217 -162q36 -24 60 -55q18 -27 18 -80v-135q0 -46 -47 -46h-63q-48 0 -48 46v227l-282 -29v-270z" />
    <glyph glyph-name="percent" unicode="%" horiz-adv-x="1314" 
d="M25 887q0 -91 59 -144q58 -55 154 -55h114q98 0 156 55q57 51 57 144v348q0 91 -57 145q-60 54 -156 54h-114q-94 0 -154 -54q-59 -56 -59 -145v-348zM150 0h184l829 1434h-182zM221 909v303q0 54 53 54h39q25 0 41 -13q15 -15 15 -41v-303q0 -29 -15 -41t-41 -12h-39
q-53 0 -53 53zM750 199q0 -91 59 -144q58 -55 154 -55h114q98 0 156 55q57 51 57 144v348q0 91 -57 145q-59 53 -156 53h-114q-95 0 -154 -53q-59 -56 -59 -145v-348zM946 221v303q0 54 53 54h39q25 0 41 -13q15 -15 15 -41v-303q0 -29 -15 -41t-41 -12h-39q-53 0 -53 53z
" />
    <glyph glyph-name="ampersand" unicode="&#x26;" horiz-adv-x="899" 
d="M33 229q0 -98 57 -161q56 -68 186 -68h189q70 0 113 16q31 11 75 52l49 -68h191v197l-53 79v453h-205v-147l-98 147l90 62q27 19 53 45q25 25 39 53q11 20 22 69q7 47 7 95v172q0 91 -60 151q-61 58 -156 58h-268q-97 0 -155 -58q-62 -59 -62 -151v-101q0 -98 16 -157
q15 -56 50 -103l47 -69q-40 -25 -68 -60q-26 -29 -39 -61q-12 -29 -16 -64q-4 -46 -4 -67v-314zM309 303v285l199 -312q-1 -3 -4 -9t-4 -9q-15 -18 -35 -18h-90q-30 0 -47 14q-19 16 -19 49zM332 1110v45q0 41 41 41h59q41 0 41 -43v-90q0 -50 -14 -78q-14 -29 -58 -61
l-39 61q-21 30 -24 57q-6 27 -6 68z" />
    <glyph glyph-name="quotesingle" unicode="'" horiz-adv-x="352" 
d="M41 829h238l55 605h-293v-605z" />
    <glyph glyph-name="parenleft" unicode="(" horiz-adv-x="475" 
d="M14 721q0 -147 35 -275q34 -127 80 -231q53 -117 115 -213h225q-49 117 -84 229q-29 88 -59 232q-27 129 -27 258q0 74 8 131q5 53 19 125q6 42 22 110q11 47 37 121q35 113 84 226h-225q-60 -89 -115 -207q-43 -99 -78 -228q-37 -127 -37 -278z" />
    <glyph glyph-name="parenright" unicode=")" horiz-adv-x="475" 
d="M8 2h225q62 96 115 213q42 96 80 229q35 131 35 277q0 153 -33 274q-34 123 -82 232q-55 118 -115 207h-225q45 -105 86 -226q34 -117 58 -227q26 -124 26 -260q0 -65 -6 -129q-12 -86 -18 -125q-5 -24 -14.5 -67.5t-10.5 -47.5q-7 -32 -35 -121q-41 -122 -86 -229z" />
    <glyph glyph-name="asterisk" unicode="*" horiz-adv-x="839" 
d="M29 1040l264 -43l-219 -190l188 -156l158 238l160 -236l188 152l-225 194l266 41l-72 230l-237 -127l49 291h-258l49 -291l-236 127z" />
    <glyph glyph-name="plus" unicode="+" horiz-adv-x="886" 
d="M41 621h285v-295h233v295h287v227h-287v297h-233v-297h-285v-227z" />
    <glyph glyph-name="comma" unicode="," horiz-adv-x="372" 
d="M37 0h141q79 0 119 37q39 33 39 113v434h-299v-312h104v-96q0 -16 -8 -24q-11 -11 -37 -11h-59v-141z" />
    <glyph glyph-name="hyphen" unicode="-" horiz-adv-x="495" 
d="M39 477h418v240h-418v-240z" />
    <glyph glyph-name="period" unicode="." horiz-adv-x="366" 
d="M35 0h297v311h-297v-311z" />
    <glyph glyph-name="slash" unicode="/" horiz-adv-x="337" 
d="M20 0h115l182 1434h-114z" />
    <glyph glyph-name="zero" unicode="0" horiz-adv-x="813" 
d="M45 233q0 -109 66 -172q64 -61 168 -61h256q103 0 167 61q66 63 66 172v967q0 109 -66 172q-65 62 -167 62h-256q-103 0 -168 -62q-66 -63 -66 -172v-967zM328 283v868q0 45 47 45h63q47 0 47 -45v-868q0 -45 -47 -45h-63q-47 0 -47 45z" />
    <glyph glyph-name="one" unicode="1" horiz-adv-x="495" 
d="M6 1053h154v-1053h284v1434h-215l-12 -31q-21 -61 -61 -88q-44 -29 -103 -29h-47v-233z" />
    <glyph glyph-name="two" unicode="2" horiz-adv-x="788" 
d="M31 924l278 -33v260q0 45 47 45h68q47 0 47 -45v-174q0 -69 -18 -103q-19 -36 -58 -75l-278 -269q-42 -45 -56 -86q-16 -50 -16 -108v-336h711v248h-428v47q0 30 6 57q7 30 39 58l260 245q32 30 59 64q24 31 37 61q15 30 21 68q4 46 4 80v299q0 96 -58 151
q-59 56 -155 56h-297q-95 0 -154 -56t-59 -151v-303z" />
    <glyph glyph-name="three" unicode="3" horiz-adv-x="798" 
d="M33 207q0 -96 59 -152q58 -55 154 -55h299q95 0 153 55t58 152v350q0 15 -4 51q-6 27 -21 51q-16 26 -39 43q-24 18 -61 27q37 9 61 27q23 17 39 43q14 20 21 51q4 36 4 51v326q0 96 -58 151q-59 56 -153 56h-299q-95 0 -154 -56t-59 -151v-226l284 -32v182q0 45 48 45
h61q47 0 47 -45v-256q0 -49 -51 -49h-129v-236h129q51 0 51 -49v-278q0 -45 -47 -45h-61q-48 0 -48 45v186l-284 -33v-229z" />
    <glyph glyph-name="four" unicode="4" 
d="M8 340h387v-340h281v340h102v223h-102v871h-324l-344 -822v-272zM190 563l205 502v-502h-205z" />
    <glyph glyph-name="five" unicode="5" horiz-adv-x="794" 
d="M31 207q0 -96 59 -152q58 -55 152 -55h299q95 0 153 55q60 57 60 152v563q0 94 -64 158q-64 61 -192 61q-87 0 -138 -26q-50 -26 -63 -45l18 278h439v238h-672l-43 -783l262 -35l12 82q6 39 39 39h78q39 0 39 -37v-417q0 -45 -47 -45h-62q-47 0 -47 45v184l-282 -33v-227
z" />
    <glyph glyph-name="six" unicode="6" horiz-adv-x="811" 
d="M47 207q0 -96 59 -152q58 -55 152 -55h299q96 0 154 55q59 56 59 152v459q0 87 -61 151q-64 64 -183 64q-84 0 -133 -27q-49 -25 -63 -43v338q0 47 47 47h61q47 0 47 -47v-176l285 33v221q0 95 -59 151q-60 54 -154 54h-299q-92 0 -152 -54q-59 -56 -59 -151v-1020z
M330 283v327q0 17 12 29q10 10 27 10h77q16 0 29 -10q10 -13 10 -29v-327q0 -45 -47 -45h-61q-47 0 -47 45z" />
    <glyph glyph-name="seven" unicode="7" horiz-adv-x="735" 
d="M8 1178h424l-108 -256q-47 -103 -72 -181q-32 -92 -49 -174q-19 -82 -29 -190q-10 -113 -10 -221v-156h297v266q0 112 12 201q7 70 29 162q17 71 45 143q27 68 57 141l117 287v234h-713v-256z" />
    <glyph glyph-name="eight" unicode="8" horiz-adv-x="808" 
d="M43 207q0 -96 59 -152q58 -55 154 -55h297q98 0 156 55q57 54 57 152v352q0 52 -29 105q-30 50 -98 71q67 21 98 72q29 53 29 106v314q0 97 -57 151q-59 56 -156 56h-297q-95 0 -154 -56t-59 -151v-314q0 -55 31 -106q28 -51 96 -72q-69 -21 -96 -71q-31 -51 -31 -105
v-352zM326 283v292q0 48 47 48h63q47 0 47 -48v-292q0 -45 -47 -45h-63q-47 0 -47 45zM326 899v252q0 45 47 45h63q47 0 47 -45v-252q0 -47 -47 -47h-63q-47 0 -47 47z" />
    <glyph glyph-name="nine" unicode="9" horiz-adv-x="811" 
d="M41 207q0 -96 59 -152q58 -55 152 -55h299q96 0 154 55q59 56 59 152v1020q0 95 -59 151q-60 54 -154 54h-299q-92 0 -152 -54q-59 -56 -59 -151v-461q0 -88 61 -152q60 -63 181 -63q85 0 137 27q49 27 59 43v-338q0 -45 -47 -45h-61q-47 0 -47 45v178l-283 -33v-221z
M324 823v326q0 47 47 47h61q47 0 47 -47v-326q0 -39 -39 -39h-78q-16 0 -26 13q-12 9 -12 26z" />
    <glyph glyph-name="colon" unicode=":" horiz-adv-x="387" 
d="M45 0h297v311h-297v-311zM45 838h297v311h-297v-311z" />
    <glyph glyph-name="semicolon" unicode=";" horiz-adv-x="387" 
d="M45 0h139q78 0 119 35q39 36 39 117v434h-297v-312h102v-96q0 -18 -8 -26q-9 -9 -37 -9h-57v-143zM45 838h297v311h-297v-311z" />
    <glyph glyph-name="less" unicode="&#x3c;" horiz-adv-x="886" 
d="M41 612l805 -241v225l-502 135l502 141v226l-805 -260v-226z" />
    <glyph glyph-name="equal" unicode="=" horiz-adv-x="886" 
d="M41 430h805v225h-805v-225zM41 813h805v225h-805v-225z" />
    <glyph glyph-name="greater" unicode="&#x3e;" horiz-adv-x="886" 
d="M41 371l805 241v226l-805 260v-226l502 -141l-502 -135v-225z" />
    <glyph glyph-name="question" unicode="?" horiz-adv-x="749" 
d="M23 971l280 -33v213q0 45 47 45h47q47 0 47 -45v-117q0 -44 -14 -76q-8 -19 -47 -92l-107 -184q-34 -58 -47 -107q-12 -47 -12 -96v-41h293v17q0 45 12 86q8 37 49 102l93 150q42 66 53 116q10 58 10 111v211q0 93 -57 147q-59 56 -154 56h-283q-92 0 -151 -56t-59 -147
v-260zM217 0h297v293h-297v-293z" />
    <glyph glyph-name="at" unicode="@" horiz-adv-x="1492" 
d="M45 23q0 -140 90 -224q88 -82 234 -82h936l57 166h-950q-176 0 -176 170v1043q0 170 176 170h663q182 0 182 -170v-797q0 -66 -26 -92q-28 -31 -92 -31h-49v768q0 100 -58 152q-59 53 -155 53h-259q-94 0 -153 -53t-59 -152v-162l262 -32v127q0 45 45 45h61q43 0 43 -45
v-170l-221 -35q-94 -14 -150 -70q-51 -51 -51 -158v-227q0 -41 15 -82q11 -37 41 -67q30 -33 73 -50q44 -18 107 -18q65 0 123 23q53 22 77 59v-82h316q140 0 221 63q82 64 82 213v850q0 144 -88 226t-234 82h-759q-146 0 -234 -82q-90 -84 -90 -226v-1103zM668 260v186
q0 45 41 54l108 22v-262q0 -43 -43 -43h-61q-45 0 -45 43z" />
    <glyph glyph-name="A" unicode="A" 
d="M4 0h270l21 209h178l21 -209h288l-184 1434h-410zM317 428l70 709l66 -709h-136z" />
    <glyph glyph-name="B" unicode="B" horiz-adv-x="804" 
d="M47 0h510q98 0 156 55q57 54 57 152v354q0 46 -25 101q-22 49 -102 71q79 22 102 72q25 55 25 100v322q0 97 -57 151q-59 56 -156 56h-510v-1434zM332 238v387h108q47 0 47 -47v-295q0 -45 -47 -45h-108zM332 844v352h108q47 0 47 -45v-260q0 -47 -47 -47h-108z" />
    <glyph glyph-name="C" unicode="C" horiz-adv-x="802" 
d="M43 207q0 -96 59 -152q58 -55 154 -55h297q98 0 156 55q57 54 57 152v381l-283 33v-338q0 -45 -47 -45h-63q-45 0 -45 45v868q0 45 45 45h63q47 0 47 -45v-307l283 35v348q0 97 -57 151q-59 56 -156 56h-297q-95 0 -154 -56t-59 -151v-1020z" />
    <glyph glyph-name="D" unicode="D" horiz-adv-x="813" 
d="M47 0h510q98 0 156 55q57 54 57 152v1020q0 97 -57 151q-59 56 -156 56h-510v-1434zM332 238v958h108q47 0 47 -45v-868q0 -45 -47 -45h-108z" />
    <glyph glyph-name="E" unicode="E" horiz-adv-x="729" 
d="M47 0h668v238h-383v383h233v227h-233v348h379v238h-664v-1434z" />
    <glyph glyph-name="F" unicode="F" horiz-adv-x="663" 
d="M47 0h285v590h272v237h-272v369h321v238h-606v-1434z" />
    <glyph glyph-name="G" unicode="G" horiz-adv-x="808" 
d="M43 207q0 -96 59 -152q58 -55 154 -55h133q52 0 96 20q47 18 68 68l41 -88h172v784h-360v-219h77v-282q0 -45 -47 -45h-63q-45 0 -45 45v868q0 45 45 45h63q47 0 47 -45v-266l283 35v307q0 97 -57 151q-59 56 -156 56h-297q-95 0 -154 -56t-59 -151v-1020z" />
    <glyph glyph-name="H" unicode="H" horiz-adv-x="835" 
d="M47 0h285v604h174v-604h282v1434h-282v-572h-174v572h-285v-1434z" />
    <glyph glyph-name="I" unicode="I" horiz-adv-x="378" 
d="M47 0h285v1434h-285v-1434z" />
    <glyph glyph-name="J" unicode="J" horiz-adv-x="761" 
d="M27 207q0 -96 59 -152q58 -55 152 -55h264q97 0 155 55q60 57 60 152v1227h-285v-1151q0 -45 -47 -45h-37q-47 0 -47 45v338l-274 -33v-381z" />
    <glyph glyph-name="K" unicode="K" horiz-adv-x="817" 
d="M47 0h285v696l200 -696h299l-237 780l227 654h-280l-209 -609v609h-285v-1434z" />
    <glyph glyph-name="L" unicode="L" horiz-adv-x="673" 
d="M47 0h608v238h-323v1196h-285v-1434z" />
    <glyph glyph-name="M" unicode="M" horiz-adv-x="1099" 
d="M47 0h260v969l139 -969h197l141 961v-961h269v1434h-385l-117 -750l-107 750h-397v-1434z" />
    <glyph glyph-name="N" unicode="N" horiz-adv-x="833" 
d="M47 0h248v840l233 -840h258v1434h-247v-678l-185 678h-307v-1434z" />
    <glyph glyph-name="O" unicode="O" horiz-adv-x="808" 
d="M43 207q0 -96 59 -152q58 -55 154 -55h297q96 0 154 55q59 56 59 152v1020q0 95 -59 151t-154 56h-297q-95 0 -154 -56t-59 -151v-1020zM328 283v868q0 45 45 45h63q45 0 45 -45v-868q0 -45 -45 -45h-63q-45 0 -45 45z" />
    <glyph glyph-name="P" unicode="P" horiz-adv-x="780" 
d="M47 0h285v526h211q93 0 153 54q56 53 56 149v502q0 98 -56 151q-58 52 -153 52h-496v-1434zM332 764v432h88q47 0 47 -45v-342q0 -45 -47 -45h-88z" />
    <glyph glyph-name="Q" unicode="Q" horiz-adv-x="837" 
d="M43 207q0 -97 61 -152t162 -55h117q63 0 106 16q41 15 68 50q48 -66 148 -66h141v238h-35q-45 0 -45 45v944q0 97 -57 151q-59 56 -156 56h-297q-95 0 -154 -56t-59 -151v-1020zM328 283v868q0 45 45 45h63q45 0 45 -45v-868q0 -45 -45 -45h-63q-45 0 -45 45z" />
    <glyph glyph-name="R" unicode="R" horiz-adv-x="817" 
d="M47 0h285v575h80q77 0 77 -83v-248q0 -26 5 -99q2 -31 6 -77q3 -34 10 -68h289q-16 40 -19 98q-6 59 -6 101v299q0 61 -26 114q-27 56 -103 80q68 18 98 70q31 51 31 121v344q0 95 -59 151t-154 56h-514v-1434zM332 795v401h110q47 0 47 -45v-299q0 -26 -12 -41
q-16 -16 -43 -16h-102z" />
    <glyph glyph-name="S" unicode="S" horiz-adv-x="788" 
d="M33 207q0 -96 59 -152q58 -55 154 -55h297q97 0 155 55t58 152v278q0 87 -31 154q-30 62 -104 115l-232 172q-37 29 -53 53q-21 27 -21 78v94q0 45 47 45h64q47 0 47 -45v-197l283 27v246q0 96 -58 151q-59 56 -155 56h-297q-95 0 -154 -56t-59 -151v-244q0 -93 30 -152
q29 -59 115 -120l217 -162q36 -24 60 -55q18 -27 18 -80v-135q0 -46 -47 -46h-64q-47 0 -47 46v227l-282 -29v-270z" />
    <glyph glyph-name="T" unicode="T" horiz-adv-x="765" 
d="M16 1196h226v-1196h282v1196h226v238h-734v-238z" />
    <glyph glyph-name="U" unicode="U" horiz-adv-x="806" 
d="M45 207q0 -96 59 -152q58 -55 154 -55h291q98 0 156 55q57 54 57 152v1227h-277v-1151q0 -45 -47 -45h-63q-45 0 -45 45v1151h-285v-1227z" />
    <glyph glyph-name="V" unicode="V" 
d="M4 1434l184 -1434h410l184 1434h-270l-113 -1137l-106 1137h-289z" />
    <glyph glyph-name="W" unicode="W" horiz-adv-x="1167" 
d="M0 1434l195 -1434h282l107 758l116 -758h273l194 1434h-258l-92 -768l-121 768h-213l-121 -770l-79 770h-283z" />
    <glyph glyph-name="X" unicode="X" horiz-adv-x="806" 
d="M-20 0h278l131 471l148 -471h297l-248 727l215 707h-269l-114 -420l-121 420h-301l227 -662z" />
    <glyph glyph-name="Y" unicode="Y" horiz-adv-x="800" 
d="M-10 1434l272 -844v-590h283v590l260 844h-277l-114 -500l-125 500h-299z" />
    <glyph glyph-name="Z" unicode="Z" horiz-adv-x="737" 
d="M16 0h701v238h-381l373 1015v181h-682v-238h366l-377 -1016v-180z" />
    <glyph glyph-name="bracketleft" unicode="[" horiz-adv-x="565" 
d="M51 -246h496v205h-221v1268h221v207h-496v-1680z" />
    <glyph glyph-name="backslash" unicode="\" horiz-adv-x="337" 
d="M20 1434l183 -1434h114l-182 1434h-115z" />
    <glyph glyph-name="bracketright" unicode="]" horiz-adv-x="563" 
d="M16 -41v-205h496v1680h-496v-207h222v-1268h-222z" />
    <glyph glyph-name="asciicircum" unicode="^" horiz-adv-x="907" 
d="M41 610h274l146 584l131 -584h274l-223 824h-364z" />
    <glyph glyph-name="underscore" unicode="_" horiz-adv-x="485" 
d="M0 -125v-219h485v219h-485z" />
    <glyph glyph-name="grave" unicode="`" horiz-adv-x="538" 
d="M82 1434l174 -258h221l-82 258h-313z" />
    <glyph glyph-name="a" unicode="a" horiz-adv-x="763" 
d="M27 205q0 -41 14 -76q12 -37 41 -66q31 -31 74 -45q46 -18 108 -18q67 0 121 23q53 22 80 59v-82h258v944q0 99 -59 152t-156 53h-258q-95 0 -154 -53t-59 -152v-162l262 -32v127q0 45 45 45h62q45 0 45 -45v-170l-224 -35q-93 -14 -149 -70q-51 -51 -51 -158v-239z
M299 260v186q0 45 41 54l111 22v-262q0 -43 -45 -43h-62q-45 0 -45 43z" />
    <glyph glyph-name="b" unicode="b" horiz-adv-x="782" 
d="M43 0h211l39 84q26 -29 82 -55q60 -29 121 -29q119 0 184 59q63 57 63 156v727q0 98 -57 152q-58 55 -164 55q-74 0 -127 -27q-57 -29 -80 -59v371h-272v-1434zM315 276v596q0 46 43 46h68q45 0 45 -46v-596q0 -45 -45 -45h-68q-43 0 -43 45z" />
    <glyph glyph-name="c" unicode="c" horiz-adv-x="765" 
d="M39 199q0 -95 57 -146q59 -53 152 -53h284q91 0 150 53q57 51 57 146v235l-272 51v-213q0 -45 -45 -45h-66q-45 0 -45 45v605q0 45 45 45h66q45 0 45 -45v-179l272 52v200q0 97 -57 148t-150 51h-284q-95 0 -152 -51t-57 -148v-751z" />
    <glyph glyph-name="d" unicode="d" horiz-adv-x="782" 
d="M39 207q0 -101 57 -152q58 -55 162 -55q76 0 129 27t80 57l20 -84h252v1434h-272v-365q-25 28 -74 55q-55 25 -117 25q-114 0 -174 -57q-63 -57 -63 -158v-727zM311 276v596q0 46 43 46h68q45 0 45 -46v-596q0 -45 -45 -45h-68q-43 0 -43 45z" />
    <glyph glyph-name="e" unicode="e" horiz-adv-x="776" 
d="M39 199q0 -95 57 -146q59 -53 152 -53h284q91 0 150 53q57 51 57 146v159l-272 52v-138q0 -45 -45 -45h-66q-45 0 -45 45v215h428v463q0 95 -57 146q-59 53 -150 53h-284q-93 0 -152 -53q-57 -51 -57 -146v-751zM311 682v203q0 45 45 45h66q45 0 45 -45v-203h-156z" />
    <glyph glyph-name="f" unicode="f" horiz-adv-x="550" 
d="M12 928h117v-928h272v928h138v221h-138v108q0 35 35 35h113v203h-217q-99 0 -150 -51q-53 -53 -53 -144v-151h-117v-221z" />
    <glyph glyph-name="g" unicode="g" horiz-adv-x="811" 
d="M18 -74v-26q0 -87 60 -138q58 -49 164 -49h299q120 0 186 54q64 52 64 161v117q0 34 -7 74q-9 36 -26 61q-22 28 -56 49q-37 22 -90 31l-245 47q-45 9 -45 51v39h198q99 0 158 56q57 51 57 147v449q0 26 27 26h45v209h-189q-124 0 -124 -110v-25h-248q-91 0 -150 -53
q-57 -51 -57 -148v-346q0 -58 27 -110q23 -51 100 -72q-42 -17 -64 -60q-22 -42 -22 -88v-8q0 -44 18 -84q15 -42 72 -63q-83 -20 -119 -72q-33 -47 -33 -119zM262 12q0 22 10 39q7 9 27 21l182 -35q20 -3 31 -14q6 -9 6 -27v-45q0 -39 -39 -39h-178q-39 0 -39 39v61z
M301 651v242q0 43 45 43h127v-285q0 -43 -45 -43h-82q-45 0 -45 43z" />
    <glyph glyph-name="h" unicode="h" horiz-adv-x="784" 
d="M43 0h272v854q0 45 43 45h68q45 0 45 -45v-854h272v938q0 97 -57 154t-164 57q-74 0 -127 -29q-50 -26 -80 -59v373h-272v-1434z" />
    <glyph glyph-name="i" unicode="i" horiz-adv-x="358" 
d="M43 0h272v1149h-272v-1149zM43 1229h272v205h-272v-205z" />
    <glyph glyph-name="j" unicode="j" horiz-adv-x="358" 
d="M-47 -84v-203h172q110 3 149 51q41 47 41 134v1251h-272v-1198q0 -18 -6 -27q-8 -8 -33 -8h-51zM43 1229h272v205h-272v-205z" />
    <glyph glyph-name="k" unicode="k" horiz-adv-x="780" 
d="M43 0h272v526l185 -526h297l-234 649l205 500h-274l-179 -465v750h-272v-1434z" />
    <glyph glyph-name="l" unicode="l" horiz-adv-x="358" 
d="M43 0h272v1434h-272v-1434z" />
    <glyph glyph-name="m" unicode="m" horiz-adv-x="1212" 
d="M43 0h272v854q0 45 43 45h68q45 0 45 -45v-854h272v854q0 45 43 45h68q45 0 45 -45v-854h272v938q0 96 -61 154q-60 57 -166 57q-79 0 -135 -33q-63 -35 -96 -80q-24 52 -76 82q-54 31 -117 31q-75 0 -131 -29t-82 -65l-26 94h-238v-1149z" />
    <glyph glyph-name="n" unicode="n" horiz-adv-x="784" 
d="M43 0h272v854q0 45 43 45h68q45 0 45 -45v-854h272v938q0 97 -57 154t-164 57q-75 0 -131 -29q-57 -31 -84 -65l-26 94h-238v-1149z" />
    <glyph glyph-name="o" unicode="o" horiz-adv-x="778" 
d="M39 199q0 -95 57 -146q59 -53 152 -53h284q91 0 150 53q57 51 57 146v751q0 95 -57 146q-59 53 -150 53h-284q-93 0 -152 -53q-57 -51 -57 -146v-751zM311 272v605q0 45 45 45h66q45 0 45 -45v-605q0 -45 -45 -45h-66q-45 0 -45 45z" />
    <glyph glyph-name="p" unicode="p" horiz-adv-x="782" 
d="M43 -287h272v367q23 -30 74 -53q49 -27 115 -27q113 0 178 59q61 58 61 156v727q0 98 -57 152q-58 55 -164 55q-74 0 -127 -27q-57 -29 -80 -59l-20 86h-252v-1436zM315 276v596q0 46 43 46h68q45 0 45 -46v-596q0 -45 -45 -45h-68q-43 0 -43 45z" />
    <glyph glyph-name="q" unicode="q" horiz-adv-x="782" 
d="M39 207q0 -101 57 -152q58 -55 162 -55q76 0 129 27t80 57v-371h272v1436h-213l-51 -80q-24 27 -78 55q-58 25 -121 25q-114 0 -174 -57q-63 -57 -63 -158v-727zM311 276v596q0 46 43 46h68q45 0 45 -46v-596q0 -45 -45 -45h-68q-43 0 -43 45z" />
    <glyph glyph-name="r" unicode="r" horiz-adv-x="716" 
d="M43 0h272v856q0 43 43 43h31q43 0 43 -43v-266l262 49v315q0 92 -55 144q-54 51 -143 51q-82 0 -129 -35q-48 -37 -76 -72l-17 107h-231v-1149z" />
    <glyph glyph-name="s" unicode="s" horiz-adv-x="753" 
d="M27 772q0 -84 32 -133q30 -52 103 -94l258 -148q24 -13 35 -35q8 -16 8 -45v-69q0 -43 -43 -43h-90q-45 0 -45 45v147l-254 -41v-157q0 -95 57 -146q59 -53 154 -53h264q103 0 164 55q59 56 59 146v149q0 92 -27 148q-28 55 -108 100l-254 150q-25 16 -33 34
q-10 20 -10 45v74q0 43 43 43h88q45 0 45 -45v-135l252 45v135q0 96 -57 150q-58 55 -156 55h-260q-106 0 -164 -55q-61 -55 -61 -150v-172z" />
    <glyph glyph-name="t" unicode="t" horiz-adv-x="544" 
d="M10 928h117v-928h272v928h138v221h-138v285h-272v-285h-117v-221z" />
    <glyph glyph-name="u" unicode="u" horiz-adv-x="784" 
d="M41 207q0 -95 61 -150q57 -57 164 -57q73 0 129 29q53 27 80 65l27 -94h239v1149h-272v-854q0 -45 -45 -45h-66q-45 0 -45 45v854h-272v-942z" />
    <glyph glyph-name="v" unicode="v" horiz-adv-x="747" 
d="M0 1149l217 -1149h313l218 1149h-261l-102 -799l-109 799h-276z" />
    <glyph glyph-name="w" unicode="w" horiz-adv-x="1173" 
d="M2 1149l191 -1149h284l109 678l110 -678h285l188 1149h-260l-84 -688l-112 688h-242l-111 -688l-81 688h-277z" />
    <glyph glyph-name="x" unicode="x" horiz-adv-x="776" 
d="M-20 0h268l127 362l133 -362h291l-244 580l213 569h-256l-104 -332l-121 332h-285l221 -543z" />
    <glyph glyph-name="y" unicode="y" horiz-adv-x="737" 
d="M10 1149l164 -1079h131l-12 -99q-6 -55 -76 -55h-117v-203h209q107 0 160 39q55 40 70 139l198 1258h-264l-98 -795l-84 795h-281z" />
    <glyph glyph-name="z" unicode="z" horiz-adv-x="712" 
d="M8 0h688v221h-379l367 740v188h-664v-221h357l-369 -742v-186z" />
    <glyph glyph-name="braceleft" unicode="{" horiz-adv-x="579" 
d="M2 496h96q43 0 43 -39v-512q0 -91 58 -140q54 -51 153 -51h211v207h-106q-22 0 -31 12q-10 10 -10 27v371q0 37 -6 75q-5 32 -23 68q-19 32 -49 53q-37 23 -86 31v4q44 8 86 33q32 22 49 51q18 36 23 68q6 34 6 73v361q0 16 10 29q10 10 31 10h106v207h-211
q-98 0 -153 -52q-58 -52 -58 -139v-495q0 -39 -43 -39h-96v-213z" />
    <glyph glyph-name="bar" unicode="|" horiz-adv-x="270" 
d="M53 -209h164v1860h-164v-1860z" />
    <glyph glyph-name="braceright" unicode="}" horiz-adv-x="579" 
d="M16 -39v-207h211q99 0 156 51q55 49 55 140v512q0 39 43 39h97v213h-97q-43 0 -43 39v495q0 87 -55 139q-58 52 -156 52h-211v-207h107q23 0 33 -10q8 -11 8 -29v-361q0 -39 6 -73q6 -36 25 -68q15 -30 49 -51q43 -26 84 -33v-4q-46 -8 -84 -31q-32 -20 -49 -53
q-19 -32 -25 -68q-6 -38 -6 -75v-371q0 -19 -8 -27q-9 -12 -33 -12h-107z" />
    <glyph glyph-name="asciitilde" unicode="~" horiz-adv-x="874" 
d="M41 586h190v16q0 22 15 37q11 14 41 14q15 0 63 -10q14 -3 44.5 -10.5t47.5 -11.5q58 -18 101 -25q55 -10 86 -10q102 0 155 59q50 59 50 135v115h-191v-16q0 -22 -12 -37q-15 -15 -43 -15q-10 0 -60 11q-40 8 -92 24q-97 22 -102 23q-58 10 -88 10q-106 0 -154 -57
q-51 -57 -51 -138v-114z" />
    <glyph glyph-name="uni00A0" unicode="&#xa0;" horiz-adv-x="249" 
 />
    <glyph glyph-name="exclamdown" unicode="&#xa1;" horiz-adv-x="382" 
d="M39 70v-355h307v355l-80 622h-147zM43 838h297v311h-297v-311z" />
    <glyph glyph-name="cent" unicode="&#xa2;" horiz-adv-x="768" 
d="M37 199q0 -95 57 -146q59 -53 152 -53h49v-197h186v197h49q91 0 150 53q57 51 57 146v235l-272 51v-213q0 -45 -45 -45h-66q-45 0 -45 45v605q0 45 45 45h66q45 0 45 -45v-179l272 52v200q0 97 -57 148t-150 51h-49v174h-186v-174h-49q-95 0 -152 -51t-57 -148v-751z" />
    <glyph glyph-name="sterling" unicode="&#xa3;" horiz-adv-x="870" 
d="M29 0h815v229h-441v310h226v184h-226v426q0 23 15 35q12 12 35 12h57q22 0 37 -12q12 -12 12 -35v-166l283 33v215q0 92 -58 147q-59 56 -153 56h-299q-95 0 -154 -56t-59 -147v-508h-90v-184h90v-310h-90v-229z" />
    <glyph glyph-name="currency" unicode="&#xa4;" horiz-adv-x="1249" 
d="M20 217l105 -104l172 168q69 -57 154 -82q83 -27 174 -27t174 27q83 24 153 82l172 -168l105 104l-172 166q112 150 112 340t-112 340l172 166l-105 104l-172 -168q-68 56 -153 84q-86 25 -174 25t-174 -25q-87 -29 -154 -84l-172 168l-105 -104l173 -166
q-113 -152 -113 -340t113 -340zM219 723q0 84 29 166q24 69 82 133q51 57 129 92q70 33 166 33q95 0 168 -33q77 -36 127 -92q56 -63 81 -133q29 -82 29 -166q0 -82 -29 -164q-26 -74 -81 -135q-47 -53 -127 -90q-78 -35 -168 -35q-91 0 -166 35q-81 37 -129 90
q-57 63 -82 135q-29 82 -29 164z" />
    <glyph glyph-name="yen" unicode="&#xa5;" horiz-adv-x="800" 
d="M-10 1434l229 -711h-141v-184h184v-103h-184v-184h184v-252h283v252h184v184h-184v103h184v184h-143l219 711h-277l-114 -500l-125 500h-299z" />
    <glyph glyph-name="brokenbar" unicode="&#xa6;" horiz-adv-x="270" 
d="M53 -209h164v803h-164v-803zM53 874h164v777h-164v-777z" />
    <glyph glyph-name="section" unicode="&#xa7;" horiz-adv-x="792" 
d="M35 -14q0 -92 59 -148q58 -55 154 -55h297q97 0 155 55t58 148v174q0 93 -27 157q-25 59 -119 115l-561 320v-162q0 -69 31 -117q27 -46 78 -74l235 -129q47 -24 66 -51q14 -22 14 -78v-75q0 -46 -45 -46h-68q-45 0 -45 46v172l-282 -31v-221zM35 1057q0 -89 28 -156
q27 -63 117 -117l561 -319v162q0 70 -28 118q-28 44 -80 72l-236 129q-47 24 -65 53q-15 21 -15 76v76q0 45 45 45h68q45 0 45 -45v-172l283 31v221q0 92 -58 147q-59 56 -155 56h-297q-95 0 -154 -56t-59 -147v-174z" />
    <glyph glyph-name="dieresis" unicode="&#xa8;" horiz-adv-x="667" 
d="M53 1194h242v240h-242v-240zM373 1194h241v240h-241v-240z" />
    <glyph glyph-name="copyright" unicode="&#xa9;" horiz-adv-x="1253" 
d="M43 305q0 -139 84 -223q82 -82 225 -82h547q147 0 229 82t82 223v823q0 142 -82 224t-229 82h-547q-143 0 -225 -82q-84 -84 -84 -224v-823zM223 336v762q0 85 41 129q40 43 125 43h469q89 0 129 -43q39 -42 39 -129v-762q0 -87 -39 -129q-39 -45 -129 -45h-469
q-86 0 -125 45q-41 44 -41 129zM322 461q0 -95 65 -148q64 -55 156 -55h166q91 0 155 55q64 52 64 148v162l-223 30v-159q0 -19 -13 -29t-28 -10h-76q-16 0 -29 10q-12 9 -12 29v446q0 20 12 29q13 10 29 10h76q15 0 28 -10t13 -29v-133l223 31v137q0 92 -64 147
q-66 54 -155 54h-166q-90 0 -156 -54q-65 -56 -65 -147v-514z" />
    <glyph glyph-name="ordfeminine" unicode="&#xaa;" horiz-adv-x="638" 
d="M31 719q0 -70 45 -121q44 -53 139 -53q58 0 102 20q47 21 74 68v-88h201v721q0 76 -53 123q-51 45 -129 45h-187q-78 0 -129 -45q-55 -46 -55 -123v-121l213 -27v96q0 17 10 27q8 8 25 8h49q15 0 26 -8q11 -11 11 -27v-141l-180 -24q-80 -9 -121 -56t-41 -116v-158z
M252 762v92q0 17 6 29q4 11 25 14l90 12v-147q0 -14 -11 -25q-11 -8 -26 -8h-49q-17 0 -25 8q-10 10 -10 25z" />
    <glyph glyph-name="guillemotleft" unicode="&#xab;" horiz-adv-x="1101" 
d="M14 575l324 -575h313l-323 575l325 574h-315zM442 575l324 -575h313l-323 575l325 574h-315z" />
    <glyph glyph-name="logicalnot" unicode="&#xac;" horiz-adv-x="886" 
d="M41 813h573v-383h232v608h-805v-225z" />
    <glyph glyph-name="uni00AD" unicode="&#xad;" horiz-adv-x="495" 
d="M39 477h418v240h-418v-240z" />
    <glyph glyph-name="registered" unicode="&#xae;" horiz-adv-x="1253" 
d="M43 305q0 -139 84 -223q82 -82 225 -82h547q147 0 229 82t82 223v823q0 142 -82 224t-229 82h-547q-143 0 -225 -82q-84 -84 -84 -224v-823zM223 336v762q0 85 41 129q40 43 125 43h469q89 0 129 -43q39 -42 39 -129v-762q0 -87 -39 -129q-39 -45 -129 -45h-469
q-86 0 -125 45q-41 44 -41 129zM336 258h223v332h74q24 0 39 -15q16 -16 16 -47v-63q0 -105 8 -146q4 -18 8.5 -39t4.5 -22h229q-15 34 -18 90q-7 65 -7 107v53q0 31 -2 49q-2 17 -14 49q-8 22 -31 45t-57 31q77 21 98 74q21 50 21 102v117q0 87 -49 145q-50 56 -142 56
h-401v-918zM559 778v201h105q20 0 30 -10q11 -15 11 -29v-119q0 -13 -11 -28q-9 -15 -30 -15h-105z" />
    <glyph glyph-name="macron" unicode="&#xaf;" horiz-adv-x="620" 
d="M41 1217h539v196h-539v-196z" />
    <glyph glyph-name="degree" unicode="&#xb0;" horiz-adv-x="602" 
d="M31 887q0 -91 59 -144q58 -55 154 -55h114q98 0 156 55q57 51 57 144v348q0 91 -57 145q-60 54 -156 54h-114q-94 0 -154 -54q-59 -56 -59 -145v-348zM227 909v303q0 54 54 54h38q25 0 41 -13q15 -15 15 -41v-303q0 -29 -15 -41t-41 -12h-38q-54 0 -54 53z" />
    <glyph glyph-name="plusminus" unicode="&#xb1;" horiz-adv-x="886" 
d="M41 0h805v225h-805v-225zM41 623h287v-275h231v275h287v227h-287v295h-231v-295h-287v-227z" />
    <glyph glyph-name="uni00B2" unicode="&#xb2;" horiz-adv-x="595" 
d="M27 1368l215 -22v184q0 26 26 26h56q26 0 26 -26v-121q0 -47 -12 -68q-11 -23 -41 -49l-211 -184q-30 -27 -39 -66q-10 -42 -10 -81v-240h530v182h-309v37q0 29 2 39q3 16 25 35l192 170q55 49 72 90q18 40 18 106v209q0 63 -41 107q-43 43 -112 43h-236q-68 0 -108 -43
q-43 -43 -43 -107v-221z" />
    <glyph glyph-name="uni00B3" unicode="&#xb3;" horiz-adv-x="602" 
d="M27 868q0 -64 43 -104q40 -43 108 -43h236q67 0 110 43q43 40 43 104v254q0 34 -18 68q-23 33 -70 47q51 15 70 47q18 30 18 66v239q0 64 -43 107t-110 43h-236q-68 0 -108 -43q-43 -43 -43 -107v-166l215 -24v131q0 26 26 26h56q26 0 26 -26v-174q0 -33 -33 -33h-96
v-176h96q33 0 33 -33v-184q0 -27 -26 -27h-56q-26 0 -26 27v125l-215 -25v-162z" />
    <glyph glyph-name="acute" unicode="&#xb4;" horiz-adv-x="538" 
d="M61 1176h224l172 258h-314z" />
    <glyph glyph-name="mu" unicode="&#xb5;" horiz-adv-x="794" 
d="M47 -287h209v287h16q73 0 129 29q53 27 80 65l27 -94h240v1149h-273v-854q0 -45 -45 -45h-65q-46 0 -46 45v854h-272v-1436z" />
    <glyph glyph-name="paragraph" unicode="&#xb6;" horiz-adv-x="1083" 
d="M47 213q0 -89 55 -150q51 -63 158 -63h397v1434h-397q-105 0 -158 -62q-55 -64 -55 -151v-1008zM752 0h284v1434h-284v-1434z" />
    <glyph glyph-name="periodcentered" unicode="&#xb7;" horiz-adv-x="342" 
d="M39 594h264v278h-264v-278z" />
    <glyph glyph-name="cedilla" unicode="&#xb8;" horiz-adv-x="438" 
d="M18 -319h256l123 380h-256z" />
    <glyph glyph-name="uni00B9" unicode="&#xb9;" horiz-adv-x="512" 
d="M25 721h479v180h-129v838h-129l-13 -23q-19 -40 -57 -63q-34 -21 -96 -21h-53v-180h133v-551h-135v-180z" />
    <glyph glyph-name="ordmasculine" unicode="&#xba;" horiz-adv-x="649" 
d="M43 723q0 -84 53 -131t129 -47h199q78 0 131 47q51 45 51 131v532q0 89 -51 134t-131 45h-199q-78 0 -129 -45q-53 -47 -53 -134v-532zM262 766v448q0 18 12 27q8 8 23 8h57q14 0 25 -8q10 -10 10 -27v-448q0 -17 -10 -27q-11 -8 -25 -8h-57q-15 0 -23 8q-12 9 -12 27z
" />
    <glyph glyph-name="guillemotright" unicode="&#xbb;" horiz-adv-x="1101" 
d="M20 1149l326 -574l-323 -575h313l323 575l-323 574h-316zM449 1149l325 -574l-323 -575h313l323 575l-323 574h-315z" />
    <glyph glyph-name="onequarter" unicode="&#xbc;" horiz-adv-x="1200" 
d="M31 416h479v180h-129v838h-129l-12 -23q-19 -39 -58 -63q-34 -21 -96 -21h-53v-180h133v-551h-135v-180zM594 233h289v-233h213v233h80v173h-80v612h-242l-260 -574v-211zM731 406l152 360v-360h-152z" />
    <glyph glyph-name="onehalf" unicode="&#xbd;" horiz-adv-x="1163" 
d="M27 416h479v180h-129v838h-129l-12 -23q-19 -39 -58 -63q-34 -21 -96 -21h-53v-180h133v-551h-135v-180zM596 647l215 -22v184q0 27 27 27h55q27 0 27 -27v-121q0 -44 -13 -67q-12 -24 -41 -50l-211 -184q-30 -27 -39 -65q-10 -42 -10 -82v-240h531v182h-310v37
q0 29 2 39q3 16 25 35l193 170q53 47 71 90q19 43 19 106v209q0 63 -41 107q-43 43 -113 43h-235q-69 0 -109 -43q-43 -43 -43 -107v-221z" />
    <glyph glyph-name="threequarters" unicode="&#xbe;" horiz-adv-x="1257" 
d="M29 563q0 -64 43 -104q40 -43 108 -43h236q67 0 110 43q43 40 43 104v254q0 33 -18 68q-23 33 -70 47q51 15 70 47q18 30 18 65v240q0 64 -43 107t-110 43h-236q-68 0 -108 -43q-43 -43 -43 -107v-166l215 -24v131q0 26 26 26h56q26 0 26 -26v-174q0 -33 -33 -33h-96
v-176h96q33 0 33 -33v-184q0 -27 -26 -27h-56q-26 0 -26 27v125l-215 -25v-162zM651 233h289v-233h213v233h80v173h-80v612h-242l-260 -574v-211zM788 406l152 360v-360h-152z" />
    <glyph glyph-name="questiondown" unicode="&#xbf;" horiz-adv-x="747" 
d="M23 -82q0 -91 59 -147t151 -56h283q95 0 154 56q57 54 57 147v260l-281 33v-213q0 -45 -47 -45h-47q-47 0 -47 45v117q0 35 17 78q15 35 45 90l106 184q35 59 47 106t12 97v41h-292v-17q0 -36 -11 -86q-12 -39 -51 -102l-92 -150q-43 -68 -51 -116q-12 -52 -12 -111v-211
zM236 856h296v293h-296v-293z" />
    <glyph glyph-name="Agrave" unicode="&#xc0;" 
d="M4 0h270l21 209h178l21 -209h288l-184 1434h-410zM104 1753l175 -258h221l-82 258h-314zM317 428l70 709l66 -709h-136z" />
    <glyph glyph-name="Aacute" unicode="&#xc1;" 
d="M4 0h270l21 209h178l21 -209h288l-184 1434h-410zM291 1495h223l172 258h-313zM317 428l70 709l66 -709h-136z" />
    <glyph glyph-name="Acircumflex" unicode="&#xc2;" 
d="M4 0h270l21 209h178l21 -209h288l-184 1434h-410zM82 1495h229l86 100l84 -100h230l-160 258h-309zM317 428l70 709l66 -709h-136z" />
    <glyph glyph-name="Atilde" unicode="&#xc3;" 
d="M4 0h270l21 209h178l21 -209h288l-184 1434h-410zM100 1518h150v12q0 37 31 37q18 0 45 -8q15 -5 65 -17q62 -15 76 -18q33 -8 68 -8q77 0 116 45q37 43 37 112v96h-149v-14q0 -35 -31 -35q-16 0 -43 9q-20 6 -66 18q-14 3 -39 8.5t-36 7.5q-40 9 -70 9q-78 0 -115 -46
q-39 -45 -39 -112v-96zM317 428l70 709l66 -709h-136z" />
    <glyph glyph-name="Adieresis" unicode="&#xc4;" 
d="M4 0h270l21 209h178l21 -209h288l-184 1434h-410zM115 1513h241v240h-241v-240zM317 428l70 709l66 -709h-136zM434 1513h242v240h-242v-240z" />
    <glyph glyph-name="Aring" unicode="&#xc5;" 
d="M4 0h270l21 209h178l21 -209h288l-184 1434h-410zM127 1669q0 -87 51 -135q48 -51 146 -51h143q96 0 147 51q50 50 50 135v121q0 84 -50 137q-52 49 -147 49h-143q-97 0 -146 -49q-51 -51 -51 -137v-121zM317 428l70 709l66 -709h-136zM317 1692v75q0 52 52 52h53
q51 0 51 -52v-75q0 -52 -51 -52h-53q-52 0 -52 52z" />
    <glyph glyph-name="AE" unicode="&#xc6;" horiz-adv-x="1124" 
d="M4 0h262l29 248h164l26 -248h625v238h-383v383h234v227h-234v348h379v238h-922zM319 469l72 684l53 -684h-125z" />
    <glyph glyph-name="Ccedilla" unicode="&#xc7;" horiz-adv-x="802" 
d="M43 207q0 -96 59 -152q58 -55 154 -55h18l-102 -319h256l102 319h23q98 0 156 55q57 54 57 152v381l-283 33v-338q0 -45 -47 -45h-63q-45 0 -45 45v868q0 45 45 45h63q47 0 47 -45v-307l283 35v348q0 97 -57 151q-59 56 -156 56h-297q-95 0 -154 -56t-59 -151v-1020z" />
    <glyph glyph-name="Egrave" unicode="&#xc8;" horiz-adv-x="729" 
d="M47 0h668v238h-383v383h233v227h-233v348h379v238h-664v-1434zM76 1753l174 -258h221l-82 258h-313z" />
    <glyph glyph-name="Eacute" unicode="&#xc9;" horiz-adv-x="729" 
d="M47 0h668v238h-383v383h233v227h-233v348h379v238h-664v-1434zM260 1495h223l172 258h-313z" />
    <glyph glyph-name="Ecircumflex" unicode="&#xca;" horiz-adv-x="729" 
d="M47 0h668v238h-383v383h233v227h-233v348h379v238h-664v-1434zM51 1495h230l86 100l84 -100h229l-160 258h-309z" />
    <glyph glyph-name="Edieresis" unicode="&#xcb;" horiz-adv-x="729" 
d="M47 0h668v238h-383v383h233v227h-233v348h379v238h-664v-1434zM86 1513h242v240h-242v-240zM406 1513h241v240h-241v-240z" />
    <glyph glyph-name="Igrave" unicode="&#xcc;" horiz-adv-x="378" 
d="M-100 1753l174 -258h221l-82 258h-313zM47 0h285v1434h-285v-1434z" />
    <glyph glyph-name="Iacute" unicode="&#xcd;" horiz-adv-x="378" 
d="M47 0h285v1434h-285v-1434zM84 1495h223l172 258h-313z" />
    <glyph glyph-name="Icircumflex" unicode="&#xce;" horiz-adv-x="378" 
d="M-125 1495h229l86 100l84 -100h230l-160 258h-309zM47 0h285v1434h-285v-1434z" />
    <glyph glyph-name="Idieresis" unicode="&#xcf;" horiz-adv-x="378" 
d="M-90 1513h242v240h-242v-240zM47 0h285v1434h-285v-1434zM229 1513h242v240h-242v-240z" />
    <glyph glyph-name="Eth" unicode="&#xd0;" horiz-adv-x="821" 
d="M-2 621h57v-621h510q96 0 154 55q59 56 59 152v1020q0 95 -59 151t-154 56h-510v-586h-57v-227zM338 238v383h86v227h-86v348h106q22 0 37 -12q13 -13 13 -35v-864q0 -22 -13 -35q-15 -12 -37 -12h-106z" />
    <glyph glyph-name="Ntilde" unicode="&#xd1;" horiz-adv-x="833" 
d="M47 0h248v840l233 -840h258v1434h-247v-678l-185 678h-307v-1434zM121 1518h149v12q0 37 31 37q18 0 45 -8q12 -4 66 -17q8 -2 23 -5.5t27.5 -6.5t24.5 -6q33 -8 68 -8q78 0 117 45q37 43 37 112v96h-150v-14q0 -35 -31 -35q-16 0 -43 9q-27 8 -65 18q-14 3 -39.5 8
t-36.5 8q-41 9 -70 9q-77 0 -114 -46q-39 -45 -39 -112v-96z" />
    <glyph glyph-name="Ograve" unicode="&#xd2;" horiz-adv-x="808" 
d="M43 207q0 -96 59 -152q58 -55 154 -55h297q96 0 154 55q59 56 59 152v1020q0 95 -59 151t-154 56h-297q-95 0 -154 -56t-59 -151v-1020zM115 1753l174 -258h221l-82 258h-313zM328 283v868q0 45 45 45h63q45 0 45 -45v-868q0 -45 -45 -45h-63q-45 0 -45 45z" />
    <glyph glyph-name="Oacute" unicode="&#xd3;" horiz-adv-x="808" 
d="M43 207q0 -96 59 -152q58 -55 154 -55h297q96 0 154 55q59 56 59 152v1020q0 95 -59 151t-154 56h-297q-95 0 -154 -56t-59 -151v-1020zM299 1495h223l172 258h-313zM328 283v868q0 45 45 45h63q45 0 45 -45v-868q0 -45 -45 -45h-63q-45 0 -45 45z" />
    <glyph glyph-name="Ocircumflex" unicode="&#xd4;" horiz-adv-x="808" 
d="M43 207q0 -96 59 -152q58 -55 154 -55h297q96 0 154 55q59 56 59 152v1020q0 95 -59 151t-154 56h-297q-95 0 -154 -56t-59 -151v-1020zM90 1495h229l87 100l83 -100h230l-160 258h-309zM328 283v868q0 45 45 45h63q45 0 45 -45v-868q0 -45 -45 -45h-63q-45 0 -45 45z
" />
    <glyph glyph-name="Otilde" unicode="&#xd5;" horiz-adv-x="808" 
d="M43 207q0 -96 59 -152q58 -55 154 -55h297q96 0 154 55q59 56 59 152v1020q0 95 -59 151t-154 56h-297q-95 0 -154 -56t-59 -151v-1020zM109 1518h149v12q0 37 31 37q18 0 45 -8q15 -5 65 -17q63 -15 76 -18q33 -8 68 -8q77 0 116 45q37 43 37 112v96h-149v-14
q0 -35 -31 -35q-16 0 -43 9q-27 8 -65 18q-14 3 -39.5 8t-36.5 8q-40 9 -70 9q-78 0 -115 -46q-38 -44 -38 -112v-96zM328 283v868q0 45 45 45h63q45 0 45 -45v-868q0 -45 -45 -45h-63q-45 0 -45 45z" />
    <glyph glyph-name="Odieresis" unicode="&#xd6;" horiz-adv-x="808" 
d="M43 207q0 -96 59 -152q58 -55 154 -55h297q96 0 154 55q59 56 59 152v1020q0 95 -59 151t-154 56h-297q-95 0 -154 -56t-59 -151v-1020zM125 1513h242v240h-242v-240zM328 283v868q0 45 45 45h63q45 0 45 -45v-868q0 -45 -45 -45h-63q-45 0 -45 45zM444 1513h242v240
h-242v-240z" />
    <glyph glyph-name="multiply" unicode="&#xd7;" horiz-adv-x="1243" 
d="M41 270l123 -123l459 457l456 -457l123 125l-457 455l457 457l-123 125l-456 -459l-459 459l-123 -123l459 -459z" />
    <glyph glyph-name="Oslash" unicode="&#xd8;" horiz-adv-x="808" 
d="M41 -104h233l37 104h242q98 0 156 55q57 54 57 152v1020q0 49 -14 84q-15 34 -39 61l55 164h-233l-37 -102h-242q-95 0 -154 -56t-59 -151v-1020q0 -93 55 -148zM328 283v868q0 45 45 45h63q47 0 47 -45v-868q0 -45 -47 -45h-63q-45 0 -45 45z" />
    <glyph glyph-name="Ugrave" unicode="&#xd9;" horiz-adv-x="806" 
d="M45 207q0 -96 59 -152q58 -55 154 -55h291q98 0 156 55q57 54 57 152v1227h-277v-1151q0 -45 -47 -45h-63q-45 0 -45 45v1151h-285v-1227zM113 1753l174 -258h221l-82 258h-313z" />
    <glyph glyph-name="Uacute" unicode="&#xda;" horiz-adv-x="806" 
d="M45 207q0 -96 59 -152q58 -55 154 -55h291q98 0 156 55q57 54 57 152v1227h-277v-1151q0 -45 -47 -45h-63q-45 0 -45 45v1151h-285v-1227zM299 1495h223l172 258h-313z" />
    <glyph glyph-name="Ucircumflex" unicode="&#xdb;" horiz-adv-x="806" 
d="M45 207q0 -96 59 -152q58 -55 154 -55h291q98 0 156 55q57 54 57 152v1227h-277v-1151q0 -45 -47 -45h-63q-45 0 -45 45v1151h-285v-1227zM88 1495h229l86 100l84 -100h230l-160 258h-309z" />
    <glyph glyph-name="Udieresis" unicode="&#xdc;" horiz-adv-x="806" 
d="M45 207q0 -96 59 -152q58 -55 154 -55h291q98 0 156 55q57 54 57 152v1227h-277v-1151q0 -45 -47 -45h-63q-45 0 -45 45v1151h-285v-1227zM123 1513h242v240h-242v-240zM442 1513h242v240h-242v-240z" />
    <glyph glyph-name="Yacute" unicode="&#xdd;" horiz-adv-x="800" 
d="M-10 1434l272 -844v-590h283v590l260 844h-277l-114 -500l-125 500h-299zM297 1495h223l172 258h-313z" />
    <glyph glyph-name="Thorn" unicode="&#xde;" horiz-adv-x="780" 
d="M47 0h285v254h211q94 0 153 53q56 53 56 150v499q0 99 -56 152q-59 53 -153 53h-211v273h-285v-1434zM332 492v432h88q47 0 47 -47v-340q0 -45 -47 -45h-88z" />
    <glyph glyph-name="germandbls" unicode="&#xdf;" horiz-adv-x="868" 
d="M0 928h94v-928h273v1194q0 45 43 45h77q45 0 45 -45v-72q0 -26 -8 -73q-1 -4 -8.5 -47.5t-11.5 -67.5q-3 -23 -10 -63t-9 -56q-10 -65 -10 -90q0 -43 10 -88q8 -37 31 -94l29 -74l33 -92q10 -42 10 -76v-68q0 -18 -8 -26q-9 -12 -31 -12h-103v-195h213q97 0 150 53
q51 51 51 144v110q0 70 -18 125q-33 89 -43 115l-31 80q-18 44 -20 71q-7 40 -7 74q0 6 11 74q3 20 11.5 62.5t10.5 54.5q3 23 10.5 64t10.5 60q10 68 10 97v76q0 91 -60 151q-60 57 -155 57h-281q-96 0 -153 -57q-62 -59 -62 -149v-113h-94v-221z" />
    <glyph glyph-name="agrave" unicode="&#xe0;" horiz-adv-x="763" 
d="M27 205q0 -41 14 -76q12 -37 41 -66q31 -31 74 -45q46 -18 108 -18q67 0 121 23q53 22 80 59v-82h258v944q0 99 -59 152t-156 53h-258q-95 0 -154 -53t-59 -152v-162l262 -32v127q0 45 45 45h62q45 0 45 -45v-170l-224 -35q-93 -14 -149 -70q-51 -51 -51 -158v-239z
M88 1468l174 -258h221l-82 258h-313zM299 260v186q0 45 41 54l111 22v-262q0 -43 -45 -43h-62q-45 0 -45 43z" />
    <glyph glyph-name="aacute" unicode="&#xe1;" horiz-adv-x="763" 
d="M27 205q0 -41 14 -76q12 -37 41 -66q31 -31 74 -45q46 -18 108 -18q67 0 121 23q53 22 80 59v-82h258v944q0 99 -59 152t-156 53h-258q-95 0 -154 -53t-59 -152v-162l262 -32v127q0 45 45 45h62q45 0 45 -45v-170l-224 -35q-93 -14 -149 -70q-51 -51 -51 -158v-239z
M272 1210h224l172 258h-314zM299 260v186q0 45 41 54l111 22v-262q0 -43 -45 -43h-62q-45 0 -45 43z" />
    <glyph glyph-name="acircumflex" unicode="&#xe2;" horiz-adv-x="763" 
d="M27 205q0 -41 14 -76q12 -37 41 -66q31 -31 74 -45q46 -18 108 -18q67 0 121 23q53 22 80 59v-82h258v944q0 99 -59 152t-156 53h-258q-95 0 -154 -53t-59 -152v-162l262 -32v127q0 45 45 45h62q45 0 45 -45v-170l-224 -35q-93 -14 -149 -70q-51 -51 -51 -158v-239z
M63 1210h230l86 101l84 -101h229l-160 258h-309zM299 260v186q0 45 41 54l111 22v-262q0 -43 -45 -43h-62q-45 0 -45 43z" />
    <glyph glyph-name="atilde" unicode="&#xe3;" horiz-adv-x="763" 
d="M27 205q0 -41 14 -76q12 -37 41 -66q31 -31 74 -45q46 -18 108 -18q67 0 121 23q53 22 80 59v-82h258v944q0 99 -59 152t-156 53h-258q-95 0 -154 -53t-59 -152v-162l262 -32v127q0 45 45 45h62q45 0 45 -45v-170l-224 -35q-93 -14 -149 -70q-51 -51 -51 -158v-239z
M84 1233h149v12q0 37 31 37q18 0 45 -8q12 -4 66 -17q63 -15 76 -18q33 -8 67 -8q78 0 117 45q37 43 37 113v96h-150v-15q0 -34 -30 -34q-19 0 -43 8q-20 6 -66 18q-6 2 -76 17q-36 8 -69 8q-79 0 -115 -45q-39 -45 -39 -113v-96zM299 260v186q0 45 41 54l111 22v-262
q0 -43 -45 -43h-62q-45 0 -45 43z" />
    <glyph glyph-name="adieresis" unicode="&#xe4;" horiz-adv-x="763" 
d="M27 205q0 -41 14 -76q12 -37 41 -66q31 -31 74 -45q46 -18 108 -18q67 0 121 23q53 22 80 59v-82h258v944q0 99 -59 152t-156 53h-258q-95 0 -154 -53t-59 -152v-162l262 -32v127q0 45 45 45h62q45 0 45 -45v-170l-224 -35q-93 -14 -149 -70q-51 -51 -51 -158v-239z
M98 1229h242v239h-242v-239zM299 260v186q0 45 41 54l111 22v-262q0 -43 -45 -43h-62q-45 0 -45 43zM418 1229h241v239h-241v-239z" />
    <glyph glyph-name="aring" unicode="&#xe5;" horiz-adv-x="763" 
d="M27 205q0 -41 14 -76q12 -37 41 -66q31 -31 74 -45q46 -18 108 -18q67 0 121 23q53 22 80 59v-82h258v944q0 99 -59 152t-156 53h-258q-95 0 -154 -53t-59 -152v-162l262 -32v127q0 45 45 45h62q45 0 45 -45v-170l-224 -35q-93 -14 -149 -70q-51 -51 -51 -158v-239z
M111 1384q0 -87 51 -135q48 -51 145 -51h144q96 0 147 51q49 49 49 135v121q0 85 -49 137q-53 50 -147 50h-144q-95 0 -145 -50q-51 -51 -51 -137v-121zM299 260v186q0 45 41 54l111 22v-262q0 -43 -45 -43h-62q-45 0 -45 43zM301 1407v76q0 51 51 51h54q51 0 51 -51v-76
q0 -51 -51 -51h-54q-51 0 -51 51z" />
    <glyph glyph-name="ae" unicode="&#xe6;" horiz-adv-x="1189" 
d="M27 227q0 -48 14 -86q15 -41 45 -71q29 -34 80 -52q50 -18 119 -18q104 0 157 33q57 31 78 71q27 -53 80 -77q52 -27 119 -27h225q93 0 152 53q57 51 57 146v159l-272 52v-138q0 -45 -45 -45h-68q-45 0 -45 45v215h430v463q0 95 -57 146q-59 53 -152 53h-221
q-36 0 -74 -10q-27 -7 -63 -27q-35 19 -64 27q-42 10 -76 10h-196q-95 0 -154 -53t-59 -152v-162l262 -32v127q0 45 45 45h62q45 0 45 -45v-170l-224 -35q-94 -15 -147 -68t-53 -158v-219zM299 258v188q0 45 41 54l111 22v-264q0 -45 -45 -45h-62q-45 0 -45 45zM723 682v203
q0 45 45 45h68q45 0 45 -45v-203h-158z" />
    <glyph glyph-name="ccedilla" unicode="&#xe7;" horiz-adv-x="765" 
d="M39 199q0 -95 57 -146q59 -53 152 -53h10l-102 -319h256l102 319h18q91 0 150 53q57 51 57 146v235l-272 51v-213q0 -45 -45 -45h-66q-45 0 -45 45v605q0 45 45 45h66q45 0 45 -45v-179l272 52v200q0 97 -57 148t-150 51h-284q-95 0 -152 -51t-57 -148v-751z" />
    <glyph glyph-name="egrave" unicode="&#xe8;" horiz-adv-x="776" 
d="M39 199q0 -95 57 -146q59 -53 152 -53h284q91 0 150 53q57 51 57 146v159l-272 52v-138q0 -45 -45 -45h-66q-45 0 -45 45v215h428v463q0 95 -57 146q-59 53 -150 53h-284q-93 0 -152 -53q-57 -51 -57 -146v-751zM98 1468l174 -258h222l-82 258h-314zM311 682v203
q0 45 45 45h66q45 0 45 -45v-203h-156z" />
    <glyph glyph-name="eacute" unicode="&#xe9;" horiz-adv-x="776" 
d="M39 199q0 -95 57 -146q59 -53 152 -53h284q91 0 150 53q57 51 57 146v159l-272 52v-138q0 -45 -45 -45h-66q-45 0 -45 45v215h428v463q0 95 -57 146q-59 53 -150 53h-284q-93 0 -152 -53q-57 -51 -57 -146v-751zM283 1210h223l172 258h-313zM311 682v203q0 45 45 45h66
q45 0 45 -45v-203h-156z" />
    <glyph glyph-name="ecircumflex" unicode="&#xea;" horiz-adv-x="776" 
d="M39 199q0 -95 57 -146q59 -53 152 -53h284q91 0 150 53q57 51 57 146v159l-272 52v-138q0 -45 -45 -45h-66q-45 0 -45 45v215h428v463q0 95 -57 146q-59 53 -150 53h-284q-93 0 -152 -53q-57 -51 -57 -146v-751zM74 1210h229l86 101l84 -101h229l-159 258h-310zM311 682
v203q0 45 45 45h66q45 0 45 -45v-203h-156z" />
    <glyph glyph-name="edieresis" unicode="&#xeb;" horiz-adv-x="776" 
d="M39 199q0 -95 57 -146q59 -53 152 -53h284q91 0 150 53q57 51 57 146v159l-272 52v-138q0 -45 -45 -45h-66q-45 0 -45 45v215h428v463q0 95 -57 146q-59 53 -150 53h-284q-93 0 -152 -53q-57 -51 -57 -146v-751zM109 1229h241v239h-241v-239zM311 682v203q0 45 45 45h66
q45 0 45 -45v-203h-156zM428 1229h242v239h-242v-239z" />
    <glyph glyph-name="igrave" unicode="&#xec;" horiz-adv-x="358" 
d="M-113 1468l174 -258h222l-82 258h-314zM43 0h272v1149h-272v-1149z" />
    <glyph glyph-name="iacute" unicode="&#xed;" horiz-adv-x="358" 
d="M43 0h272v1149h-272v-1149zM72 1210h223l172 258h-313z" />
    <glyph glyph-name="icircumflex" unicode="&#xee;" horiz-adv-x="358" 
d="M-137 1210h229l86 101l84 -101h230l-160 258h-309zM43 0h272v1149h-272v-1149z" />
    <glyph glyph-name="idieresis" unicode="&#xef;" horiz-adv-x="358" 
d="M-102 1229h241v239h-241v-239zM43 0h272v1149h-272v-1149zM217 1229h242v239h-242v-239z" />
    <glyph glyph-name="eth" unicode="&#xf0;" horiz-adv-x="780" 
d="M39 203q0 -92 59 -148q58 -55 154 -55h276q96 0 154 55q57 54 57 148v819q0 72 -12 133q-16 67 -35 119h84v88h-125q-22 47 -57 100q-31 42 -45 56h-281q10 -15 29 -48q17 -24 31 -49q18 -31 34 -59h-104v-88h154q1 -2 34 -78q13 -37 13 -57v-13h-207q-96 0 -154 -55
q-59 -59 -59 -149v-719zM311 272v582q0 45 45 45h66q45 0 45 -45v-582q0 -45 -45 -45h-66q-45 0 -45 45z" />
    <glyph glyph-name="ntilde" unicode="&#xf1;" horiz-adv-x="784" 
d="M43 0h272v854q0 45 43 45h68q45 0 45 -45v-854h272v938q0 97 -57 154t-164 57q-75 0 -131 -29q-57 -31 -84 -65l-26 94h-238v-1149zM96 1233h150v12q0 37 30 37q19 0 46 -8q15 -5 65 -17q63 -15 76 -18q33 -8 67 -8q78 0 117 45q37 43 37 113v96h-149v-15q0 -34 -31 -34
q-19 0 -43 8q-20 6 -66 18q-6 2 -76 17q-36 8 -69 8q-79 0 -115 -45q-39 -45 -39 -113v-96z" />
    <glyph glyph-name="ograve" unicode="&#xf2;" horiz-adv-x="778" 
d="M39 199q0 -95 57 -146q59 -53 152 -53h284q91 0 150 53q57 51 57 146v751q0 95 -57 146q-59 53 -150 53h-284q-93 0 -152 -53q-57 -51 -57 -146v-751zM98 1468l174 -258h222l-82 258h-314zM311 272v605q0 45 45 45h66q45 0 45 -45v-605q0 -45 -45 -45h-66q-45 0 -45 45z
" />
    <glyph glyph-name="oacute" unicode="&#xf3;" horiz-adv-x="778" 
d="M39 199q0 -95 57 -146q59 -53 152 -53h284q91 0 150 53q57 51 57 146v751q0 95 -57 146q-59 53 -150 53h-284q-93 0 -152 -53q-57 -51 -57 -146v-751zM285 1210h223l172 258h-313zM311 272v605q0 45 45 45h66q45 0 45 -45v-605q0 -45 -45 -45h-66q-45 0 -45 45z" />
    <glyph glyph-name="ocircumflex" unicode="&#xf4;" horiz-adv-x="778" 
d="M39 199q0 -95 57 -146q59 -53 152 -53h284q91 0 150 53q57 51 57 146v751q0 95 -57 146q-59 53 -150 53h-284q-93 0 -152 -53q-57 -51 -57 -146v-751zM76 1210h229l86 101l84 -101h230l-160 258h-309zM311 272v605q0 45 45 45h66q45 0 45 -45v-605q0 -45 -45 -45h-66
q-45 0 -45 45z" />
    <glyph glyph-name="otilde" unicode="&#xf5;" horiz-adv-x="778" 
d="M39 199q0 -95 57 -146q59 -53 152 -53h284q91 0 150 53q57 51 57 146v751q0 95 -57 146q-59 53 -150 53h-284q-93 0 -152 -53q-57 -51 -57 -146v-751zM94 1233h150v12q0 37 30 37q18 0 45 -8q12 -4 66 -17q63 -15 76 -18q33 -8 67 -8q78 0 117 45q37 43 37 113v96h-150
v-15q0 -34 -30 -34q-19 0 -43 8q-20 6 -66 18q-6 2 -76 17q-36 8 -69 8q-79 0 -115 -45q-39 -45 -39 -113v-96zM311 272v605q0 45 45 45h66q45 0 45 -45v-605q0 -45 -45 -45h-66q-45 0 -45 45z" />
    <glyph glyph-name="odieresis" unicode="&#xf6;" horiz-adv-x="778" 
d="M39 199q0 -95 57 -146q59 -53 152 -53h284q91 0 150 53q57 51 57 146v751q0 95 -57 146q-59 53 -150 53h-284q-93 0 -152 -53q-57 -51 -57 -146v-751zM109 1229h241v239h-241v-239zM311 272v605q0 45 45 45h66q45 0 45 -45v-605q0 -45 -45 -45h-66q-45 0 -45 45z
M428 1229h242v239h-242v-239z" />
    <glyph glyph-name="divide" unicode="&#xf7;" horiz-adv-x="886" 
d="M41 623h805v227h-805v-227zM311 305h260v246h-260v-246zM311 920h260v245h-260v-245z" />
    <glyph glyph-name="oslash" unicode="&#xf8;" horiz-adv-x="778" 
d="M39 199q0 -99 63 -150l-51 -133h240l35 84h206q91 0 150 53q57 51 57 146v751q0 99 -63 150l55 133h-235l-41 -84h-207q-93 0 -152 -53q-57 -51 -57 -146v-751zM311 272v605q0 45 45 45h66q45 0 45 -45v-605q0 -45 -45 -45h-66q-45 0 -45 45z" />
    <glyph glyph-name="ugrave" unicode="&#xf9;" horiz-adv-x="784" 
d="M41 207q0 -95 61 -150q57 -57 164 -57q73 0 129 29q53 27 80 65l27 -94h239v1149h-272v-854q0 -45 -45 -45h-66q-45 0 -45 45v854h-272v-942zM102 1468l174 -258h222l-82 258h-314z" />
    <glyph glyph-name="uacute" unicode="&#xfa;" horiz-adv-x="784" 
d="M41 207q0 -95 61 -150q57 -57 164 -57q73 0 129 29q53 27 80 65l27 -94h239v1149h-272v-854q0 -45 -45 -45h-66q-45 0 -45 45v854h-272v-942zM287 1210h223l172 258h-313z" />
    <glyph glyph-name="ucircumflex" unicode="&#xfb;" horiz-adv-x="784" 
d="M41 207q0 -95 61 -150q57 -57 164 -57q73 0 129 29q53 27 80 65l27 -94h239v1149h-272v-854q0 -45 -45 -45h-66q-45 0 -45 45v854h-272v-942zM78 1210h229l86 101l84 -101h230l-160 258h-309z" />
    <glyph glyph-name="udieresis" unicode="&#xfc;" horiz-adv-x="784" 
d="M41 207q0 -95 61 -150q57 -57 164 -57q73 0 129 29q53 27 80 65l27 -94h239v1149h-272v-854q0 -45 -45 -45h-66q-45 0 -45 45v854h-272v-942zM113 1229h241v239h-241v-239zM432 1229h242v239h-242v-239z" />
    <glyph glyph-name="yacute" unicode="&#xfd;" horiz-adv-x="737" 
d="M10 1149l164 -1079h131l-12 -99q-6 -55 -76 -55h-117v-203h209q107 0 160 39q55 40 70 139l198 1258h-264l-98 -795l-84 795h-281zM270 1210h224l172 258h-314z" />
    <glyph glyph-name="thorn" unicode="&#xfe;" horiz-adv-x="782" 
d="M43 -287h272v367q23 -30 74 -53q49 -27 115 -27q113 0 178 59q61 58 61 156v727q0 98 -57 152q-58 55 -164 55q-74 0 -127 -27q-57 -29 -80 -59v371h-272v-1721zM315 276v596q0 46 43 46h68q45 0 45 -46v-596q0 -45 -45 -45h-68q-43 0 -43 45z" />
    <glyph glyph-name="ydieresis" unicode="&#xff;" horiz-adv-x="737" 
d="M10 1149l164 -1079h131l-12 -99q-6 -55 -76 -55h-117v-203h209q107 0 160 39q55 40 70 139l198 1258h-264l-98 -795l-84 795h-281zM94 1229h242v239h-242v-239zM414 1229h241v239h-241v-239z" />
    <glyph glyph-name="OE" unicode="&#x152;" horiz-adv-x="1163" 
d="M43 207q0 -96 59 -152q58 -55 154 -55h893v238h-383v383h233v227h-233v348h379v238h-889q-95 0 -154 -56t-59 -151v-1020zM328 283v868q0 45 45 45h63q45 0 45 -45v-868q0 -45 -45 -45h-63q-45 0 -45 45z" />
    <glyph glyph-name="oe" unicode="&#x153;" horiz-adv-x="1257" 
d="M39 199q0 -95 57 -146q59 -53 152 -53h231q45 0 88 16q42 16 64 47q25 -32 71 -47q46 -16 93 -16h219q92 0 151 53q58 52 58 146v159l-273 54v-140q0 -42 -45 -45h-65q-45 3 -45 45v238h428v440q0 94 -58 146q-59 53 -151 53h-219q-52 0 -93 -14q-41 -13 -71 -52
q-27 38 -64 52q-38 14 -88 14h-231q-93 0 -152 -53q-57 -51 -57 -146v-751zM311 272v605q0 45 45 45h66q45 0 45 -45v-605q0 -45 -45 -45h-66q-45 0 -45 45zM795 682v195q0 45 45 45h65q45 0 45 -45v-195h-155z" />
    <glyph glyph-name="Ydieresis" unicode="&#x178;" horiz-adv-x="800" 
d="M-10 1434l272 -844v-590h283v590l260 844h-277l-114 -500l-125 500h-299zM123 1513h242v240h-242v-240zM442 1513h242v240h-242v-240z" />
    <glyph glyph-name="circumflex" unicode="&#x2c6;" horiz-adv-x="751" 
d="M61 1176h230l86 100l84 -100h229l-160 258h-309z" />
    <glyph glyph-name="tilde" unicode="&#x2dc;" horiz-adv-x="671" 
d="M41 1198h149v12q0 37 31 37q18 0 45 -8q2 -1 66 -16q9 -2 35 -9t41 -10q33 -8 67 -8q78 0 117 45q37 43 37 113v96h-150v-14q0 -35 -30 -35q-19 0 -43 8q-20 6 -66 18q-6 1 -76 17q-36 8 -69 8q-79 0 -115 -45q-39 -45 -39 -113v-96z" />
    <glyph glyph-name="uni2000" unicode="&#x2000;" horiz-adv-x="988" 
 />
    <glyph glyph-name="uni2001" unicode="&#x2001;" horiz-adv-x="1976" 
 />
    <glyph glyph-name="uni2002" unicode="&#x2002;" horiz-adv-x="988" 
 />
    <glyph glyph-name="uni2003" unicode="&#x2003;" horiz-adv-x="1976" 
 />
    <glyph glyph-name="uni2004" unicode="&#x2004;" horiz-adv-x="658" 
 />
    <glyph glyph-name="uni2005" unicode="&#x2005;" horiz-adv-x="494" 
 />
    <glyph glyph-name="uni2006" unicode="&#x2006;" horiz-adv-x="329" 
 />
    <glyph glyph-name="uni2007" unicode="&#x2007;" horiz-adv-x="329" 
 />
    <glyph glyph-name="uni2008" unicode="&#x2008;" horiz-adv-x="247" 
 />
    <glyph glyph-name="uni2009" unicode="&#x2009;" horiz-adv-x="395" 
 />
    <glyph glyph-name="uni200A" unicode="&#x200a;" horiz-adv-x="109" 
 />
    <glyph glyph-name="uni2010" unicode="&#x2010;" horiz-adv-x="495" 
d="M39 477h418v240h-418v-240z" />
    <glyph glyph-name="uni2011" unicode="&#x2011;" horiz-adv-x="495" 
d="M39 477h418v240h-418v-240z" />
    <glyph glyph-name="figuredash" unicode="&#x2012;" horiz-adv-x="495" 
d="M39 477h418v240h-418v-240z" />
    <glyph glyph-name="endash" unicode="&#x2013;" horiz-adv-x="946" 
d="M39 477h868v240h-868v-240z" />
    <glyph glyph-name="emdash" unicode="&#x2014;" horiz-adv-x="1744" 
d="M39 477h1667v240h-1667v-240z" />
    <glyph glyph-name="quoteleft" unicode="&#x2018;" horiz-adv-x="372" 
d="M37 848h297v313h-105v94q0 18 9 27q8 8 36 8h60v144h-139q-76 0 -117 -35q-41 -38 -41 -115v-436z" />
    <glyph glyph-name="quoteright" unicode="&#x2019;" horiz-adv-x="374" 
d="M39 848h141q79 0 119 37q39 33 39 112v437h-299v-312h104v-96q0 -17 -8 -25q-10 -10 -37 -10h-59v-143z" />
    <glyph glyph-name="quotesinglbase" unicode="&#x201a;" horiz-adv-x="372" 
d="M37 0h104v-96q0 -17 -8 -25q-10 -10 -37 -10h-59v-143h141q80 0 119 36q39 33 39 115v434h-299v-311z" />
    <glyph glyph-name="quotedblleft" unicode="&#x201c;" horiz-adv-x="722" 
d="M37 848h297v313h-105v94q0 18 9 27q8 8 36 8h60v144h-139q-76 0 -117 -35q-41 -38 -41 -115v-436zM385 848h299v313h-104v94q0 19 8 27t37 8h59v144h-139q-78 0 -119 -35q-41 -38 -41 -115v-436z" />
    <glyph glyph-name="quotedblright" unicode="&#x201d;" horiz-adv-x="722" 
d="M39 848h139q79 0 119 37q39 33 39 112v437h-297v-312h102v-96q0 -17 -8 -25q-10 -10 -37 -10h-57v-143zM387 848h141q79 0 119 37q39 33 39 112v437h-299v-312h105v-96q0 -16 -9 -25q-10 -10 -37 -10h-59v-143z" />
    <glyph glyph-name="quotedblbase" unicode="&#x201e;" horiz-adv-x="722" 
d="M37 0h104v-96q0 -17 -8 -25q-10 -10 -37 -10h-59v-143h141q80 0 119 36q39 33 39 115v434h-299v-311zM387 0h105v-96q0 -16 -9 -25q-10 -10 -37 -10h-59v-143h139q80 0 119 36q41 35 41 115v434h-299v-311z" />
    <glyph glyph-name="bullet" unicode="&#x2022;" horiz-adv-x="671" 
d="M68 649q0 -88 53 -141q52 -55 149 -55h129q100 0 152 55q53 53 53 141v170q0 88 -53 144q-53 53 -152 53h-129q-96 0 -149 -53q-53 -56 -53 -144v-170z" />
    <glyph glyph-name="ellipsis" unicode="&#x2026;" horiz-adv-x="1239" 
d="M35 0h297v311h-297v-311zM471 0h297v311h-297v-311zM907 0h297v311h-297v-311z" />
    <glyph glyph-name="uni202F" unicode="&#x202f;" horiz-adv-x="395" 
 />
    <glyph glyph-name="guilsinglleft" unicode="&#x2039;" horiz-adv-x="673" 
d="M14 575l324 -575h313l-323 575l323 574h-313z" />
    <glyph glyph-name="guilsinglright" unicode="&#x203a;" horiz-adv-x="673" 
d="M20 1149l326 -574l-323 -575h313l323 575l-323 574h-316z" />
    <glyph glyph-name="uni205F" unicode="&#x205f;" horiz-adv-x="494" 
 />
    <glyph glyph-name="Euro" unicode="&#x20ac;" horiz-adv-x="870" 
d="M23 498h88v-291q0 -96 59 -152q58 -55 154 -55h299q95 0 153 55t58 152v188l-283 35v-147q0 -45 -47 -45h-62q-47 0 -47 45v215h273v184h-273v102h273v185h-273v182q0 45 47 45h62q47 0 47 -45v-104l283 34v146q0 96 -58 151q-59 56 -153 56h-299q-95 0 -154 -56
t-59 -151v-258h-88v-185h88v-102h-88v-184z" />
    <glyph glyph-name="trademark" unicode="&#x2122;" horiz-adv-x="1603" 
d="M23 1239h196v-602h232v602h196v195h-624v-195zM719 637h225v453l117 -304h139l115 304v-453h231v797h-291l-118 -330l-119 330h-299v-797z" />
    <glyph glyph-name="uni25FC" unicode="&#x25fc;" horiz-adv-x="1146" 
d="M0 0v1147h1147v-1147h-1147z" />
    <glyph glyph-name="uniFB01" unicode="&#xfb01;" horiz-adv-x="890" 
d="M12 928h117v-928h272v928h174v-928h273v1149h-447v108q0 16 11 27q8 8 26 8h410v203h-516q-99 0 -150 -51q-53 -53 -53 -144v-151h-117v-221z" />
    <glyph glyph-name="uniFB02" unicode="&#xfb02;" horiz-adv-x="890" 
d="M12 928h117v-928h272v928h174v-928h273v1434h-273v-285h-174v108q0 16 11 27q8 8 26 8h70v203h-176q-99 0 -150 -51q-53 -53 -53 -144v-151h-117v-221z" />
    <glyph glyph-name="uniFB03" unicode="&#xfb03;" horiz-adv-x="1337" 
d="M12 928h117v-928h272v928h174v-928h273v928h174v-928h272v1149h-446v108q0 35 37 35h409v203h-518q-98 0 -149 -51q-52 -52 -52 -144v-151h-174v108q0 16 11 27q8 8 26 8h70v203h-176q-99 0 -150 -51q-53 -53 -53 -144v-151h-117v-221z" />
    <glyph glyph-name="uniFB04" unicode="&#xfb04;" horiz-adv-x="1337" 
d="M12 928h117v-928h272v928h174v-928h273v928h174v-928h272v1434h-272v-285h-174v108q0 35 37 35h69v203h-178q-98 0 -149 -51q-52 -52 -52 -144v-151h-174v108q0 16 11 27q8 8 26 8h70v203h-176q-99 0 -150 -51q-53 -53 -53 -144v-151h-117v-221z" />
  </font>
</defs>
</svg>
