<?xml version="1.0" standalone="no"?>
<!DOCTYPE svg PUBLIC "-//W3C//DTD SVG 1.1//EN" "http://www.w3.org/Graphics/SVG/1.1/DTD/svg11.dtd" >
<svg xmlns="http://www.w3.org/2000/svg" xmlns:xlink="http://www.w3.org/1999/xlink" version="1.1">
<metadata>
Created by FontForge 20170910 at Tue Jul 19 18:14:51 2016
 By Jimmy Wärting
Copyright (c) 2008 by Henrik Kubel, A2/SW/HK. All rights reserved.
</metadata>
<defs>
<font id="WEBABeckett-Medium" horiz-adv-x="320" >
  <font-face 
    font-family="WEB A2 Beckett Med"
    font-weight="500"
    font-stretch="normal"
    units-per-em="1000"
    panose-1="2 0 6 6 3 0 0 2 0 4"
    ascent="750"
    descent="-250"
    x-height="544"
    cap-height="700"
    bbox="-50 -310 1159 960"
    underline-thickness="50"
    underline-position="-100"
    unicode-range="U+000D-FB06"
  />
<missing-glyph horiz-adv-x="130" 
 />
    <glyph glyph-name="f_f" unicode="ff" horiz-adv-x="500" 
d="M7 544h59v79q0 49 29 78t78 29h77v-128h-25q-13 0 -13 -13v-45h67v79q0 49 29 78t78 29h107v-128h-55q-13 0 -13 -13v-45h68v-114h-68v-430h-146v430h-67v-430h-146v430h-59v114z" />
    <glyph glyph-name="f_f_i" unicode="ffi" horiz-adv-x="659" 
d="M212 430v-430h-146v430h-59v114h59v79q0 49 29 78t78 29h77v-128h-25q-13 0 -13 -13v-45h67v79q0 49 29 78t78 29h252v-128h-200q-13 0 -13 -13v-45h213v-544h-146v430h-67v-430h-146v430h-67z" />
    <glyph glyph-name="f_f_l" unicode="ffl" horiz-adv-x="659" 
d="M212 430v-430h-146v430h-59v114h59v79q0 49 29 78t78 29h77v-128h-25q-13 0 -13 -13v-45h67v79q0 49 29 78t78 29h77v-128h-25q-13 0 -13 -13v-45h67v156h146v-700h-146v430h-67v-430h-146v430h-67z" />
    <glyph glyph-name="f_b" unicode="fb" horiz-adv-x="646" 
d="M7 544h59v79q0 49 29 78t78 29h77v-128h-25q-13 0 -13 -13v-45h67v156h146v-197q16 19 40 30t47 11q60 0 88.5 -33t28.5 -84v-296q0 -25 -7 -48.5t-22.5 -42t-39.5 -29.5t-57 -11q-40 0 -62.5 9.5t-35.5 21.5l-7 -31h-119v430h-67v-430h-146v430h-59v114zM425 147
q0 -14 6 -25t25 -11q9 0 18 6.5t9 21.5v266q0 15 -9 21.5t-18 6.5q-19 0 -25 -11t-6 -25v-250z" />
    <glyph glyph-name="f_f_b" unicode="ffb" horiz-adv-x="859" 
d="M212 430v-430h-146v430h-59v114h59v79q0 49 29 78t78 29h77v-128h-25q-13 0 -13 -13v-45h67v79q0 49 29 78t78 29h77v-128h-25q-13 0 -13 -13v-45h67v156h146v-197q16 19 40 30t47 11q60 0 88.5 -33t28.5 -84v-296q0 -25 -7 -48.5t-22.5 -42t-39.5 -29.5t-57 -11
q-40 0 -62.5 9.5t-35.5 21.5l-7 -31h-119v430h-67v-430h-146v430h-67zM638 147q0 -14 6 -25t25 -11q9 0 18 6.5t9 21.5v266q0 15 -9 21.5t-18 6.5q-19 0 -25 -11t-6 -25v-250z" />
    <glyph glyph-name="f_f_f" unicode="fff" horiz-adv-x="713" 
d="M279 623q0 49 29 78t78 29h77v-128h-25q-13 0 -13 -13v-45h67v79q0 49 29 78t78 29h107v-128h-55q-13 0 -13 -13v-45h68v-114h-68v-430h-146v430h-67v-430h-146v430h-67v-430h-146v430h-59v114h59v79q0 49 29 78t78 29h77v-128h-25q-13 0 -13 -13v-45h67v79z" />
    <glyph glyph-name="f_f_h" unicode="ffh" horiz-adv-x="861" 
d="M212 430v-430h-146v430h-59v114h59v79q0 49 29 78t78 29h77v-128h-25q-13 0 -13 -13v-45h67v79q0 49 29 78t78 29h77v-128h-25q-13 0 -13 -13v-45h67v156h146v-198q12 15 36.5 28.5t62.5 13.5q50 0 77.5 -28t27.5 -79v-437h-146v385q0 15 -8.5 21.5t-17.5 6.5
q-17 0 -24.5 -8.5t-7.5 -20.5v-384h-146v430h-67v-430h-146v430h-67z" />
    <glyph glyph-name="f_f_j" unicode="ffj" horiz-adv-x="659" 
d="M638 544v-596q0 -18 -6 -37.5t-18.5 -35t-33 -25.5t-49.5 -10h-58l-9 111h15q13 0 13 13v466h-67v-430h-146v430h-67v-430h-146v430h-59v114h59v79q0 49 29 78t78 29h77v-128h-25q-13 0 -13 -13v-45h67v79q0 49 29 78t78 29h252v-128h-200q-13 0 -13 -13v-45h213z" />
    <glyph glyph-name="f_f_k" unicode="ffk" horiz-adv-x="857" 
d="M212 430v-430h-146v430h-59v114h59v79q0 49 29 78t78 29h77v-128h-25q-13 0 -13 -13v-45h67v79q0 49 29 78t78 29h77v-128h-25q-13 0 -13 -13v-45h67v156h146v-352l68 196h154l-92 -244l89 -300h-157l-62 232v-232h-146v430h-67v-430h-146v430h-67z" />
    <glyph glyph-name="f_h" unicode="fh" horiz-adv-x="648" 
d="M7 544h59v79q0 49 29 78t78 29h77v-128h-25q-13 0 -13 -13v-45h67v156h146v-198q12 15 36.5 28.5t62.5 13.5q50 0 77.5 -28t27.5 -79v-437h-146v385q0 15 -8.5 21.5t-17.5 6.5q-17 0 -24.5 -8.5t-7.5 -20.5v-384h-146v430h-67v-430h-146v430h-59v114z" />
    <glyph glyph-name="f_i" unicode="fi" horiz-adv-x="446" 
d="M7 544h59v79q0 49 29 78t78 29h252v-128h-200q-13 0 -13 -13v-45h213v-544h-146v430h-67v-430h-146v430h-59v114z" />
    <glyph glyph-name="f_j" unicode="fj" horiz-adv-x="446" 
d="M212 430v-430h-146v430h-59v114h59v79q0 49 29 78t78 29h252v-128h-200q-13 0 -13 -13v-45h213v-596q0 -18 -6 -37.5t-18.5 -35t-33 -25.5t-49.5 -10h-58l-9 111h15q13 0 13 13v466h-67z" />
    <glyph glyph-name="f_k" unicode="fk" horiz-adv-x="644" 
d="M7 544h59v79q0 49 29 78t78 29h77v-128h-25q-13 0 -13 -13v-45h67v156h146v-352l68 196h154l-92 -244l89 -300h-157l-62 232v-232h-146v430h-67v-430h-146v430h-59v114z" />
    <glyph glyph-name="f_l" unicode="fl" horiz-adv-x="446" 
d="M7 544h59v79q0 49 29 78t78 29h77v-128h-25q-13 0 -13 -13v-45h67v156h146v-700h-146v430h-67v-430h-146v430h-59v114z" />
    <glyph glyph-name=".notdef" horiz-adv-x="130" 
 />
    <glyph glyph-name=".null" horiz-adv-x="0" 
 />
    <glyph glyph-name=".null" horiz-adv-x="0" 
 />
    <glyph glyph-name="nonmarkingreturn" unicode="&#xd;" horiz-adv-x="250" 
 />
    <glyph glyph-name="space" unicode=" " horiz-adv-x="125" 
 />
    <glyph glyph-name="exclam" unicode="!" horiz-adv-x="209" 
d="M190 472l-25 -270h-121l-25 270v228h171v-228zM186 0h-162v160h162v-160z" />
    <glyph glyph-name="quotedbl" unicode="&#x22;" horiz-adv-x="374" 
d="M148 405h-126v295h161zM329 405h-126v295h161z" />
    <glyph glyph-name="numbersign" unicode="#" horiz-adv-x="504" 
d="M103 509v191h101v-191h97v191h101v-191h85v-101h-85v-127h85v-101h-85v-180h-101v180h-97v-180h-101v180h-86v101h86v127h-86v101h86zM204 281h97v127h-97v-127z" />
    <glyph glyph-name="dollar" unicode="$" horiz-adv-x="395" 
d="M76 358q-31 23 -44.5 54.5t-13.5 76.5v104q0 22 8.5 41.5t23 34t34 23t41.5 8.5h32v96h88v-96h26q22 0 41.5 -8.5t34 -23t23 -34t8.5 -41.5v-94l-151 -18v70q0 13 -13 13h-32q-13 0 -13 -13v-27q0 -30 6.5 -40.5t20.5 -21.5l111 -89q38 -30 54.5 -63t16.5 -80v-123
q0 -22 -8.5 -41.5t-23 -34t-34 -23t-41.5 -8.5h-26v-96h-88v96h-32q-22 0 -41.5 8.5t-34 23t-23 34t-8.5 41.5v120l151 17v-95q0 -13 13 -13h32q13 0 13 13v34q0 20 -1 32.5t-5.5 22t-12.5 17.5t-22 19z" />
    <glyph glyph-name="percent" unicode="%" horiz-adv-x="694" 
d="M679 107q0 -22 -8.5 -41.5t-23 -34t-34 -23t-41.5 -8.5h-86q-22 0 -41.5 8.5t-34 23t-23 34t-8.5 41.5v164q0 22 8.5 41.5t23 34t34 23t41.5 8.5h86q22 0 41.5 -8.5t34 -23t23 -34t8.5 -41.5v-164zM500 129q0 -11 7 -17t16 -6h12q9 0 16 6t7 17v120q0 11 -7 17t-16 6h-12
q-9 0 -16 -6t-7 -17v-120zM315 429q0 -22 -8.5 -41.5t-23 -34t-34 -23t-41.5 -8.5h-86q-22 0 -41.5 8.5t-34 23t-23 34t-8.5 41.5v164q0 22 8.5 41.5t23 34t34 23t41.5 8.5h86q22 0 41.5 -8.5t34 -23t23 -34t8.5 -41.5v-164zM136 451q0 -11 7 -17t16 -6h12q9 0 16 6t7 17
v120q0 11 -7 17t-16 6h-12q-9 0 -16 -6t-7 -17v-120zM178 0h-51l392 700h50z" />
    <glyph glyph-name="ampersand" unicode="&#x26;" horiz-adv-x="443" 
d="M36 593q0 22 8.5 41.5t23 34t34 23t41.5 8.5h136q22 0 41.5 -8.5t34 -23t23 -34t8.5 -41.5v-69q0 -67 -29.5 -104.5t-69.5 -54.5l-7 -3l41 -70v64h87v-217l27 -51v-88h-107l-16 28q-17 -14 -38 -21t-50 -7h-55q-72 0 -105.5 43.5t-33.5 118.5v100q0 32 10 63.5t50 52.5
l-29 51q-14 23 -19.5 53.5t-5.5 75.5v35zM187 549q0 -27 4.5 -43t12.5 -33l8 -18q17 9 20 22.5t3 24.5v69q0 13 -13 13h-22q-13 0 -13 -13v-22zM181 248v-100q0 -32 34 -32q9 0 15.5 2t10.5 4q5 3 8 6z" />
    <glyph glyph-name="quotesingle" unicode="'" horiz-adv-x="193" 
d="M148 405h-126v295h161z" />
    <glyph glyph-name="parenleft" unicode="(" horiz-adv-x="244" 
d="M7 317q0 94 19.5 165.5t42.5 119.5q27 57 62 98h107q-23 -46 -41 -105q-17 -54 -29.5 -122.5t-12.5 -155.5q0 -86 13 -156.5t29 -122.5q18 -60 41 -108h-107q-35 43 -62 101q-25 52 -43.5 122t-18.5 164z" />
    <glyph glyph-name="parenright" unicode=")" horiz-adv-x="244" 
d="M237 317q0 -94 -19.5 -165.5t-42.5 -120.5q-27 -58 -62 -101h-107q23 48 42 108q16 55 28.5 124t12.5 155q0 87 -13 157t-28 121q-19 59 -42 105h107q35 -41 62 -98q25 -51 43.5 -121t18.5 -164z" />
    <glyph glyph-name="asterisk" unicode="*" horiz-adv-x="493" 
d="M301 549l144 64l34 -144l-140 -20l108 -109l-115 -92l-85 134l-86 -134l-114 92l107 109l-140 20l34 144l144 -64l-20 151h149z" />
    <glyph glyph-name="plus" unicode="+" horiz-adv-x="428" 
d="M15 406h136v152h126v-152h136v-116h-136v-152h-126v152h-136v116z" />
    <glyph glyph-name="comma" unicode="," horiz-adv-x="202" 
d="M182 -6q0 -38 -6 -62.5t-20 -38t-35.5 -18.5t-53.5 -5h-47v79h22q14 0 22 5t8 24v22h-52v160h162v-166z" />
    <glyph glyph-name="hyphen" unicode="-" horiz-adv-x="265" 
d="M20 388h225v-131h-225v131z" />
    <glyph glyph-name="period" unicode="." horiz-adv-x="202" 
d="M182 0h-162v160h162v-160z" />
    <glyph glyph-name="slash" unicode="/" horiz-adv-x="148" 
d="M45 0h-31l89 700h31z" />
    <glyph glyph-name="zero" unicode="0" horiz-adv-x="400" 
d="M380 137q0 -30 -10 -55.5t-27.5 -43.5t-40.5 -28t-49 -10h-106q-26 0 -49 10t-40.5 28t-27.5 43.5t-10 55.5v426q0 30 10 55.5t27.5 43.5t40.5 28t49 10h106q26 0 49 -10t40.5 -28t27.5 -43.5t10 -55.5v-426zM229 529q0 16 -7 25.5t-20 9.5h-4q-13 0 -20 -9.5t-7 -25.5
v-358q0 -16 7 -25.5t20 -9.5h4q13 0 20 9.5t7 25.5v358z" />
    <glyph glyph-name="one" unicode="1" horiz-adv-x="400" 
d="M279 700v-564h87v-136h-323v136h85v329h-87v141h30q33 0 46.5 16t13.5 50v28h148z" />
    <glyph glyph-name="two" unicode="2" horiz-adv-x="400" 
d="M195 196q-13 -14 -17.5 -23.5t-3.5 -23.5v-13h202v-136h-353v161q0 32 8 58t26 46l140 156q17 19 24.5 35.5t7.5 43.5v51q0 13 -13 13h-32q-13 0 -13 -13v-101l-151 18v125q0 22 8.5 41.5t23 34t34 23t41.5 8.5h146q22 0 41.5 -8.5t34 -23t23 -34t8.5 -41.5v-109
q0 -44 -12 -76t-43 -67z" />
    <glyph glyph-name="three" unicode="3" horiz-adv-x="400" 
d="M145 285v136h69q13 0 13 13v117q0 13 -13 13h-32q-13 0 -13 -13v-92l-151 18v116q0 22 8.5 41.5t23 34t34 23t41.5 8.5h146q22 0 41.5 -8.5t34 -23t23 -34t8.5 -41.5v-154q0 -10 -2.5 -22t-9.5 -23.5t-18 -21.5t-29 -15q18 -5 29 -15t18 -21t9.5 -23t2.5 -22v-169
q0 -22 -8.5 -41.5t-23 -34t-34 -23t-41.5 -8.5h-146q-22 0 -41.5 8.5t-34 23t-23 34t-8.5 41.5v116l151 18v-92q0 -13 13 -13h32q13 0 13 13v123q0 13 -13 13h-69z" />
    <glyph glyph-name="four" unicode="4" horiz-adv-x="400" 
d="M385 162h-43v-162h-151v162h-176v160l169 378h158v-402h43v-136zM191 494l-86 -196h86v196z" />
    <glyph glyph-name="five" unicode="5" horiz-adv-x="400" 
d="M41 700h337v-136h-204l-7 -106q10 7 23 13q12 5 27.5 8.5t35.5 3.5q60 0 92 -31t32 -76v-269q0 -22 -8.5 -41.5t-23 -34t-34 -23t-41.5 -8.5h-146q-22 0 -41.5 8.5t-34 23t-23 34t-8.5 41.5v116l151 18v-92q0 -13 13 -13h32q13 0 13 13v185q0 13 -13 13h-32
q-10 0 -12 -11l-6 -34l-143 6z" />
    <glyph glyph-name="six" unicode="6" horiz-adv-x="400" 
d="M254 436q61 0 94 -33.5t33 -100.5v-195q0 -22 -8.5 -41.5t-23 -34t-34 -23t-41.5 -8.5h-146q-22 0 -41.5 8.5t-34 23t-23 34t-8.5 41.5v486q0 22 8.5 41.5t23 34t34 23t41.5 8.5h146q22 0 41.5 -8.5t34 -23t23 -34t8.5 -41.5v-110l-151 -18v106q0 13 -13 13h-32
q-13 0 -13 -13v-163q1 1 7 5.5t16.5 9.5t25 9t33.5 4zM217 116q13 0 13 13v173q0 13 -13 13h-32q-11 0 -13 -11v-175q0 -13 13 -13h32z" />
    <glyph glyph-name="seven" unicode="7" horiz-adv-x="400" 
d="M368 558l-22 -52q-16 -38 -30 -72.5t-24 -75.5t-15.5 -93t-5.5 -125v-140h-175v95q0 80 10 137.5t27.5 108t42 100t54.5 113.5h-196v146h334v-142z" />
    <glyph glyph-name="eight" unicode="8" horiz-adv-x="400" 
d="M216 415q13 0 13 13v143q0 13 -13 13h-32q-13 0 -13 -13v-143q0 -13 13 -13h32zM20 593q0 22 8.5 41.5t23 34t34 23t41.5 8.5h146q22 0 41.5 -8.5t34 -23t23 -34t8.5 -41.5v-154q0 -10 -2.5 -22t-9.5 -23.5t-18 -21.5t-29 -15q18 -5 29 -15t18 -21t9.5 -23t2.5 -22v-169
q0 -22 -8.5 -41.5t-23 -34t-34 -23t-41.5 -8.5h-146q-22 0 -41.5 8.5t-34 23t-23 34t-8.5 41.5v169q0 10 2.5 22t9.5 23t18 21t29 15q-18 5 -29 15t-18 21.5t-9.5 23.5t-2.5 22v154zM184 299q-13 0 -13 -13v-157q0 -13 13 -13h32q13 0 13 13v157q0 13 -13 13h-32z" />
    <glyph glyph-name="nine" unicode="9" horiz-adv-x="400" 
d="M146 264q-61 0 -94 33.5t-33 100.5v195q0 22 8.5 41.5t23 34t34 23t41.5 8.5h146q22 0 41.5 -8.5t34 -23t23 -34t8.5 -41.5v-486q0 -22 -8.5 -41.5t-23 -34t-34 -23t-41.5 -8.5h-146q-22 0 -41.5 8.5t-34 23t-23 34t-8.5 41.5v110l151 18v-106q0 -13 13 -13h32
q13 0 13 13v163q-1 -1 -6.5 -5.5t-16 -9.5t-25.5 -9t-34 -4zM183 584q-13 0 -13 -13v-173q0 -13 13 -13h32q11 0 13 11v175q0 13 -13 13h-32z" />
    <glyph glyph-name="colon" unicode=":" horiz-adv-x="202" 
d="M182 0h-162v160h162v-160zM182 384h-162v160h162v-160z" />
    <glyph glyph-name="semicolon" unicode=";" horiz-adv-x="202" 
d="M182 -6q0 -38 -6 -62.5t-20 -38t-35.5 -18.5t-53.5 -5h-47v79h22q14 0 22 5t8 24v22h-52v160h162v-166zM182 384h-162v160h162v-160z" />
    <glyph glyph-name="less" unicode="&#x3c;" horiz-adv-x="937" 
d="M13 334v30l362 314h32v-235h146v173h354q3 -14 4.5 -40t1.5 -43q0 -47 -12.5 -91t-35.5 -64h-107v-58h107q11 -10 20.5 -27.5t16 -38.5t10 -44.5t3.5 -46.5q0 -17 -2 -42t-6 -39h-354v173h-146v-235h-32z" />
    <glyph glyph-name="equal" unicode="=" horiz-adv-x="438" 
d="M20 506h398v-116h-398v116zM20 306h398v-116h-398v116z" />
    <glyph glyph-name="greater" unicode="&#x3e;" horiz-adv-x="937" 
d="M562 20h-32v235h-146v-173h-354q-4 14 -6 39t-2 42q0 23 3.5 46.5t10 44.5t16 38.5t20.5 27.5h107v58h-107q-23 20 -35.5 64t-12.5 91q0 17 1.5 43t4.5 40h354v-173h146v235h32l362 -314v-30z" />
    <glyph glyph-name="question" unicode="?" horiz-adv-x="382" 
d="M266 202h-152v24q0 29 5.5 53t24.5 58l48 86q12 22 18 37t6 29v62q0 13 -13 13h-24q-13 0 -13 -13v-90l-151 18v114q0 22 8.5 41.5t23 34t34 23t41.5 8.5h138q22 0 41.5 -8.5t34 -23t23 -34t8.5 -41.5v-107q0 -53 -29 -105l-52 -94q-15 -25 -17.5 -40t-2.5 -32v-13z
M271 0h-162v160h162v-160z" />
    <glyph glyph-name="at" unicode="@" horiz-adv-x="753" 
d="M548 109q39 0 53 25.5t14 57.5v316q0 38 -24.5 61.5t-62.5 23.5h-301q-38 0 -62.5 -23.5t-24.5 -61.5v-470q0 -39 24.5 -62.5t62.5 -23.5h457l-29 -106h-478q-34 0 -63 11.5t-50 32.5t-32.5 49.5t-11.5 63.5v540q0 35 11.5 63.5t32.5 49.5t50 32.5t63 11.5h402
q35 0 63.5 -11.5t49.5 -32.5t32.5 -49.5t11.5 -63.5v-386q0 -37 -13.5 -66t-36.5 -49.5t-53.5 -31t-65.5 -10.5h-154v34q-12 -13 -38 -23.5t-60 -10.5q-28 0 -49 9t-35 24t-21 34t-7 39v92q0 86 98 107l101 21v74q0 13 -13 13h-27q-13 0 -13 -13v-50l-141 18v69
q0 22 8.5 41.5t23 34t34 23t41.5 8.5h126q22 0 41.5 -8.5t34 -23t23 -34t8.5 -41.5v-328zM389 119q13 0 13 13v95l-39 -9q-14 -3 -14 -20v-66q0 -13 13 -13h27z" />
    <glyph glyph-name="A" unicode="A" horiz-adv-x="385" 
d="M167 250h44l-21 250zM217 116h-62l-12 -116h-137l78 700h217l79 -700h-151z" />
    <glyph glyph-name="B" unicode="B" horiz-adv-x="400" 
d="M22 700h253q22 0 41.5 -8.5t34 -23t23 -34t8.5 -41.5v-148q0 -10 -2.5 -22t-9.5 -23.5t-18 -21.5t-29 -15q18 -5 29 -15t18 -21t9.5 -23t2.5 -22v-175q0 -22 -8.5 -41.5t-23 -34t-34 -23t-41.5 -8.5h-253v700zM231 276q0 13 -13 13h-45v-153h45q13 0 13 13v127zM231 551
q0 13 -13 13h-45v-139h45q13 0 13 13v113z" />
    <glyph glyph-name="C" unicode="C" horiz-adv-x="396" 
d="M228 405v146q0 13 -13 13h-32q-13 0 -13 -13v-402q0 -13 13 -13h32q13 0 13 13v162l151 -18v-186q0 -22 -8.5 -41.5t-23 -34t-34 -23t-41.5 -8.5h-146q-22 0 -41.5 8.5t-34 23t-23 34t-8.5 41.5v486q0 22 8.5 41.5t23 34t34 23t41.5 8.5h146q22 0 41.5 -8.5t34 -23
t23 -34t8.5 -41.5v-170z" />
    <glyph glyph-name="D" unicode="D" horiz-adv-x="401" 
d="M382 107q0 -22 -8.5 -41.5t-23 -34t-34 -23t-41.5 -8.5h-253v700h253q22 0 41.5 -8.5t34 -23t23 -34t8.5 -41.5v-486zM231 551q0 13 -13 13h-45v-428h45q13 0 13 13v402z" />
    <glyph glyph-name="E" unicode="E" horiz-adv-x="336" 
d="M22 700h304v-136h-153v-145h96v-136h-96v-147h153v-136h-304v700z" />
    <glyph glyph-name="F" unicode="F" horiz-adv-x="314" 
d="M22 700h288v-136h-137v-153h120v-136h-120v-275h-151v700z" />
    <glyph glyph-name="G" unicode="G" horiz-adv-x="399" 
d="M197 382h182v-382h-54l-21 28q-14 -13 -32.5 -20.5t-39.5 -7.5h-106q-22 0 -41.5 8.5t-34 23t-23 34t-8.5 41.5v486q0 22 8.5 41.5t23 34t34 23t41.5 8.5h146q22 0 41.5 -8.5t34 -23t23 -34t8.5 -41.5v-160l-151 -18v136q0 13 -13 13h-32q-13 0 -13 -13v-402
q0 -13 13 -13h32q13 0 13 13v97h-31v136z" />
    <glyph glyph-name="H" unicode="H" horiz-adv-x="404" 
d="M231 419v281h151v-700h-151v283h-58v-283h-151v700h151v-281h58z" />
    <glyph glyph-name="I" unicode="I" horiz-adv-x="195" 
d="M173 0h-151v700h151v-700z" />
    <glyph glyph-name="J" unicode="J" horiz-adv-x="381" 
d="M197 136q13 0 13 13v551h151v-593q0 -22 -8.5 -41.5t-23 -34t-34 -23t-41.5 -8.5h-138q-22 0 -41.5 8.5t-34 23t-23 34t-8.5 41.5v186l151 18v-162q0 -13 13 -13h24z" />
    <glyph glyph-name="K" unicode="K" horiz-adv-x="385" 
d="M173 424l63 276h147l-65 -323l69 -377h-156l-58 310v-310h-151v700h151v-276z" />
    <glyph glyph-name="L" unicode="L" horiz-adv-x="314" 
d="M173 136h133v-136h-284v700h151v-564z" />
    <glyph glyph-name="M" unicode="M" horiz-adv-x="463" 
d="M307 700h134v-700h-121v297l-51 -297h-73l-56 297v-297h-118v700h150l64 -372z" />
    <glyph glyph-name="N" unicode="N" horiz-adv-x="408" 
d="M238 388v312h148v-700h-148l-68 327v-327h-148v700h148z" />
    <glyph glyph-name="O" unicode="O" horiz-adv-x="398" 
d="M379 107q0 -22 -8.5 -41.5t-23 -34t-34 -23t-41.5 -8.5h-146q-22 0 -41.5 8.5t-34 23t-23 34t-8.5 41.5v486q0 22 8.5 41.5t23 34t34 23t41.5 8.5h146q22 0 41.5 -8.5t34 -23t23 -34t8.5 -41.5v-486zM228 551q0 13 -13 13h-32q-13 0 -13 -13v-402q0 -13 13 -13h32
q13 0 13 13v402z" />
    <glyph glyph-name="P" unicode="P" horiz-adv-x="387" 
d="M22 700h245q22 0 41.5 -8.5t34 -23t23 -34t8.5 -41.5v-220q0 -22 -8.5 -41.5t-23 -34t-34 -23t-41.5 -8.5h-94v-266h-151v700zM223 551q0 13 -13 13h-37v-162h37q13 0 13 13v136z" />
    <glyph glyph-name="Q" unicode="Q" horiz-adv-x="402" 
d="M126 0q-22 0 -41.5 8.5t-34 23t-23 34t-8.5 41.5v486q0 22 8.5 41.5t23 34t34 23t41.5 8.5h146q22 0 41.5 -8.5t34 -23t23 -34t8.5 -41.5v-461q0 -13 8 -16.5t16 -3.5v-112q-20 0 -41 3.5t-35 14.5q-13 -18 -35 -18h-166zM207 136q10 0 16.5 7t6.5 17t-6.5 16.5
t-16.5 6.5v114q5 0 10.5 -1.5t10.5 -4.5v260q0 13 -13 13h-32q-13 0 -13 -13v-402q0 -13 13 -13h24z" />
    <glyph glyph-name="R" unicode="R" horiz-adv-x="403" 
d="M231 551q0 13 -13 13h-45v-159h45q13 0 13 13v133zM231 238q0 15 -8.5 23t-22.5 8h-27v-269h-151v700h253q22 0 41.5 -8.5t34 -23t23 -34t8.5 -41.5v-174q0 -10 -2.5 -22t-9.5 -23.5t-18 -21.5t-29 -15q18 -5 29 -15t18 -21t9.5 -23t2.5 -22v-155q0 -10 1 -24.5
t2.5 -28.5t4 -27t5.5 -21h-156q-2 13 -4 32q-2 16 -3 38.5t-1 52.5v115z" />
    <glyph glyph-name="S" unicode="S" horiz-adv-x="389" 
d="M73 358q-31 23 -44.5 54.5t-13.5 76.5v104q0 22 8.5 41.5t23 34t34 23t41.5 8.5h146q22 0 41.5 -8.5t34 -23t23 -34t8.5 -41.5v-94l-151 -18v70q0 13 -13 13h-32q-13 0 -13 -13v-27q0 -30 6.5 -40.5t20.5 -21.5l111 -89q38 -30 54.5 -63t16.5 -80v-123q0 -22 -8.5 -41.5
t-23 -34t-34 -23t-41.5 -8.5h-146q-22 0 -41.5 8.5t-34 23t-23 34t-8.5 41.5v120l151 17v-95q0 -13 13 -13h32q13 0 13 13v34q0 20 -1 32.5t-5.5 22t-12.5 17.5t-22 19z" />
    <glyph glyph-name="T" unicode="T" horiz-adv-x="343" 
d="M247 0h-151v564h-88v136h327v-136h-88v-564z" />
    <glyph glyph-name="U" unicode="U" horiz-adv-x="397" 
d="M171 149q0 -13 13 -13h32q13 0 13 13v551h148v-593q0 -22 -8.5 -41.5t-23 -34t-34 -23t-41.5 -8.5h-143q-22 0 -41.5 8.5t-34 23t-23 34t-8.5 41.5v593h151v-551z" />
    <glyph glyph-name="V" unicode="V" horiz-adv-x="385" 
d="M228 700h151l-67 -700h-241l-62 700h149l31 -476z" />
    <glyph glyph-name="W" unicode="W" horiz-adv-x="567" 
d="M416 700h145l-67 -700h-181l-27 353l-28 -353h-187l-62 700h150l34 -476l49 476h92l43 -476z" />
    <glyph glyph-name="X" unicode="X" horiz-adv-x="363" 
d="M188 545l40 155h140l-95 -356l95 -344h-155l-40 148l-36 -148h-142l94 349l-94 351h151z" />
    <glyph glyph-name="Y" unicode="Y" horiz-adv-x="392" 
d="M199 482l50 218h145l-123 -465v-235h-151v235l-121 465h157z" />
    <glyph glyph-name="Z" unicode="Z" horiz-adv-x="316" 
d="M11 564v136h296v-101l-142 -463h142v-136h-300v101l146 463h-142z" />
    <glyph glyph-name="bracketleft" unicode="[" horiz-adv-x="250" 
d="M153 48h83v-108h-214v760h214v-108h-83v-544z" />
    <glyph glyph-name="backslash" unicode="\" horiz-adv-x="148" 
d="M14 700h31l89 -700h-31z" />
    <glyph glyph-name="bracketright" unicode="]" horiz-adv-x="250" 
d="M97 592h-83v108h214v-760h-214v108h83v544z" />
    <glyph glyph-name="asciicircum" unicode="^" horiz-adv-x="458" 
d="M234 567l-77 -272h-137l123 405h182l113 -405h-137z" />
    <glyph glyph-name="underscore" unicode="_" horiz-adv-x="355" 
d="M31 -35h293v-125h-293v125z" />
    <glyph glyph-name="grave" unicode="`" horiz-adv-x="252" 
d="M20 700h151l61 -135h-111z" />
    <glyph glyph-name="a" unicode="a" horiz-adv-x="376" 
d="M222 34q-12 -13 -38 -23.5t-60 -10.5q-28 0 -49 9t-35 24t-21 34t-7 39v92q0 86 98 107l101 21v74q0 13 -13 13h-27q-13 0 -13 -13v-50l-141 18v69q0 22 8.5 41.5t23 34t34 23t41.5 8.5h126q22 0 41.5 -8.5t34 -23t23 -34t8.5 -41.5v-437h-135v34zM198 119q13 0 13 13v95
l-39 -9q-14 -3 -14 -20v-66q0 -13 13 -13h27z" />
    <glyph glyph-name="b" unicode="b" horiz-adv-x="388" 
d="M140 0h-119v700h146v-197q16 19 40 30t47 11q60 0 88.5 -33t28.5 -84v-296q0 -25 -7 -48.5t-22.5 -42t-39.5 -29.5t-57 -11q-40 0 -62.5 9.5t-35.5 21.5zM167 147q0 -14 6 -25t25 -11q9 0 18 6.5t9 21.5v266q0 15 -9 21.5t-18 6.5q-19 0 -25 -11t-6 -25v-250z" />
    <glyph glyph-name="c" unicode="c" horiz-adv-x="381" 
d="M367 107q0 -22 -8.5 -41.5t-23 -34t-34 -23t-41.5 -8.5h-136q-22 0 -41.5 8.5t-34 23t-23 34t-8.5 41.5v330q0 22 8.5 41.5t23 34t34 23t41.5 8.5h136q22 0 41.5 -8.5t34 -23t23 -34t8.5 -41.5v-76l-146 -26v65q0 13 -13 13h-32q-13 0 -13 -13v-256q0 -13 13 -13h32
q13 0 13 13v82l146 -26v-93z" />
    <glyph glyph-name="d" unicode="d" horiz-adv-x="388" 
d="M234 38q-14 -14 -41 -26t-56 -12q-33 0 -56 10.5t-37.5 28t-20.5 40.5t-6 48v300q0 51 28.5 84t88.5 33q23 0 47 -11t40 -30v197h146v-700h-128zM221 397q0 14 -6 25t-25 11q-9 0 -18 -6.5t-9 -21.5v-266q0 -15 9 -21.5t18 -6.5q19 0 25 11t6 25v250z" />
    <glyph glyph-name="e" unicode="e" horiz-adv-x="383" 
d="M367 107q0 -22 -8.5 -41.5t-23 -34t-34 -23t-41.5 -8.5h-136q-22 0 -41.5 8.5t-34 23t-23 34t-8.5 41.5v330q0 22 8.5 41.5t23 34t34 23t41.5 8.5h136q22 0 41.5 -8.5t34 -23t23 -34t8.5 -41.5v-207h-204v-86q0 -13 13 -13h32q13 0 13 13v62l146 -26v-73zM163 348h58v52
q0 13 -13 13h-32q-13 0 -13 -13v-52z" />
    <glyph glyph-name="f" unicode="f" horiz-adv-x="287" 
d="M7 544h59v79q0 49 29 78t78 29h107v-128h-55q-13 0 -13 -13v-45h68v-114h-68v-430h-146v430h-59v114z" />
    <glyph glyph-name="g" unicode="g" horiz-adv-x="411" 
d="M248 544q10 31 34 48.5t69 17.5h53v-116h-18q-11 0 -13 -11v-216q0 -22 -8.5 -41.5t-23 -34t-34 -23t-41.5 -8.5h-104v-15q0 -16 18 -19l136 -23q59 -10 77 -38.5t18 -71.5v-56q0 -48 -30 -77.5t-77 -29.5h-191q-55 0 -83.5 31t-28.5 76q0 21 7 37.5t18.5 28.5t25.5 20
t28 12q-20 12 -32 29t-12 39q0 26 13.5 43.5t30.5 27.5q-19 5 -32 15t-20 23t-10 27.5t-3 27.5v170q0 22 8.5 41.5t23 34t34 23t41.5 8.5h126zM214 285q13 0 13 13v108q0 13 -13 13h-40q-13 0 -13 -13v-108q0 -13 13 -13h40zM140 -45q0 -13 13 -13h103q13 0 13 13v20
q0 12 -13 13l-99 13q-6 -4 -11.5 -10t-5.5 -21v-15z" />
    <glyph glyph-name="h" unicode="h" horiz-adv-x="390" 
d="M167 0h-146v700h146v-198q12 15 36.5 28.5t62.5 13.5q50 0 77.5 -28t27.5 -79v-437h-146v385q0 15 -8.5 21.5t-17.5 6.5q-17 0 -24 -9t-8 -22v-382z" />
    <glyph glyph-name="i" unicode="i" horiz-adv-x="188" 
d="M167 0h-146v544h146v-544zM21 700h146v-116h-146v116z" />
    <glyph glyph-name="j" unicode="j" horiz-adv-x="188" 
d="M167 -52q0 -18 -6 -37.5t-18.5 -35t-33 -25.5t-49.5 -10h-58l-9 111h15q13 0 13 13v580h146v-596zM21 700h146v-116h-146v116z" />
    <glyph glyph-name="k" unicode="k" horiz-adv-x="386" 
d="M297 300l89 -300h-157l-62 232v-232h-146v700h146v-352l68 196h154z" />
    <glyph glyph-name="l" unicode="l" horiz-adv-x="188" 
d="M167 0h-146v700h146v-700z" />
    <glyph glyph-name="m" unicode="m" horiz-adv-x="594" 
d="M371 0h-146v385q0 15 -8.5 21.5t-17.5 6.5q-19 0 -25.5 -11t-6.5 -25v-377h-146v544h136l6 -47q11 16 36.5 31.5t66.5 15.5q70 0 95 -55q14 18 41.5 36.5t67.5 18.5q50 0 77.5 -28t27.5 -79v-437h-146v385q0 15 -8.5 21.5t-17.5 6.5q-19 0 -25.5 -11t-6.5 -25v-377z" />
    <glyph glyph-name="n" unicode="n" horiz-adv-x="390" 
d="M167 0h-146v544h136l6 -47q11 16 36.5 31.5t66.5 15.5q50 0 77.5 -28t27.5 -79v-437h-146v385q0 15 -8.5 21.5t-17.5 6.5q-19 0 -25.5 -11t-6.5 -25v-377z" />
    <glyph glyph-name="o" unicode="o" horiz-adv-x="384" 
d="M124 0q-22 0 -41.5 8.5t-34 23t-23 34t-8.5 41.5v330q0 22 8.5 41.5t23 34t34 23t41.5 8.5h136q22 0 41.5 -8.5t34 -23t23 -34t8.5 -41.5v-330q0 -22 -8.5 -41.5t-23 -34t-34 -23t-41.5 -8.5h-136zM208 131q13 0 13 13v256q0 13 -13 13h-32q-13 0 -13 -13v-256
q0 -13 13 -13h32z" />
    <glyph glyph-name="p" unicode="p" horiz-adv-x="388" 
d="M167 -160h-146v704h146v-41q16 19 40 30t47 11q60 0 88.5 -33t28.5 -84v-300q0 -25 -6.5 -48t-21.5 -40.5t-38.5 -28t-56.5 -10.5q-20 0 -43.5 5.5t-37.5 19.5v-185zM167 147q0 -14 6 -25t25 -11q9 0 18 6.5t9 21.5v266q0 15 -9 21.5t-18 6.5q-19 0 -25 -11t-6 -25v-250z
" />
    <glyph glyph-name="q" unicode="q" horiz-adv-x="388" 
d="M221 25q-14 -14 -37.5 -19.5t-43.5 -5.5q-33 0 -56.5 10.5t-38.5 28t-21.5 40.5t-6.5 48v300q0 51 28.5 84t88.5 33q23 0 47 -11t40 -30l20 41h126v-704h-146v185zM221 397q0 14 -6 25t-25 11q-9 0 -18 -6.5t-9 -21.5v-266q0 -15 9 -21.5t18 -6.5q19 0 25 11t6 25v250z
" />
    <glyph glyph-name="r" unicode="r" horiz-adv-x="290" 
d="M280 397h-68q-20 0 -32.5 -11t-12.5 -34v-352h-146v544h128l4 -58q8 18 30.5 38t59.5 20q10 0 17 -0.5t12 -0.5q5 -1 8 -2v-144z" />
    <glyph glyph-name="s" unicode="s" horiz-adv-x="377" 
d="M363 107q0 -22 -8.5 -41.5t-23 -34t-34 -23t-41.5 -8.5h-134q-22 0 -41.5 8.5t-34 23t-23 34t-8.5 41.5v61l146 16v-40q0 -13 13 -13h32q13 0 13 13v5q0 17 -6 24t-23 15l-124 64q-32 17 -42.5 46.5t-10.5 67.5v71q0 22 8.5 41.5t23 34t34 23t41.5 8.5h136
q22 0 41.5 -8.5t34 -23t23 -34t8.5 -41.5v-66l-146 -13v42q0 13 -13 13h-32q-13 0 -13 -13v-5q0 -16 5 -22.5t20 -14.5l127 -69q20 -11 36 -31.5t16 -57.5v-93z" />
    <glyph glyph-name="t" unicode="t" horiz-adv-x="286" 
d="M278 544v-114h-62v-430h-146v430h-62v114h62v140h146v-140h62z" />
    <glyph glyph-name="u" unicode="u" horiz-adv-x="390" 
d="M223 544h146v-544h-140v47q-11 -16 -36.5 -31.5t-66.5 -15.5q-50 0 -78.5 28t-28.5 79v437h146v-385q0 -15 8.5 -21.5t17.5 -6.5q19 0 25.5 11t6.5 25v377z" />
    <glyph glyph-name="v" unicode="v" horiz-adv-x="384" 
d="M225 544h152l-64 -544h-244l-59 544h146l35 -420z" />
    <glyph glyph-name="w" unicode="w" horiz-adv-x="562" 
d="M409 544h144l-50 -544h-187l-36 298l-34 -298h-189l-47 544h147l23 -410l58 410h92l54 -410z" />
    <glyph glyph-name="x" unicode="x" horiz-adv-x="361" 
d="M186 414l37 130h136l-85 -290l92 -254h-142l-50 136l-38 -136h-137l87 297l-89 247h142z" />
    <glyph glyph-name="y" unicode="y" horiz-adv-x="377" 
d="M10 544h149l32 -420l29 420h150l-72 -598q-3 -28 -10 -49.5t-22 -36.5t-40 -22.5t-64 -7.5h-120v118h59q20 0 32.5 2t19 7.5t9 15.5t3.5 27h-94z" />
    <glyph glyph-name="z" unicode="z" horiz-adv-x="333" 
d="M321 124v-124h-308v94l154 326h-156v124h310v-97l-152 -323h152z" />
    <glyph glyph-name="braceleft" unicode="{" horiz-adv-x="296" 
d="M158 329q18 -5 29 -15t18 -21.5t9.5 -23.5t2.5 -22v-186q0 -13 13 -13h52v-108h-114q-45 0 -71 31t-26 76v219q0 13 -13 13h-52v102h52q13 0 13 13v199q0 45 26 76t71 31h114v-108h-52q-13 0 -13 -13v-168q0 -10 -2.5 -22t-9.5 -23.5t-18 -21.5t-29 -15z" />
    <glyph glyph-name="bar" unicode="|" horiz-adv-x="157" 
d="M134 -100h-111v900h111v-900z" />
    <glyph glyph-name="braceright" unicode="}" horiz-adv-x="296" 
d="M138 329q-18 5 -29 15t-18 21.5t-9.5 23.5t-2.5 22v168q0 13 -13 13h-52v108h114q45 0 71 -31t26 -76v-199q0 -13 13 -13h52v-102h-52q-13 0 -13 -13v-219q0 -45 -26 -76t-71 -31h-114v108h52q13 0 13 13v186q0 10 2.5 22t9.5 23.5t18 21.5t29 15z" />
    <glyph glyph-name="asciitilde" unicode="~" horiz-adv-x="432" 
d="M323 269q-18 0 -44 4.5t-51.5 9.5t-46 9.5t-26.5 4.5q-10 0 -13 -5t-3 -10v-13h-122v65q0 17 5 33.5t16 29.5t28.5 21t42.5 8q18 0 43.5 -4.5t51 -9.5t46 -9.5t27.5 -4.5q10 0 13 5t3 10v13h122v-65q0 -17 -5 -33.5t-16 -29.5t-28.5 -21t-42.5 -8z" />
    <glyph glyph-name="exclamdown" unicode="&#xa1;" horiz-adv-x="205" 
d="M188 -156h-171v228l25 270h121l25 -270v-228zM184 384h-162v160h162v-160z" />
    <glyph glyph-name="cent" unicode="&#xa2;" horiz-adv-x="386" 
d="M368 107q0 -22 -8.5 -41.5t-23 -34t-34 -23t-41.5 -8.5h-9v-94h-118v94h-9q-22 0 -41.5 8.5t-34 23t-23 34t-8.5 41.5v330q0 22 8.5 41.5t23 34t34 23t41.5 8.5h9v89h118v-89h9q22 0 41.5 -8.5t34 -23t23 -34t8.5 -41.5v-76l-146 -26v65q0 13 -13 13h-32q-13 0 -13 -13
v-256q0 -13 13 -13h32q13 0 13 13v82l146 -26v-93z" />
    <glyph glyph-name="sterling" unicode="&#xa3;" horiz-adv-x="436" 
d="M18 127h40v94h-40v73h40v50h-40v73h40v176q0 22 8.5 41.5t23 34t34 23t41.5 8.5h146q22 0 41.5 -8.5t34 -23t23 -34t8.5 -41.5v-90l-151 -18v66q0 13 -13 13h-32q-13 0 -13 -13v-134h173v-73h-173v-50h173v-73h-173v-94h209v-127h-400v127z" />
    <glyph glyph-name="currency" unicode="&#xa4;" horiz-adv-x="628" 
d="M580 350q0 -92 -50 -159l82 -79l-63 -63l-82 80q-32 -23 -71 -36t-82 -13t-82 13t-71 36l-82 -80l-63 63l82 79q-50 67 -50 159t50 159l-82 79l63 63l82 -80q32 23 71 36t82 13t82 -13t71 -36l82 80l63 -63l-82 -79q50 -67 50 -159zM134 350q0 -39 13 -73.5t36.5 -60
t57 -40.5t73.5 -15q41 0 74 15t56.5 40.5t36.5 60t13 73.5t-13 73.5t-36.5 60t-56.5 40.5t-74 15q-40 0 -73.5 -15t-57 -40.5t-36.5 -60t-13 -73.5z" />
    <glyph glyph-name="yen" unicode="&#xa5;" horiz-adv-x="421" 
d="M285 225v-225h-151v225h-96v73h79l-10 40h-69v73h50l-75 289h157l43 -218l50 218h145l-77 -289h51v-73h-70l-11 -40h81v-73h-97z" />
    <glyph glyph-name="brokenbar" unicode="&#xa6;" horiz-adv-x="159" 
d="M135 295v-395h-111v395h111zM24 418v382h111v-382h-111z" />
    <glyph glyph-name="section" unicode="&#xa7;" horiz-adv-x="414" 
d="M326 229q24 -13 38 -27.5t21 -30.5t9 -33.5t2 -37.5v-46q0 -45 -30 -76t-89 -31h-138q-57 0 -88 31t-31 76v53l150 16v-52q0 -5 5.5 -9t11.5 -4h42q7 0 12 4t5 9v25q0 17 -9 27.5t-29 21.5l-122 64q-39 20 -53.5 49.5t-14.5 67.5v70zM88 418q-24 13 -38 27t-21 30t-9 34
t-2 38v46q0 45 30 76t89 31h138q57 0 88 -31t31 -76v-53l-150 -16v52q0 5 -5.5 9t-11.5 4h-42q-17 0 -17 -13v-25q0 -17 9 -27.5t29 -21.5l122 -64q39 -20 53.5 -49.5t14.5 -67.5v-70z" />
    <glyph glyph-name="dieresis" unicode="&#xa8;" horiz-adv-x="308" 
d="M141 571h-121v129h121v-129zM288 571h-121v129h121v-129z" />
    <glyph glyph-name="copyright" unicode="&#xa9;" horiz-adv-x="667" 
d="M488 250q0 -22 -8.5 -41.5t-23 -34t-34 -23t-41.5 -8.5h-95q-22 0 -41.5 8.5t-34 23t-23 34t-8.5 41.5v200q0 22 8.5 41.5t23 34t34 23t41.5 8.5h95q22 0 41.5 -8.5t34 -23t23 -34t8.5 -41.5v-55l-121 -16v55q0 13 -13 13h-42q-13 0 -13 -13v-168q0 -13 13 -13h42
q13 0 13 13v54l121 -16v-54zM648 157q0 -34 -11.5 -63t-32.5 -50t-49.5 -32.5t-63.5 -11.5h-315q-34 0 -63 11.5t-50 32.5t-32.5 50t-11.5 63v386q0 35 11.5 63.5t32.5 49.5t50 32.5t63 11.5h315q35 0 63.5 -11.5t49.5 -32.5t32.5 -49.5t11.5 -63.5v-386zM527 518
q0 75 -77 75h-234q-77 0 -77 -75v-336q0 -76 77 -76h234q77 0 77 76v336z" />
    <glyph glyph-name="ordfeminine" unicode="&#xaa;" horiz-adv-x="306" 
d="M179 292q-9 -12 -27 -20t-44 -8q-25 0 -42.5 8.5t-29 21t-16.5 28t-5 29.5v75q0 35 20 55.5t55 27.5l81 16v65q0 11 -11 11h-21q-11 0 -11 -11v-53l-109 15v62q0 35 25.5 60.5t60.5 25.5h93q35 0 60 -25.5t25 -60.5v-350h-104v28zM160 353q11 0 11 11v79l-32 -6
q-11 -3 -11 -16v-57q0 -11 11 -11h21z" />
    <glyph glyph-name="guillemotleft" unicode="&#xab;" horiz-adv-x="550" 
d="M163 544h160l-151 -272l151 -272h-160l-151 272zM374 544h160l-151 -272l151 -272h-160l-151 272z" />
    <glyph glyph-name="logicalnot" unicode="&#xac;" horiz-adv-x="436" 
d="M16 506h398v-316h-126v200h-272v116z" />
    <glyph glyph-name="uni00AD" unicode="&#xad;" horiz-adv-x="438" 
d="M20 406h398v-116h-398v116z" />
    <glyph glyph-name="registered" unicode="&#xae;" horiz-adv-x="667" 
d="M369 434q0 13 -13 13h-56v-59h56q13 0 13 13v33zM480 218v-12t0.5 -20.5t2.5 -23t5 -19.5h-121q-2 3 -4 14q-2 9 -3 26t-1 47v29q0 11 -6.5 17t-14.5 6h-38v-139h-121v414h201q22 0 42 -8.5t35 -23t24 -34t9 -41.5v-24q0 -10 -3 -23.5t-10.5 -27t-19 -25t-29.5 -16.5
q18 -5 28 -15t15.5 -21t7 -23t1.5 -22v-35zM648 157q0 -34 -11.5 -63t-32.5 -50t-49.5 -32.5t-63.5 -11.5h-315q-34 0 -63 11.5t-50 32.5t-32.5 50t-11.5 63v386q0 35 11.5 63.5t32.5 49.5t50 32.5t63 11.5h315q35 0 63.5 -11.5t49.5 -32.5t32.5 -49.5t11.5 -63.5v-386z
M527 518q0 75 -77 75h-234q-77 0 -77 -75v-336q0 -76 77 -76h234q77 0 77 76v336z" />
    <glyph glyph-name="macron" unicode="&#xaf;" horiz-adv-x="282" 
d="M20 687h242v-97h-242v97z" />
    <glyph glyph-name="degree" unicode="&#xb0;" horiz-adv-x="326" 
d="M313 485q0 -30 -10 -55t-27.5 -43t-40.5 -28.5t-49 -10.5h-46q-26 0 -49 10.5t-40.5 28.5t-27.5 43t-10 55v78q0 30 10 55t27.5 43t40.5 28.5t49 10.5h46q26 0 49 -10.5t40.5 -28.5t27.5 -43t10 -55v-78zM116 496q0 -32 11 -44t33 -12h6q22 0 32.5 12t10.5 44v55
q0 32 -10.5 44.5t-32.5 12.5h-6q-22 0 -33 -12.5t-11 -44.5v-55z" />
    <glyph glyph-name="plusminus" unicode="&#xb1;" horiz-adv-x="432" 
d="M17 406h136v152h126v-152h136v-116h-136v-152h-126v152h-136v116zM17 116h398v-116h-398v116z" />
    <glyph glyph-name="twosuperior" unicode="&#xb2;" horiz-adv-x="400" 
d="M197 373q-9 -9 -13 -15.5t-3 -15.5v-8h144v-89h-252v105q0 43 25 68l100 101q11 12 17 23t6 28v34q0 8 -10 8h-22q-10 0 -10 -8v-66l-108 12v81q0 29 22.5 49t54.5 20h104q32 0 54.5 -20t22.5 -49v-71q0 -29 -8.5 -49.5t-31.5 -43.5z" />
    <glyph glyph-name="threesuperior" unicode="&#xb3;" horiz-adv-x="400" 
d="M160 431v88h48q10 0 10 9v76q0 8 -10 8h-22q-10 0 -10 -8v-60l-108 12v75q0 29 22.5 49t54.5 20h104q32 0 54.5 -20t22.5 -49v-100q0 -14 -8.5 -30t-33.5 -23q25 -8 33.5 -24t8.5 -29v-110q0 -29 -22.5 -49.5t-54.5 -20.5h-104q-32 0 -54.5 20.5t-22.5 49.5v75l108 12
v-60q0 -8 10 -8h22q10 0 10 8v80q0 9 -10 9h-48z" />
    <glyph glyph-name="acute" unicode="&#xb4;" horiz-adv-x="252" 
d="M131 565h-111l61 135h151z" />
    <glyph glyph-name="mu" unicode="&#xb5;" horiz-adv-x="389" 
d="M21 544h146v-385q0 -15 8 -21.5t17 -6.5q20 0 26.5 13t6.5 29v371h146v-544h-134l-6 47q-13 -27 -37.5 -37t-45.5 -10v-170h-127v714z" />
    <glyph glyph-name="paragraph" unicode="&#xb6;" horiz-adv-x="590" 
d="M20 593q0 22 8.5 41.5t23 34t34 23t41.5 8.5h223v-700h-223q-22 0 -41.5 8.5t-34 23t-23 34t-8.5 41.5v486zM568 0h-151v700h151v-700z" />
    <glyph glyph-name="periodcentered" unicode="&#xb7;" horiz-adv-x="201" 
d="M181 295h-161v159h161v-159z" />
    <glyph glyph-name="cedilla" unicode="&#xb8;" horiz-adv-x="205" 
d="M60 40h125l-40 -191h-125z" />
    <glyph glyph-name="onesuperior" unicode="&#xb9;" horiz-adv-x="400" 
d="M258 700v-366h62v-89h-231v89h60v214h-62v91h21q24 0 33.5 10.5t9.5 32.5v18h107z" />
    <glyph glyph-name="ordmasculine" unicode="&#xba;" horiz-adv-x="316" 
d="M108 264q-36 0 -61 25.5t-25 60.5v264q0 35 25 60.5t61 25.5h100q36 0 61 -25.5t25 -60.5v-264q0 -35 -25 -60.5t-61 -25.5h-100zM171 363q10 0 10 11v216q0 11 -10 11h-26q-10 0 -10 -11v-216q0 -11 10 -11h26z" />
    <glyph glyph-name="guillemotright" unicode="&#xbb;" horiz-adv-x="550" 
d="M327 272l-151 -272h-160l151 272l-151 272h160zM538 272l-151 -272h-160l151 272l-151 272h160z" />
    <glyph glyph-name="onequarter" unicode="&#xbc;" horiz-adv-x="620" 
d="M581 106h-31v-106h-108v106h-125v104l121 245h112v-261h31v-88zM217 700v-366h62v-89h-231v89h60v214h-62v91h21q24 0 33.5 10.5t9.5 32.5v18h107zM442 322l-61 -128h61v128z" />
    <glyph glyph-name="onehalf" unicode="&#xbd;" horiz-adv-x="620" 
d="M454 128q-9 -9 -13 -15.5t-3 -15.5v-8h144v-89h-252v105q0 43 25 68l100 101q11 12 17 23t6 28v34q0 8 -10 8h-22q-10 0 -10 -8v-66l-108 12v81q0 29 22.5 49t54.5 20h104q32 0 54.5 -20t22.5 -49v-71q0 -29 -8.5 -49.5t-31.5 -43.5zM217 700v-366h62v-89h-231v89h60v214
h-62v91h21q24 0 33.5 10.5t9.5 32.5v18h107z" />
    <glyph glyph-name="threequarters" unicode="&#xbe;" horiz-adv-x="620" 
d="M133 431v88h48q10 0 10 9v76q0 8 -10 8h-22q-10 0 -10 -8v-60l-108 12v75q0 29 22.5 49t54.5 20h104q32 0 54.5 -20t22.5 -49v-100q0 -14 -8.5 -30t-33.5 -23q25 -8 33.5 -24t8.5 -29v-110q0 -29 -22.5 -49.5t-54.5 -20.5h-104q-32 0 -54.5 20.5t-22.5 49.5v75l108 12
v-60q0 -8 10 -8h22q10 0 10 8v80q0 9 -10 9h-48zM581 106h-31v-106h-108v106h-125v104l121 245h112v-261h31v-88zM442 322l-61 -128h61v128z" />
    <glyph glyph-name="questiondown" unicode="&#xbf;" horiz-adv-x="380" 
d="M115 342h152v-24q0 -29 -5.5 -53t-24.5 -58l-48 -86q-12 -22 -18 -37t-6 -29v-62q0 -13 13 -13h24q13 0 13 13v90l151 -18v-114q0 -22 -8.5 -41.5t-23 -34t-34 -23t-41.5 -8.5h-138q-22 0 -41.5 8.5t-34 23t-23 34t-8.5 41.5v107q0 53 29 105l52 94q15 25 17.5 40t2.5 32
v13zM110 544h162v-160h-162v160z" />
    <glyph glyph-name="Agrave" unicode="&#xc0;" horiz-adv-x="385" 
d="M167 250h44l-21 250zM217 116h-62l-12 -116h-137l78 700h217l79 -700h-151zM87 856h151l61 -135h-111z" />
    <glyph glyph-name="Aacute" unicode="&#xc1;" horiz-adv-x="385" 
d="M167 250h44l-21 250zM217 116h-62l-12 -116h-137l78 700h217l79 -700h-151zM198 721h-111l61 135h151z" />
    <glyph glyph-name="Acircumflex" unicode="&#xc2;" horiz-adv-x="385" 
d="M167 250h44l-21 250zM217 116h-62l-12 -116h-137l78 700h217l79 -700h-151zM193 780l-31 -59h-113l73 135h142l73 -135h-113z" />
    <glyph glyph-name="Atilde" unicode="&#xc3;" horiz-adv-x="385" 
d="M167 250h44l-21 250zM217 116h-62l-12 -116h-137l78 700h217l79 -700h-151zM257 730q-14 0 -29.5 3.5t-29.5 8t-24.5 8t-15.5 3.5q-8 0 -10.5 -4.5t-2.5 -7.5v-11h-91v51q0 28 17 51.5t58 23.5q14 0 29 -3.5t28.5 -8t24.5 -8t17 -3.5q8 0 10.5 4t2.5 8v11h91v-51
q0 -28 -17 -51.5t-58 -23.5z" />
    <glyph glyph-name="Adieresis" unicode="&#xc4;" horiz-adv-x="385" 
d="M167 250h44l-21 250zM217 116h-62l-12 -116h-137l78 700h217l79 -700h-151zM180 727h-121v129h121v-129zM327 727h-121v129h121v-129z" />
    <glyph glyph-name="Aring" unicode="&#xc5;" horiz-adv-x="386" 
d="M343 704q0 -28 -8.5 -50.5t-23.5 -38.5l70 -615h-151l-12 116h-62l-12 -116h-137l68 614q-32 34 -32 90v58q0 58 34 92t92 34h48q58 0 92 -34t34 -92v-58zM167 250h44l-21 250zM147 710q0 -20 10 -30t27 -10h20q17 0 27 10t10 30v46q0 19 -10 29.5t-27 10.5h-20
q-17 0 -27 -10.5t-10 -29.5v-46z" />
    <glyph glyph-name="AE" unicode="&#xc6;" horiz-adv-x="520" 
d="M508 700v-136h-143v-145h116v-136h-116v-147h143v-136h-278l-12 116h-63l-12 -116h-137l78 700h424zM167 250h44l-15 280z" />
    <glyph glyph-name="Ccedilla" unicode="&#xc7;" horiz-adv-x="396" 
d="M147 0h-21q-22 0 -41.5 8.5t-34 23t-23 34t-8.5 41.5v486q0 22 8.5 41.5t23 34t34 23t41.5 8.5h146q22 0 41.5 -8.5t34 -23t23 -34t8.5 -41.5v-170l-151 -18v146q0 13 -13 13h-32q-13 0 -13 -13v-402q0 -13 13 -13h32q13 0 13 13v162l151 -18v-186q0 -22 -8.5 -41.5
t-23 -34t-34 -23t-41.5 -8.5l-31 -151h-125z" />
    <glyph glyph-name="Egrave" unicode="&#xc8;" horiz-adv-x="336" 
d="M22 700h304v-136h-153v-145h96v-136h-96v-147h153v-136h-304v700zM68 856h151l61 -135h-111z" />
    <glyph glyph-name="Eacute" unicode="&#xc9;" horiz-adv-x="336" 
d="M22 700h304v-136h-153v-145h96v-136h-96v-147h153v-136h-304v700zM179 721h-111l61 135h151z" />
    <glyph glyph-name="Ecircumflex" unicode="&#xca;" horiz-adv-x="336" 
d="M22 700h304v-136h-153v-145h96v-136h-96v-147h153v-136h-304v700zM174 780l-31 -59h-113l73 135h142l73 -135h-113z" />
    <glyph glyph-name="Edieresis" unicode="&#xcb;" horiz-adv-x="336" 
d="M22 700h304v-136h-153v-145h96v-136h-96v-147h153v-136h-304v700zM161 727h-121v129h121v-129zM308 727h-121v129h121v-129z" />
    <glyph glyph-name="Igrave" unicode="&#xcc;" horiz-adv-x="195" 
d="M173 0h-151v700h151v-700zM-8 856h151l61 -135h-111z" />
    <glyph glyph-name="Iacute" unicode="&#xcd;" horiz-adv-x="195" 
d="M173 0h-151v700h151v-700zM103 721h-111l61 135h151z" />
    <glyph glyph-name="Icircumflex" unicode="&#xce;" horiz-adv-x="195" 
d="M173 0h-151v700h151v-700zM98 780l-31 -59h-113l73 135h142l73 -135h-113z" />
    <glyph glyph-name="Idieresis" unicode="&#xcf;" horiz-adv-x="195" 
d="M173 0h-151v700h151v-700zM85 727h-121v129h121v-129zM232 727h-121v129h121v-129z" />
    <glyph glyph-name="Eth" unicode="&#xd0;" horiz-adv-x="410" 
d="M-6 418h37v282h253q22 0 41.5 -8.5t34 -23t23 -34t8.5 -41.5v-486q0 -22 -8.5 -41.5t-23 -34t-34 -23t-41.5 -8.5h-253v302h-37v116zM240 551q0 13 -13 13h-45v-146h37v-116h-37v-166h45q13 0 13 13v402z" />
    <glyph glyph-name="Ntilde" unicode="&#xd1;" horiz-adv-x="408" 
d="M238 388v312h148v-700h-148l-68 327v-327h-148v700h148zM268 730q-14 0 -29.5 3.5t-29.5 8t-24.5 8t-15.5 3.5q-8 0 -10.5 -4.5t-2.5 -7.5v-11h-91v51q0 28 17 51.5t58 23.5q14 0 29 -3.5t28.5 -8t24.5 -8t17 -3.5q8 0 10.5 4t2.5 8v11h91v-51q0 -28 -17 -51.5t-58 -23.5
z" />
    <glyph glyph-name="Ograve" unicode="&#xd2;" horiz-adv-x="398" 
d="M379 107q0 -22 -8.5 -41.5t-23 -34t-34 -23t-41.5 -8.5h-146q-22 0 -41.5 8.5t-34 23t-23 34t-8.5 41.5v486q0 22 8.5 41.5t23 34t34 23t41.5 8.5h146q22 0 41.5 -8.5t34 -23t23 -34t8.5 -41.5v-486zM228 551q0 13 -13 13h-32q-13 0 -13 -13v-402q0 -13 13 -13h32
q13 0 13 13v402zM93 856h151l61 -135h-111z" />
    <glyph glyph-name="Oacute" unicode="&#xd3;" horiz-adv-x="398" 
d="M379 107q0 -22 -8.5 -41.5t-23 -34t-34 -23t-41.5 -8.5h-146q-22 0 -41.5 8.5t-34 23t-23 34t-8.5 41.5v486q0 22 8.5 41.5t23 34t34 23t41.5 8.5h146q22 0 41.5 -8.5t34 -23t23 -34t8.5 -41.5v-486zM228 551q0 13 -13 13h-32q-13 0 -13 -13v-402q0 -13 13 -13h32
q13 0 13 13v402zM204 721h-111l61 135h151z" />
    <glyph glyph-name="Ocircumflex" unicode="&#xd4;" horiz-adv-x="398" 
d="M379 107q0 -22 -8.5 -41.5t-23 -34t-34 -23t-41.5 -8.5h-146q-22 0 -41.5 8.5t-34 23t-23 34t-8.5 41.5v486q0 22 8.5 41.5t23 34t34 23t41.5 8.5h146q22 0 41.5 -8.5t34 -23t23 -34t8.5 -41.5v-486zM228 551q0 13 -13 13h-32q-13 0 -13 -13v-402q0 -13 13 -13h32
q13 0 13 13v402zM199 780l-31 -59h-113l73 135h142l73 -135h-113z" />
    <glyph glyph-name="Otilde" unicode="&#xd5;" horiz-adv-x="398" 
d="M379 107q0 -22 -8.5 -41.5t-23 -34t-34 -23t-41.5 -8.5h-146q-22 0 -41.5 8.5t-34 23t-23 34t-8.5 41.5v486q0 22 8.5 41.5t23 34t34 23t41.5 8.5h146q22 0 41.5 -8.5t34 -23t23 -34t8.5 -41.5v-486zM228 551q0 13 -13 13h-32q-13 0 -13 -13v-402q0 -13 13 -13h32
q13 0 13 13v402zM263 730q-14 0 -29.5 3.5t-29.5 8t-24.5 8t-15.5 3.5q-8 0 -10.5 -4.5t-2.5 -7.5v-11h-91v51q0 28 17 51.5t58 23.5q14 0 29 -3.5t28.5 -8t24.5 -8t17 -3.5q8 0 10.5 4t2.5 8v11h91v-51q0 -28 -17 -51.5t-58 -23.5z" />
    <glyph glyph-name="Odieresis" unicode="&#xd6;" horiz-adv-x="398" 
d="M379 107q0 -22 -8.5 -41.5t-23 -34t-34 -23t-41.5 -8.5h-146q-22 0 -41.5 8.5t-34 23t-23 34t-8.5 41.5v486q0 22 8.5 41.5t23 34t34 23t41.5 8.5h146q22 0 41.5 -8.5t34 -23t23 -34t8.5 -41.5v-486zM228 551q0 13 -13 13h-32q-13 0 -13 -13v-402q0 -13 13 -13h32
q13 0 13 13v402zM186 727h-121v129h121v-129zM333 727h-121v129h121v-129z" />
    <glyph glyph-name="multiply" unicode="&#xd7;" horiz-adv-x="626" 
d="M94 60l-79 79l219 219l-219 219l79 79l219 -220l218 219l79 -79l-219 -218l219 -218l-79 -79l-218 219z" />
    <glyph glyph-name="Oslash" unicode="&#xd8;" horiz-adv-x="398" 
d="M379 107q0 -22 -8.5 -41.5t-23 -34t-34 -23t-41.5 -8.5h-146q-16 0 -28 4l-19 -54h-61l27 87q-26 29 -26 70v486q0 22 8.5 41.5t23 34t34 23t41.5 8.5h146q8 0 13.5 -1t13.5 -3l19 54h61l-26 -87q12 -14 19 -32t7 -38v-486zM228 345l-58 -194v-22q0 -13 13 -13h32
q13 0 13 13v216zM170 355l58 194v22q0 13 -13 13h-32q-13 0 -13 -13v-216z" />
    <glyph glyph-name="Ugrave" unicode="&#xd9;" horiz-adv-x="397" 
d="M171 149q0 -13 13 -13h32q13 0 13 13v551h148v-593q0 -22 -8.5 -41.5t-23 -34t-34 -23t-41.5 -8.5h-143q-22 0 -41.5 8.5t-34 23t-23 34t-8.5 41.5v593h151v-551zM92 856h151l61 -135h-111z" />
    <glyph glyph-name="Uacute" unicode="&#xda;" horiz-adv-x="397" 
d="M171 149q0 -13 13 -13h32q13 0 13 13v551h148v-593q0 -22 -8.5 -41.5t-23 -34t-34 -23t-41.5 -8.5h-143q-22 0 -41.5 8.5t-34 23t-23 34t-8.5 41.5v593h151v-551zM203 721h-111l61 135h151z" />
    <glyph glyph-name="Ucircumflex" unicode="&#xdb;" horiz-adv-x="397" 
d="M171 149q0 -13 13 -13h32q13 0 13 13v551h148v-593q0 -22 -8.5 -41.5t-23 -34t-34 -23t-41.5 -8.5h-143q-22 0 -41.5 8.5t-34 23t-23 34t-8.5 41.5v593h151v-551zM198 780l-31 -59h-113l73 135h142l73 -135h-113z" />
    <glyph glyph-name="Udieresis" unicode="&#xdc;" horiz-adv-x="397" 
d="M171 149q0 -13 13 -13h32q13 0 13 13v551h148v-593q0 -22 -8.5 -41.5t-23 -34t-34 -23t-41.5 -8.5h-143q-22 0 -41.5 8.5t-34 23t-23 34t-8.5 41.5v593h151v-551zM185 727h-121v129h121v-129zM332 727h-121v129h121v-129z" />
    <glyph glyph-name="Yacute" unicode="&#xdd;" horiz-adv-x="392" 
d="M199 482l50 218h145l-123 -465v-235h-151v235l-121 465h157zM201 721h-111l61 135h151z" />
    <glyph glyph-name="Thorn" unicode="&#xde;" horiz-adv-x="384" 
d="M168 -160h-146v860h146v-197q16 19 40 30t47 11q60 0 88.5 -33t28.5 -84v-300q0 -25 -6.5 -48t-21.5 -40.5t-38.5 -28t-56.5 -10.5q-20 0 -43.5 5.5t-37.5 19.5v-185zM168 147q0 -14 6 -25t25 -11q9 0 18 6.5t9 21.5v266q0 15 -9 21.5t-18 6.5q-19 0 -25 -11t-6 -25v-250
z" />
    <glyph glyph-name="germandbls" unicode="&#xdf;" horiz-adv-x="426" 
d="M288 700q50 0 78.5 -31t28.5 -76v-22q0 -20 -4.5 -49t-10.5 -58t-10.5 -53.5t-4.5 -35.5q0 -20 8 -46t18 -55t18 -60.5t8 -63.5v-40q0 -22 -8 -42t-22.5 -35t-33.5 -24t-41 -9h-103v131h44q8 0 13 4.5t5 13.5q0 14 -8 38.5t-18 53t-18 58t-8 54.5q0 10 4.5 38.5t10.5 60
t10.5 58.5t4.5 33v16q0 13 -13 13h-39q-13 0 -13 -13v-559h-146v430h-32v114h32v49q0 22 8.5 41.5t23 34t34 23t41.5 8.5h143z" />
    <glyph glyph-name="agrave" unicode="&#xe0;" horiz-adv-x="376" 
d="M222 34q-12 -13 -38 -23.5t-60 -10.5q-28 0 -49 9t-35 24t-21 34t-7 39v92q0 86 98 107l101 21v74q0 13 -13 13h-27q-13 0 -13 -13v-50l-141 18v69q0 22 8.5 41.5t23 34t34 23t41.5 8.5h126q22 0 41.5 -8.5t34 -23t23 -34t8.5 -41.5v-437h-135v34zM198 119q13 0 13 13v95
l-39 -9q-14 -3 -14 -20v-66q0 -13 13 -13h27zM81 700h151l61 -135h-111z" />
    <glyph glyph-name="aacute" unicode="&#xe1;" horiz-adv-x="376" 
d="M222 34q-12 -13 -38 -23.5t-60 -10.5q-28 0 -49 9t-35 24t-21 34t-7 39v92q0 86 98 107l101 21v74q0 13 -13 13h-27q-13 0 -13 -13v-50l-141 18v69q0 22 8.5 41.5t23 34t34 23t41.5 8.5h126q22 0 41.5 -8.5t34 -23t23 -34t8.5 -41.5v-437h-135v34zM198 119q13 0 13 13v95
l-39 -9q-14 -3 -14 -20v-66q0 -13 13 -13h27zM192 565h-111l61 135h151z" />
    <glyph glyph-name="acircumflex" unicode="&#xe2;" horiz-adv-x="376" 
d="M222 34q-12 -13 -38 -23.5t-60 -10.5q-28 0 -49 9t-35 24t-21 34t-7 39v92q0 86 98 107l101 21v74q0 13 -13 13h-27q-13 0 -13 -13v-50l-141 18v69q0 22 8.5 41.5t23 34t34 23t41.5 8.5h126q22 0 41.5 -8.5t34 -23t23 -34t8.5 -41.5v-437h-135v34zM198 119q13 0 13 13v95
l-39 -9q-14 -3 -14 -20v-66q0 -13 13 -13h27zM187 624l-31 -59h-113l73 135h142l73 -135h-113z" />
    <glyph glyph-name="atilde" unicode="&#xe3;" horiz-adv-x="376" 
d="M222 34q-12 -13 -38 -23.5t-60 -10.5q-28 0 -49 9t-35 24t-21 34t-7 39v92q0 86 98 107l101 21v74q0 13 -13 13h-27q-13 0 -13 -13v-50l-141 18v69q0 22 8.5 41.5t23 34t34 23t41.5 8.5h126q22 0 41.5 -8.5t34 -23t23 -34t8.5 -41.5v-437h-135v34zM198 119q13 0 13 13v95
l-39 -9q-14 -3 -14 -20v-66q0 -13 13 -13h27zM251 574q-14 0 -29.5 3.5t-29.5 8t-24.5 8t-15.5 3.5q-8 0 -10.5 -4.5t-2.5 -7.5v-11h-91v51q0 28 17 51.5t58 23.5q14 0 29 -3.5t28.5 -8t24.5 -8t17 -3.5q8 0 10.5 4t2.5 8v11h91v-51q0 -28 -17 -51.5t-58 -23.5z" />
    <glyph glyph-name="adieresis" unicode="&#xe4;" horiz-adv-x="376" 
d="M222 34q-12 -13 -38 -23.5t-60 -10.5q-28 0 -49 9t-35 24t-21 34t-7 39v92q0 86 98 107l101 21v74q0 13 -13 13h-27q-13 0 -13 -13v-50l-141 18v69q0 22 8.5 41.5t23 34t34 23t41.5 8.5h126q22 0 41.5 -8.5t34 -23t23 -34t8.5 -41.5v-437h-135v34zM198 119q13 0 13 13v95
l-39 -9q-14 -3 -14 -20v-66q0 -13 13 -13h27zM174 571h-121v129h121v-129zM321 571h-121v129h121v-129z" />
    <glyph glyph-name="aring" unicode="&#xe5;" horiz-adv-x="376" 
d="M310 612q0 -46 -29 -73q33 -10 54.5 -38t21.5 -64v-437h-135v34q-12 -13 -38 -23.5t-60 -10.5q-28 0 -49 9t-35 24t-21 34t-7 39v92q0 86 98 107l101 21v74q0 13 -13 13h-27q-13 0 -13 -13v-50l-141 18v69q0 39 24.5 68.5t62.5 36.5q-25 27 -25 70v45q0 45 26 71t71 26
h37q45 0 71 -26t26 -71v-45zM158 617q0 -15 8 -23t21 -8h15q13 0 21 8t8 23v35q0 15 -8 23t-21 8h-15q-13 0 -21 -8t-8 -23v-35zM198 119q13 0 13 13v95l-39 -9q-14 -3 -14 -20v-66q0 -13 13 -13h27z" />
    <glyph glyph-name="ae" unicode="&#xe6;" horiz-adv-x="577" 
d="M561 107q0 -22 -8.5 -41.5t-23 -34t-34 -23t-41.5 -8.5h-136q-26 0 -48.5 11.5t-37.5 31.5q-12 -13 -37.5 -28t-70.5 -15q-28 0 -49 9t-35 24t-21 34t-7 39v92q0 86 98 107l101 21v74q0 13 -13 13h-27q-13 0 -13 -13v-50l-141 18v69q0 22 8.5 41.5t23 34t34 23t41.5 8.5
h96q24 0 40 -9.5t24 -26.5q8 17 24 26.5t40 9.5h106q22 0 41.5 -8.5t34 -23t23 -34t8.5 -41.5v-207h-204v-86q0 -13 13 -13h32q13 0 13 13v62l146 -26v-73zM198 119q13 0 13 13v95l-39 -9q-14 -3 -14 -20v-66q0 -13 13 -13h27zM357 348h58v52q0 13 -13 13h-32q-11 0 -13 -11
v-54z" />
    <glyph glyph-name="ccedilla" unicode="&#xe7;" horiz-adv-x="381" 
d="M140 0h-16q-22 0 -41.5 8.5t-34 23t-23 34t-8.5 41.5v330q0 22 8.5 41.5t23 34t34 23t41.5 8.5h136q22 0 41.5 -8.5t34 -23t23 -34t8.5 -41.5v-76l-146 -26v65q0 13 -13 13h-32q-13 0 -13 -13v-256q0 -13 13 -13h32q13 0 13 13v82l146 -26v-93q0 -43 -29.5 -74t-72.5 -33
l-31 -151h-125z" />
    <glyph glyph-name="egrave" unicode="&#xe8;" horiz-adv-x="383" 
d="M367 107q0 -22 -8.5 -41.5t-23 -34t-34 -23t-41.5 -8.5h-136q-22 0 -41.5 8.5t-34 23t-23 34t-8.5 41.5v330q0 22 8.5 41.5t23 34t34 23t41.5 8.5h136q22 0 41.5 -8.5t34 -23t23 -34t8.5 -41.5v-207h-204v-86q0 -13 13 -13h32q13 0 13 13v62l146 -26v-73zM163 348h58v52
q0 13 -13 13h-32q-13 0 -13 -13v-52zM86 700h151l61 -135h-111z" />
    <glyph glyph-name="eacute" unicode="&#xe9;" horiz-adv-x="383" 
d="M367 107q0 -22 -8.5 -41.5t-23 -34t-34 -23t-41.5 -8.5h-136q-22 0 -41.5 8.5t-34 23t-23 34t-8.5 41.5v330q0 22 8.5 41.5t23 34t34 23t41.5 8.5h136q22 0 41.5 -8.5t34 -23t23 -34t8.5 -41.5v-207h-204v-86q0 -13 13 -13h32q13 0 13 13v62l146 -26v-73zM163 348h58v52
q0 13 -13 13h-32q-13 0 -13 -13v-52zM197 565h-111l61 135h151z" />
    <glyph glyph-name="ecircumflex" unicode="&#xea;" horiz-adv-x="383" 
d="M367 107q0 -22 -8.5 -41.5t-23 -34t-34 -23t-41.5 -8.5h-136q-22 0 -41.5 8.5t-34 23t-23 34t-8.5 41.5v330q0 22 8.5 41.5t23 34t34 23t41.5 8.5h136q22 0 41.5 -8.5t34 -23t23 -34t8.5 -41.5v-207h-204v-86q0 -13 13 -13h32q13 0 13 13v62l146 -26v-73zM163 348h58v52
q0 13 -13 13h-32q-13 0 -13 -13v-52zM192 624l-31 -59h-113l73 135h142l73 -135h-113z" />
    <glyph glyph-name="edieresis" unicode="&#xeb;" horiz-adv-x="383" 
d="M367 107q0 -22 -8.5 -41.5t-23 -34t-34 -23t-41.5 -8.5h-136q-22 0 -41.5 8.5t-34 23t-23 34t-8.5 41.5v330q0 22 8.5 41.5t23 34t34 23t41.5 8.5h136q22 0 41.5 -8.5t34 -23t23 -34t8.5 -41.5v-207h-204v-86q0 -13 13 -13h32q13 0 13 13v62l146 -26v-73zM163 348h58v52
q0 13 -13 13h-32q-13 0 -13 -13v-52zM179 571h-121v129h121v-129zM326 571h-121v129h121v-129z" />
    <glyph glyph-name="igrave" unicode="&#xec;" horiz-adv-x="188" 
d="M167 0h-146v544h146v-544zM-12 700h151l61 -135h-111z" />
    <glyph glyph-name="iacute" unicode="&#xed;" horiz-adv-x="188" 
d="M167 0h-146v544h146v-544zM99 565h-111l61 135h151z" />
    <glyph glyph-name="icircumflex" unicode="&#xee;" horiz-adv-x="188" 
d="M167 0h-146v544h146v-544zM94 624l-31 -59h-113l73 135h142l73 -135h-113z" />
    <glyph glyph-name="idieresis" unicode="&#xef;" horiz-adv-x="188" 
d="M167 0h-146v544h146v-544zM81 571h-121v129h121v-129zM228 571h-121v129h121v-129z" />
    <glyph glyph-name="eth" unicode="&#xf0;" horiz-adv-x="386" 
d="M109 652h65q-12 21 -26.5 42t-29.5 41h159q11 -13 24.5 -33.5t27.5 -49.5h57v-46h-38q8 -26 13.5 -56.5t5.5 -64.5v-378q0 -22 -8.5 -41.5t-23 -34t-34 -23t-41.5 -8.5h-136q-22 0 -41.5 8.5t-34 23t-23 34t-8.5 41.5v330q0 22 8.5 41.5t23 34t34 23t41.5 8.5h94
q-3 25 -21 62h-88v46zM208 131q11 0 13 11v260q-2 11 -13 11h-32q-13 0 -13 -13v-256q0 -13 13 -13h32z" />
    <glyph glyph-name="ntilde" unicode="&#xf1;" horiz-adv-x="390" 
d="M167 0h-146v544h136l6 -47q11 16 36.5 31.5t66.5 15.5q50 0 77.5 -28t27.5 -79v-437h-146v385q0 15 -8.5 21.5t-17.5 6.5q-19 0 -25.5 -11t-6.5 -25v-377zM260 574q-14 0 -29.5 3.5t-29.5 8t-24.5 8t-15.5 3.5q-8 0 -10.5 -4.5t-2.5 -7.5v-11h-91v51q0 28 17 51.5
t58 23.5q14 0 29 -3.5t28.5 -8t24.5 -8t17 -3.5q8 0 10.5 4t2.5 8v11h91v-51q0 -28 -17 -51.5t-58 -23.5z" />
    <glyph glyph-name="ograve" unicode="&#xf2;" horiz-adv-x="384" 
d="M124 0q-22 0 -41.5 8.5t-34 23t-23 34t-8.5 41.5v330q0 22 8.5 41.5t23 34t34 23t41.5 8.5h136q22 0 41.5 -8.5t34 -23t23 -34t8.5 -41.5v-330q0 -22 -8.5 -41.5t-23 -34t-34 -23t-41.5 -8.5h-136zM208 131q13 0 13 13v256q0 13 -13 13h-32q-13 0 -13 -13v-256
q0 -13 13 -13h32zM86 700h151l61 -135h-111z" />
    <glyph glyph-name="oacute" unicode="&#xf3;" horiz-adv-x="384" 
d="M124 0q-22 0 -41.5 8.5t-34 23t-23 34t-8.5 41.5v330q0 22 8.5 41.5t23 34t34 23t41.5 8.5h136q22 0 41.5 -8.5t34 -23t23 -34t8.5 -41.5v-330q0 -22 -8.5 -41.5t-23 -34t-34 -23t-41.5 -8.5h-136zM208 131q13 0 13 13v256q0 13 -13 13h-32q-13 0 -13 -13v-256
q0 -13 13 -13h32zM197 565h-111l61 135h151z" />
    <glyph glyph-name="ocircumflex" unicode="&#xf4;" horiz-adv-x="384" 
d="M124 0q-22 0 -41.5 8.5t-34 23t-23 34t-8.5 41.5v330q0 22 8.5 41.5t23 34t34 23t41.5 8.5h136q22 0 41.5 -8.5t34 -23t23 -34t8.5 -41.5v-330q0 -22 -8.5 -41.5t-23 -34t-34 -23t-41.5 -8.5h-136zM208 131q13 0 13 13v256q0 13 -13 13h-32q-13 0 -13 -13v-256
q0 -13 13 -13h32zM192 624l-31 -59h-113l73 135h142l73 -135h-113z" />
    <glyph glyph-name="otilde" unicode="&#xf5;" horiz-adv-x="384" 
d="M124 0q-22 0 -41.5 8.5t-34 23t-23 34t-8.5 41.5v330q0 22 8.5 41.5t23 34t34 23t41.5 8.5h136q22 0 41.5 -8.5t34 -23t23 -34t8.5 -41.5v-330q0 -22 -8.5 -41.5t-23 -34t-34 -23t-41.5 -8.5h-136zM208 131q13 0 13 13v256q0 13 -13 13h-32q-13 0 -13 -13v-256
q0 -13 13 -13h32zM256 574q-14 0 -29.5 3.5t-29.5 8t-24.5 8t-15.5 3.5q-8 0 -10.5 -4.5t-2.5 -7.5v-11h-91v51q0 28 17 51.5t58 23.5q14 0 29 -3.5t28.5 -8t24.5 -8t17 -3.5q8 0 10.5 4t2.5 8v11h91v-51q0 -28 -17 -51.5t-58 -23.5z" />
    <glyph glyph-name="odieresis" unicode="&#xf6;" horiz-adv-x="384" 
d="M124 0q-22 0 -41.5 8.5t-34 23t-23 34t-8.5 41.5v330q0 22 8.5 41.5t23 34t34 23t41.5 8.5h136q22 0 41.5 -8.5t34 -23t23 -34t8.5 -41.5v-330q0 -22 -8.5 -41.5t-23 -34t-34 -23t-41.5 -8.5h-136zM208 131q13 0 13 13v256q0 13 -13 13h-32q-13 0 -13 -13v-256
q0 -13 13 -13h32zM179 571h-121v129h121v-129zM326 571h-121v129h121v-129z" />
    <glyph glyph-name="divide" unicode="&#xf7;" horiz-adv-x="430" 
d="M296 115h-162v130h162v-130zM296 449h-162v130h162v-130zM16 406h398v-116h-398v116z" />
    <glyph glyph-name="oslash" unicode="&#xf8;" horiz-adv-x="384" 
d="M115 -40h-94l26 73q-30 30 -30 74v330q0 22 8.5 41.5t23 34t34 23t41.5 8.5h106q14 0 26 -3l16 43h93l-27 -75q14 -14 21.5 -32.5t7.5 -39.5v-330q0 -22 -8.5 -41.5t-23 -34t-34 -23t-41.5 -8.5h-106h-12.5t-11.5 2zM208 131q13 0 13 13v256q0 13 -13 13h-32
q-13 0 -13 -13v-256q0 -13 13 -13h32z" />
    <glyph glyph-name="ugrave" unicode="&#xf9;" horiz-adv-x="390" 
d="M223 544h146v-544h-140v47q-11 -16 -36.5 -31.5t-66.5 -15.5q-50 0 -78.5 28t-28.5 79v437h146v-385q0 -15 8.5 -21.5t17.5 -6.5q19 0 25.5 11t6.5 25v377zM88 700h151l61 -135h-111z" />
    <glyph glyph-name="uacute" unicode="&#xfa;" horiz-adv-x="390" 
d="M223 544h146v-544h-140v47q-11 -16 -36.5 -31.5t-66.5 -15.5q-50 0 -78.5 28t-28.5 79v437h146v-385q0 -15 8.5 -21.5t17.5 -6.5q19 0 25.5 11t6.5 25v377zM199 565h-111l61 135h151z" />
    <glyph glyph-name="ucircumflex" unicode="&#xfb;" horiz-adv-x="390" 
d="M223 544h146v-544h-140v47q-11 -16 -36.5 -31.5t-66.5 -15.5q-50 0 -78.5 28t-28.5 79v437h146v-385q0 -15 8.5 -21.5t17.5 -6.5q19 0 25.5 11t6.5 25v377zM194 624l-31 -59h-113l73 135h142l73 -135h-113z" />
    <glyph glyph-name="udieresis" unicode="&#xfc;" horiz-adv-x="390" 
d="M223 544h146v-544h-140v47q-11 -16 -36.5 -31.5t-66.5 -15.5q-50 0 -78.5 28t-28.5 79v437h146v-385q0 -15 8.5 -21.5t17.5 -6.5q19 0 25.5 11t6.5 25v377zM181 571h-121v129h121v-129zM328 571h-121v129h121v-129z" />
    <glyph glyph-name="yacute" unicode="&#xfd;" horiz-adv-x="377" 
d="M10 544h149l32 -420l29 420h150l-72 -598q-3 -28 -10 -49.5t-22 -36.5t-40 -22.5t-64 -7.5h-120v118h59q20 0 32.5 2t19 7.5t9 15.5t3.5 27h-94zM195 565h-111l61 135h151z" />
    <glyph glyph-name="thorn" unicode="&#xfe;" horiz-adv-x="388" 
d="M167 -160h-146v860h146v-197q16 19 40 30t47 11q60 0 88.5 -33t28.5 -84v-300q0 -25 -6.5 -48t-21.5 -40.5t-38.5 -28t-56.5 -10.5q-20 0 -43.5 5.5t-37.5 19.5v-185zM167 147q0 -14 6 -25t25 -11q9 0 18 6.5t9 21.5v266q0 15 -9 21.5t-18 6.5q-19 0 -25 -11t-6 -25v-250
z" />
    <glyph glyph-name="ydieresis" unicode="&#xff;" horiz-adv-x="377" 
d="M10 544h149l32 -420l29 420h150l-72 -598q-3 -28 -10 -49.5t-22 -36.5t-40 -22.5t-64 -7.5h-120v118h59q20 0 32.5 2t19 7.5t9 15.5t3.5 27h-94zM324 571h-121v129h121v-129zM177 571h-121v129h121v-129z" />
    <glyph glyph-name="Amacron" unicode="&#x100;" horiz-adv-x="385" 
d="M167 250h44l-21 250zM217 116h-62l-12 -116h-137l78 700h217l79 -700h-151zM72 843h242v-97h-242v97z" />
    <glyph glyph-name="amacron" unicode="&#x101;" horiz-adv-x="376" 
d="M222 34q-12 -13 -38 -23.5t-60 -10.5q-28 0 -49 9t-35 24t-21 34t-7 39v92q0 86 98 107l101 21v74q0 13 -13 13h-27q-13 0 -13 -13v-50l-141 18v69q0 22 8.5 41.5t23 34t34 23t41.5 8.5h126q22 0 41.5 -8.5t34 -23t23 -34t8.5 -41.5v-437h-135v34zM198 119q13 0 13 13v95
l-39 -9q-14 -3 -14 -20v-66q0 -13 13 -13h27zM66 687h242v-97h-242v97z" />
    <glyph glyph-name="Abreve" unicode="&#x102;" horiz-adv-x="385" 
d="M167 250h44l-21 250zM217 116h-62l-12 -116h-137l78 700h217l79 -700h-151zM160 856v-15q0 -22 11.5 -26t19.5 -4h4q8 0 19.5 4t11.5 26v15h85v-42q0 -45 -28 -69t-79 -24h-22q-51 0 -79 24t-28 69v42h85z" />
    <glyph glyph-name="abreve" unicode="&#x103;" horiz-adv-x="376" 
d="M222 34q-12 -13 -38 -23.5t-60 -10.5q-28 0 -49 9t-35 24t-21 34t-7 39v92q0 86 98 107l101 21v74q0 13 -13 13h-27q-13 0 -13 -13v-50l-141 18v69q0 22 8.5 41.5t23 34t34 23t41.5 8.5h126q22 0 41.5 -8.5t34 -23t23 -34t8.5 -41.5v-437h-135v34zM198 119q13 0 13 13v95
l-39 -9q-14 -3 -14 -20v-66q0 -13 13 -13h27zM154 700v-15q0 -22 11.5 -26t19.5 -4h4q8 0 19.5 4t11.5 26v15h85v-42q0 -45 -28 -69t-79 -24h-22q-51 0 -79 24t-28 69v42h85z" />
    <glyph glyph-name="Aogonek" unicode="&#x104;" horiz-adv-x="385" 
d="M217 116h-62l-12 -116h-137l78 700h217l79 -700h-38l-19 -28q-10 -15 -14 -25t-4 -25v-24h75v-100h-104q-32 0 -52.5 14.5t-20.5 55.5v21q0 26 7 44.5t21 33.5l29 33h-31zM167 250h44l-21 250z" />
    <glyph glyph-name="aogonek" unicode="&#x105;" horiz-adv-x="376" 
d="M222 34q-12 -13 -38 -23.5t-60 -10.5q-28 0 -49 9t-35 24t-21 34t-7 39v92q0 86 98 107l101 21v74q0 13 -13 13h-27q-13 0 -13 -13v-50l-141 18v69q0 22 8.5 41.5t23 34t34 23t41.5 8.5h126q22 0 41.5 -8.5t34 -23t23 -34t8.5 -41.5v-437h-38l-19 -28q-10 -15 -14 -25
t-4 -25v-24h75v-100h-104q-32 0 -52.5 14.5t-20.5 55.5v21q0 26 7 44.5t21 33.5l29 33h-15v34zM198 119q13 0 13 13v95l-39 -9q-14 -3 -14 -20v-66q0 -13 13 -13h27z" />
    <glyph glyph-name="Cacute" unicode="&#x106;" horiz-adv-x="396" 
d="M228 405v146q0 13 -13 13h-32q-13 0 -13 -13v-402q0 -13 13 -13h32q13 0 13 13v162l151 -18v-186q0 -22 -8.5 -41.5t-23 -34t-34 -23t-41.5 -8.5h-146q-22 0 -41.5 8.5t-34 23t-23 34t-8.5 41.5v486q0 22 8.5 41.5t23 34t34 23t41.5 8.5h146q22 0 41.5 -8.5t34 -23
t23 -34t8.5 -41.5v-170zM204 721h-111l61 135h151z" />
    <glyph glyph-name="cacute" unicode="&#x107;" horiz-adv-x="381" 
d="M367 107q0 -22 -8.5 -41.5t-23 -34t-34 -23t-41.5 -8.5h-136q-22 0 -41.5 8.5t-34 23t-23 34t-8.5 41.5v330q0 22 8.5 41.5t23 34t34 23t41.5 8.5h136q22 0 41.5 -8.5t34 -23t23 -34t8.5 -41.5v-76l-146 -26v65q0 13 -13 13h-32q-13 0 -13 -13v-256q0 -13 13 -13h32
q13 0 13 13v82l146 -26v-93zM197 565h-111l61 135h151z" />
    <glyph glyph-name="Ccircumflex" unicode="&#x108;" horiz-adv-x="396" 
d="M228 405v146q0 13 -13 13h-32q-13 0 -13 -13v-402q0 -13 13 -13h32q13 0 13 13v162l151 -18v-186q0 -22 -8.5 -41.5t-23 -34t-34 -23t-41.5 -8.5h-146q-22 0 -41.5 8.5t-34 23t-23 34t-8.5 41.5v486q0 22 8.5 41.5t23 34t34 23t41.5 8.5h146q22 0 41.5 -8.5t34 -23
t23 -34t8.5 -41.5v-170zM199 780l-31 -59h-113l73 135h142l73 -135h-113z" />
    <glyph glyph-name="ccircumflex" unicode="&#x109;" horiz-adv-x="381" 
d="M367 107q0 -22 -8.5 -41.5t-23 -34t-34 -23t-41.5 -8.5h-136q-22 0 -41.5 8.5t-34 23t-23 34t-8.5 41.5v330q0 22 8.5 41.5t23 34t34 23t41.5 8.5h136q22 0 41.5 -8.5t34 -23t23 -34t8.5 -41.5v-76l-146 -26v65q0 13 -13 13h-32q-13 0 -13 -13v-256q0 -13 13 -13h32
q13 0 13 13v82l146 -26v-93zM192 624l-31 -59h-113l73 135h142l73 -135h-113z" />
    <glyph glyph-name="Cdotaccent" unicode="&#x10a;" horiz-adv-x="396" 
d="M228 405v146q0 13 -13 13h-32q-13 0 -13 -13v-402q0 -13 13 -13h32q13 0 13 13v162l151 -18v-186q0 -22 -8.5 -41.5t-23 -34t-34 -23t-41.5 -8.5h-146q-22 0 -41.5 8.5t-34 23t-23 34t-8.5 41.5v486q0 22 8.5 41.5t23 34t34 23t41.5 8.5h146q22 0 41.5 -8.5t34 -23
t23 -34t8.5 -41.5v-170zM274 727h-151v149h151v-149z" />
    <glyph glyph-name="cdotaccent" unicode="&#x10b;" horiz-adv-x="381" 
d="M367 107q0 -22 -8.5 -41.5t-23 -34t-34 -23t-41.5 -8.5h-136q-22 0 -41.5 8.5t-34 23t-23 34t-8.5 41.5v330q0 22 8.5 41.5t23 34t34 23t41.5 8.5h136q22 0 41.5 -8.5t34 -23t23 -34t8.5 -41.5v-76l-146 -26v65q0 13 -13 13h-32q-13 0 -13 -13v-256q0 -13 13 -13h32
q13 0 13 13v82l146 -26v-93zM267 571h-151v149h151v-149z" />
    <glyph glyph-name="Ccaron" unicode="&#x10c;" horiz-adv-x="396" 
d="M228 405v146q0 13 -13 13h-32q-13 0 -13 -13v-402q0 -13 13 -13h32q13 0 13 13v162l151 -18v-186q0 -22 -8.5 -41.5t-23 -34t-34 -23t-41.5 -8.5h-146q-22 0 -41.5 8.5t-34 23t-23 34t-8.5 41.5v486q0 22 8.5 41.5t23 34t34 23t41.5 8.5h146q22 0 41.5 -8.5t34 -23
t23 -34t8.5 -41.5v-170zM230 856h113l-73 -135h-142l-73 135h113l31 -59z" />
    <glyph glyph-name="ccaron" unicode="&#x10d;" horiz-adv-x="381" 
d="M367 107q0 -22 -8.5 -41.5t-23 -34t-34 -23t-41.5 -8.5h-136q-22 0 -41.5 8.5t-34 23t-23 34t-8.5 41.5v330q0 22 8.5 41.5t23 34t34 23t41.5 8.5h136q22 0 41.5 -8.5t34 -23t23 -34t8.5 -41.5v-76l-146 -26v65q0 13 -13 13h-32q-13 0 -13 -13v-256q0 -13 13 -13h32
q13 0 13 13v82l146 -26v-93zM223 700h113l-73 -135h-142l-73 135h113l31 -59z" />
    <glyph glyph-name="Dcaron" unicode="&#x10e;" horiz-adv-x="401" 
d="M382 107q0 -22 -8.5 -41.5t-23 -34t-34 -23t-41.5 -8.5h-253v700h253q22 0 41.5 -8.5t34 -23t23 -34t8.5 -41.5v-486zM231 551q0 13 -13 13h-45v-428h45q13 0 13 13v402zM233 856h113l-73 -135h-142l-73 135h113l31 -59z" />
    <glyph glyph-name="dcaron" unicode="&#x10f;" horiz-adv-x="548" 
d="M234 38q-14 -14 -41 -26t-56 -12q-33 0 -56 10.5t-37.5 28t-20.5 40.5t-6 48v300q0 51 28.5 84t88.5 33q23 0 47 -11t40 -30v197h146v-700h-128zM221 397q0 14 -6 25t-25 11q-9 0 -18 -6.5t-9 -21.5v-266q0 -15 9 -21.5t18 -6.5q19 0 25 11t6 25v250zM549 534
q0 -38 -6 -62.5t-20 -38t-35.5 -18.5t-53.5 -5h-47v79h22q14 0 22 5t8 24v22h-52v160h162v-166z" />
    <glyph glyph-name="Dcroat" unicode="&#x110;" horiz-adv-x="410" 
d="M-6 418h37v282h253q22 0 41.5 -8.5t34 -23t23 -34t8.5 -41.5v-486q0 -22 -8.5 -41.5t-23 -34t-34 -23t-41.5 -8.5h-253v302h-37v116zM240 551q0 13 -13 13h-45v-146h37v-116h-37v-166h45q13 0 13 13v402z" />
    <glyph glyph-name="dcroat" unicode="&#x111;" horiz-adv-x="388" 
d="M152 660h69v40h146v-40h20v-88h-20v-572h-128l-5 38q-14 -14 -41 -26t-56 -12q-33 0 -56 10.5t-37.5 28t-20.5 40.5t-6 48v300q0 51 28.5 84t88.5 33q23 0 47 -11t40 -30v69h-69v88zM221 397q0 14 -6 25t-25 11q-9 0 -18 -6.5t-9 -21.5v-266q0 -15 9 -21.5t18 -6.5
q19 0 25 11t6 25v250z" />
    <glyph glyph-name="Emacron" unicode="&#x112;" horiz-adv-x="336" 
d="M22 700h304v-136h-153v-145h96v-136h-96v-147h153v-136h-304v700zM53 843h242v-97h-242v97z" />
    <glyph glyph-name="emacron" unicode="&#x113;" horiz-adv-x="383" 
d="M367 107q0 -22 -8.5 -41.5t-23 -34t-34 -23t-41.5 -8.5h-136q-22 0 -41.5 8.5t-34 23t-23 34t-8.5 41.5v330q0 22 8.5 41.5t23 34t34 23t41.5 8.5h136q22 0 41.5 -8.5t34 -23t23 -34t8.5 -41.5v-207h-204v-86q0 -13 13 -13h32q13 0 13 13v62l146 -26v-73zM163 348h58v52
q0 13 -13 13h-32q-13 0 -13 -13v-52zM71 687h242v-97h-242v97z" />
    <glyph glyph-name="Ebreve" unicode="&#x114;" horiz-adv-x="336" 
d="M22 700h304v-136h-153v-145h96v-136h-96v-147h153v-136h-304v700zM141 856v-15q0 -22 11.5 -26t19.5 -4h4q8 0 19.5 4t11.5 26v15h85v-42q0 -45 -28 -69t-79 -24h-22q-51 0 -79 24t-28 69v42h85z" />
    <glyph glyph-name="ebreve" unicode="&#x115;" horiz-adv-x="383" 
d="M367 107q0 -22 -8.5 -41.5t-23 -34t-34 -23t-41.5 -8.5h-136q-22 0 -41.5 8.5t-34 23t-23 34t-8.5 41.5v330q0 22 8.5 41.5t23 34t34 23t41.5 8.5h136q22 0 41.5 -8.5t34 -23t23 -34t8.5 -41.5v-207h-204v-86q0 -13 13 -13h32q13 0 13 13v62l146 -26v-73zM163 348h58v52
q0 13 -13 13h-32q-13 0 -13 -13v-52zM159 700v-15q0 -22 11.5 -26t19.5 -4h4q8 0 19.5 4t11.5 26v15h85v-42q0 -45 -28 -69t-79 -24h-22q-51 0 -79 24t-28 69v42h85z" />
    <glyph glyph-name="Edotaccent" unicode="&#x116;" horiz-adv-x="336" 
d="M22 700h304v-136h-153v-145h96v-136h-96v-147h153v-136h-304v700zM249 727h-151v149h151v-149z" />
    <glyph glyph-name="edotaccent" unicode="&#x117;" horiz-adv-x="383" 
d="M367 107q0 -22 -8.5 -41.5t-23 -34t-34 -23t-41.5 -8.5h-136q-22 0 -41.5 8.5t-34 23t-23 34t-8.5 41.5v330q0 22 8.5 41.5t23 34t34 23t41.5 8.5h136q22 0 41.5 -8.5t34 -23t23 -34t8.5 -41.5v-207h-204v-86q0 -13 13 -13h32q13 0 13 13v62l146 -26v-73zM163 348h58v52
q0 13 -13 13h-32q-13 0 -13 -13v-52zM267 571h-151v149h151v-149z" />
    <glyph glyph-name="Eogonek" unicode="&#x118;" horiz-adv-x="336" 
d="M22 700h304v-136h-153v-145h96v-136h-96v-147h153v-136h-38l-19 -28q-10 -15 -14 -25t-4 -25v-24h75v-100h-104q-32 0 -52.5 14.5t-20.5 55.5v21q0 26 7 44.5t21 33.5l29 33h-184v700z" />
    <glyph glyph-name="eogonek" unicode="&#x119;" horiz-adv-x="383" 
d="M367 107q0 -22 -8.5 -41.5t-23 -34t-34 -23t-41.5 -8.5h-9l-19 -28q-10 -15 -14 -25t-4 -25v-24h75v-100h-104q-32 0 -52.5 14.5t-20.5 55.5v21q0 26 7 44.5t21 33.5l29 33h-45q-22 0 -41.5 8.5t-34 23t-23 34t-8.5 41.5v330q0 22 8.5 41.5t23 34t34 23t41.5 8.5h136
q22 0 41.5 -8.5t34 -23t23 -34t8.5 -41.5v-207h-204v-86q0 -13 13 -13h32q13 0 13 13v62l146 -26v-73zM163 348h58v52q0 13 -13 13h-32q-13 0 -13 -13v-52z" />
    <glyph glyph-name="Ecaron" unicode="&#x11a;" horiz-adv-x="336" 
d="M22 700h304v-136h-153v-145h96v-136h-96v-147h153v-136h-304v700zM205 856h113l-73 -135h-142l-73 135h113l31 -59z" />
    <glyph glyph-name="ecaron" unicode="&#x11b;" horiz-adv-x="383" 
d="M367 107q0 -22 -8.5 -41.5t-23 -34t-34 -23t-41.5 -8.5h-136q-22 0 -41.5 8.5t-34 23t-23 34t-8.5 41.5v330q0 22 8.5 41.5t23 34t34 23t41.5 8.5h136q22 0 41.5 -8.5t34 -23t23 -34t8.5 -41.5v-207h-204v-86q0 -13 13 -13h32q13 0 13 13v62l146 -26v-73zM163 348h58v52
q0 13 -13 13h-32q-13 0 -13 -13v-52zM223 700h113l-73 -135h-142l-73 135h113l31 -59z" />
    <glyph glyph-name="Gcircumflex" unicode="&#x11c;" horiz-adv-x="399" 
d="M197 382h182v-382h-54l-21 28q-14 -13 -32.5 -20.5t-39.5 -7.5h-106q-22 0 -41.5 8.5t-34 23t-23 34t-8.5 41.5v486q0 22 8.5 41.5t23 34t34 23t41.5 8.5h146q22 0 41.5 -8.5t34 -23t23 -34t8.5 -41.5v-160l-151 -18v136q0 13 -13 13h-32q-13 0 -13 -13v-402
q0 -13 13 -13h32q13 0 13 13v97h-31v136zM199 780l-31 -59h-113l73 135h142l73 -135h-113z" />
    <glyph glyph-name="gcircumflex" unicode="&#x11d;" horiz-adv-x="411" 
d="M194 624l-31 -59h-113l73 135h142l50 -94q15 4 36 4h53v-116h-18q-11 0 -13 -11v-216q0 -22 -8.5 -41.5t-23 -34t-34 -23t-41.5 -8.5h-104v-15q0 -16 18 -19l136 -23q59 -10 77 -38.5t18 -71.5v-56q0 -48 -30 -77.5t-77 -29.5h-191q-55 0 -83.5 31t-28.5 76q0 21 7 37.5
t18.5 28.5t25.5 20t28 12q-20 12 -32 29t-12 39q0 26 13.5 43.5t30.5 27.5q-19 5 -32 15t-20 23t-10 27.5t-3 27.5v170q0 22 8.5 41.5t23 34t34 23t41.5 8.5h126q3 11 9 21h-32zM214 285q13 0 13 13v108q0 13 -13 13h-40q-13 0 -13 -13v-108q0 -13 13 -13h40zM140 -45
q0 -13 13 -13h103q13 0 13 13v20q0 12 -13 13l-99 13q-6 -4 -11.5 -10t-5.5 -21v-15z" />
    <glyph glyph-name="Gbreve" unicode="&#x11e;" horiz-adv-x="399" 
d="M197 382h182v-382h-54l-21 28q-14 -13 -32.5 -20.5t-39.5 -7.5h-106q-22 0 -41.5 8.5t-34 23t-23 34t-8.5 41.5v486q0 22 8.5 41.5t23 34t34 23t41.5 8.5h146q22 0 41.5 -8.5t34 -23t23 -34t8.5 -41.5v-160l-151 -18v136q0 13 -13 13h-32q-13 0 -13 -13v-402
q0 -13 13 -13h32q13 0 13 13v97h-31v136zM166 856v-15q0 -22 11.5 -26t19.5 -4h4q8 0 19.5 4t11.5 26v15h85v-42q0 -45 -28 -69t-79 -24h-22q-51 0 -79 24t-28 69v42h85z" />
    <glyph glyph-name="gbreve" unicode="&#x11f;" horiz-adv-x="411" 
d="M161 700v-15q0 -22 11.5 -26t19.5 -4h4q8 0 19.5 4t11.5 26v15h85v-42q0 -37 -20 -60q24 12 59 12h53v-116h-18q-11 0 -13 -11v-216q0 -22 -8.5 -41.5t-23 -34t-34 -23t-41.5 -8.5h-104v-15q0 -16 18 -19l136 -23q59 -10 77 -38.5t18 -71.5v-56q0 -48 -30 -77.5
t-77 -29.5h-191q-55 0 -83.5 31t-28.5 76q0 21 7 37.5t18.5 28.5t25.5 20t28 12q-20 12 -32 29t-12 39q0 26 13.5 43.5t30.5 27.5q-19 5 -32 15t-20 23t-10 27.5t-3 27.5v170q0 22 8.5 41.5t23 34t34 23t41.5 8.5h126q7 20 17 33q-24 -12 -60 -12h-22q-51 0 -79 24t-28 69
v42h85zM214 285q13 0 13 13v108q0 13 -13 13h-40q-13 0 -13 -13v-108q0 -13 13 -13h40zM140 -45q0 -13 13 -13h103q13 0 13 13v20q0 12 -13 13l-99 13q-6 -4 -11.5 -10t-5.5 -21v-15z" />
    <glyph glyph-name="Gdotaccent" unicode="&#x120;" horiz-adv-x="399" 
d="M197 382h182v-382h-54l-21 28q-14 -13 -32.5 -20.5t-39.5 -7.5h-106q-22 0 -41.5 8.5t-34 23t-23 34t-8.5 41.5v486q0 22 8.5 41.5t23 34t34 23t41.5 8.5h146q22 0 41.5 -8.5t34 -23t23 -34t8.5 -41.5v-160l-151 -18v136q0 13 -13 13h-32q-13 0 -13 -13v-402
q0 -13 13 -13h32q13 0 13 13v97h-31v136zM274 727h-151v149h151v-149z" />
    <glyph glyph-name="gdotaccent" unicode="&#x121;" horiz-adv-x="411" 
d="M269 581q26 29 82 29h53v-116h-18q-11 0 -13 -11v-216q0 -22 -8.5 -41.5t-23 -34t-34 -23t-41.5 -8.5h-104v-15q0 -16 18 -19l136 -23q59 -10 77 -38.5t18 -71.5v-56q0 -48 -30 -77.5t-77 -29.5h-191q-55 0 -83.5 31t-28.5 76q0 21 7 37.5t18.5 28.5t25.5 20t28 12
q-20 12 -32 29t-12 39q0 26 13.5 43.5t30.5 27.5q-19 5 -32 15t-20 23t-10 27.5t-3 27.5v170q0 22 8.5 41.5t23 34t34 23t41.5 8.5h126q5 16 13 27h-143v149h151v-139zM214 285q13 0 13 13v108q0 13 -13 13h-40q-13 0 -13 -13v-108q0 -13 13 -13h40zM140 -45q0 -13 13 -13
h103q13 0 13 13v20q0 12 -13 13l-99 13q-6 -4 -11.5 -10t-5.5 -21v-15z" />
    <glyph glyph-name="Gcommaaccent" unicode="&#x122;" horiz-adv-x="399" 
d="M197 382h182v-382h-54l-21 28q-14 -13 -32.5 -20.5t-39.5 -7.5h-106q-22 0 -41.5 8.5t-34 23t-23 34t-8.5 41.5v486q0 22 8.5 41.5t23 34t34 23t41.5 8.5h146q22 0 41.5 -8.5t34 -23t23 -34t8.5 -41.5v-160l-151 -18v136q0 13 -13 13h-32q-13 0 -13 -13v-402
q0 -13 13 -13h32q13 0 13 13v97h-31v136zM280 -186q0 -38 -6 -62.5t-20 -38t-35.5 -18.5t-53.5 -5h-47v79h22q14 0 22 5t8 24v9h-52v160h162v-153z" />
    <glyph glyph-name="gcommaaccent" unicode="&#x123;" horiz-adv-x="411" 
d="M113 732q0 38 6 62.5t20 38t36 18.5t53 5h47v-79h-22q-14 0 -22 -5t-8 -24v-22h52v-139q26 23 76 23h53v-116h-18q-11 0 -13 -11v-216q0 -22 -8.5 -41.5t-23 -34t-34 -23t-41.5 -8.5h-104v-15q0 -16 18 -19l136 -23q59 -10 77 -38.5t18 -71.5v-56q0 -48 -30 -77.5
t-77 -29.5h-191q-55 0 -83.5 31t-28.5 76q0 21 7 37.5t18.5 28.5t25.5 20t28 12q-20 12 -32 29t-12 39q0 26 13.5 43.5t30.5 27.5q-19 5 -32 15t-20 23t-10 27.5t-3 27.5v170q0 22 8.5 41.5t23 34t34 23t41.5 8.5h126q3 11 9 22h-144v166zM214 285q13 0 13 13v108
q0 13 -13 13h-40q-13 0 -13 -13v-108q0 -13 13 -13h40zM140 -45q0 -13 13 -13h103q13 0 13 13v20q0 12 -13 13l-99 13q-6 -4 -11.5 -10t-5.5 -21v-15z" />
    <glyph glyph-name="Hcircumflex" unicode="&#x124;" horiz-adv-x="404" 
d="M231 419v281h151v-700h-151v283h-58v-283h-151v700h151v-281h58zM202 780l-31 -59h-113l73 135h142l73 -135h-113z" />
    <glyph glyph-name="hcircumflex" unicode="&#x125;" horiz-adv-x="390" 
d="M167 0h-146v700h146v-198q12 15 36.5 28.5t62.5 13.5q50 0 77.5 -28t27.5 -79v-437h-146v385q0 15 -8.5 21.5t-17.5 6.5q-17 0 -24 -9t-8 -22v-382zM201 780l-31 -59h-113l73 135h142l73 -135h-113z" />
    <glyph glyph-name="Hbar" unicode="&#x126;" horiz-adv-x="406" 
d="M3 660h20v40h151v-40h58v40h151v-40h20v-88h-20v-572h-151v283h-58v-283h-151v572h-20v88zM232 419v153h-58v-153h58z" />
    <glyph glyph-name="hbar" unicode="&#x127;" horiz-adv-x="390" 
d="M1 660h20v40h146v-40h69v-88h-69v-70q12 15 36.5 28.5t62.5 13.5q50 0 77.5 -28t27.5 -79v-437h-146v385q0 15 -8.5 21.5t-17.5 6.5q-17 0 -24 -9t-8 -22v-382h-146v572h-20v88z" />
    <glyph glyph-name="Itilde" unicode="&#x128;" horiz-adv-x="195" 
d="M173 0h-151v700h151v-700zM162 730q-14 0 -29.5 3.5t-29.5 8t-24.5 8t-15.5 3.5q-8 0 -10.5 -4.5t-2.5 -7.5v-11h-91v51q0 28 17 51.5t58 23.5q14 0 29 -3.5t28.5 -8t24.5 -8t17 -3.5q8 0 10.5 4t2.5 8v11h91v-51q0 -28 -17 -51.5t-58 -23.5z" />
    <glyph glyph-name="itilde" unicode="&#x129;" horiz-adv-x="188" 
d="M167 0h-146v544h146v-544zM158 574q-14 0 -29.5 3.5t-29.5 8t-24.5 8t-15.5 3.5q-8 0 -10.5 -4.5t-2.5 -7.5v-11h-91v51q0 28 17 51.5t58 23.5q14 0 29 -3.5t28.5 -8t24.5 -8t17 -3.5q8 0 10.5 4t2.5 8v11h91v-51q0 -28 -17 -51.5t-58 -23.5z" />
    <glyph glyph-name="imacron" unicode="&#x12b;" horiz-adv-x="188" 
d="M167 0h-146v544h146v-544zM-27 687h242v-97h-242v97z" />
    <glyph glyph-name="Ibreve" unicode="&#x12c;" horiz-adv-x="195" 
d="M173 0h-151v700h151v-700zM65 856v-15q0 -22 11.5 -26t19.5 -4h4q8 0 19.5 4t11.5 26v15h85v-42q0 -45 -28 -69t-79 -24h-22q-51 0 -79 24t-28 69v42h85z" />
    <glyph glyph-name="Iogonek" unicode="&#x12e;" horiz-adv-x="195" 
d="M173 0h-38l-19 -28q-10 -15 -14 -25t-4 -25v-24h75v-100h-104q-32 0 -52.5 14.5t-20.5 55.5v21q0 26 7 44.5t21 33.5l29 33h-31v700h151v-700z" />
    <glyph glyph-name="iogonek" unicode="&#x12f;" horiz-adv-x="188" 
d="M167 0h-22l-19 -28q-10 -15 -14 -25t-4 -25v-24h75v-100h-104q-32 0 -52.5 14.5t-20.5 55.5v21q0 26 7 44.5t21 33.5l29 33h-42v544h146v-544zM21 700h146v-116h-146v116z" />
    <glyph glyph-name="Idotaccent" unicode="&#x130;" horiz-adv-x="195" 
d="M173 0h-151v700h151v-700zM173 727h-151v149h151v-149z" />
    <glyph glyph-name="dotlessi" unicode="&#x131;" horiz-adv-x="188" 
d="M167 0h-146v544h146v-544z" />
    <glyph glyph-name="IJ" unicode="&#x132;" horiz-adv-x="585" 
d="M173 0h-151v700h151v-700zM401 136q13 0 13 13v551h151v-593q0 -22 -8.5 -41.5t-23 -34t-34 -23t-41.5 -8.5h-138q-22 0 -41.5 8.5t-34 23t-23 34t-8.5 41.5v186l151 18v-162q0 -13 13 -13h24z" />
    <glyph glyph-name="ij" unicode="&#x133;" horiz-adv-x="374" 
d="M167 0h-146v544h146v-544zM21 700h146v-116h-146v116zM353 -52q0 -18 -6 -37.5t-18.5 -35t-33 -25.5t-49.5 -10h-58l-9 111h15q13 0 13 13v580h146v-596zM207 700h146v-116h-146v116z" />
    <glyph glyph-name="Jcircumflex" unicode="&#x134;" horiz-adv-x="381" 
d="M197 136q13 0 13 13v551h151v-593q0 -22 -8.5 -41.5t-23 -34t-34 -23t-41.5 -8.5h-138q-22 0 -41.5 8.5t-34 23t-23 34t-8.5 41.5v186l151 18v-162q0 -13 13 -13h24zM185 780l-31 -59h-113l73 135h142l73 -135h-113z" />
    <glyph glyph-name="jcircumflex" unicode="&#x135;" horiz-adv-x="188" 
d="M167 -52q0 -18 -6 -37.5t-18.5 -35t-33 -25.5t-49.5 -10h-58l-9 111h15q13 0 13 13v580h146v-596zM115 584h-42l-10 -19h-113l71 131v4h146v-4l71 -131h-113z" />
    <glyph glyph-name="Kcommaaccent" unicode="&#x136;" horiz-adv-x="385" 
d="M173 424l63 276h147l-65 -323l69 -377h-156l-58 310v-310h-151v700h151v-276zM278 -186q0 -38 -6 -62.5t-20 -38t-35.5 -18.5t-53.5 -5h-47v79h22q14 0 22 5t8 24v9h-52v160h162v-153z" />
    <glyph glyph-name="kcommaaccent" unicode="&#x137;" horiz-adv-x="386" 
d="M297 300l89 -300h-157l-62 232v-232h-146v700h146v-352l68 196h154zM276 -186q0 -38 -6 -62.5t-20 -38t-35.5 -18.5t-53.5 -5h-47v79h22q14 0 22 5t8 24v9h-52v160h162v-153z" />
    <glyph glyph-name="kgreenlandic" unicode="&#x138;" horiz-adv-x="386" 
d="M297 300l89 -300h-157l-62 232v-232h-146v544h146v-196l68 196h154z" />
    <glyph glyph-name="Lacute" unicode="&#x139;" horiz-adv-x="314" 
d="M173 136h133v-136h-284v700h151v-564zM169 721h-111l61 135h151z" />
    <glyph glyph-name="lacute" unicode="&#x13a;" horiz-adv-x="188" 
d="M167 0h-146v700h146v-700zM98 721h-111l61 135h151z" />
    <glyph glyph-name="Lcommaaccent" unicode="&#x13b;" horiz-adv-x="314" 
d="M173 136h133v-136h-284v700h151v-564zM245 -186q0 -38 -6 -62.5t-20 -38t-35.5 -18.5t-53.5 -5h-47v79h22q14 0 22 5t8 24v9h-52v160h162v-153z" />
    <glyph glyph-name="lcommaaccent" unicode="&#x13c;" horiz-adv-x="188" 
d="M167 0h-146v700h146v-700zM175 -186q0 -38 -6 -62.5t-20 -38t-35.5 -18.5t-53.5 -5h-47v79h22q14 0 22 5t8 24v9h-52v160h162v-153z" />
    <glyph glyph-name="Lcaron" unicode="&#x13d;" horiz-adv-x="358" 
d="M173 136h133v-136h-284v700h151v-564zM355 534q0 -38 -6 -62.5t-20 -38t-35.5 -18.5t-53.5 -5h-47v79h22q14 0 22 5t8 24v22h-52v160h162v-166z" />
    <glyph glyph-name="lcaron" unicode="&#x13e;" horiz-adv-x="348" 
d="M167 0h-146v700h146v-700zM349 534q0 -38 -6 -62.5t-20 -38t-35.5 -18.5t-53.5 -5h-47v79h22q14 0 22 5t8 24v22h-52v160h162v-166z" />
    <glyph glyph-name="Ldot" unicode="&#x13f;" horiz-adv-x="328" 
d="M173 136h133v-136h-284v700h151v-564zM326 271h-132v157h132v-157z" />
    <glyph glyph-name="ldot" unicode="&#x140;" horiz-adv-x="332" 
d="M333 295h-146v159h146v-159zM167 0h-146v700h146v-700z" />
    <glyph glyph-name="Lslash" unicode="&#x141;" horiz-adv-x="340" 
d="M0 386l48 14v300h151v-265l105 31v-119l-105 -31v-180h133v-136h-284v281l-48 -14v119z" />
    <glyph glyph-name="lslash" unicode="&#x142;" horiz-adv-x="259" 
d="M2 394l55 20v286h146v-243l54 20v-111l-54 -20v-346h-146v303l-55 -20v111z" />
    <glyph glyph-name="Nacute" unicode="&#x143;" horiz-adv-x="408" 
d="M238 388v312h148v-700h-148l-68 327v-327h-148v700h148zM209 721h-111l61 135h151z" />
    <glyph glyph-name="nacute" unicode="&#x144;" horiz-adv-x="390" 
d="M167 0h-146v544h136l6 -47q11 16 36.5 31.5t66.5 15.5q50 0 77.5 -28t27.5 -79v-437h-146v385q0 15 -8.5 21.5t-17.5 6.5q-19 0 -25.5 -11t-6.5 -25v-377zM201 565h-111l61 135h151z" />
    <glyph glyph-name="Ncommaaccent" unicode="&#x145;" horiz-adv-x="408" 
d="M238 388v312h148v-700h-148l-68 327v-327h-148v700h148zM285 -186q0 -38 -6 -62.5t-20 -38t-35.5 -18.5t-53.5 -5h-47v79h22q14 0 22 5t8 24v9h-52v160h162v-153z" />
    <glyph glyph-name="ncommaaccent" unicode="&#x146;" horiz-adv-x="390" 
d="M167 0h-146v544h136l6 -47q11 16 36.5 31.5t66.5 15.5q50 0 77.5 -28t27.5 -79v-437h-146v385q0 15 -8.5 21.5t-17.5 6.5q-19 0 -25.5 -11t-6.5 -25v-377zM277 -186q0 -38 -6 -62.5t-20 -38t-35.5 -18.5t-53.5 -5h-47v79h22q14 0 22 5t8 24v9h-52v160h162v-153z" />
    <glyph glyph-name="Ncaron" unicode="&#x147;" horiz-adv-x="408" 
d="M238 388v312h148v-700h-148l-68 327v-327h-148v700h148zM235 856h113l-73 -135h-142l-73 135h113l31 -59z" />
    <glyph glyph-name="ncaron" unicode="&#x148;" horiz-adv-x="390" 
d="M167 0h-146v544h136l6 -47q11 16 36.5 31.5t66.5 15.5q50 0 77.5 -28t27.5 -79v-437h-146v385q0 15 -8.5 21.5t-17.5 6.5q-19 0 -25.5 -11t-6.5 -25v-377zM227 700h113l-73 -135h-142l-73 135h113l31 -59z" />
    <glyph glyph-name="napostrophe" unicode="&#x149;" horiz-adv-x="390" 
d="M183 689q0 -38 -6 -62.5t-20 -38t-35.5 -18.5t-53.5 -5h-47v79h22q14 0 22 5t8 24v2h-52v160h162v-146zM167 0h-146v544h136l6 -47q11 16 36.5 31.5t66.5 15.5q50 0 77.5 -28t27.5 -79v-437h-146v385q0 15 -8.5 21.5t-17.5 6.5q-19 0 -25.5 -11t-6.5 -25v-377z" />
    <glyph glyph-name="Eng" unicode="&#x14a;" horiz-adv-x="408" 
d="M238 388v312h148v-814q0 -22 -8.5 -41.5t-23 -34t-34 -23t-41.5 -8.5h-153q-22 0 -41.5 8.5t-34 23t-23 34t-8.5 41.5v66l151 18v-42q0 -13 13 -13h39q13 0 13 13v86l-65 313v-327h-148v700h148z" />
    <glyph glyph-name="eng" unicode="&#x14b;" horiz-adv-x="390" 
d="M167 0h-146v544h136l6 -47q11 16 36.5 31.5t66.5 15.5q50 0 77.5 -28t27.5 -79v-489q0 -18 -6 -37.5t-18.5 -35t-33 -25.5t-49.5 -10h-58l-9 111h15q13 0 13 13v421q0 15 -8.5 21.5t-17.5 6.5q-19 0 -25.5 -11t-6.5 -25v-377z" />
    <glyph glyph-name="Omacron" unicode="&#x14c;" horiz-adv-x="398" 
d="M379 107q0 -22 -8.5 -41.5t-23 -34t-34 -23t-41.5 -8.5h-146q-22 0 -41.5 8.5t-34 23t-23 34t-8.5 41.5v486q0 22 8.5 41.5t23 34t34 23t41.5 8.5h146q22 0 41.5 -8.5t34 -23t23 -34t8.5 -41.5v-486zM228 551q0 13 -13 13h-32q-13 0 -13 -13v-402q0 -13 13 -13h32
q13 0 13 13v402zM78 843h242v-97h-242v97z" />
    <glyph glyph-name="omacron" unicode="&#x14d;" horiz-adv-x="384" 
d="M124 0q-22 0 -41.5 8.5t-34 23t-23 34t-8.5 41.5v330q0 22 8.5 41.5t23 34t34 23t41.5 8.5h136q22 0 41.5 -8.5t34 -23t23 -34t8.5 -41.5v-330q0 -22 -8.5 -41.5t-23 -34t-34 -23t-41.5 -8.5h-136zM208 131q13 0 13 13v256q0 13 -13 13h-32q-13 0 -13 -13v-256
q0 -13 13 -13h32zM71 687h242v-97h-242v97z" />
    <glyph glyph-name="Obreve" unicode="&#x14e;" horiz-adv-x="398" 
d="M379 107q0 -22 -8.5 -41.5t-23 -34t-34 -23t-41.5 -8.5h-146q-22 0 -41.5 8.5t-34 23t-23 34t-8.5 41.5v486q0 22 8.5 41.5t23 34t34 23t41.5 8.5h146q22 0 41.5 -8.5t34 -23t23 -34t8.5 -41.5v-486zM228 551q0 13 -13 13h-32q-13 0 -13 -13v-402q0 -13 13 -13h32
q13 0 13 13v402zM166 856v-15q0 -22 11.5 -26t19.5 -4h4q8 0 19.5 4t11.5 26v15h85v-42q0 -45 -28 -69t-79 -24h-22q-51 0 -79 24t-28 69v42h85z" />
    <glyph glyph-name="obreve" unicode="&#x14f;" horiz-adv-x="384" 
d="M124 0q-22 0 -41.5 8.5t-34 23t-23 34t-8.5 41.5v330q0 22 8.5 41.5t23 34t34 23t41.5 8.5h136q22 0 41.5 -8.5t34 -23t23 -34t8.5 -41.5v-330q0 -22 -8.5 -41.5t-23 -34t-34 -23t-41.5 -8.5h-136zM208 131q13 0 13 13v256q0 13 -13 13h-32q-13 0 -13 -13v-256
q0 -13 13 -13h32zM159 700v-15q0 -22 11.5 -26t19.5 -4h4q8 0 19.5 4t11.5 26v15h85v-42q0 -45 -28 -69t-79 -24h-22q-51 0 -79 24t-28 69v42h85z" />
    <glyph glyph-name="Ohungarumlaut" unicode="&#x150;" horiz-adv-x="398" 
d="M379 107q0 -22 -8.5 -41.5t-23 -34t-34 -23t-41.5 -8.5h-146q-22 0 -41.5 8.5t-34 23t-23 34t-8.5 41.5v486q0 22 8.5 41.5t23 34t34 23t41.5 8.5h146q22 0 41.5 -8.5t34 -23t23 -34t8.5 -41.5v-486zM228 551q0 13 -13 13h-32q-13 0 -13 -13v-402q0 -13 13 -13h32
q13 0 13 13v402zM123 721h-111l61 135h151zM285 721h-111l61 135h151z" />
    <glyph glyph-name="ohungarumlaut" unicode="&#x151;" horiz-adv-x="384" 
d="M124 0q-22 0 -41.5 8.5t-34 23t-23 34t-8.5 41.5v330q0 22 8.5 41.5t23 34t34 23t41.5 8.5h136q22 0 41.5 -8.5t34 -23t23 -34t8.5 -41.5v-330q0 -22 -8.5 -41.5t-23 -34t-34 -23t-41.5 -8.5h-136zM208 131q13 0 13 13v256q0 13 -13 13h-32q-13 0 -13 -13v-256
q0 -13 13 -13h32zM116 565h-111l61 135h151zM278 565h-111l61 135h151z" />
    <glyph glyph-name="OE" unicode="&#x152;" horiz-adv-x="542" 
d="M228 551q0 13 -13 13h-32q-13 0 -13 -13v-402q0 -13 13 -13h32q13 0 13 13v402zM126 0q-22 0 -41.5 8.5t-34 23t-23 34t-8.5 41.5v486q0 22 8.5 41.5t23 34t34 23t41.5 8.5h406v-136h-153v-145h96v-136h-96v-147h153v-136h-406z" />
    <glyph glyph-name="oe" unicode="&#x153;" horiz-adv-x="587" 
d="M124 0q-22 0 -41.5 8.5t-34 23t-23 34t-8.5 41.5v330q0 22 8.5 41.5t23 34t34 23t41.5 8.5h69q26 0 50.5 -11.5t35.5 -37.5q11 26 35.5 37.5t50.5 11.5h99q22 0 41.5 -8.5t34 -23t23 -34t8.5 -41.5v-207h-204v-86q0 -13 13 -13h32q13 0 13 13v62l146 -26v-73
q0 -22 -8.5 -41.5t-23 -34t-34 -23t-41.5 -8.5h-99q-26 0 -50.5 11.5t-35.5 37.5q-11 -26 -35.5 -37.5t-50.5 -11.5h-69zM367 348h58v52q0 13 -13 13h-32q-13 0 -13 -13v-52zM208 131q13 0 13 13v256q0 13 -13 13h-32q-13 0 -13 -13v-256q0 -13 13 -13h32z" />
    <glyph glyph-name="Racute" unicode="&#x154;" horiz-adv-x="403" 
d="M231 551q0 13 -13 13h-45v-159h45q13 0 13 13v133zM231 238q0 15 -8.5 23t-22.5 8h-27v-269h-151v700h253q22 0 41.5 -8.5t34 -23t23 -34t8.5 -41.5v-174q0 -10 -2.5 -22t-9.5 -23.5t-18 -21.5t-29 -15q18 -5 29 -15t18 -21t9.5 -23t2.5 -22v-155q0 -10 1 -24.5
t2.5 -28.5t4 -27t5.5 -21h-156q-2 13 -4 32q-2 16 -3 38.5t-1 52.5v115zM206 721h-111l61 135h151z" />
    <glyph glyph-name="racute" unicode="&#x155;" horiz-adv-x="290" 
d="M280 397h-68q-20 0 -32.5 -11t-12.5 -34v-352h-146v544h128l4 -58q8 18 30.5 38t59.5 20q10 0 17 -0.5t12 -0.5q5 -1 8 -2v-144zM148 565h-111l61 135h151z" />
    <glyph glyph-name="Rcommaaccent" unicode="&#x156;" horiz-adv-x="403" 
d="M231 551q0 13 -13 13h-45v-159h45q13 0 13 13v133zM231 238q0 15 -8.5 23t-22.5 8h-27v-269h-151v700h253q22 0 41.5 -8.5t34 -23t23 -34t8.5 -41.5v-174q0 -10 -2.5 -22t-9.5 -23.5t-18 -21.5t-29 -15q18 -5 29 -15t18 -21t9.5 -23t2.5 -22v-155q0 -10 1 -24.5
t2.5 -28.5t4 -27t5.5 -21h-156q-2 13 -4 32q-2 16 -3 38.5t-1 52.5v115zM282 -186q0 -38 -6 -62.5t-20 -38t-35.5 -18.5t-53.5 -5h-47v79h22q14 0 22 5t8 24v9h-52v160h162v-153z" />
    <glyph glyph-name="rcommaaccent" unicode="&#x157;" horiz-adv-x="290" 
d="M280 397h-68q-20 0 -32.5 -11t-12.5 -34v-352h-146v544h128l4 -58q8 18 30.5 38t59.5 20q10 0 17 -0.5t12 -0.5q5 -1 8 -2v-144zM224 -186q0 -38 -6 -62.5t-20 -38t-35.5 -18.5t-53.5 -5h-47v79h22q14 0 22 5t8 24v9h-52v160h162v-153z" />
    <glyph glyph-name="Rcaron" unicode="&#x158;" horiz-adv-x="403" 
d="M231 551q0 13 -13 13h-45v-159h45q13 0 13 13v133zM231 238q0 15 -8.5 23t-22.5 8h-27v-269h-151v700h253q22 0 41.5 -8.5t34 -23t23 -34t8.5 -41.5v-174q0 -10 -2.5 -22t-9.5 -23.5t-18 -21.5t-29 -15q18 -5 29 -15t18 -21t9.5 -23t2.5 -22v-155q0 -10 1 -24.5
t2.5 -28.5t4 -27t5.5 -21h-156q-2 13 -4 32q-2 16 -3 38.5t-1 52.5v115zM232 856h113l-73 -135h-142l-73 135h113l31 -59z" />
    <glyph glyph-name="rcaron" unicode="&#x159;" horiz-adv-x="290" 
d="M280 397h-68q-20 0 -32.5 -11t-12.5 -34v-352h-146v544h128l4 -58q8 18 30.5 38t59.5 20q10 0 17 -0.5t12 -0.5q5 -1 8 -2v-144zM174 700h113l-73 -135h-142l-73 135h113l31 -59z" />
    <glyph glyph-name="Sacute" unicode="&#x15a;" horiz-adv-x="389" 
d="M73 358q-31 23 -44.5 54.5t-13.5 76.5v104q0 22 8.5 41.5t23 34t34 23t41.5 8.5h146q22 0 41.5 -8.5t34 -23t23 -34t8.5 -41.5v-94l-151 -18v70q0 13 -13 13h-32q-13 0 -13 -13v-27q0 -30 6.5 -40.5t20.5 -21.5l111 -89q38 -30 54.5 -63t16.5 -80v-123q0 -22 -8.5 -41.5
t-23 -34t-34 -23t-41.5 -8.5h-146q-22 0 -41.5 8.5t-34 23t-23 34t-8.5 41.5v120l151 17v-95q0 -13 13 -13h32q13 0 13 13v34q0 20 -1 32.5t-5.5 22t-12.5 17.5t-22 19zM200 721h-111l61 135h151z" />
    <glyph glyph-name="sacute" unicode="&#x15b;" horiz-adv-x="377" 
d="M363 107q0 -22 -8.5 -41.5t-23 -34t-34 -23t-41.5 -8.5h-134q-22 0 -41.5 8.5t-34 23t-23 34t-8.5 41.5v61l146 16v-40q0 -13 13 -13h32q13 0 13 13v5q0 17 -6 24t-23 15l-124 64q-32 17 -42.5 46.5t-10.5 67.5v71q0 22 8.5 41.5t23 34t34 23t41.5 8.5h136
q22 0 41.5 -8.5t34 -23t23 -34t8.5 -41.5v-66l-146 -13v42q0 13 -13 13h-32q-13 0 -13 -13v-5q0 -16 5 -22.5t20 -14.5l127 -69q20 -11 36 -31.5t16 -57.5v-93zM193 565h-111l61 135h151z" />
    <glyph glyph-name="Scircumflex" unicode="&#x15c;" horiz-adv-x="389" 
d="M73 358q-31 23 -44.5 54.5t-13.5 76.5v104q0 22 8.5 41.5t23 34t34 23t41.5 8.5h146q22 0 41.5 -8.5t34 -23t23 -34t8.5 -41.5v-94l-151 -18v70q0 13 -13 13h-32q-13 0 -13 -13v-27q0 -30 6.5 -40.5t20.5 -21.5l111 -89q38 -30 54.5 -63t16.5 -80v-123q0 -22 -8.5 -41.5
t-23 -34t-34 -23t-41.5 -8.5h-146q-22 0 -41.5 8.5t-34 23t-23 34t-8.5 41.5v120l151 17v-95q0 -13 13 -13h32q13 0 13 13v34q0 20 -1 32.5t-5.5 22t-12.5 17.5t-22 19zM195 780l-31 -59h-113l73 135h142l73 -135h-113z" />
    <glyph glyph-name="scircumflex" unicode="&#x15d;" horiz-adv-x="377" 
d="M363 107q0 -22 -8.5 -41.5t-23 -34t-34 -23t-41.5 -8.5h-134q-22 0 -41.5 8.5t-34 23t-23 34t-8.5 41.5v61l146 16v-40q0 -13 13 -13h32q13 0 13 13v5q0 17 -6 24t-23 15l-124 64q-32 17 -42.5 46.5t-10.5 67.5v71q0 22 8.5 41.5t23 34t34 23t41.5 8.5h136
q22 0 41.5 -8.5t34 -23t23 -34t8.5 -41.5v-66l-146 -13v42q0 13 -13 13h-32q-13 0 -13 -13v-5q0 -16 5 -22.5t20 -14.5l127 -69q20 -11 36 -31.5t16 -57.5v-93zM188 624l-31 -59h-113l73 135h142l73 -135h-113z" />
    <glyph glyph-name="Scedilla" unicode="&#x15e;" horiz-adv-x="389" 
d="M143 0h-21q-22 0 -41.5 8.5t-34 23t-23 34t-8.5 41.5v120l151 17v-95q0 -13 13 -13h32q13 0 13 13v34q0 20 -1 32.5t-5.5 22t-12.5 17.5t-22 19l-110 84q-31 23 -44.5 54.5t-13.5 76.5v104q0 22 8.5 41.5t23 34t34 23t41.5 8.5h146q22 0 41.5 -8.5t34 -23t23 -34
t8.5 -41.5v-94l-151 -18v70q0 13 -13 13h-32q-13 0 -13 -13v-27q0 -30 6.5 -40.5t20.5 -21.5l111 -89q38 -30 54.5 -63t16.5 -80v-123q0 -22 -8.5 -41.5t-23 -34t-34 -23t-41.5 -8.5l-31 -151h-125z" />
    <glyph glyph-name="scedilla" unicode="&#x15f;" horiz-adv-x="377" 
d="M136 0h-14q-22 0 -41.5 8.5t-34 23t-23 34t-8.5 41.5v61l146 16v-40q0 -13 13 -13h32q13 0 13 13v5q0 17 -6 24t-23 15l-124 64q-32 17 -42.5 46.5t-10.5 67.5v71q0 22 8.5 41.5t23 34t34 23t41.5 8.5h136q22 0 41.5 -8.5t34 -23t23 -34t8.5 -41.5v-66l-146 -13v42
q0 13 -13 13h-32q-13 0 -13 -13v-5q0 -16 5 -22.5t20 -14.5l127 -69q20 -11 36 -31.5t16 -57.5v-93q0 -43 -29.5 -74t-72.5 -33l-31 -151h-125z" />
    <glyph glyph-name="Scaron" unicode="&#x160;" horiz-adv-x="389" 
d="M73 358q-31 23 -44.5 54.5t-13.5 76.5v104q0 22 8.5 41.5t23 34t34 23t41.5 8.5h146q22 0 41.5 -8.5t34 -23t23 -34t8.5 -41.5v-94l-151 -18v70q0 13 -13 13h-32q-13 0 -13 -13v-27q0 -30 6.5 -40.5t20.5 -21.5l111 -89q38 -30 54.5 -63t16.5 -80v-123q0 -22 -8.5 -41.5
t-23 -34t-34 -23t-41.5 -8.5h-146q-22 0 -41.5 8.5t-34 23t-23 34t-8.5 41.5v120l151 17v-95q0 -13 13 -13h32q13 0 13 13v34q0 20 -1 32.5t-5.5 22t-12.5 17.5t-22 19zM226 856h113l-73 -135h-142l-73 135h113l31 -59z" />
    <glyph glyph-name="scaron" unicode="&#x161;" horiz-adv-x="377" 
d="M363 107q0 -22 -8.5 -41.5t-23 -34t-34 -23t-41.5 -8.5h-134q-22 0 -41.5 8.5t-34 23t-23 34t-8.5 41.5v61l146 16v-40q0 -13 13 -13h32q13 0 13 13v5q0 17 -6 24t-23 15l-124 64q-32 17 -42.5 46.5t-10.5 67.5v71q0 22 8.5 41.5t23 34t34 23t41.5 8.5h136
q22 0 41.5 -8.5t34 -23t23 -34t8.5 -41.5v-66l-146 -13v42q0 13 -13 13h-32q-13 0 -13 -13v-5q0 -16 5 -22.5t20 -14.5l127 -69q20 -11 36 -31.5t16 -57.5v-93zM219 700h113l-73 -135h-142l-73 135h113l31 -59z" />
    <glyph glyph-name="Tcommaaccent" unicode="&#x162;" horiz-adv-x="343" 
d="M247 0h-151v564h-88v136h327v-136h-88v-564zM252 -186q0 -38 -6 -62.5t-20 -38t-35.5 -18.5t-53.5 -5h-47v79h22q14 0 22 5t8 24v9h-52v160h162v-153z" />
    <glyph glyph-name="tcommaaccent" unicode="&#x163;" horiz-adv-x="286" 
d="M278 544v-114h-62v-430h-146v430h-62v114h62v140h146v-140h62zM224 -186q0 -38 -6 -62.5t-20 -38t-35.5 -18.5t-53.5 -5h-47v79h22q14 0 22 5t8 24v9h-52v160h162v-153z" />
    <glyph glyph-name="Tcaron" unicode="&#x164;" horiz-adv-x="343" 
d="M247 0h-151v564h-88v136h327v-136h-88v-564zM202 856h113l-73 -135h-142l-73 135h113l31 -59z" />
    <glyph glyph-name="tcaron" unicode="&#x165;" horiz-adv-x="286" 
d="M408 701q0 -38 -6 -62.5t-20 -38t-35.5 -18.5t-53.5 -5h-47v79h22q14 0 22 5t8 24v22h-52v160h162v-166zM278 544v-114h-62v-430h-146v430h-62v114h62v140h146v-140h62z" />
    <glyph glyph-name="Tbar" unicode="&#x166;" horiz-adv-x="343" 
d="M247 419h55v-116h-55v-303h-151v303h-56v116h56v145h-88v136h327v-136h-88v-145z" />
    <glyph glyph-name="tbar" unicode="&#x167;" horiz-adv-x="290" 
d="M10 350h62v80h-62v114h62v140h146v-140h62v-114h-62v-80h62v-114h-62v-236h-146v236h-62v114z" />
    <glyph glyph-name="Utilde" unicode="&#x168;" horiz-adv-x="397" 
d="M171 149q0 -13 13 -13h32q13 0 13 13v551h148v-593q0 -22 -8.5 -41.5t-23 -34t-34 -23t-41.5 -8.5h-143q-22 0 -41.5 8.5t-34 23t-23 34t-8.5 41.5v593h151v-551zM262 730q-14 0 -29.5 3.5t-29.5 8t-24.5 8t-15.5 3.5q-8 0 -10.5 -4.5t-2.5 -7.5v-11h-91v51q0 28 17 51.5
t58 23.5q14 0 29 -3.5t28.5 -8t24.5 -8t17 -3.5q8 0 10.5 4t2.5 8v11h91v-51q0 -28 -17 -51.5t-58 -23.5z" />
    <glyph glyph-name="utilde" unicode="&#x169;" horiz-adv-x="390" 
d="M223 544h146v-544h-140v47q-11 -16 -36.5 -31.5t-66.5 -15.5q-50 0 -78.5 28t-28.5 79v437h146v-385q0 -15 8.5 -21.5t17.5 -6.5q19 0 25.5 11t6.5 25v377zM258 574q-14 0 -29.5 3.5t-29.5 8t-24.5 8t-15.5 3.5q-8 0 -10.5 -4.5t-2.5 -7.5v-11h-91v51q0 28 17 51.5
t58 23.5q14 0 29 -3.5t28.5 -8t24.5 -8t17 -3.5q8 0 10.5 4t2.5 8v11h91v-51q0 -28 -17 -51.5t-58 -23.5z" />
    <glyph glyph-name="Umacron" unicode="&#x16a;" horiz-adv-x="397" 
d="M171 149q0 -13 13 -13h32q13 0 13 13v551h148v-593q0 -22 -8.5 -41.5t-23 -34t-34 -23t-41.5 -8.5h-143q-22 0 -41.5 8.5t-34 23t-23 34t-8.5 41.5v593h151v-551zM77 843h242v-97h-242v97z" />
    <glyph glyph-name="umacron" unicode="&#x16b;" horiz-adv-x="390" 
d="M223 544h146v-544h-140v47q-11 -16 -36.5 -31.5t-66.5 -15.5q-50 0 -78.5 28t-28.5 79v437h146v-385q0 -15 8.5 -21.5t17.5 -6.5q19 0 25.5 11t6.5 25v377zM73 687h242v-97h-242v97z" />
    <glyph glyph-name="Ubreve" unicode="&#x16c;" horiz-adv-x="397" 
d="M171 149q0 -13 13 -13h32q13 0 13 13v551h148v-593q0 -22 -8.5 -41.5t-23 -34t-34 -23t-41.5 -8.5h-143q-22 0 -41.5 8.5t-34 23t-23 34t-8.5 41.5v593h151v-551zM165 856v-15q0 -22 11.5 -26t19.5 -4h4q8 0 19.5 4t11.5 26v15h85v-42q0 -45 -28 -69t-79 -24h-22
q-51 0 -79 24t-28 69v42h85z" />
    <glyph glyph-name="ubreve" unicode="&#x16d;" horiz-adv-x="390" 
d="M223 544h146v-544h-140v47q-11 -16 -36.5 -31.5t-66.5 -15.5q-50 0 -78.5 28t-28.5 79v437h146v-385q0 -15 8.5 -21.5t17.5 -6.5q19 0 25.5 11t6.5 25v377zM161 700v-15q0 -22 11.5 -26t19.5 -4h4q8 0 19.5 4t11.5 26v15h85v-42q0 -45 -28 -69t-79 -24h-22q-51 0 -79 24
t-28 69v42h85z" />
    <glyph glyph-name="Uring" unicode="&#x16e;" horiz-adv-x="397" 
d="M171 149q0 -13 13 -13h32q13 0 13 13v551h148v-593q0 -22 -8.5 -41.5t-23 -34t-34 -23t-41.5 -8.5h-143q-22 0 -41.5 8.5t-34 23t-23 34t-8.5 41.5v593h151v-551zM314 818q0 -45 -26 -71t-71 -26h-37q-45 0 -71 26t-26 71v45q0 45 26 71t71 26h37q45 0 71 -26t26 -71v-45
zM162 823q0 -15 8 -23t21 -8h15q13 0 21 8t8 23v35q0 15 -8 23t-21 8h-15q-13 0 -21 -8t-8 -23v-35z" />
    <glyph glyph-name="uring" unicode="&#x16f;" horiz-adv-x="390" 
d="M223 544h146v-544h-140v47q-11 -16 -36.5 -31.5t-66.5 -15.5q-50 0 -78.5 28t-28.5 79v437h146v-385q0 -15 8.5 -21.5t17.5 -6.5q19 0 25.5 11t6.5 25v377zM309 662q0 -45 -26 -71t-71 -26h-37q-45 0 -71 26t-26 71v45q0 45 26 71t71 26h37q45 0 71 -26t26 -71v-45z
M157 667q0 -15 8 -23t21 -8h15q13 0 21 8t8 23v35q0 15 -8 23t-21 8h-15q-13 0 -21 -8t-8 -23v-35z" />
    <glyph glyph-name="Uhungarumlaut" unicode="&#x170;" horiz-adv-x="397" 
d="M171 149q0 -13 13 -13h32q13 0 13 13v551h148v-593q0 -22 -8.5 -41.5t-23 -34t-34 -23t-41.5 -8.5h-143q-22 0 -41.5 8.5t-34 23t-23 34t-8.5 41.5v593h151v-551zM123 721h-111l61 135h151zM285 721h-111l61 135h151z" />
    <glyph glyph-name="uhungarumlaut" unicode="&#x171;" horiz-adv-x="390" 
d="M223 544h146v-544h-140v47q-11 -16 -36.5 -31.5t-66.5 -15.5q-50 0 -78.5 28t-28.5 79v437h146v-385q0 -15 8.5 -21.5t17.5 -6.5q19 0 25.5 11t6.5 25v377zM118 565h-111l61 135h151zM280 565h-111l61 135h151z" />
    <glyph glyph-name="Uogonek" unicode="&#x172;" horiz-adv-x="397" 
d="M171 149q0 -13 13 -13h32q13 0 13 13v551h148v-593q0 -22 -8.5 -41.5t-23 -34t-34 -23t-41.5 -8.5h-14l-19 -28q-10 -15 -14 -25t-4 -25v-24h75v-100h-104q-32 0 -52.5 14.5t-20.5 55.5v21q0 26 7 44.5t21 33.5l29 33h-47q-22 0 -41.5 8.5t-34 23t-23 34t-8.5 41.5v593
h151v-551z" />
    <glyph glyph-name="uogonek" unicode="&#x173;" horiz-adv-x="390" 
d="M223 544h146v-544h-38l-19 -28q-10 -15 -14 -25t-4 -25v-24h75v-100h-104q-32 0 -52.5 14.5t-20.5 55.5v21q0 26 7 44.5t21 33.5l29 33h-20v47q-11 -16 -36.5 -31.5t-66.5 -15.5q-50 0 -78.5 28t-28.5 79v437h146v-385q0 -15 8.5 -21.5t17.5 -6.5q19 0 25.5 11t6.5 25
v377z" />
    <glyph glyph-name="Wcircumflex" unicode="&#x174;" horiz-adv-x="567" 
d="M416 700h145l-67 -700h-181l-27 353l-28 -353h-187l-62 700h150l34 -476l49 476h92l43 -476zM285 780l-31 -59h-113l73 135h142l73 -135h-113z" />
    <glyph glyph-name="wcircumflex" unicode="&#x175;" horiz-adv-x="562" 
d="M409 544h144l-50 -544h-187l-36 298l-34 -298h-189l-47 544h147l23 -410l58 410h92l54 -410zM281 624l-31 -59h-113l73 135h142l73 -135h-113z" />
    <glyph glyph-name="Ycircumflex" unicode="&#x176;" horiz-adv-x="392" 
d="M199 482l50 218h145l-123 -465v-235h-151v235l-121 465h157zM196 780l-31 -59h-113l73 135h142l73 -135h-113z" />
    <glyph glyph-name="ycircumflex" unicode="&#x177;" horiz-adv-x="377" 
d="M10 544h149l32 -420l29 420h150l-72 -598q-3 -28 -10 -49.5t-22 -36.5t-40 -22.5t-64 -7.5h-120v118h59q20 0 32.5 2t19 7.5t9 15.5t3.5 27h-94zM190 624l-31 -59h-113l73 135h142l73 -135h-113z" />
    <glyph glyph-name="Ydieresis" unicode="&#x178;" horiz-adv-x="392" 
d="M199 482l50 218h145l-123 -465v-235h-151v235l-121 465h157zM183 727h-121v129h121v-129zM330 727h-121v129h121v-129z" />
    <glyph glyph-name="Zacute" unicode="&#x179;" horiz-adv-x="316" 
d="M11 564v136h296v-101l-142 -463h142v-136h-300v101l146 463h-142zM162 721h-111l61 135h151z" />
    <glyph glyph-name="zacute" unicode="&#x17a;" horiz-adv-x="333" 
d="M321 124v-124h-308v94l154 326h-156v124h310v-97l-152 -323h152zM171 565h-111l61 135h151z" />
    <glyph glyph-name="Zdotaccent" unicode="&#x17b;" horiz-adv-x="316" 
d="M11 564v136h296v-101l-142 -463h142v-136h-300v101l146 463h-142zM232 727h-151v149h151v-149z" />
    <glyph glyph-name="zdotaccent" unicode="&#x17c;" horiz-adv-x="333" 
d="M321 124v-124h-308v94l154 326h-156v124h310v-97l-152 -323h152zM241 571h-151v149h151v-149z" />
    <glyph glyph-name="Zcaron" unicode="&#x17d;" horiz-adv-x="316" 
d="M11 564v136h296v-101l-142 -463h142v-136h-300v101l146 463h-142zM188 856h113l-73 -135h-142l-73 135h113l31 -59z" />
    <glyph glyph-name="zcaron" unicode="&#x17e;" horiz-adv-x="333" 
d="M321 124v-124h-308v94l154 326h-156v124h310v-97l-152 -323h152zM197 700h113l-73 -135h-142l-73 135h113l31 -59z" />
    <glyph glyph-name="longs" unicode="&#x17f;" horiz-adv-x="233" 
d="M212 0h-146v430h-59v114h59v79q0 49 29 78t78 29h107v-128h-55q-13 0 -13 -13v-589z" />
    <glyph glyph-name="florin" unicode="&#x192;" horiz-adv-x="366" 
d="M256 -54q0 -22 -8.5 -41.5t-23 -34t-34 -23t-41.5 -8.5h-134v128h82q13 0 13 13v263h-77v104h77v276q0 22 8.5 41.5t23 34t34 23t41.5 8.5h134v-128h-82q-13 0 -13 -13v-242h75v-104h-75v-297z" />
    <glyph glyph-name="Scommaaccent" unicode="&#x218;" horiz-adv-x="389" 
d="M73 358q-31 23 -44.5 54.5t-13.5 76.5v104q0 22 8.5 41.5t23 34t34 23t41.5 8.5h146q22 0 41.5 -8.5t34 -23t23 -34t8.5 -41.5v-94l-151 -18v70q0 13 -13 13h-32q-13 0 -13 -13v-27q0 -30 6.5 -40.5t20.5 -21.5l111 -89q38 -30 54.5 -63t16.5 -80v-123q0 -22 -8.5 -41.5
t-23 -34t-34 -23t-41.5 -8.5h-146q-22 0 -41.5 8.5t-34 23t-23 34t-8.5 41.5v120l151 17v-95q0 -13 13 -13h32q13 0 13 13v34q0 20 -1 32.5t-5.5 22t-12.5 17.5t-22 19zM278 -186q0 -38 -6 -62.5t-20 -38t-35.5 -18.5t-53.5 -5h-47v79h22q14 0 22 5t8 24v9h-52v160h162v-153
z" />
    <glyph glyph-name="scommaaccent" unicode="&#x219;" horiz-adv-x="377" 
d="M363 107q0 -22 -8.5 -41.5t-23 -34t-34 -23t-41.5 -8.5h-134q-22 0 -41.5 8.5t-34 23t-23 34t-8.5 41.5v61l146 16v-40q0 -13 13 -13h32q13 0 13 13v5q0 17 -6 24t-23 15l-124 64q-32 17 -42.5 46.5t-10.5 67.5v71q0 22 8.5 41.5t23 34t34 23t41.5 8.5h136
q22 0 41.5 -8.5t34 -23t23 -34t8.5 -41.5v-66l-146 -13v42q0 13 -13 13h-32q-13 0 -13 -13v-5q0 -16 5 -22.5t20 -14.5l127 -69q20 -11 36 -31.5t16 -57.5v-93zM269 -186q0 -38 -6 -62.5t-20 -38t-35.5 -18.5t-53.5 -5h-47v79h22q14 0 22 5t8 24v9h-52v160h162v-153z" />
    <glyph glyph-name="uni021A" unicode="&#x21a;" horiz-adv-x="343" 
d="M247 0h-151v564h-88v136h327v-136h-88v-564zM252 -186q0 -38 -6 -62.5t-20 -38t-35.5 -18.5t-53.5 -5h-47v79h22q14 0 22 5t8 24v9h-52v160h162v-153z" />
    <glyph glyph-name="uni021B" unicode="&#x21b;" horiz-adv-x="286" 
d="M278 544v-114h-62v-430h-146v430h-62v114h62v140h146v-140h62zM224 -186q0 -38 -6 -62.5t-20 -38t-35.5 -18.5t-53.5 -5h-47v79h22q14 0 22 5t8 24v9h-52v160h162v-153z" />
    <glyph glyph-name="dotlessj" unicode="&#x237;" horiz-adv-x="188" 
d="M167 -52q0 -18 -6 -37.5t-18.5 -35t-33 -25.5t-49.5 -10h-58l-9 111h15q13 0 13 13v580h146v-596z" />
    <glyph glyph-name="apostrophe" unicode="&#x2bc;" horiz-adv-x="201" 
d="M183 534q0 -38 -6 -62.5t-20 -38t-35.5 -18.5t-53.5 -5h-47v79h22q14 0 22 5t8 24v22h-52v160h162v-166z" />
    <glyph glyph-name="circumflex" unicode="&#x2c6;" horiz-adv-x="308" 
d="M154 624l-31 -59h-113l73 135h142l73 -135h-113z" />
    <glyph glyph-name="caron" unicode="&#x2c7;" horiz-adv-x="308" 
d="M185 700h113l-73 -135h-142l-73 135h113l31 -59z" />
    <glyph glyph-name="uni02C9" unicode="&#x2c9;" horiz-adv-x="282" 
d="M20 687h242v-97h-242v97z" />
    <glyph glyph-name="breve" unicode="&#x2d8;" horiz-adv-x="276" 
d="M105 700v-15q0 -22 11.5 -26t19.5 -4h4q8 0 19.5 4t11.5 26v15h85v-42q0 -45 -28 -69t-79 -24h-22q-51 0 -79 24t-28 69v42h85z" />
    <glyph glyph-name="dotaccent" unicode="&#x2d9;" horiz-adv-x="191" 
d="M171 571h-151v149h151v-149z" />
    <glyph glyph-name="ring" unicode="&#x2da;" horiz-adv-x="271" 
d="M251 662q0 -45 -26 -71t-71 -26h-37q-45 0 -71 26t-26 71v45q0 45 26 71t71 26h37q45 0 71 -26t26 -71v-45zM99 667q0 -15 8 -23t21 -8h15q13 0 21 8t8 23v35q0 15 -8 23t-21 8h-15q-13 0 -21 -8t-8 -23v-35z" />
    <glyph glyph-name="ogonek" unicode="&#x2db;" horiz-adv-x="217" 
d="M160 1l-20 -29q-10 -15 -14 -25t-4 -25v-24h75v-100h-104q-32 0 -52.5 14.5t-20.5 55.5v21q0 26 7 44.5t21 33.5l63 70l49 -11v-25z" />
    <glyph glyph-name="tilde" unicode="&#x2dc;" horiz-adv-x="318" 
d="M223 574q-14 0 -29.5 3.5t-29.5 8t-24.5 8t-15.5 3.5q-8 0 -10.5 -4.5t-2.5 -7.5v-11h-91v51q0 28 17 51.5t58 23.5q14 0 29 -3.5t28.5 -8t24.5 -8t17 -3.5q8 0 10.5 4t2.5 8v11h91v-51q0 -28 -17 -51.5t-58 -23.5z" />
    <glyph glyph-name="hungarumlaut" unicode="&#x2dd;" horiz-adv-x="414" 
d="M131 565h-111l61 135h151zM293 565h-111l61 135h151z" />
    <glyph glyph-name="pi" unicode="&#x3c0;" horiz-adv-x="436" 
d="M430 427h-37v-427h-146v427h-58v-427h-146v427h-37v117h424v-117z" />
    <glyph glyph-name="Wgrave" unicode="&#x1e80;" horiz-adv-x="567" 
d="M416 700h145l-67 -700h-181l-27 353l-28 -353h-187l-62 700h150l34 -476l49 476h92l43 -476zM179 856h151l61 -135h-111z" />
    <glyph glyph-name="wgrave" unicode="&#x1e81;" horiz-adv-x="562" 
d="M409 544h144l-50 -544h-187l-36 298l-34 -298h-189l-47 544h147l23 -410l58 410h92l54 -410zM175 700h151l61 -135h-111z" />
    <glyph glyph-name="Wacute" unicode="&#x1e82;" horiz-adv-x="567" 
d="M416 700h145l-67 -700h-181l-27 353l-28 -353h-187l-62 700h150l34 -476l49 476h92l43 -476zM290 721h-111l61 135h151z" />
    <glyph glyph-name="wacute" unicode="&#x1e83;" horiz-adv-x="562" 
d="M409 544h144l-50 -544h-187l-36 298l-34 -298h-189l-47 544h147l23 -410l58 410h92l54 -410zM286 565h-111l61 135h151z" />
    <glyph glyph-name="Wdieresis" unicode="&#x1e84;" horiz-adv-x="567" 
d="M416 700h145l-67 -700h-181l-27 353l-28 -353h-187l-62 700h150l34 -476l49 476h92l43 -476zM272 727h-121v129h121v-129zM419 727h-121v129h121v-129z" />
    <glyph glyph-name="wdieresis" unicode="&#x1e85;" horiz-adv-x="562" 
d="M409 544h144l-50 -544h-187l-36 298l-34 -298h-189l-47 544h147l23 -410l58 410h92l54 -410zM268 571h-121v129h121v-129zM415 571h-121v129h121v-129z" />
    <glyph glyph-name="Ygrave" unicode="&#x1ef2;" horiz-adv-x="392" 
d="M199 482l50 218h145l-123 -465v-235h-151v235l-121 465h157zM90 856h151l61 -135h-111z" />
    <glyph glyph-name="ygrave" unicode="&#x1ef3;" horiz-adv-x="377" 
d="M10 544h149l32 -420l29 420h150l-72 -598q-3 -28 -10 -49.5t-22 -36.5t-40 -22.5t-64 -7.5h-120v118h59q20 0 32.5 2t19 7.5t9 15.5t3.5 27h-94zM84 700h151l61 -135h-111z" />
    <glyph glyph-name="endash" unicode="&#x2013;" horiz-adv-x="480" 
d="M20 428h440v-131h-440v131z" />
    <glyph glyph-name="emdash" unicode="&#x2014;" horiz-adv-x="980" 
d="M20 428h940v-131h-940v131z" />
    <glyph glyph-name="quoteleft" unicode="&#x2018;" horiz-adv-x="202" 
d="M19 576q0 38 6 62.5t20 38t36 18.5t53 5h47v-79h-22q-14 0 -22 -5t-8 -24v-22h52v-160h-162v166z" />
    <glyph glyph-name="quoteright" unicode="&#x2019;" horiz-adv-x="201" 
d="M183 534q0 -38 -6 -62.5t-20 -38t-35.5 -18.5t-53.5 -5h-47v79h22q14 0 22 5t8 24v22h-52v160h162v-166z" />
    <glyph glyph-name="quotesinglbase" unicode="&#x201a;" horiz-adv-x="192" 
d="M172 -6q0 -38 -6 -62.5t-20 -38t-35.5 -18.5t-53.5 -5h-37v79h22q14 0 22 5t8 24v22h-52v160h152v-166z" />
    <glyph glyph-name="quotedblleft" unicode="&#x201c;" horiz-adv-x="404" 
d="M221 576q0 38 6 62.5t20 38t36 18.5t53 5h47v-79h-22q-14 0 -22 -5t-8 -24v-22h52v-160h-162v166zM19 576q0 38 6 62.5t20 38t36 18.5t53 5h47v-79h-22q-14 0 -22 -5t-8 -24v-22h52v-160h-162v166z" />
    <glyph glyph-name="quotedblright" unicode="&#x201d;" horiz-adv-x="403" 
d="M183 534q0 -38 -6 -62.5t-20 -38t-35.5 -18.5t-53.5 -5h-47v79h22q14 0 22 5t8 24v22h-52v160h162v-166zM385 534q0 -38 -6 -62.5t-20 -38t-35.5 -18.5t-53.5 -5h-47v79h22q14 0 22 5t8 24v22h-52v160h162v-166z" />
    <glyph glyph-name="quotedblbase" unicode="&#x201e;" horiz-adv-x="384" 
d="M172 -6q0 -38 -6 -62.5t-20 -38t-35.5 -18.5t-53.5 -5h-37v79h22q14 0 22 5t8 24v22h-52v160h152v-166zM364 -6q0 -38 -6 -62.5t-20 -38t-35.5 -18.5t-53.5 -5h-37v79h22q14 0 22 5t8 24v22h-52v160h152v-166z" />
    <glyph glyph-name="dagger" unicode="&#x2020;" horiz-adv-x="395" 
d="M15 544h107v156h151v-156h107v-136h-107v-408h-151v408h-107v136z" />
    <glyph glyph-name="daggerdbl" unicode="&#x2021;" horiz-adv-x="401" 
d="M18 292h107v116h-107v136h107v156h151v-156h107v-136h-107v-116h107v-136h-107v-156h-151v156h-107v136z" />
    <glyph glyph-name="bullet" unicode="&#x2022;" horiz-adv-x="342" 
d="M306 322q0 -22 -8.5 -41.5t-23 -34t-34 -23t-41.5 -8.5h-56q-22 0 -41.5 8.5t-34 23t-23 34t-8.5 41.5v65q0 22 8.5 41.5t23 34t34 23t41.5 8.5h56q22 0 41.5 -8.5t34 -23t23 -34t8.5 -41.5v-65z" />
    <glyph glyph-name="ellipsis" unicode="&#x2026;" horiz-adv-x="606" 
d="M182 0h-162v160h162v-160zM384 0h-162v160h162v-160zM586 0h-162v160h162v-160z" />
    <glyph glyph-name="perthousand" unicode="&#x2030;" horiz-adv-x="1014" 
d="M679 107q0 -22 -8.5 -41.5t-23 -34t-34 -23t-41.5 -8.5h-86q-22 0 -41.5 8.5t-34 23t-23 34t-8.5 41.5v164q0 22 8.5 41.5t23 34t34 23t41.5 8.5h86q22 0 41.5 -8.5t34 -23t23 -34t8.5 -41.5v-164zM500 129q0 -11 7 -17t16 -6h12q9 0 16 6t7 17v120q0 11 -7 17t-16 6h-12
q-9 0 -16 -6t-7 -17v-120zM315 429q0 -22 -8.5 -41.5t-23 -34t-34 -23t-41.5 -8.5h-86q-22 0 -41.5 8.5t-34 23t-23 34t-8.5 41.5v164q0 22 8.5 41.5t23 34t34 23t41.5 8.5h86q22 0 41.5 -8.5t34 -23t23 -34t8.5 -41.5v-164zM136 451q0 -11 7 -17t16 -6h12q9 0 16 6t7 17
v120q0 11 -7 17t-16 6h-12q-9 0 -16 -6t-7 -17v-120zM178 0h-51l392 700h50zM999 107q0 -22 -8.5 -41.5t-23 -34t-34 -23t-41.5 -8.5h-86q-22 0 -41.5 8.5t-34 23t-23 34t-8.5 41.5v164q0 22 8.5 41.5t23 34t34 23t41.5 8.5h86q22 0 41.5 -8.5t34 -23t23 -34t8.5 -41.5v-164
zM820 129q0 -11 7 -17t16 -6h12q9 0 16 6t7 17v120q0 11 -7 17t-16 6h-12q-9 0 -16 -6t-7 -17v-120z" />
    <glyph glyph-name="guilsinglleft" unicode="&#x2039;" horiz-adv-x="339" 
d="M163 544h160l-151 -272l151 -272h-160l-151 272z" />
    <glyph glyph-name="guilsinglright" unicode="&#x203a;" horiz-adv-x="339" 
d="M327 272l-151 -272h-160l151 272l-151 272h160z" />
    <glyph glyph-name="fraction" unicode="&#x2044;" horiz-adv-x="0" 
 />
    <glyph glyph-name="zerosuperior" unicode="&#x2070;" 
d="M289 335q0 -40 -27 -65t-65 -25h-74q-38 0 -65 25t-27 65v276q0 40 27 64.5t65 24.5h74q38 0 65 -24.5t27 -64.5v-276zM181 589q0 23 -20 23h-2q-20 0 -20 -23v-232q0 -23 20 -23h2q20 0 20 23v232z" />
    <glyph glyph-name="foursuperior" unicode="&#x2074;" 
d="M292 351h-31v-106h-108v106h-125v104l121 245h112v-261h31v-88zM153 567l-61 -128h61v128z" />
    <glyph glyph-name="fivesuperior" unicode="&#x2075;" 
d="M47 700h241v-88h-147l-4 -69q7 4 16 8q8 3 19.5 5.5t26.5 2.5q43 0 65.5 -20t22.5 -49v-175q0 -29 -22 -49.5t-54 -20.5h-105q-32 0 -54.5 20.5t-22.5 49.5v75l108 12v-60q0 -8 10 -8h23q3 0 6 2.5t3 5.5v121q0 4 -3 6t-6 2h-23q-7 0 -9 -7l-4 -22l-103 4z" />
    <glyph glyph-name="sixsuperior" unicode="&#x2076;" 
d="M199 529q45 0 68.5 -21.5t23.5 -65.5v-127q0 -29 -22.5 -49.5t-54.5 -20.5h-104q-32 0 -54.5 20.5t-22.5 49.5v316q0 29 22.5 49t54.5 20h104q32 0 54.5 -20t22.5 -49v-72l-108 -11v69q0 8 -10 8h-22q-10 0 -10 -8v-106q1 1 16.5 9.5t41.5 8.5zM173 321q10 0 10 8v113
q0 8 -10 8h-22q-8 0 -10 -7v-114q0 -8 10 -8h22z" />
    <glyph glyph-name="sevensuperior" unicode="&#x2077;" 
d="M281 598l-17 -31q-13 -24 -23 -45t-17 -46.5t-10.5 -58.5t-3.5 -81v-91h-124v62q0 52 7 88t19.5 66.5t30.5 61.5t39 73h-141v104h240v-102z" />
    <glyph glyph-name="eightsuperior" unicode="&#x2078;" 
d="M171 515q10 0 10 9v93q0 8 -10 8h-22q-10 0 -10 -8v-93q0 -9 10 -9h22zM31 631q0 29 22.5 49t54.5 20h104q32 0 54.5 -20t22.5 -49v-100q0 -14 -8.5 -30t-33.5 -23q25 -8 33.5 -24t8.5 -29v-110q0 -29 -22.5 -49.5t-54.5 -20.5h-104q-32 0 -54.5 20.5t-22.5 49.5v110
q0 13 8.5 29t33.5 24q-25 7 -33.5 23t-8.5 30v100zM149 440q-10 0 -10 -9v-102q0 -8 10 -8h22q10 0 10 8v102q0 9 -10 9h-22z" />
    <glyph glyph-name="ninesuperior" unicode="&#x2079;" 
d="M120 417q-45 0 -68.5 21.5t-23.5 65.5v127q0 29 22.5 49t54.5 20h104q32 0 54.5 -20t22.5 -49v-316q0 -29 -22.5 -49.5t-54.5 -20.5h-104q-32 0 -54.5 20.5t-22.5 49.5v72l108 11v-69q0 -8 10 -8h22q10 0 10 8v106q-1 -1 -16.5 -9.5t-41.5 -8.5zM146 625q-10 0 -10 -8
v-113q0 -8 10 -8h22q8 0 10 7v114q0 8 -10 8h-22z" />
    <glyph glyph-name="zeroinferior" unicode="&#x2080;" 
d="M289 90q0 -40 -27 -65t-65 -25h-74q-38 0 -65 25t-27 65v276q0 40 27 64.5t65 24.5h74q38 0 65 -24.5t27 -64.5v-276zM181 344q0 23 -20 23h-2q-20 0 -20 -23v-232q0 -23 20 -23h2q20 0 20 23v232z" />
    <glyph glyph-name="oneinferior" unicode="&#x2081;" 
d="M219 455v-366h62v-89h-231v89h60v214h-62v91h21q24 0 33.5 10.5t9.5 32.5v18h107z" />
    <glyph glyph-name="twoinferior" unicode="&#x2082;" 
d="M158 128q-9 -9 -13 -15.5t-3 -15.5v-8h144v-89h-252v105q0 43 25 68l100 101q11 12 17 23t6 28v34q0 8 -10 8h-22q-10 0 -10 -8v-66l-108 12v81q0 29 22.5 49t54.5 20h104q32 0 54.5 -20t22.5 -49v-71q0 -29 -8.5 -49.5t-31.5 -43.5z" />
    <glyph glyph-name="threeinferior" unicode="&#x2083;" 
d="M121 186v88h48q10 0 10 9v76q0 8 -10 8h-22q-10 0 -10 -8v-60l-108 12v75q0 29 22.5 49t54.5 20h104q32 0 54.5 -20t22.5 -49v-100q0 -14 -8.5 -30t-33.5 -23q25 -8 33.5 -24t8.5 -29v-110q0 -29 -22.5 -49.5t-54.5 -20.5h-104q-32 0 -54.5 20.5t-22.5 49.5v75l108 12
v-60q0 -8 10 -8h22q10 0 10 8v80q0 9 -10 9h-48z" />
    <glyph glyph-name="fourinferior" unicode="&#x2084;" 
d="M292 106h-31v-106h-108v106h-125v104l121 245h112v-261h31v-88zM153 322l-61 -128h61v128z" />
    <glyph glyph-name="fiveinferior" unicode="&#x2085;" 
d="M46 455h241v-88h-147l-4 -69q7 4 16 8q8 3 19.5 5.5t26.5 2.5q43 0 65.5 -20t22.5 -49v-175q0 -29 -22 -49.5t-54 -20.5h-105q-32 0 -54.5 20.5t-22.5 49.5v75l108 12v-60q0 -8 10 -8h23q3 0 6 2.5t3 5.5v121q0 4 -3 6t-6 2h-23q-7 0 -9 -7l-4 -22l-103 4z" />
    <glyph glyph-name="sixinferior" unicode="&#x2086;" 
d="M198 284q45 0 68.5 -21.5t23.5 -65.5v-127q0 -29 -22.5 -49.5t-54.5 -20.5h-104q-32 0 -54.5 20.5t-22.5 49.5v316q0 29 22.5 49t54.5 20h104q32 0 54.5 -20t22.5 -49v-72l-108 -11v69q0 8 -10 8h-22q-10 0 -10 -8v-106q1 1 16.5 9.5t41.5 8.5zM172 76q10 0 10 8v113
q0 8 -10 8h-22q-8 0 -10 -7v-114q0 -8 10 -8h22z" />
    <glyph glyph-name="seveninferior" unicode="&#x2087;" 
d="M281 353l-17 -31q-13 -24 -23 -45t-17 -46.5t-10.5 -58.5t-3.5 -81v-91h-124v62q0 52 7 88t19.5 66.5t30.5 61.5t39 73h-141v104h240v-102z" />
    <glyph glyph-name="eightinferior" unicode="&#x2088;" 
d="M171 270q10 0 10 9v93q0 8 -10 8h-22q-10 0 -10 -8v-93q0 -9 10 -9h22zM31 386q0 29 22.5 49t54.5 20h104q32 0 54.5 -20t22.5 -49v-100q0 -14 -8.5 -30t-33.5 -23q25 -8 33.5 -24t8.5 -29v-110q0 -29 -22.5 -49.5t-54.5 -20.5h-104q-32 0 -54.5 20.5t-22.5 49.5v110
q0 13 8.5 29t33.5 24q-25 7 -33.5 23t-8.5 30v100zM149 195q-10 0 -10 -9v-102q0 -8 10 -8h22q10 0 10 8v102q0 9 -10 9h-22z" />
    <glyph glyph-name="nineinferior" unicode="&#x2089;" 
d="M122 172q-45 0 -68.5 21.5t-23.5 65.5v127q0 29 22.5 49t54.5 20h104q32 0 54.5 -20t22.5 -49v-316q0 -29 -22.5 -49.5t-54.5 -20.5h-104q-32 0 -54.5 20.5t-22.5 49.5v72l108 11v-69q0 -8 10 -8h22q10 0 10 8v106q-1 -1 -16.5 -9.5t-41.5 -8.5zM148 380q-10 0 -10 -8
v-113q0 -8 10 -8h22q8 0 10 7v114q0 8 -10 8h-22z" />
    <glyph glyph-name="Euro" unicode="&#x20ac;" horiz-adv-x="435" 
d="M16 451h40v142q0 22 8.5 41.5t23 34t34 23t41.5 8.5h146q22 0 41.5 -8.5t34 -23t23 -34t8.5 -41.5v-90l-151 -18v66q0 13 -13 13h-32q-13 0 -13 -13v-100h173v-73h-173v-40h173v-73h-173v-116q0 -13 13 -13h32q13 0 13 13v82l151 -18v-106q0 -22 -8.5 -41.5t-23 -34
t-34 -23t-41.5 -8.5h-146q-22 0 -41.5 8.5t-34 23t-23 34t-8.5 41.5v158h-40v73h40v40h-40v73z" />
    <glyph glyph-name="afii61289" unicode="&#x2113;" horiz-adv-x="395" 
d="M5 302l45 18v199q0 48 14 82.5t37.5 56.5t53 32t59.5 10q48 0 80 -17t51 -42.5t27 -56t8 -58.5q0 -90 -46 -163.5t-136 -120.5v-46q0 -29 12 -44t32 -15q19 0 32 14t21 40l102 -75q-4 -18 -17 -38.5t-35 -37.5t-52.5 -28.5t-70.5 -11.5q-35 0 -66.5 10t-55 31t-37 52.5
t-13.5 74.5v11l-45 -19v142zM219 569q-14 0 -17.5 -13t-3.5 -42v-105q26 23 33.5 56.5t7.5 59.5q0 20 -4.5 32t-15.5 12z" />
    <glyph glyph-name="trademark" unicode="&#x2122;" horiz-adv-x="889" 
d="M275 220h-141v364h-98v116h337v-116h-98v-364zM691 700h171v-480h-141v267l-44 -164h-90l-46 164v-267h-138v480h174l57 -212z" />
    <glyph glyph-name="Omega" unicode="&#x2126;" horiz-adv-x="513" 
d="M387 700q22 0 41.5 -8.5t34 -23t23 -34t8.5 -41.5v-224q0 -40 -13 -61t-28.5 -34.5t-28.5 -26t-13 -36.5v-75h83v-136h-224v243q0 41 11.5 62.5t25 34.5t25 22.5t11.5 25.5v163q0 13 -13 13h-147q-13 0 -13 -13v-163q0 -16 11.5 -25.5t25 -22.5t25 -34.5t11.5 -62.5v-243
h-224v136h83v75q0 24 -13 36.5t-28.5 26t-28.5 34.5t-13 61v224q0 22 8.5 41.5t23 34t34 23t41.5 8.5h261z" />
    <glyph glyph-name="estimated" unicode="&#x212e;" horiz-adv-x="862" 
d="M200 324v-164q0 -23 19 -44.5t52 -38t78 -26t97 -9.5q87 0 157.5 34t105.5 94h93q-25 -40 -61 -75t-81.5 -61t-100 -41t-116.5 -15q-101 0 -181 29.5t-135.5 80.5t-84.5 119.5t-29 146.5t32.5 145.5t89.5 117.5t134 79t165 29q85 0 159 -29t129.5 -82t89 -127t37.5 -163
h-649zM434 665q-29 0 -61 -5t-62 -15t-55.5 -26t-43.5 -38q-5 -6 -8.5 -16.5t-3.5 -15.5v-164h462v164q0 7 -3.5 16.5t-8.5 15.5q-18 22 -43 37.5t-53.5 26t-59.5 15.5t-60 5z" />
    <glyph glyph-name="onethird" unicode="&#x2153;" horiz-adv-x="620" 
d="M418 186v88h48q10 0 10 9v76q0 8 -10 8h-22q-10 0 -10 -8v-60l-108 12v75q0 29 22.5 49t54.5 20h104q32 0 54.5 -20t22.5 -49v-100q0 -14 -8.5 -30t-33.5 -23q25 -8 33.5 -24t8.5 -29v-110q0 -29 -22.5 -49.5t-54.5 -20.5h-104q-32 0 -54.5 20.5t-22.5 49.5v75l108 12
v-60q0 -8 10 -8h22q10 0 10 8v80q0 9 -10 9h-48zM217 700v-366h62v-89h-231v89h60v214h-62v91h21q24 0 33.5 10.5t9.5 32.5v18h107z" />
    <glyph glyph-name="twothirds" unicode="&#x2154;" horiz-adv-x="620" 
d="M162 373q-9 -9 -13 -15.5t-3 -15.5v-8h144v-89h-252v105q0 43 25 68l100 101q11 12 17 23t6 28v34q0 8 -10 8h-22q-10 0 -10 -8v-66l-108 12v81q0 29 22.5 49t54.5 20h104q32 0 54.5 -20t22.5 -49v-71q0 -29 -8.5 -49.5t-31.5 -43.5zM418 186v88h48q10 0 10 9v76
q0 8 -10 8h-22q-10 0 -10 -8v-60l-108 12v75q0 29 22.5 49t54.5 20h104q32 0 54.5 -20t22.5 -49v-100q0 -14 -8.5 -30t-33.5 -23q25 -8 33.5 -24t8.5 -29v-110q0 -29 -22.5 -49.5t-54.5 -20.5h-104q-32 0 -54.5 20.5t-22.5 49.5v75l108 12v-60q0 -8 10 -8h22q10 0 10 8v80
q0 9 -10 9h-48z" />
    <glyph glyph-name="oneeighth" unicode="&#x215b;" horiz-adv-x="620" 
d="M325 386q0 29 22.5 49t54.5 20h104q32 0 54.5 -20t22.5 -49v-100q0 -14 -8.5 -30t-33.5 -23q25 -8 33.5 -24t8.5 -29v-110q0 -29 -22.5 -49.5t-54.5 -20.5h-104q-32 0 -54.5 20.5t-22.5 49.5v110q0 13 8.5 29t33.5 24q-25 7 -33.5 23t-8.5 30v100zM217 700v-366h62v-89
h-231v89h60v214h-62v91h21q24 0 33.5 10.5t9.5 32.5v18h107zM443 195q-10 0 -10 -9v-102q0 -8 10 -8h22q10 0 10 8v102q0 9 -10 9h-22zM465 270q10 0 10 9v93q0 8 -10 8h-22q-10 0 -10 -8v-93q0 -9 10 -9h22z" />
    <glyph glyph-name="threeeighths" unicode="&#x215c;" horiz-adv-x="620" 
d="M130 431v88h48q10 0 10 9v76q0 8 -10 8h-22q-10 0 -10 -8v-60l-108 12v75q0 29 22.5 49t54.5 20h104q32 0 54.5 -20t22.5 -49v-100q0 -14 -8.5 -30t-33.5 -23q25 -8 33.5 -24t8.5 -29v-110q0 -29 -22.5 -49.5t-54.5 -20.5h-104q-32 0 -54.5 20.5t-22.5 49.5v75l108 12
v-60q0 -8 10 -8h22q10 0 10 8v80q0 9 -10 9h-48zM465 270q10 0 10 9v93q0 8 -10 8h-22q-10 0 -10 -8v-93q0 -9 10 -9h22zM325 386q0 29 22.5 49t54.5 20h104q32 0 54.5 -20t22.5 -49v-100q0 -14 -8.5 -30t-33.5 -23q25 -8 33.5 -24t8.5 -29v-110q0 -29 -22.5 -49.5
t-54.5 -20.5h-104q-32 0 -54.5 20.5t-22.5 49.5v110q0 13 8.5 29t33.5 24q-25 7 -33.5 23t-8.5 30v100zM443 195q-10 0 -10 -9v-102q0 -8 10 -8h22q10 0 10 8v102q0 9 -10 9h-22z" />
    <glyph glyph-name="fiveeighths" unicode="&#x215d;" horiz-adv-x="620" 
d="M325 386q0 29 22.5 49t54.5 20h104q32 0 54.5 -20t22.5 -49v-100q0 -14 -8.5 -30t-33.5 -23q25 -8 33.5 -24t8.5 -29v-110q0 -29 -22.5 -49.5t-54.5 -20.5h-104q-32 0 -54.5 20.5t-22.5 49.5v110q0 13 8.5 29t33.5 24q-25 7 -33.5 23t-8.5 30v100zM56 700h241v-88h-147
l-4 -69q7 4 16 8q8 3 19.5 5.5t26.5 2.5q43 0 65.5 -20t22.5 -49v-175q0 -29 -22 -49.5t-54 -20.5h-105q-32 0 -54.5 20.5t-22.5 49.5v75l108 12v-60q0 -8 10 -8h23q3 0 6 2.5t3 5.5v121q0 4 -3 6t-6 2h-23q-7 0 -9 -7l-4 -22l-103 4zM443 195q-10 0 -10 -9v-102q0 -8 10 -8
h22q10 0 10 8v102q0 9 -10 9h-22zM465 270q10 0 10 9v93q0 8 -10 8h-22q-10 0 -10 -8v-93q0 -9 10 -9h22z" />
    <glyph glyph-name="seveneighths" unicode="&#x215e;" horiz-adv-x="620" 
d="M285 598l-17 -31q-13 -24 -23 -45t-17 -46.5t-10.5 -58.5t-3.5 -81v-91h-124v62q0 52 7 88t19.5 66.5t30.5 61.5t39 73h-141v104h240v-102zM465 270q10 0 10 9v93q0 8 -10 8h-22q-10 0 -10 -8v-93q0 -9 10 -9h22zM325 386q0 29 22.5 49t54.5 20h104q32 0 54.5 -20
t22.5 -49v-100q0 -14 -8.5 -30t-33.5 -23q25 -8 33.5 -24t8.5 -29v-110q0 -29 -22.5 -49.5t-54.5 -20.5h-104q-32 0 -54.5 20.5t-22.5 49.5v110q0 13 8.5 29t33.5 24q-25 7 -33.5 23t-8.5 30v100zM443 195q-10 0 -10 -9v-102q0 -8 10 -8h22q10 0 10 8v102q0 9 -10 9h-22z
" />
    <glyph glyph-name="partialdiff" unicode="&#x2202;" horiz-adv-x="387" 
d="M277 735q11 -13 26.5 -36.5t29.5 -55t24 -71.5t10 -87v-378q0 -22 -8.5 -41.5t-23 -34t-34 -23t-41.5 -8.5h-136q-22 0 -41.5 8.5t-34 23t-23 34t-8.5 41.5v330q0 22 8.5 41.5t23 34t34 23t41.5 8.5h94q-2 15 -11 38t-22.5 49t-30.5 53t-36 51h159zM208 131q11 0 13 11
v260q-2 11 -13 11h-32q-13 0 -13 -13v-256q0 -13 13 -13h32z" />
    <glyph glyph-name="Delta" unicode="&#x2206;" horiz-adv-x="391" 
d="M376 0h-361v101l86 599h187l88 -599v-101zM192 460l-38 -344h80z" />
    <glyph glyph-name="product" unicode="&#x220f;" horiz-adv-x="486" 
d="M214 0h-151v564h-48v136h456v-136h-48v-564h-151v564h-58v-564z" />
    <glyph glyph-name="summation" unicode="&#x2211;" horiz-adv-x="386" 
d="M174 346l-157 227v127h350v-136h-175l134 -203v-25l-139 -200h180v-136h-350v121z" />
    <glyph glyph-name="minus" unicode="&#x2212;" horiz-adv-x="438" 
d="M20 406h398v-116h-398v116z" />
    <glyph glyph-name="uni2215" unicode="&#x2215;" horiz-adv-x="90" 
 />
    <glyph glyph-name="uni2219" unicode="&#x2219;" horiz-adv-x="201" 
d="M181 295h-161v159h161v-159z" />
    <glyph glyph-name="radical" unicode="&#x221a;" horiz-adv-x="422" 
d="M273 700h148l-118 -860h-225l-76 495h146l43 -325z" />
    <glyph glyph-name="infinity" unicode="&#x221e;" horiz-adv-x="620" 
d="M252 397q0 13 -13 13h-93q-13 0 -13 -13v-72q0 -13 13 -13h93q13 0 13 13v72zM310 250q-5 -18 -15 -29t-21.5 -18t-23.5 -9.5t-22 -2.5h-104q-22 0 -41.5 8.5t-34 23t-23 34t-8.5 41.5v126q0 22 8.5 41.5t23 34t34 23t41.5 8.5h104q10 0 22 -2.5t23.5 -9.5t21.5 -18
t15 -29q5 18 15 29t21.5 18t23.5 9.5t22 2.5h104q22 0 41.5 -8.5t34 -23t23 -34t8.5 -41.5v-126q0 -22 -8.5 -41.5t-23 -34t-34 -23t-41.5 -8.5h-104q-10 0 -22 2.5t-23.5 9.5t-21.5 18t-15 29zM368 325q0 -13 13 -13h93q13 0 13 13v72q0 13 -13 13h-93q-13 0 -13 -13v-72z
" />
    <glyph glyph-name="integral" unicode="&#x222b;" horiz-adv-x="348" 
d="M247 -54q0 -22 -8.5 -41.5t-23 -34t-34 -23t-41.5 -8.5h-134v128h82q13 0 13 13v643q0 22 8.5 41.5t23 34t34 23t41.5 8.5h134v-128h-82q-13 0 -13 -13v-643z" />
    <glyph glyph-name="approxequal" unicode="&#x2248;" horiz-adv-x="435" 
d="M325 372q-18 0 -44 4.5t-51.5 9.5t-46 9.5t-26.5 4.5q-10 0 -13 -5t-3 -10v-13h-122v65q0 17 5 33.5t16 29.5t28.5 21t42.5 8q18 0 43.5 -4.5t51 -9.5t46 -9.5t27.5 -4.5q10 0 13 5t3 10v13h122v-65q0 -17 -5 -33.5t-16 -29.5t-28.5 -21t-42.5 -8zM325 172q-18 0 -44 4.5
t-51.5 9.5t-46 9.5t-26.5 4.5q-10 0 -13 -5t-3 -10v-13h-122v65q0 17 5 33.5t16 29.5t28.5 21t42.5 8q18 0 43.5 -4.5t51 -9.5t46 -9.5t27.5 -4.5q10 0 13 5t3 10v13h122v-65q0 -17 -5 -33.5t-16 -29.5t-28.5 -21t-42.5 -8z" />
    <glyph glyph-name="notequal" unicode="&#x2260;" horiz-adv-x="432" 
d="M17 506h161l11 79h114l-11 -79h123v-116h-139l-11 -84h150v-116h-166l-10 -78h-113l10 78h-119v116h135l11 84h-146v116z" />
    <glyph glyph-name="lessequal" unicode="&#x2264;" horiz-adv-x="395" 
d="M15 388l189 193h176l-194 -198l194 -208h-176l-189 201v12zM370 0h-347v115h347v-115z" />
    <glyph glyph-name="greaterequal" unicode="&#x2265;" horiz-adv-x="395" 
d="M25 115h347v-115h-347v115zM380 376l-189 -201h-176l194 208l-194 198h176l189 -193v-12z" />
    <glyph glyph-name="lozenge" unicode="&#x25ca;" horiz-adv-x="412" 
d="M254 270l-48 316l-48 -316l48 -316zM84 -160l-71 430l71 430h244l71 -430l-71 -430h-244z" />
    <glyph glyph-name="fi" unicode="&#xfb01;" horiz-adv-x="446" 
d="M7 544h59v79q0 49 29 78t78 29h252v-128h-200q-13 0 -13 -13v-45h213v-544h-146v430h-67v-430h-146v430h-59v114z" />
    <glyph glyph-name="fl" unicode="&#xfb02;" horiz-adv-x="446" 
d="M7 544h59v79q0 49 29 78t78 29h77v-128h-25q-13 0 -13 -13v-45h67v156h146v-700h-146v430h-67v-430h-146v430h-59v114z" />
    <glyph glyph-name="st" unicode="&#xfb06;" horiz-adv-x="671" 
d="M363 107q0 -22 -8.5 -41.5t-23 -34t-34 -23t-41.5 -8.5h-134q-22 0 -41.5 8.5t-34 23t-23 34t-8.5 41.5v61l146 16v-40q0 -13 13 -13h32q13 0 13 13v5q0 17 -6 24t-23 15l-124 64q-32 17 -42.5 46.5t-10.5 67.5v71q0 22 8.5 41.5t23 34t34 23t41.5 8.5h10v49q0 49 29 78
t78 29h364v-156h62v-114h-62v-430h-146v430h-62v114h62v42h-190q-13 0 -13 -13v-29h4q22 0 41.5 -8.5t34 -23t23 -34t8.5 -41.5v-66l-146 -13v42q0 13 -13 13h-32q-13 0 -13 -13v-5q0 -16 5 -22.5t20 -14.5l127 -69q20 -11 36 -31.5t16 -57.5v-93z" />
    <glyph glyph-name="Imacron" horiz-adv-x="195" 
d="M173 0h-151v700h151v-700zM-23 843h242v-97h-242v97z" />
    <glyph glyph-name="apple" horiz-adv-x="1209" 
d="M1058 734q48 -50 74.5 -118.5t26.5 -142.5q0 -110 -48.5 -208t-124.5 -179.5t-169.5 -144.5t-182.5 -103q-16 -8 -31 -8t-31 8q-93 42 -186.5 106.5t-168 146.5t-121 179.5t-46.5 204.5q0 75 27 143.5t75 118.5q46 47 106.5 70t128.5 23q67 0 122.5 -24t99.5 -62
q94 84 217 84q67 0 127 -23.5t105 -70.5zM1115 474q0 67 -24.5 128t-69.5 106q-82 79 -198 79q-66 0 -120.5 -24.5t-97.5 -62.5q-50 43 -105 65.5t-116 22.5q-114 0 -195 -78q-45 -45 -70 -106.5t-25 -130.5q0 -73 25 -141.5t65 -126.5q32 -48 74.5 -93t96.5 -87
q45 -36 87 -63.5t75 -46.5t54 -28.5t23 -10.5q9 -4 18 0q2 1 23 10.5t54.5 28.5t76 46t87.5 63q106 83 171 179q43 63 67 131.5t24 139.5zM823 751q103 0 172 -69q40 -39 61.5 -94t21.5 -115q0 -71 -24.5 -134t-59.5 -116q-62 -89 -164 -170q-38 -30 -75 -54.5t-67.5 -42.5
t-53 -30t-31.5 -16q-9 4 -31.5 16t-53 30t-67 43t-74.5 55q-103 82 -163 172q-39 57 -61 120.5t-22 127.5q0 61 22 116t62 94q71 68 172 68q57 0 105.5 -22.5t86.5 -54.5q-26 -28 -51 -61t-48 -74q-25 -45 -45.5 -90.5t-35.5 -88t-25.5 -78.5t-16.5 -62l-50 10q-7 2 -13 -2
t-8 -11t2 -12.5t12 -7.5l135 -29q7 -2 12.5 2t7.5 11q2 8 -2 13.5t-11 7.5l-48 10q5 21 13.5 51.5t21 66.5t28.5 76t37 80q25 -9 52.5 -14t56.5 -5q60 0 112 20q20 -39 36 -79t28 -76t20.5 -67t13.5 -54l-48 -10q-7 -2 -11 -7.5t-3 -12.5q2 -8 8 -12t13 -2l135 28
q7 2 11 7.5t2 12.5q-1 8 -7 12t-13 2l-49 -10q0 1 -0.5 1.5t-0.5 1.5q-6 26 -16.5 62t-25.5 78.5t-35 88.5t-46 91q-43 78 -95 131q42 36 90 56.5t101 20.5zM752 97q0 8 -5 13t-13 5h-179q26 14 56 32t56 41t43.5 52t17.5 64q0 23 -8 45t-23.5 39.5t-38.5 28.5t-53 11
q-27 0 -51 -8.5t-42 -23.5t-28 -36.5t-10 -47.5q0 -17 6 -33.5t17.5 -30t27.5 -21.5t36 -8q13 0 27 4t25 13t18.5 23t7.5 33q0 26 -13 35t-23 9q-14 0 -23.5 -9.5t-9.5 -22.5q0 -17 15 -27q2 -2 -2 -12t-24 -10q-23 0 -35 19.5t-12 38.5q0 36 25 58t66 22q43 0 64 -27.5
t21 -60.5q0 -22 -9.5 -42t-25.5 -37t-35 -32t-39 -28q-38 -24 -67.5 -38.5t-32.5 -17.5q-8 -10 -4 -20q5 -11 17 -11h241q19 0 19 18zM822 545q11 -22 35 -30q29 -8 55 7q26 14 35 40t-3 49l-33 67q-3 8 -11 9.5t-14 -1.5l-135 -74q-7 -4 -9 -11t2 -14t11 -9t14 2l27 15z
M996 492q-3 7 -10 10q-8 2 -14 -1l-129 -62q-16 -9 -9 -24l47 -105q7 -16 23 -9q8 3 10.5 10t-0.5 13l-40 90l33 15l15 -33q3 -7 10 -9.5t14 0.5q16 7 9 24l-15 34l31 15l32 -72q3 -7 10 -9.5t14 0.5t9.5 10t-0.5 14zM603 506q-48 0 -92 14q20 35 43.5 68.5t50.5 61.5
q25 -26 48 -59t45 -70q-43 -15 -95 -15zM259 575q-8 -2 -12 -8t-2 -14t8 -12t14 -2l104 23l9 -22q-7 -9 -7 -18q0 -11 7.5 -18.5t18.5 -7.5t17 8q8 7 7.5 16.5t-3.5 17.5l-63 159q-3 7 -9.5 10t-14.5 0q-7 -3 -10 -9.5t0 -14.5l34 -86zM231 412l114 -40q8 -3 14.5 0t8.5 11
q3 7 0 14t-11 9l-115 41l15 47q2 8 -1 14.5t-11 8.5q-7 2 -14 -1t-9 -11l-43 -132q-2 -7 1 -14t11 -9t14.5 1t8.5 11zM828 613l59 32l25 -50q6 -12 0 -24t-17 -18q-11 -5 -23 -4t-18 12zM571 3q0 -14 9 -23.5t23 -9.5t23 10t9 22q0 14 -9 23.5t-23 9.5t-23 -9.5t-9 -22.5z
M426 655q0 -14 9 -23.5t23 -9.5t23 10t9 22q0 14 -9 23.5t-23 9.5t-23 -9.5t-9 -22.5z" />
    <glyph glyph-name="arrow.down" horiz-adv-x="632" 
d="M20 269v29h211v131h-155v319q12 3 35 5t38 2q41 0 81.5 -12.5t59.5 -32.5v-96h52v96q18 21 58 32t82 11q14 0 37.5 -1.5t36.5 -3.5v-319h-155v-131h211v-29l-283 -326h-27z" />
    <glyph glyph-name="arrow.up" horiz-adv-x="632" 
d="M302 755h27l283 -326v-29h-211v-131h155v-319q-13 -2 -36.5 -3.5t-37.5 -1.5q-42 0 -82 11t-58 32v96h-52v-96q-19 -20 -59.5 -32.5t-81.5 -12.5q-15 0 -38 2t-35 5v319h155v131h-211v29z" />
    <glyph glyph-name="arrowdown.left" horiz-adv-x="788" 
d="M50 441l21 19l149 -149l93 93l-110 110l225 225q11 -6 28.5 -20.5t28.5 -25.5q29 -29 49 -66.5t19 -65.5l-68 -68l37 -37l68 68q28 2 64 -18.5t66 -49.5q10 -11 25 -28.5t23 -28.5l-225 -225l-110 110l-93 -93l149 -149l-19 -21l-431 -30l-19 19z" />
    <glyph glyph-name="arrowdown.right" horiz-adv-x="788" 
d="M768 10l-19 -19l-431 30l-19 21l149 149l-93 93l-110 -110l-225 225q7 11 22.5 28.5t25.5 28.5q30 29 66 49.5t64 18.5l68 -68l37 37l-68 68q-1 28 18.5 65.5t49.5 66.5q11 11 28 25.5t29 20.5l225 -225l-110 -110l93 -93l149 149l21 -19z" />
    <glyph glyph-name="arrowup.left" horiz-adv-x="788" 
d="M20 700l19 19l431 -30l19 -21l-149 -149l93 -93l110 110l225 -225q-8 -12 -23 -29t-25 -28q-30 -30 -66 -50t-64 -18l-68 68l-37 -37l68 -68q1 -28 -19 -65.5t-49 -66.5q-11 -11 -28.5 -25.5t-28.5 -20.5l-225 225l110 110l-93 93l-149 -149l-21 19z" />
    <glyph glyph-name="arrowup.right" horiz-adv-x="788" 
d="M738 269l-21 -19l-149 149l-93 -93l110 -110l-225 -225q-12 6 -29 20.5t-28 25.5q-30 29 -49.5 66.5t-18.5 65.5l68 68l-37 37l-68 -68q-28 -2 -64 18t-66 50q-10 11 -25.5 28t-22.5 29l225 225l110 -110l93 93l-149 149l19 21l431 30l19 -19z" />
    <glyph glyph-name="at.alt" horiz-adv-x="753" 
d="M548 186q39 0 53 25.5t14 57.5v316q0 38 -24.5 61.5t-62.5 23.5h-301q-38 0 -62.5 -23.5t-24.5 -61.5v-470q0 -39 24.5 -62.5t62.5 -23.5h457l-29 -106h-478q-34 0 -63 11.5t-50 32.5t-32.5 50t-11.5 63v540q0 35 11.5 63.5t32.5 49.5t50 32.5t63 11.5h402
q35 0 63.5 -11.5t49.5 -32.5t32.5 -49.5t11.5 -63.5v-386q0 -37 -13.5 -66t-36.5 -49.5t-53.5 -31t-65.5 -10.5h-154v34q-12 -13 -38 -23.5t-60 -10.5q-28 0 -49 9t-35 24t-21 34t-7 39v92q0 86 98 107l101 21v74q0 13 -13 13h-27q-13 0 -13 -13v-50l-141 18v69
q0 22 8.5 41.5t23 34t34 23t41.5 8.5h126q22 0 41.5 -8.5t34 -23t23 -34t8.5 -41.5v-328zM389 196q13 0 13 13v95l-39 -9q-14 -3 -14 -20v-66q0 -13 13 -13h27z" />
    <glyph glyph-name="commaaccent" horiz-adv-x="202" 
d="M182 -186q0 -38 -6 -62.5t-20 -38t-35.5 -18.5t-53.5 -5h-47v79h22q14 0 22 5t8 24v9h-52v160h162v-153z" />
    <glyph glyph-name="ct" horiz-adv-x="675" 
d="M367 107q0 -22 -8.5 -41.5t-23 -34t-34 -23t-41.5 -8.5h-136q-22 0 -41.5 8.5t-34 23t-23 34t-8.5 41.5v330q0 22 8.5 41.5t23 34t34 23t41.5 8.5h10v49q0 49 29 78t78 29h364v-156h62v-114h-62v-430h-146v430h-62v114h62v42h-190q-13 0 -13 -13v-29h4q22 0 41.5 -8.5
t34 -23t23 -34t8.5 -41.5v-76l-146 -26v65q0 13 -13 13h-32q-13 0 -13 -13v-256q0 -13 13 -13h32q13 0 13 13v82l146 -26v-93z" />
    <glyph glyph-name="eight.alt" horiz-adv-x="398" 
d="M215 415q13 0 13 13v143q0 13 -13 13h-32q-13 0 -13 -13v-143q0 -13 13 -13h32zM19 593q0 22 8.5 41.5t23 34t34 23t41.5 8.5h146q22 0 41.5 -8.5t34 -23t23 -34t8.5 -41.5v-154q0 -10 -2.5 -22t-9.5 -23.5t-18 -21.5t-29 -15q18 -5 29 -15t18 -21t9.5 -23t2.5 -22v-169
q0 -22 -8.5 -41.5t-23 -34t-34 -23t-41.5 -8.5h-146q-22 0 -41.5 8.5t-34 23t-23 34t-8.5 41.5v169q0 10 2.5 22t9.5 23t18 21t29 15q-18 5 -29 15t-18 21.5t-9.5 23.5t-2.5 22v154zM183 299q-13 0 -13 -13v-157q0 -13 13 -13h32q13 0 13 13v157q0 13 -13 13h-32z" />
    <glyph glyph-name="eight.posf" horiz-adv-x="386" 
d="M208 400q13 0 13 13v138q0 13 -13 13h-30q-13 0 -13 -13v-138q0 -13 13 -13h30zM19 572q0 21 8 40t22.5 33t33.5 22t40 8h140q21 0 40 -8t33.5 -22t22.5 -33t8 -40v-148q0 -10 -2.5 -21.5t-9 -23t-17.5 -20.5t-28 -14q17 -5 28 -14.5t17.5 -21t9 -23t2.5 -20.5v-163
q0 -21 -8 -40t-22.5 -33t-33.5 -22t-40 -8h-140q-21 0 -40 8t-33.5 22t-22.5 33t-8 40v163q0 9 2.5 20.5t9 23t17.5 21t28 14.5q-17 5 -28 14t-17.5 20.5t-9 23t-2.5 21.5v148zM178 289q-13 0 -13 -13v-152q0 -5 4 -8.5t9 -3.5h30q5 0 9 3.5t4 8.5v152q0 13 -13 13h-30z" />
    <glyph glyph-name="eight.sinf" 
d="M171 65q10 0 10 9v93q0 8 -10 8h-22q-10 0 -10 -8v-93q0 -9 10 -9h22zM31 181q0 29 22.5 49t54.5 20h104q32 0 54.5 -20t22.5 -49v-100q0 -14 -8.5 -30t-33.5 -23q25 -8 33.5 -24t8.5 -29v-110q0 -29 -22.5 -49.5t-54.5 -20.5h-104q-32 0 -54.5 20.5t-22.5 49.5v110
q0 13 8.5 29t33.5 24q-25 7 -33.5 23t-8.5 30v100zM149 -10q-10 0 -10 -9v-102q0 -8 10 -8h22q10 0 10 8v102q0 9 -10 9h-22z" />
    <glyph glyph-name="eight.sups" 
d="M171 665q10 0 10 9v93q0 8 -10 8h-22q-10 0 -10 -8v-93q0 -9 10 -9h22zM31 781q0 29 22.5 49t54.5 20h104q32 0 54.5 -20t22.5 -49v-100q0 -14 -8.5 -30t-33.5 -23q25 -8 33.5 -24t8.5 -29v-110q0 -29 -22.5 -49.5t-54.5 -20.5h-104q-32 0 -54.5 20.5t-22.5 49.5v110
q0 13 8.5 29t33.5 24q-25 7 -33.5 23t-8.5 30v100zM149 590q-10 0 -10 -9v-102q0 -8 10 -8h22q10 0 10 8v102q0 9 -10 9h-22z" />
    <glyph glyph-name="eight.tosf" horiz-adv-x="400" 
d="M215 400q13 0 13 13v138q0 13 -13 13h-30q-13 0 -13 -13v-138q0 -13 13 -13h30zM26 572q0 21 8 40t22.5 33t33.5 22t40 8h140q21 0 40 -8t33.5 -22t22.5 -33t8 -40v-148q0 -10 -2.5 -21.5t-9 -23t-17.5 -20.5t-28 -14q17 -5 28 -14.5t17.5 -21t9 -23t2.5 -20.5v-163
q0 -21 -8 -40t-22.5 -33t-33.5 -22t-40 -8h-140q-21 0 -40 8t-33.5 22t-22.5 33t-8 40v163q0 9 2.5 20.5t9 23t17.5 21t28 14.5q-17 5 -28 14t-17.5 20.5t-9 23t-2.5 21.5v148zM185 289q-13 0 -13 -13v-152q0 -5 4 -8.5t9 -3.5h30q5 0 9 3.5t4 8.5v152q0 13 -13 13h-30z" />
    <glyph glyph-name="eightninths" horiz-adv-x="620" 
d="M178 515q10 0 10 9v93q0 8 -10 8h-22q-10 0 -10 -8v-93q0 -9 10 -9h22zM38 631q0 29 22.5 49t54.5 20h104q32 0 54.5 -20t22.5 -49v-100q0 -14 -8.5 -30t-33.5 -23q25 -8 33.5 -24t8.5 -29v-110q0 -29 -22.5 -49.5t-54.5 -20.5h-104q-32 0 -54.5 20.5t-22.5 49.5v110
q0 13 8.5 29t33.5 24q-25 7 -33.5 23t-8.5 30v100zM156 440q-10 0 -10 -9v-102q0 -8 10 -8h22q10 0 10 8v102q0 9 -10 9h-22zM417 172q-45 0 -68.5 21.5t-23.5 65.5v127q0 29 22.5 49t54.5 20h104q32 0 54.5 -20t22.5 -49v-316q0 -29 -22.5 -49.5t-54.5 -20.5h-104
q-32 0 -54.5 20.5t-22.5 49.5v72l108 11v-69q0 -8 10 -8h22q10 0 10 8v106q-1 -1 -16.5 -9.5t-41.5 -8.5zM443 380q-10 0 -10 -8v-113q0 -8 10 -8h22q8 0 10 7v114q0 8 -10 8h-22z" />
    <glyph glyph-name="emdash.alt" horiz-adv-x="978" 
d="M19 413h940v-131h-940v131z" />
    <glyph glyph-name="endash.alt" horiz-adv-x="478" 
d="M19 414h440v-131h-440v131z" />
    <glyph glyph-name="exclamdown.alt" horiz-adv-x="209" 
d="M190 0h-171v228l25 270h121l25 -270v-228zM186 540h-162v160h162v-160z" />
    <glyph glyph-name="ff" horiz-adv-x="500" 
d="M7 544h59v79q0 49 29 78t78 29h77v-128h-25q-13 0 -13 -13v-45h67v79q0 49 29 78t78 29h107v-128h-55q-13 0 -13 -13v-45h68v-114h-68v-430h-146v430h-67v-430h-146v430h-59v114z" />
    <glyph glyph-name="ffi" horiz-adv-x="659" 
d="M212 430v-430h-146v430h-59v114h59v79q0 49 29 78t78 29h77v-128h-25q-13 0 -13 -13v-45h67v79q0 49 29 78t78 29h252v-128h-200q-13 0 -13 -13v-45h213v-544h-146v430h-67v-430h-146v430h-67z" />
    <glyph glyph-name="ffl" horiz-adv-x="659" 
d="M212 430v-430h-146v430h-59v114h59v79q0 49 29 78t78 29h77v-128h-25q-13 0 -13 -13v-45h67v79q0 49 29 78t78 29h77v-128h-25q-13 0 -13 -13v-45h67v156h146v-700h-146v430h-67v-430h-146v430h-67z" />
    <glyph glyph-name="five.alt" horiz-adv-x="394" 
d="M38 700h337v-136h-204l-7 -106q10 7 23 13q12 5 27.5 8.5t35.5 3.5q60 0 92 -31t32 -76v-269q0 -22 -8.5 -41.5t-23 -34t-34 -23t-41.5 -8.5h-146q-22 0 -41.5 8.5t-34 23t-23 34t-8.5 41.5v116l151 18v-92q0 -13 13 -13h32q13 0 13 13v185q0 13 -13 13h-32
q-10 0 -12 -11l-6 -34l-143 6z" />
    <glyph glyph-name="five.posf" horiz-adv-x="379" 
d="M36 544h326v-131h-197l-7 -102q9 7 22 12q11 5 26 8.5t35 3.5q58 0 89 -30t31 -73v-260q0 -21 -8 -40t-22.5 -33t-33.5 -22t-40 -8h-140q-21 0 -40 8t-33.5 22t-22.5 33t-8 40v112l146 18v-89q0 -13 13 -13h30q13 0 13 13v178q0 13 -13 13h-30q-10 0 -12 -11l-6 -33
l-138 6z" />
    <glyph glyph-name="five.sinf" 
d="M45 250h241v-88h-147l-4 -69q7 4 16 8q8 3 19.5 5.5t26.5 2.5q43 0 65.5 -20t22.5 -49v-175q0 -29 -22 -49.5t-54 -20.5h-105q-32 0 -54.5 20.5t-22.5 49.5v75l108 12v-60q0 -8 10 -8h23q3 0 6 2.5t3 5.5v121q0 4 -3 6t-6 2h-23q-7 0 -9 -7l-4 -22l-103 4z" />
    <glyph glyph-name="five.sups" 
d="M48 851h241v-88h-147l-4 -69q7 4 16 8q8 3 19.5 5.5t26.5 2.5q43 0 65.5 -20t22.5 -49v-175q0 -29 -22 -49.5t-54 -20.5h-105q-32 0 -54.5 20.5t-22.5 49.5v75l108 12v-60q0 -8 10 -8h23q3 0 6 2.5t3 5.5v121q0 4 -3 6t-6 2h-23q-7 0 -9 -7l-4 -22l-103 4z" />
    <glyph glyph-name="five.tosf" horiz-adv-x="400" 
d="M46 544h326v-131h-197l-7 -102q9 7 22 12q11 5 26 8.5t35 3.5q58 0 89 -30t31 -73v-260q0 -21 -8 -40t-22.5 -33t-33.5 -22t-40 -8h-140q-21 0 -40 8t-33.5 22t-22.5 33t-8 40v112l146 18v-89q0 -13 13 -13h30q13 0 13 13v178q0 13 -13 13h-30q-10 0 -12 -11l-6 -33
l-138 6z" />
    <glyph glyph-name="fiveninths" horiz-adv-x="620" 
d="M417 172q-45 0 -68.5 21.5t-23.5 65.5v127q0 29 22.5 49t54.5 20h104q32 0 54.5 -20t22.5 -49v-316q0 -29 -22.5 -49.5t-54.5 -20.5h-104q-32 0 -54.5 20.5t-22.5 49.5v72l108 11v-69q0 -8 10 -8h22q10 0 10 8v106q-1 -1 -16.5 -9.5t-41.5 -8.5zM56 700h241v-88h-147
l-4 -69q7 4 16 8q8 3 19.5 5.5t26.5 2.5q43 0 65.5 -20t22.5 -49v-175q0 -29 -22 -49.5t-54 -20.5h-105q-32 0 -54.5 20.5t-22.5 49.5v75l108 12v-60q0 -8 10 -8h23q3 0 6 2.5t3 5.5v121q0 4 -3 6t-6 2h-23q-7 0 -9 -7l-4 -22l-103 4zM443 380q-10 0 -10 -8v-113q0 -8 10 -8
h22q8 0 10 7v114q0 8 -10 8h-22z" />
    <glyph glyph-name="fivesevenths" horiz-adv-x="620" 
d="M55 700h241v-88h-147l-4 -69q7 4 16 8q8 3 19.5 5.5t26.5 2.5q43 0 65.5 -20t22.5 -49v-175q0 -29 -22 -49.5t-54 -20.5h-105q-32 0 -54.5 20.5t-22.5 49.5v75l108 12v-60q0 -8 10 -8h23q3 0 6 2.5t3 5.5v121q0 4 -3 6t-6 2h-23q-7 0 -9 -7l-4 -22l-103 4zM576 353
l-17 -31q-13 -24 -23 -45t-17 -46.5t-10.5 -58.5t-3.5 -81v-91h-124v62q0 52 7 88t19.5 66.5t30.5 61.5t39 73h-141v104h240v-102z" />
    <glyph glyph-name="fivesixths" horiz-adv-x="620" 
d="M491 284q45 0 68.5 -21.5t23.5 -65.5v-127q0 -29 -22.5 -49.5t-54.5 -20.5h-104q-32 0 -54.5 20.5t-22.5 49.5v316q0 29 22.5 49t54.5 20h104q32 0 54.5 -20t22.5 -49v-72l-108 -11v69q0 8 -10 8h-22q-10 0 -10 -8v-106q1 1 16.5 9.5t41.5 8.5zM56 700h241v-88h-147
l-4 -69q7 4 16 8q8 3 19.5 5.5t26.5 2.5q43 0 65.5 -20t22.5 -49v-175q0 -29 -22 -49.5t-54 -20.5h-105q-32 0 -54.5 20.5t-22.5 49.5v75l108 12v-60q0 -8 10 -8h23q3 0 6 2.5t3 5.5v121q0 4 -3 6t-6 2h-23q-7 0 -9 -7l-4 -22l-103 4zM465 76q10 0 10 8v113q0 8 -10 8h-22
q-8 0 -10 -7v-114q0 -8 10 -8h22z" />
    <glyph glyph-name="four.alt" horiz-adv-x="388" 
d="M379 162h-43v-162h-151v162h-176v160l169 378h158v-402h43v-136zM185 494l-86 -196h86v196z" />
    <glyph glyph-name="four.posf" horiz-adv-x="374" 
d="M366 25h-42v-156h-146v156h-170v155l164 364h152v-387h42v-132zM178 346l-83 -189h83v189z" />
    <glyph glyph-name="four.sinf" 
d="M299 -99h-31v-106h-108v106h-125v104l121 245h112v-261h31v-88zM160 117l-61 -128h61v128z" />
    <glyph glyph-name="four.sups" 
d="M292 501h-31v-106h-108v106h-125v104l121 245h112v-261h31v-88zM153 717l-61 -128h61v128z" />
    <glyph glyph-name="four.tosf" horiz-adv-x="400" 
d="M379 25h-42v-156h-146v156h-170v155l164 364h152v-387h42v-132zM191 346l-83 -189h83v189z" />
    <glyph glyph-name="fourfifths" horiz-adv-x="620" 
d="M341 455h241v-88h-147l-4 -69q7 4 16 8q8 3 19.5 5.5t26.5 2.5q43 0 65.5 -20t22.5 -49v-175q0 -29 -22 -49.5t-54 -20.5h-105q-32 0 -54.5 20.5t-22.5 49.5v75l108 12v-60q0 -8 10 -8h23q3 0 6 2.5t3 5.5v121q0 4 -3 6t-6 2h-23q-7 0 -9 -7l-4 -22l-103 4zM307 351h-31
v-106h-108v106h-125v104l121 245h112v-261h31v-88zM168 567l-61 -128h61v128z" />
    <glyph glyph-name="fourninths" horiz-adv-x="620" 
d="M307 351h-31v-106h-108v106h-125v104l121 245h112v-261h31v-88zM168 567l-61 -128h61v128zM417 172q-45 0 -68.5 21.5t-23.5 65.5v127q0 29 22.5 49t54.5 20h104q32 0 54.5 -20t22.5 -49v-316q0 -29 -22.5 -49.5t-54.5 -20.5h-104q-32 0 -54.5 20.5t-22.5 49.5v72l108 11
v-69q0 -8 10 -8h22q10 0 10 8v106q-1 -1 -16.5 -9.5t-41.5 -8.5zM443 380q-10 0 -10 -8v-113q0 -8 10 -8h22q8 0 10 7v114q0 8 -10 8h-22z" />
    <glyph glyph-name="foursevenths" horiz-adv-x="620" 
d="M306 351h-31v-106h-108v106h-125v104l121 245h112v-261h31v-88zM167 567l-61 -128h61v128zM576 353l-17 -31q-13 -24 -23 -45t-17 -46.5t-10.5 -58.5t-3.5 -81v-91h-124v62q0 52 7 88t19.5 66.5t30.5 61.5t39 73h-141v104h240v-102z" />
    <glyph glyph-name="guillemotleft.alt" horiz-adv-x="554" 
d="M163 623h160l-151 -272l151 -272h-160l-151 272zM374 623h160l-151 -272l151 -272h-160l-151 272z" />
    <glyph glyph-name="guillemotright.alt" horiz-adv-x="554" 
d="M331 351l-151 -272h-160l151 272l-151 272h160zM542 351l-151 -272h-160l151 272l-151 272h160z" />
    <glyph glyph-name="guilsinglleft.alt" horiz-adv-x="343" 
d="M163 623h160l-151 -272l151 -272h-160l-151 272z" />
    <glyph glyph-name="guilsinglright.alt" horiz-adv-x="343" 
d="M331 351l-151 -272h-160l151 272l-151 272h160z" />
    <glyph glyph-name="hyphen.alt" horiz-adv-x="265" 
d="M20 417h225v-131h-225v131z" />
    <glyph glyph-name="i.locl" horiz-adv-x="188" 
d="M167 0h-146v544h146v-544zM21 700h146v-116h-146v116z" />
    <glyph glyph-name="ibreve" horiz-adv-x="188" 
d="M167 0h-146v544h146v-544zM61 700v-15q0 -22 11.5 -26t19.5 -4h4q8 0 19.5 4t11.5 26v15h85v-42q0 -45 -28 -69t-79 -24h-22q-51 0 -79 24t-28 69v42h85z" />
    <glyph glyph-name="nine.alt" horiz-adv-x="398" 
d="M145 264q-61 0 -94 33.5t-33 100.5v195q0 22 8.5 41.5t23 34t34 23t41.5 8.5h146q22 0 41.5 -8.5t34 -23t23 -34t8.5 -41.5v-486q0 -22 -8.5 -41.5t-23 -34t-34 -23t-41.5 -8.5h-146q-22 0 -41.5 8.5t-34 23t-23 34t-8.5 41.5v110l151 18v-106q0 -13 13 -13h32
q13 0 13 13v163q-1 -1 -6.5 -5.5t-16 -9.5t-25.5 -9t-34 -4zM182 584q-13 0 -13 -13v-173q0 -13 13 -13h32q11 0 13 11v175q0 13 -13 13h-32z" />
    <glyph glyph-name="nine.posf" horiz-adv-x="381" 
d="M139 124q-59 0 -91 32t-32 97v188q0 21 8 40t22.5 33t33.5 22t40 8h140q21 0 40 -8t33.5 -22t22.5 -33t8 -40v-469q0 -21 -8 -40t-22.5 -33t-33.5 -22t-40 -8h-140q-21 0 -40 8t-33.5 22t-22.5 33t-8 40v106l146 18v-103q0 -5 4 -8.5t9 -3.5h30q5 0 9 3.5t4 8.5v158
q-1 -1 -6.5 -5t-15.5 -9t-24.5 -9t-32.5 -4zM175 433q-13 0 -13 -13v-167q0 -12 13 -12h30q11 0 13 10v169q0 13 -13 13h-30z" />
    <glyph glyph-name="nine.sinf" 
d="M122 -33q-45 0 -68.5 21.5t-23.5 65.5v127q0 29 22.5 49t54.5 20h104q32 0 54.5 -20t22.5 -49v-316q0 -29 -22.5 -49.5t-54.5 -20.5h-104q-32 0 -54.5 20.5t-22.5 49.5v72l108 11v-69q0 -8 10 -8h22q10 0 10 8v106q-1 -1 -16.5 -9.5t-41.5 -8.5zM148 175q-10 0 -10 -8
v-113q0 -8 10 -8h22q8 0 10 7v114q0 8 -10 8h-22z" />
    <glyph glyph-name="nine.sups" 
d="M122 567q-45 0 -68.5 21.5t-23.5 65.5v127q0 29 22.5 49t54.5 20h104q32 0 54.5 -20t22.5 -49v-316q0 -29 -22.5 -49.5t-54.5 -20.5h-104q-32 0 -54.5 20.5t-22.5 49.5v72l108 11v-69q0 -8 10 -8h22q10 0 10 8v106q-1 -1 -16.5 -9.5t-41.5 -8.5zM148 775q-10 0 -10 -8
v-113q0 -8 10 -8h22q8 0 10 7v114q0 8 -10 8h-22z" />
    <glyph glyph-name="nine.tosf" horiz-adv-x="400" 
d="M148 124q-59 0 -91 32t-32 97v188q0 21 8 40t22.5 33t33.5 22t40 8h140q21 0 40 -8t33.5 -22t22.5 -33t8 -40v-469q0 -21 -8 -40t-22.5 -33t-33.5 -22t-40 -8h-140q-21 0 -40 8t-33.5 22t-22.5 33t-8 40v106l146 18v-103q0 -5 4 -8.5t9 -3.5h30q5 0 9 3.5t4 8.5v158
q-1 -1 -6.5 -5t-15.5 -9t-24.5 -9t-32.5 -4zM184 433q-13 0 -13 -13v-167q0 -12 13 -12h30q11 0 13 10v169q0 13 -13 13h-30z" />
    <glyph glyph-name="one.alt" horiz-adv-x="256" 
d="M83 0v465h-75v137h26q52 0 52 69v29h148v-700h-151z" />
    <glyph glyph-name="one.posf" horiz-adv-x="248" 
d="M83 0v318h-74v132h17q33 0 46.5 16t13.5 50v28h142v-544h-145z" />
    <glyph glyph-name="one.sinf" 
d="M241 250v-366h62v-89h-231v89h60v214h-62v91h21q24 0 33.5 10.5t9.5 32.5v18h107z" />
    <glyph glyph-name="one.sups" 
d="M213 850v-366h62v-89h-231v89h60v214h-62v91h21q24 0 33.5 10.5t9.5 32.5v18h107z" />
    <glyph glyph-name="one.tosf" horiz-adv-x="400" 
d="M276 544v-413h84v-131h-311v131h82v187h-84v132h27q33 0 46.5 16t13.5 50v28h142z" />
    <glyph glyph-name="onefifth" horiz-adv-x="620" 
d="M341 455h241v-88h-147l-4 -69q7 4 16 8q8 3 19.5 5.5t26.5 2.5q43 0 65.5 -20t22.5 -49v-175q0 -29 -22 -49.5t-54 -20.5h-105q-32 0 -54.5 20.5t-22.5 49.5v75l108 12v-60q0 -8 10 -8h23q3 0 6 2.5t3 5.5v121q0 4 -3 6t-6 2h-23q-7 0 -9 -7l-4 -22l-103 4zM217 700v-366
h62v-89h-231v89h60v214h-62v91h21q24 0 33.5 10.5t9.5 32.5v18h107z" />
    <glyph glyph-name="oneninth" horiz-adv-x="620" 
d="M417 172q-45 0 -68.5 21.5t-23.5 65.5v127q0 29 22.5 49t54.5 20h104q32 0 54.5 -20t22.5 -49v-316q0 -29 -22.5 -49.5t-54.5 -20.5h-104q-32 0 -54.5 20.5t-22.5 49.5v72l108 11v-69q0 -8 10 -8h22q10 0 10 8v106q-1 -1 -16.5 -9.5t-41.5 -8.5zM215 700v-366h62v-89
h-231v89h60v214h-62v91h21q24 0 33.5 10.5t9.5 32.5v18h107zM443 380q-10 0 -10 -8v-113q0 -8 10 -8h22q8 0 10 7v114q0 8 -10 8h-22z" />
    <glyph glyph-name="oneseventh" horiz-adv-x="620" 
d="M217 700v-366h62v-89h-231v89h60v214h-62v91h21q24 0 33.5 10.5t9.5 32.5v18h107zM576 353l-17 -31q-13 -24 -23 -45t-17 -46.5t-10.5 -58.5t-3.5 -81v-91h-124v62q0 52 7 88t19.5 66.5t30.5 61.5t39 73h-141v104h240v-102z" />
    <glyph glyph-name="onesixth" horiz-adv-x="620" 
d="M491 284q45 0 68.5 -21.5t23.5 -65.5v-127q0 -29 -22.5 -49.5t-54.5 -20.5h-104q-32 0 -54.5 20.5t-22.5 49.5v316q0 29 22.5 49t54.5 20h104q32 0 54.5 -20t22.5 -49v-72l-108 -11v69q0 8 -10 8h-22q-10 0 -10 -8v-106q1 1 16.5 9.5t41.5 8.5zM217 700v-366h62v-89h-231
v89h60v214h-62v91h21q24 0 33.5 10.5t9.5 32.5v18h107zM465 76q10 0 10 8v113q0 8 -10 8h-22q-8 0 -10 -7v-114q0 -8 10 -8h22z" />
    <glyph glyph-name="orn.1" horiz-adv-x="608" 
d="M588 107q0 -45 -27.5 -76t-80.5 -31h-352q-53 0 -80.5 31t-27.5 76v486q0 45 27.5 76t80.5 31h352q53 0 80.5 -31t27.5 -76v-486zM325 236q0 -23 -20 -23h-2q-20 0 -20 23v232q0 23 20 23h2q20 0 20 -23v-232zM433 490q0 40 -27 64.5t-65 24.5h-74q-38 0 -65 -24.5
t-27 -64.5v-276q0 -40 27 -65t65 -25h74q38 0 65 25t27 65v276z" />
    <glyph glyph-name="orn.10" horiz-adv-x="608" 
d="M588 107q0 -45 -27.5 -76t-80.5 -31h-352q-53 0 -80.5 31t-27.5 76v486q0 45 27.5 76t80.5 31h352q53 0 80.5 -31t27.5 -76v-486zM315 504q10 0 10 -8v-114q-2 -7 -10 -7h-22q-10 0 -10 8v113q0 8 10 8h22zM267 296q26 0 41.5 8.5t16.5 9.5v-106q0 -8 -10 -8h-22
q-10 0 -10 8v69l-108 -11v-72q0 -29 22.5 -49.5t54.5 -20.5h104q32 0 54.5 20.5t22.5 49.5v316q0 29 -22.5 49t-54.5 20h-104q-32 0 -54.5 -20t-22.5 -49v-127q0 -44 23.5 -65.5t68.5 -21.5z" />
    <glyph glyph-name="orn.2" horiz-adv-x="608" 
d="M588 107q0 -45 -27.5 -76t-80.5 -31h-352q-53 0 -80.5 31t-27.5 76v486q0 45 27.5 76t80.5 31h352q53 0 80.5 -31t27.5 -76v-486zM251 579v-18q0 -22 -9.5 -32.5t-33.5 -10.5h-21v-91h62v-214h-60v-89h231v89h-62v366h-107z" />
    <glyph glyph-name="orn.3" horiz-adv-x="608" 
d="M588 107q0 -45 -27.5 -76t-80.5 -31h-352q-53 0 -80.5 31t-27.5 76v486q0 45 27.5 76t80.5 31h352q53 0 80.5 -31t27.5 -76v-486zM393 346q23 23 31.5 43.5t8.5 49.5v71q0 29 -22.5 49t-54.5 20h-104q-32 0 -54.5 -20t-22.5 -49v-81l108 -12v66q0 8 10 8h22q10 0 10 -8
v-34q0 -17 -6 -28t-17 -23l-100 -101q-25 -25 -25 -68v-105h252v89h-144v8q-1 9 3 15.5t13 15.5z" />
    <glyph glyph-name="orn.4" horiz-adv-x="608" 
d="M588 107q0 -45 -27.5 -76t-80.5 -31h-352q-53 0 -80.5 31t-27.5 76v486q0 45 27.5 76t80.5 31h352q53 0 80.5 -31t27.5 -76v-486zM315 310q10 0 10 -9v-80q0 -8 -10 -8h-22q-10 0 -10 8v60l-108 -12v-75q0 -29 22.5 -49.5t54.5 -20.5h104q32 0 54.5 20.5t22.5 49.5v110
q0 13 -8.5 29t-33.5 24q25 7 33.5 23t8.5 30v100q0 29 -22.5 49t-54.5 20h-104q-32 0 -54.5 -20t-22.5 -49v-75l108 -12v60q0 8 10 8h22q10 0 10 -8v-76q0 -9 -10 -9h-48v-88h48z" />
    <glyph glyph-name="orn.5" horiz-adv-x="608" 
d="M588 107q0 -45 -27.5 -76t-80.5 -31h-352q-53 0 -80.5 31t-27.5 76v486q0 45 27.5 76t80.5 31h352q53 0 80.5 -31t27.5 -76v-486zM287 318h-61l61 128v-128zM436 318h-41v261h-112l-121 -245v-104h125v-106h108v106h41v88z" />
    <glyph glyph-name="orn.6" horiz-adv-x="608" 
d="M588 107q0 -45 -27.5 -76t-80.5 -31h-352q-53 0 -80.5 31t-27.5 76v486q0 45 27.5 76t80.5 31h352q53 0 80.5 -31t27.5 -76v-486zM176 325l103 -4l4 22q2 7 9 7h23q3 0 6 -2t3 -6v-121q0 -3 -3 -5.5t-6 -2.5h-23q-10 0 -10 8v60l-108 -12v-75q0 -29 22.5 -49.5
t54.5 -20.5h105q32 0 54 20.5t22 49.5v175q0 29 -22.5 49t-65.5 20q-15 0 -26.5 -2.5t-19.5 -5.5q-9 -4 -16 -8l4 69h147v88h-241z" />
    <glyph glyph-name="orn.7" horiz-adv-x="608" 
d="M588 107q0 -45 -27.5 -76t-80.5 -31h-352q-53 0 -80.5 31t-27.5 76v486q0 45 27.5 76t80.5 31h352q53 0 80.5 -31t27.5 -76v-486zM293 200q-10 0 -10 8v114q2 7 10 7h22q10 0 10 -8v-113q0 -8 -10 -8h-22zM341 408q-26 0 -41.5 -8.5t-16.5 -9.5v106q0 8 10 8h22
q10 0 10 -8v-69l108 11v72q0 29 -22.5 49t-54.5 20h-104q-32 0 -54.5 -20t-22.5 -49v-316q0 -29 22.5 -49.5t54.5 -20.5h104q32 0 54.5 20.5t22.5 49.5v127q0 44 -23.5 65.5t-68.5 21.5z" />
    <glyph glyph-name="orn.8" horiz-adv-x="608" 
d="M588 107q0 -45 -27.5 -76t-80.5 -31h-352q-53 0 -80.5 31t-27.5 76v486q0 45 27.5 76t80.5 31h352q53 0 80.5 -31t27.5 -76v-486zM424 579h-240v-104h141q-21 -42 -39 -73t-30.5 -61.5t-19.5 -66.5t-7 -88v-62h124v91q0 48 3.5 81t10.5 58.5t17 46.5t23 45l17 31v102z
" />
    <glyph glyph-name="orn.9" horiz-adv-x="608" 
d="M588 107q0 -45 -27.5 -76t-80.5 -31h-352q-53 0 -80.5 31t-27.5 76v486q0 45 27.5 76t80.5 31h352q53 0 80.5 -31t27.5 -76v-486zM293 394q-10 0 -10 9v93q0 8 10 8h22q10 0 10 -8v-93q0 -9 -10 -9h-22zM315 319q10 0 10 -9v-102q0 -8 -10 -8h-22q-10 0 -10 8v102
q0 9 10 9h22zM175 410q0 -14 8.5 -30t33.5 -23q-25 -8 -33.5 -24t-8.5 -29v-110q0 -29 22.5 -49.5t54.5 -20.5h104q32 0 54.5 20.5t22.5 49.5v110q0 13 -8.5 29t-33.5 24q25 7 33.5 23t8.5 30v100q0 29 -22.5 49t-54.5 20h-104q-32 0 -54.5 -20t-22.5 -49v-100z" />
    <glyph glyph-name="questiondown.alt" horiz-adv-x="382" 
d="M116 498h152v-24q0 -29 -5.5 -53t-24.5 -58l-48 -86q-12 -22 -18 -37t-6 -29v-62q0 -13 13 -13h24q13 0 13 13v90l151 -18v-114q0 -22 -8.5 -41.5t-23 -34t-34 -23t-41.5 -8.5h-138q-22 0 -41.5 8.5t-34 23t-23 34t-8.5 41.5v107q0 53 29 105l52 94q15 25 17.5 40t2.5 32
v13zM111 700h162v-160h-162v160z" />
    <glyph glyph-name="revcommaaccent" horiz-adv-x="202" 
d="M20 566q0 38 6 62.5t20 38t36 18.5t53 5h47v-79h-22q-14 0 -22 -5t-8 -24v-12h52v-160h-162v156z" />
    <glyph glyph-name="seven.alt" horiz-adv-x="350" 
d="M343 558l-22 -52q-16 -38 -30 -72.5t-24 -75.5t-15.5 -93t-5.5 -125v-140h-175v95q0 80 10 137.5t27.5 108t42 100t54.5 113.5h-196v146h334v-142z" />
    <glyph glyph-name="seven.posf" horiz-adv-x="336" 
d="M330 407l-21 -50q-16 -36 -29 -69.5t-22.5 -73t-15 -89.5t-5.5 -121v-135h-169v92q0 77 9.5 132.5t26.5 104t41 97t52 109.5h-189v140h322v-137z" />
    <glyph glyph-name="seven.sinf" 
d="M280 148l-17 -31q-13 -24 -23 -45t-17 -46.5t-10.5 -58.5t-3.5 -81v-91h-124v62q0 52 7 88t19.5 66.5t30.5 61.5t39 73h-141v104h240v-102z" />
    <glyph glyph-name="seven.sups" 
d="M275 748l-17 -31q-13 -24 -23 -45t-17 -46.5t-10.5 -58.5t-3.5 -81v-91h-124v62q0 52 7 88t19.5 66.5t30.5 61.5t39 73h-141v104h240v-102z" />
    <glyph glyph-name="seven.tosf" horiz-adv-x="400" 
d="M362 407l-21 -50q-16 -36 -29 -69.5t-22.5 -73t-15 -89.5t-5.5 -121v-135h-169v92q0 77 9.5 132.5t26.5 104t41 97t52 109.5h-189v140h322v-137z" />
    <glyph glyph-name="sevenninths" horiz-adv-x="620" 
d="M285 598l-17 -31q-13 -24 -23 -45t-17 -46.5t-10.5 -58.5t-3.5 -81v-91h-124v62q0 52 7 88t19.5 66.5t30.5 61.5t39 73h-141v104h240v-102zM417 172q-45 0 -68.5 21.5t-23.5 65.5v127q0 29 22.5 49t54.5 20h104q32 0 54.5 -20t22.5 -49v-316q0 -29 -22.5 -49.5
t-54.5 -20.5h-104q-32 0 -54.5 20.5t-22.5 49.5v72l108 11v-69q0 -8 10 -8h22q10 0 10 8v106q-1 -1 -16.5 -9.5t-41.5 -8.5zM443 380q-10 0 -10 -8v-113q0 -8 10 -8h22q8 0 10 7v114q0 8 -10 8h-22z" />
    <glyph glyph-name="six.alt" horiz-adv-x="398" 
d="M253 436q61 0 94 -33.5t33 -100.5v-195q0 -22 -8.5 -41.5t-23 -34t-34 -23t-41.5 -8.5h-146q-22 0 -41.5 8.5t-34 23t-23 34t-8.5 41.5v486q0 22 8.5 41.5t23 34t34 23t41.5 8.5h146q22 0 41.5 -8.5t34 -23t23 -34t8.5 -41.5v-110l-151 -18v106q0 13 -13 13h-32
q-13 0 -13 -13v-163q1 1 7 5.5t16.5 9.5t25 9t33.5 4zM216 116q13 0 13 13v173q0 13 -13 13h-32q-11 0 -13 -11v-175q0 -13 13 -13h32z" />
    <glyph glyph-name="six.posf" horiz-adv-x="386" 
d="M245 421q59 0 91 -32.5t32 -97.5v-188q0 -21 -8 -40t-22.5 -33t-33.5 -22t-40 -8h-140q-21 0 -40 8t-33.5 22t-22.5 33t-8 40v469q0 21 8 40t22.5 33t33.5 22t40 8h140q21 0 40 -8t33.5 -22t22.5 -33t8 -40v-106l-146 -17v102q0 13 -13 13h-30q-13 0 -13 -13v-157
q1 1 6.5 5t15.5 9t24.5 9t32.5 4zM209 112q5 0 9 3.5t4 8.5v167q0 13 -13 13h-30q-11 0 -13 -11v-169q0 -5 4 -8.5t9 -3.5h30z" />
    <glyph glyph-name="six.sinf" 
d="M198 79q45 0 68.5 -21.5t23.5 -65.5v-127q0 -29 -22.5 -49.5t-54.5 -20.5h-104q-32 0 -54.5 20.5t-22.5 49.5v316q0 29 22.5 49t54.5 20h104q32 0 54.5 -20t22.5 -49v-72l-108 -11v69q0 8 -10 8h-22q-10 0 -10 -8v-106q1 1 16.5 9.5t41.5 8.5zM172 -129q10 0 10 8v113
q0 8 -10 8h-22q-8 0 -10 -7v-114q0 -8 10 -8h22z" />
    <glyph glyph-name="six.sups" 
d="M198 679q45 0 68.5 -21.5t23.5 -65.5v-127q0 -29 -22.5 -49.5t-54.5 -20.5h-104q-32 0 -54.5 20.5t-22.5 49.5v316q0 29 22.5 49t54.5 20h104q32 0 54.5 -20t22.5 -49v-72l-108 -11v69q0 8 -10 8h-22q-10 0 -10 -8v-106q1 1 16.5 9.5t41.5 8.5zM172 471q10 0 10 8v113
q0 8 -10 8h-22q-8 0 -10 -7v-114q0 -8 10 -8h22z" />
    <glyph glyph-name="six.tosf" horiz-adv-x="400" 
d="M252 421q59 0 91 -32.5t32 -97.5v-188q0 -21 -8 -40t-22.5 -33t-33.5 -22t-40 -8h-140q-21 0 -40 8t-33.5 22t-22.5 33t-8 40v469q0 21 8 40t22.5 33t33.5 22t40 8h140q21 0 40 -8t33.5 -22t22.5 -33t8 -40v-106l-146 -17v102q0 13 -13 13h-30q-13 0 -13 -13v-157
q1 1 6.5 5t15.5 9t24.5 9t32.5 4zM216 112q5 0 9 3.5t4 8.5v167q0 13 -13 13h-30q-11 0 -13 -11v-169q0 -5 4 -8.5t9 -3.5h30z" />
    <glyph glyph-name="sixsevenths" horiz-adv-x="620" 
d="M203 529q45 0 68.5 -21.5t23.5 -65.5v-127q0 -29 -22.5 -49.5t-54.5 -20.5h-104q-32 0 -54.5 20.5t-22.5 49.5v316q0 29 22.5 49t54.5 20h104q32 0 54.5 -20t22.5 -49v-72l-108 -11v69q0 8 -10 8h-22q-10 0 -10 -8v-106q1 1 16.5 9.5t41.5 8.5zM177 321q10 0 10 8v113
q0 8 -10 8h-22q-8 0 -10 -7v-114q0 -8 10 -8h22zM576 353l-17 -31q-13 -24 -23 -45t-17 -46.5t-10.5 -58.5t-3.5 -81v-91h-124v62q0 52 7 88t19.5 66.5t30.5 61.5t39 73h-141v104h240v-102z" />
    <glyph glyph-name="three.alt" horiz-adv-x="395" 
d="M143 285v136h69q13 0 13 13v117q0 13 -13 13h-32q-13 0 -13 -13v-92l-151 18v116q0 22 8.5 41.5t23 34t34 23t41.5 8.5h146q22 0 41.5 -8.5t34 -23t23 -34t8.5 -41.5v-154q0 -10 -2.5 -22t-9.5 -23.5t-18 -21.5t-29 -15q18 -5 29 -15t18 -21t9.5 -23t2.5 -22v-169
q0 -22 -8.5 -41.5t-23 -34t-34 -23t-41.5 -8.5h-146q-22 0 -41.5 8.5t-34 23t-23 34t-8.5 41.5v116l151 18v-92q0 -13 13 -13h32q13 0 13 13v123q0 13 -13 13h-69z" />
    <glyph glyph-name="three.posf" horiz-adv-x="379" 
d="M138 144v131h66q13 0 13 13v113q0 5 -4 8.5t-9 3.5h-30q-5 0 -9 -3.5t-4 -8.5v-89l-146 17v112q0 21 8 40t22.5 33t33.5 22t40 8h140q21 0 40 -8t33.5 -22t22.5 -33t8 -40v-148q0 -10 -2.5 -21.5t-9 -23t-17.5 -20.5t-28 -14q17 -5 28 -14.5t17.5 -21t9 -23t2.5 -20.5
v-163q0 -21 -8 -40t-22.5 -33t-33.5 -22t-40 -8h-140q-21 0 -40 8t-33.5 22t-22.5 33t-8 40v112l146 18v-89q0 -13 13 -13h30q13 0 13 13v118q0 13 -13 13h-66z" />
    <glyph glyph-name="three.sinf" 
d="M121 -19v88h48q10 0 10 9v76q0 8 -10 8h-22q-10 0 -10 -8v-60l-108 12v75q0 29 22.5 49t54.5 20h104q32 0 54.5 -20t22.5 -49v-100q0 -14 -8.5 -30t-33.5 -23q25 -8 33.5 -24t8.5 -29v-110q0 -29 -22.5 -49.5t-54.5 -20.5h-104q-32 0 -54.5 20.5t-22.5 49.5v75l108 12
v-60q0 -8 10 -8h22q10 0 10 8v80q0 9 -10 9h-48z" />
    <glyph glyph-name="three.sups" 
d="M120 581v88h48q10 0 10 9v76q0 8 -10 8h-22q-10 0 -10 -8v-60l-108 12v75q0 29 22.5 49t54.5 20h104q32 0 54.5 -20t22.5 -49v-100q0 -14 -8.5 -30t-33.5 -23q25 -8 33.5 -24t8.5 -29v-110q0 -29 -22.5 -49.5t-54.5 -20.5h-104q-32 0 -54.5 20.5t-22.5 49.5v75l108 12
v-60q0 -8 10 -8h22q10 0 10 8v80q0 9 -10 9h-48z" />
    <glyph glyph-name="three.tosf" horiz-adv-x="400" 
d="M148 144v131h66q13 0 13 13v113q0 5 -4 8.5t-9 3.5h-30q-5 0 -9 -3.5t-4 -8.5v-89l-146 17v112q0 21 8 40t22.5 33t33.5 22t40 8h140q21 0 40 -8t33.5 -22t22.5 -33t8 -40v-148q0 -10 -2.5 -21.5t-9 -23t-17.5 -20.5t-28 -14q17 -5 28 -14.5t17.5 -21t9 -23t2.5 -20.5
v-163q0 -21 -8 -40t-22.5 -33t-33.5 -22t-40 -8h-140q-21 0 -40 8t-33.5 22t-22.5 33t-8 40v112l146 18v-89q0 -13 13 -13h30q13 0 13 13v118q0 13 -13 13h-66z" />
    <glyph glyph-name="threefifths" horiz-adv-x="620" 
d="M341 455h241v-88h-147l-4 -69q7 4 16 8q8 3 19.5 5.5t26.5 2.5q43 0 65.5 -20t22.5 -49v-175q0 -29 -22 -49.5t-54 -20.5h-105q-32 0 -54.5 20.5t-22.5 49.5v75l108 12v-60q0 -8 10 -8h23q3 0 6 2.5t3 5.5v121q0 4 -3 6t-6 2h-23q-7 0 -9 -7l-4 -22l-103 4zM130 431v88
h48q10 0 10 9v76q0 8 -10 8h-22q-10 0 -10 -8v-60l-108 12v75q0 29 22.5 49t54.5 20h104q32 0 54.5 -20t22.5 -49v-100q0 -14 -8.5 -30t-33.5 -23q25 -8 33.5 -24t8.5 -29v-110q0 -29 -22.5 -49.5t-54.5 -20.5h-104q-32 0 -54.5 20.5t-22.5 49.5v75l108 12v-60q0 -8 10 -8
h22q10 0 10 8v80q0 9 -10 9h-48z" />
    <glyph glyph-name="threesevenths" horiz-adv-x="620" 
d="M129 431v88h48q10 0 10 9v76q0 8 -10 8h-22q-10 0 -10 -8v-60l-108 12v75q0 29 22.5 49t54.5 20h104q32 0 54.5 -20t22.5 -49v-100q0 -14 -8.5 -30t-33.5 -23q25 -8 33.5 -24t8.5 -29v-110q0 -29 -22.5 -49.5t-54.5 -20.5h-104q-32 0 -54.5 20.5t-22.5 49.5v75l108 12
v-60q0 -8 10 -8h22q10 0 10 8v80q0 9 -10 9h-48zM576 353l-17 -31q-13 -24 -23 -45t-17 -46.5t-10.5 -58.5t-3.5 -81v-91h-124v62q0 52 7 88t19.5 66.5t30.5 61.5t39 73h-141v104h240v-102z" />
    <glyph glyph-name="two.alt" horiz-adv-x="391" 
d="M191 196q-13 -14 -17.5 -23.5t-3.5 -23.5v-13h202v-136h-353v161q0 32 8 58t26 46l140 156q17 19 24.5 35.5t7.5 43.5v51q0 13 -13 13h-32q-13 0 -13 -13v-101l-151 18v125q0 22 8.5 41.5t23 34t34 23t41.5 8.5h146q22 0 41.5 -8.5t34 -23t23 -34t8.5 -41.5v-109
q0 -44 -12 -76t-43 -67z" />
    <glyph glyph-name="two.posf" horiz-adv-x="375" 
d="M211 131h146v-131h-341v64q0 64 33 101l135 150q16 18 23.5 34t7.5 42v10q0 5 -4 8.5t-9 3.5h-30q-5 0 -9 -3.5t-4 -8.5v-58l-146 18v80q0 21 8 40t22.5 33t33.5 22t40 8h140q21 0 40 -8t33.5 -22t22.5 -33t8 -40v-65q0 -42 -12 -73.5t-41 -64.5z" />
    <glyph glyph-name="two.sinf" 
d="M156 -79q-9 -9 -13 -15.5t-3 -15.5v-8h144v-89h-252v105q0 43 25 68l100 101q11 12 17 23t6 28v34q0 8 -10 8h-22q-10 0 -10 -8v-66l-108 12v81q0 29 22.5 49t54.5 20h104q32 0 54.5 -20t22.5 -49v-71q0 -29 -8.5 -49.5t-31.5 -43.5z" />
    <glyph glyph-name="two.sups" 
d="M155 523q-9 -9 -13 -15.5t-3 -15.5v-8h144v-89h-252v105q0 43 25 68l100 101q11 12 17 23t6 28v34q0 8 -10 8h-22q-10 0 -10 -8v-66l-108 12v81q0 29 22.5 49t54.5 20h104q32 0 54.5 -20t22.5 -49v-71q0 -29 -8.5 -49.5t-31.5 -43.5z" />
    <glyph glyph-name="two.tosf" horiz-adv-x="400" 
d="M223 131h146v-131h-341v64q0 64 33 101l135 150q16 18 23.5 34t7.5 42v10q0 5 -4 8.5t-9 3.5h-30q-5 0 -9 -3.5t-4 -8.5v-58l-146 18v80q0 21 8 40t22.5 33t33.5 22t40 8h140q21 0 40 -8t33.5 -22t22.5 -33t8 -40v-65q0 -42 -12 -73.5t-41 -64.5z" />
    <glyph glyph-name="twofifths" horiz-adv-x="620" 
d="M341 455h241v-88h-147l-4 -69q7 4 16 8q8 3 19.5 5.5t26.5 2.5q43 0 65.5 -20t22.5 -49v-175q0 -29 -22 -49.5t-54 -20.5h-105q-32 0 -54.5 20.5t-22.5 49.5v75l108 12v-60q0 -8 10 -8h23q3 0 6 2.5t3 5.5v121q0 4 -3 6t-6 2h-23q-7 0 -9 -7l-4 -22l-103 4zM162 373
q-9 -9 -13 -15.5t-3 -15.5v-8h144v-89h-252v105q0 43 25 68l100 101q11 12 17 23t6 28v34q0 8 -10 8h-22q-10 0 -10 -8v-66l-108 12v81q0 29 22.5 49t54.5 20h104q32 0 54.5 -20t22.5 -49v-71q0 -29 -8.5 -49.5t-31.5 -43.5z" />
    <glyph glyph-name="twoninths" horiz-adv-x="620" 
d="M165 373q-9 -9 -13 -15.5t-3 -15.5v-8h144v-89h-252v105q0 43 25 68l100 101q11 12 17 23t6 28v34q0 8 -10 8h-22q-10 0 -10 -8v-66l-108 12v81q0 29 22.5 49t54.5 20h104q32 0 54.5 -20t22.5 -49v-71q0 -29 -8.5 -49.5t-31.5 -43.5zM417 172q-45 0 -68.5 21.5
t-23.5 65.5v127q0 29 22.5 49t54.5 20h104q32 0 54.5 -20t22.5 -49v-316q0 -29 -22.5 -49.5t-54.5 -20.5h-104q-32 0 -54.5 20.5t-22.5 49.5v72l108 11v-69q0 -8 10 -8h22q10 0 10 8v106q-1 -1 -16.5 -9.5t-41.5 -8.5zM443 380q-10 0 -10 -8v-113q0 -8 10 -8h22q8 0 10 7
v114q0 8 -10 8h-22z" />
    <glyph glyph-name="twosevenths" horiz-adv-x="620" 
d="M164 373q-9 -9 -13 -15.5t-3 -15.5v-8h144v-89h-252v105q0 43 25 68l100 101q11 12 17 23t6 28v34q0 8 -10 8h-22q-10 0 -10 -8v-66l-108 12v81q0 29 22.5 49t54.5 20h104q32 0 54.5 -20t22.5 -49v-71q0 -29 -8.5 -49.5t-31.5 -43.5zM576 353l-17 -31q-13 -24 -23 -45
t-17 -46.5t-10.5 -58.5t-3.5 -81v-91h-124v62q0 52 7 88t19.5 66.5t30.5 61.5t39 73h-141v104h240v-102z" />
    <glyph glyph-name="zero.alt" horiz-adv-x="398" 
d="M379 137q0 -30 -10 -55.5t-27.5 -43.5t-40.5 -28t-49 -10h-106q-26 0 -49 10t-40.5 28t-27.5 43.5t-10 55.5v426q0 30 10 55.5t27.5 43.5t40.5 28t49 10h106q26 0 49 -10t40.5 -28t27.5 -43.5t10 -55.5v-426zM228 529q0 16 -7 25.5t-20 9.5h-4q-13 0 -20 -9.5t-7 -25.5
v-358q0 -16 7 -25.5t20 -9.5h4q13 0 20 9.5t7 25.5v358z" />
    <glyph glyph-name="zero.posf" horiz-adv-x="382" 
d="M365 132q0 -29 -10 -53.5t-26.5 -42t-39 -27t-47.5 -9.5h-102q-25 0 -47.5 9.5t-39 27t-26.5 42t-10 53.5v280q0 29 10 53.5t26.5 42t39 27t47.5 9.5h102q25 0 47.5 -9.5t39 -27t26.5 -42t10 -53.5v-280zM219 379q0 34 -26 34h-4q-26 0 -26 -34v-214q0 -15 7 -24.5
t19 -9.5h4q12 0 19 9.5t7 24.5v214z" />
    <glyph glyph-name="zero.sinf" 
d="M289 -115q0 -40 -27 -65t-65 -25h-74q-38 0 -65 25t-27 65v276q0 40 27 64.5t65 24.5h74q38 0 65 -24.5t27 -64.5v-276zM181 139q0 23 -20 23h-2q-20 0 -20 -23v-232q0 -23 20 -23h2q20 0 20 23v232z" />
    <glyph glyph-name="zero.sups" 
d="M289 485q0 -40 -27 -65t-65 -25h-74q-38 0 -65 25t-27 65v276q0 40 27 64.5t65 24.5h74q38 0 65 -24.5t27 -64.5v-276zM181 739q0 23 -20 23h-2q-20 0 -20 -23v-232q0 -23 20 -23h2q20 0 20 23v232z" />
    <glyph glyph-name="zero.tosf" horiz-adv-x="400" 
d="M374 132q0 -29 -10 -53.5t-26.5 -42t-39 -27t-47.5 -9.5h-102q-25 0 -47.5 9.5t-39 27t-26.5 42t-10 53.5v280q0 29 10 53.5t26.5 42t39 27t47.5 9.5h102q25 0 47.5 -9.5t39 -27t26.5 -42t10 -53.5v-280zM228 379q0 34 -26 34h-4q-26 0 -26 -34v-214q0 -15 7 -24.5
t19 -9.5h4q12 0 19 9.5t7 24.5v214z" />
    </font>
</defs>
</svg>
