<?xml version="1.0" encoding="utf-8"?>
<!-- Generator: Adobe Illustrator 23.0.6, SVG Export Plug-In . SVG Version: 6.00 Build 0)  -->
<svg version="1.1" id="Layer_1" xmlns="http://www.w3.org/2000/svg" xmlns:xlink="http://www.w3.org/1999/xlink" x="0px" y="0px"
	 viewBox="0 0 219.3 71.74" style="enable-background:new 0 0 219.3 71.74;" xml:space="preserve">
<style type="text/css">
	.st0{fill:#FFFFFF;}
</style>
<path class="st0" d="M0,47.51c3.58-0.51,4.57-2.88,4.16-6.35c-0.4-3.36-1.02-6.68-1.54-10.03c-0.09-0.55-0.14-1.11-0.22-1.77
	c-0.37,0.17-0.62,0.29-1.02,0.47c0.69-3.74,2.5-6.9,4.08-10.25c-0.48-0.04-0.85-0.07-1.52-0.12c1.39-1.39,2.63-2.59,3.83-3.85
	c0.66-0.69,1.33-1.4,1.83-2.2c2.05-3.34,4.06-6.71,6.04-10.09c0.62-1.07,1.1-2.22,1.63-3.32c1.34,2.05,0.51,6.6-2.1,11.4
	c1.16-0.1,4.99-5.34,7.35-10.07c1.52,1.91,0.12,6.32-3.59,10.97c4.19,1.96,8.3,3.92,12.45,5.8c0.7,0.32,1.07,0.63,1.37,1.39
	c0.48,1.23,1.32,2.31,1.96,3.47c0.13,0.23,0.21,0.71,0.1,0.81c-1.02,0.83-2.08,1.61-3.13,2.4c-0.8,0.6-1.68,0.88-2.59,0.36
	c-2.04-1.17-3.85-0.39-5.64,0.56c-1.6,0.85-3.12,1.9-5.16,1.88c1.76,2.67,3.46,5.26,5.16,7.84c-0.07,0.07-0.15,0.14-0.22,0.21
	c-0.52-0.25-1.05-0.49-1.59-0.75c-0.11,1.46,1.46,4.28,3.99,7.19c-0.6,0.08-1.09,0.15-1.71,0.23c0.81,2.21,1.6,4.36,2.48,6.78
	c-0.74-0.18-1.18-0.29-1.72-0.42c1.13,4.4,1.13,8.69-0.77,12.93c-0.49-0.15-0.92-0.28-1.42-0.44c-1.8,3.75-4.41,6.78-7.72,9.21
	C9.82,63.63,4.92,55.58,0,47.51z M20.41,17.29c-0.26-0.8-0.53-1.63-1.53-1.67c-1.55-0.06-3.09-0.02-4.66-0.02
	c0.58,1.89,2.34,2.83,4.07,2.27C18.96,17.66,19.64,17.5,20.41,17.29z"/>
<path class="st0" d="M130.99,59.4c0,2.3,0,4.51,0,6.86c1.45,0,2.88,0,4.38,0c0,1.39,0,2.62,0,3.94c-4.49,0-8.99,0-13.58,0
	c0-1.24,0-2.5,0-3.89c1.41,0,2.82,0,4.36,0c0-0.47,0-0.82,0-1.17c0-7.84-0.02-15.69,0.03-23.53c0.01-0.91-0.32-1.25-1.12-1.47
	c-1.3-0.37-2.57-0.83-3.96-1.29c0.41-1.32,0.81-2.58,1.23-3.93c2.12,0.72,4.15,1.37,6.14,2.11c0.76,0.28,1.36,0.27,2.09-0.16
	c3.19-1.85,6.61-2.16,10.12-1.17c3.73,1.05,6.17,3.47,7.18,7.22c0.88,3.29,0.73,6.58-0.52,9.76c-2.14,5.47-7.28,8.23-13.4,7.25
	C132.98,59.79,132.05,59.6,130.99,59.4z M130.95,47.9c0,1.32,0,2.64,0,3.96c0,3.44,0,3.44,3.44,4.04c4.48,0.77,7.58-1.15,8.65-5.43
	c0.54-2.17,0.59-4.38,0.08-6.57c-0.5-2.18-1.76-3.74-3.98-4.32c-2.64-0.69-5.17-0.34-7.52,1.06c-0.34,0.2-0.63,0.76-0.65,1.16
	C130.92,43.83,130.95,45.87,130.95,47.9z"/>
<path class="st0" d="M192.71,39.9c-0.82,0-1.35,0-1.94,0c0-1.3,0-2.54,0-3.87c3.73,0,7.45,0,11.21,0c0,1.28,0,2.52,0,3.89
	c-1.15,0-2.28-0.03-3.4,0.02c-0.35,0.01-0.81,0.14-1.01,0.38c-2.11,2.46-4.19,4.95-6.36,7.53c0.89,0.94,1.76,1.86,2.64,2.78
	c1.3,1.37,2.59,2.76,3.94,4.08c0.33,0.33,0.89,0.56,1.36,0.59c1.24,0.08,2.49,0.03,3.8,0.03c0,1.31,0,2.54,0,3.87
	c-4.21,0-8.43,0-12.68,0c0-1.28,0-2.51,0-3.86c0.55,0,1.06,0,1.57,0c0.04-0.07,0.08-0.15,0.12-0.22c-1.6-1.38-3.2-2.77-4.88-4.22
	c-0.99,1.17-2.28,2.7-3.7,4.37c0.71,0.04,1.25,0.08,1.84,0.12c0,1.28,0,2.51,0,3.83c-3.93,0-7.83,0-11.82,0c0-1.26,0-2.51,0-3.88
	c1.32,0,2.63,0.02,3.94-0.02c0.35-0.01,0.83-0.09,1.04-0.33c2.12-2.46,4.19-4.95,6.3-7.46c-2.32-2.45-4.58-4.86-6.89-7.25
	c-0.23-0.23-0.69-0.33-1.04-0.34c-1.1-0.04-2.2-0.02-3.36-0.02c0-1.34,0-2.6,0-3.92c4.2,0,8.35,0,12.58,0c0,1.29,0,2.52,0,3.89
	c-0.67,0-1.35,0-2.36,0c1.74,1.83,3.27,3.44,4.87,5.13C189.88,43.33,191.21,41.72,192.71,39.9z"/>
<path class="st0" d="M155.86,42.83c-1.4-0.27-2.67-0.51-4.06-0.77c0.31-1.72,0.58-3.33,0.91-4.92c0.05-0.24,0.37-0.52,0.63-0.61
	c3.77-1.33,7.63-1.83,11.56-0.85c3.37,0.84,5.47,3.12,5.61,6.57c0.22,5.59,0.17,11.19,0.22,16.79c0,0.06-0.05,0.12-0.14,0.3
	c-1.33,0-2.71,0.04-4.09-0.03c-0.29-0.02-0.55-0.45-0.86-0.73c-3.41,1.98-7.13,2.04-10.85,0.59c-3.44-1.34-5.05-4.48-4.39-8.1
	c0.51-2.8,2.83-4.92,6.22-5.31c2.4-0.28,4.84-0.19,7.26-0.25c0.63-0.02,1.27,0,2.05,0c-0.06-1.13-0.01-2.17-0.19-3.16
	c-0.34-1.85-1.52-2.88-3.64-2.98c-1.62-0.08-3.26,0.18-4.89,0.28c-0.61,0.04-0.86,0.35-0.94,0.93
	C156.17,41.25,156.02,41.95,155.86,42.83z M165.88,49.58c-2.75,0-5.35-0.11-7.94,0.03c-2.15,0.11-3.25,1.94-2.6,3.98
	c0.36,1.12,1.19,1.79,2.27,2.08c2.72,0.74,5.3,0.34,7.7-1.12c0.26-0.16,0.53-0.52,0.54-0.8C165.91,52.4,165.88,51.04,165.88,49.58z"
	/>
<path class="st0" d="M56.64,47.61c0.27-1.5,0.4-3.04,0.83-4.49c1.37-4.63,5.27-7.69,10.09-7.86c1.72-0.06,3.52,0.07,5.17,0.52
	c4.84,1.32,7.84,5.4,8.05,10.87c0.06,1.69-0.08,3.44-0.49,5.08c-1.21,4.82-5.11,8.03-10.09,8.27c-1.82,0.09-3.74-0.04-5.49-0.51
	c-4.53-1.24-7.5-5.23-7.84-10.14c-0.04-0.57-0.01-1.14-0.01-1.71C56.79,47.63,56.71,47.62,56.64,47.61z M68.81,56.01
	c3.75-0.01,5.92-1.73,6.76-5.37c0.5-2.19,0.46-4.39-0.15-6.55c-0.74-2.63-2.42-4.28-5.19-4.73c-4.43-0.73-7.57,1.39-8.22,5.8
	c-0.25,1.7-0.23,3.49,0.02,5.19C62.58,54.14,64.96,56.02,68.81,56.01z"/>
<path class="st0" d="M97.52,47.67c0.21-1.37,0.31-2.76,0.66-4.1c1.24-4.84,5.19-8.1,10.18-8.3c1.72-0.07,3.53,0.04,5.17,0.5
	c4.72,1.33,7.2,4.72,7.97,9.46c0.36,2.21,0.24,4.41-0.36,6.57c-1.35,4.82-5.15,7.99-10.15,8.21c-1.79,0.08-3.66-0.04-5.38-0.5
	c-4.43-1.18-7.42-5.06-7.84-9.79c-0.06-0.67-0.09-1.35-0.13-2.03C97.59,47.68,97.56,47.67,97.52,47.67z M102.41,47.6
	c0.06,0.01,0.12,0.03,0.18,0.04c0.02,0.43,0.03,0.85,0.06,1.28c0.32,5.41,3.91,8.08,9.19,6.84c1.99-0.47,3.38-1.69,4.09-3.57
	c1.14-3.01,1.15-6.08-0.01-9.08c-1.02-2.65-3.22-3.89-6.5-3.85c-3.03,0.03-5.13,1.33-6.06,3.99
	C102.87,44.65,102.72,46.15,102.41,47.6z"/>
<path class="st0" d="M54.72,42.75c-1.39,0.3-2.66,0.59-4.05,0.89c-0.21-1.09-0.36-2.1-0.64-3.08c-0.1-0.36-0.46-0.8-0.8-0.9
	c-1.88-0.55-3.81-0.59-5.7-0.06c-2.38,0.67-3.74,2.43-4.13,4.73c-0.32,1.87-0.46,3.86-0.18,5.72c0.69,4.6,3.88,6.76,8.49,5.81
	c1.89-0.39,3.68-1.24,5.7-1.95c0.43,0.63,1.06,1.48,1.6,2.39c0.11,0.19-0.01,0.73-0.2,0.86c-4.64,3.2-10.91,4.22-15.78,0.97
	c-3.94-2.62-5.1-6.61-4.98-11.08c0.04-1.34,0.25-2.71,0.64-3.99c1.35-4.52,5.04-7.42,9.82-7.81c2.76-0.22,5.48,0.05,8.13,0.95
	c0.6,0.2,0.92,0.49,1.03,1.17C53.97,39.12,54.35,40.86,54.72,42.75z"/>
<path class="st0" d="M97.61,59.27c-5.18,2.78-11.61-0.49-12.02-6.2c-0.28-3.87-0.15-7.77-0.2-11.65c-0.01-0.46,0-0.91,0-1.47
	c-1.46,0-2.84,0-4.28,0c0-1.36,0-2.62,0-4c1.4,0,2.78,0,4.27,0c0-1.56,0-3.01,0-4.5c1.62-0.37,3.13-0.72,4.78-1.11
	c0,1.9,0,3.66,0,5.56c2.23,0,4.35,0,6.55,0c0,1.39,0,2.65,0,4.02c-2.15,0-4.27,0-6.45,0c-0.03,0.3-0.07,0.5-0.07,0.7
	c0.01,3.39,0.01,6.78,0.04,10.17c0,0.57,0.03,1.15,0.13,1.7c0.55,2.93,1.94,3.97,4.89,3.52c1.13-0.17,1.73,0.01,1.87,1.24
	C97.19,57.94,97.44,58.61,97.61,59.27z"/>
<path class="st0" d="M214.89,55.37c1.6,0,2.98,0,4.41,0c0,1.32,0,2.55,0,3.86c-4.52,0-9.03,0-13.56,0c0-1.31,0-2.54,0-3.89
	c1.46,0,2.87,0,4.32,0c0-5.17,0-10.21,0-15.38c-1.43,0-2.84,0-4.31,0c0-1.35,0-2.58,0-3.92c2.99,0,6,0,9.14,0
	C214.89,42.43,214.89,48.82,214.89,55.37z"/>
<path class="st0" d="M214.94,33.29c-1.72,0-3.31,0-5,0c0-1.04,0-2.09,0-3.32c1.58,0.37,3.12,0.71,4.64,1.14
	c0.18,0.05,0.29,0.56,0.34,0.88C214.99,32.4,214.94,32.82,214.94,33.29z"/>
</svg>
