<?xml version="1.0" encoding="utf-8"?>
<!-- Generator: Adobe Illustrator 23.0.6, SVG Export Plug-In . SVG Version: 6.00 Build 0)  -->
<svg version="1.1" id="Layer_1" xmlns="http://www.w3.org/2000/svg" xmlns:xlink="http://www.w3.org/1999/xlink" x="0px" y="0px"
	 viewBox="0 0 680.19 220.21" style="enable-background:new 0 0 680.19 220.21;" xml:space="preserve">
<style type="text/css">
	.st0{fill:#FFFFFF;}
	.st1{fill:#0E0E2B;}
</style>
<path class="st0" d="M331.4,218.34c-63.36-1.38-126.28-7.36-188.77-17.93c-30.02-5.08-60.11-9.87-89.43-18.35
	c-6.53-1.89-12.84-4.56-19.31-6.71c-19.17-6.37-28.55-20.36-30.51-39.75c-1.85-18.24-2.09-36.52,0.61-54.73
	c2.47-16.6,10.92-28.31,26.86-34.89c20.92-8.65,42.77-13.54,64.83-17.86c42.66-8.35,85.57-15.09,128.81-19.59
	c35.12-3.65,70.32-6.33,105.64-6.57c71.59-0.5,142.52,6.88,213.01,18.88c27.89,4.74,55.81,9.37,83.04,17.25
	c7.99,2.31,15.7,5.4,23.42,8.52c14.93,6.02,22.62,17.4,25.37,32.68c1.71,9.53,1.77,19.16,1.67,28.84
	c-0.12,10.48,0.26,20.93-1.41,31.35c-2.66,16.6-11.11,28.23-27.04,34.77c-20.93,8.59-42.78,13.49-64.83,17.81
	c-39.88,7.81-79.99,14.19-120.38,18.68c-29.13,3.24-58.34,5.47-87.64,6.72C360.7,218.07,346.05,218.37,331.4,218.34z"/>
<path class="st1" d="M339,198.81c-49.8-0.97-99.92-4.5-149.8-11.35c-40.08-5.51-79.99-12.01-119.4-21.27
	c-11.03-2.59-21.63-6.47-32.17-10.67c-7.81-3.11-11.83-8.63-13.54-16.45c-1.11-5.06-2-10.18-1.82-15.34
	c0.47-13.78-1.21-27.62,1.55-41.35c1.78-8.86,6.2-14.74,14.83-18.28c20.17-8.27,41.26-12.81,62.51-16.94
	c47.1-9.16,94.5-16.28,142.29-20.68c27.86-2.56,55.78-4.48,83.75-4.78c68.29-0.73,136,6.02,203.31,17.03
	c30.38,4.97,60.8,9.85,90.45,18.4c8.48,2.45,16.7,5.6,24.63,9.54c3.65,1.82,6.02,4.48,7.5,8.23c2.1,5.33,3.44,10.85,3.58,16.52
	c0.34,13.65,0.91,27.31-0.42,40.94c-0.22,2.31-0.77,4.59-1.23,6.87c-1.58,7.9-5.86,13.11-13.59,16.38
	c-20.4,8.64-41.84,13.2-63.41,17.38c-51.36,9.97-103.07,17.55-155.23,21.79C395.08,197.04,367.31,198.3,339,198.81z"/>
<path class="st0" d="M339.06,110.28c0-10.99-0.01-21.98,0-32.96c0.02-25.07,19.53-40.89,45.01-35.99
	c22.04,4.24,43.97,9.08,65.95,13.65c3.96,0.82,7.73,2.12,10.75,4.91c4.86,4.48,3.63,10.72-2.59,12.99c-3,1.09-6.15,1.26-9.36,0.79
	c-22.88-3.38-45.77-6.66-68.64-10.1c-9.94-1.5-14.85,2.52-14.86,12.63c-0.02,22.82-0.02,45.63,0,68.45
	c0.01,10.28,4.57,14.18,14.69,12.69c22.39-3.29,44.78-6.59,67.17-9.83c3.97-0.57,8.01-0.83,11.79,0.92
	c5.37,2.48,6.34,7.94,2.23,12.19c-3.16,3.26-7.26,4.6-11.54,5.49c-21.66,4.5-43.31,9-64.98,13.43
	c-26.51,5.43-46.23-11.28-45.51-38.29c0.27-10.32,0.04-20.65,0.04-30.97C339.16,110.28,339.11,110.28,339.06,110.28z"/>
<path class="st0" d="M312.42,39.64c10.96-0.43,15.59,6.01,11.68,16.44c-1.44,3.84-4.82,4.31-8.16,4.57
	c-10.78,0.85-21.58,1.48-32.36,2.37c-12.11,1-24.21,2.14-36.3,3.31c-4.16,0.4-8.21,1.36-11.88,3.48c-4.53,2.63-6.94,6.37-6.91,11.81
	c0.11,18.14,0.04,36.28,0.04,54.43c0,8.35,2.94,12.3,10.95,15.12c5.92,2.09,12.13,2.04,18.23,2.63c18.55,1.79,37.1,3.7,55.73,4.52
	c10.22,0.45,14.89,8.72,10.3,18.08c-1.64,3.34-4.81,3.38-7.78,3.12c-14.09-1.21-28.2-2.39-42.26-3.92
	c-13.57-1.48-27.09-3.39-40.39-6.54c-14.01-3.32-25.08-10.06-27.88-25.59c-0.7-3.92-1.19-7.93-1.18-11.9
	c0.03-17.64-1.11-35.3,0.74-52.91c1.42-13.52,8.84-22.24,21.61-26.53c13.18-4.43,26.94-6.01,40.62-7.76
	C282.25,42.45,297.35,41.19,312.42,39.64z"/>
<path class="st0" d="M597.55,138.97c-1.75-0.97-3.34-1.81-4.9-2.72c-25.58-14.93-51.15-29.88-76.72-44.82
	c-5.31-3.1-7.77-1.69-7.99,4.94c-0.52,15.97-0.85,31.95-1.29,47.92c-0.13,4.82-0.68,9.67-0.4,14.46c0.22,3.58-1.31,5.14-4.31,6.13
	c-3.05,1.01-6.12,1.58-9.33,1.06c-7.07-1.15-8.14-2.49-8.23-9.59c-0.34-27.81-0.67-55.62-1.14-83.42
	c-0.25-15.03,6.36-19.46,20.15-12.44c26.97,13.73,53.72,27.92,80.55,41.93c3.69,1.92,7.22,4.24,11.09,5.69
	c4.66,1.75,6.26,4.77,5.93,9.49C600.47,124.7,600.06,131.81,597.55,138.97z"/>
<path class="st0" d="M105.51,111.89c15.95,7.04,30.83,13.62,45.71,20.18c13.7,6.04,27.35,12.17,41.14,18.01
	c3.21,1.36,3.8,3.04,2.85,6.07c-1.37,4.42-4.55,7.24-8.1,9.81c-1.49,1.08-2.87,0.27-4.23-0.27c-33.88-13.38-67.74-26.79-101.65-40.1
	c-2.35-0.92-3.24-2.12-3.49-4.63c-0.65-6.49-0.9-12.95-0.44-19.45c0.19-2.74,1.3-4.35,4.04-5.49
	c33.75-14.14,67.45-28.38,101.1-42.77c3.01-1.29,4.64-0.58,6.17,1.81c0.81,1.26,1.73,2.47,2.37,3.81c3.53,7.44,2.62,9.86-4.71,13.45
	C159.67,85.32,133.1,98.36,105.51,111.89z"/>
<path class="st0" d="M79.3,80.47c-14.76,18.37-10.83,38.22-4.78,58.06c1.35,4.43,0.87,5.78-3.87,6.26
	c-13.3,1.35-15.46,0.1-19.32-12.63c-4.98-16.41-5.88-32.6,1.7-48.64c2.05-4.34,4.9-6.27,9.52-6.4c4.27-0.12,8.37,0.43,12.46,1.73
	C76.44,79.29,77.87,79.83,79.3,80.47z"/>
<path class="st0" d="M265.09,120.57c-8.67,0-17.33-0.11-25.99,0.05c-4.61,0.08-6.86-1.77-6.72-6.46c0.1-3.33,0-6.67,0.03-10
	c0.03-3.65,2.02-5.68,5.56-5.7c18.5-0.08,36.99-0.09,55.49,0.01c3.56,0.02,5.43,2.18,5.46,5.8c0,0.33,0,0.67,0,1
	c0.03,16.85,1.21,15.33-14.82,15.31C277.76,120.57,271.43,120.57,265.09,120.57z"/>
<path class="st0" d="M404.6,98.75c8.49,0,16.99-0.09,25.48-0.04c6.44,0.04,7.22,2.49,7.16,8.66c-0.08,9.67,1.92,11.58-11.64,11.7
	c-15.97,0.14-31.95,0.69-47.91,1.29c-4.9,0.18-6.66-1.87-6.41-6.49c0.16-2.99,0.14-6,0-8.99c-0.21-4.56,2.02-6.22,6.38-6.16
	C386.64,98.84,395.62,98.75,404.6,98.75C404.6,99.26,404.6,98.25,404.6,98.75z"/>
<path class="st0" d="M602.06,80.3c14.76,18.37,10.83,38.22,4.78,58.06c-1.35,4.43-0.87,5.78,3.87,6.26
	c13.3,1.35,15.46,0.1,19.32-12.63c4.98-16.41,5.88-32.6-1.7-48.64c-2.05-4.34-4.9-6.27-9.52-6.4c-4.27-0.12-8.37,0.43-12.46,1.73
	C604.92,79.12,603.49,79.66,602.06,80.3z"/>
</svg>
