<?xml version="1.0" encoding="utf-8"?>
<!-- Generator: Adobe Illustrator 23.0.6, SVG Export Plug-In . SVG Version: 6.00 Build 0)  -->
<svg version="1.1" id="Layer_1" xmlns="http://www.w3.org/2000/svg" xmlns:xlink="http://www.w3.org/1999/xlink" x="0px" y="0px"
	 viewBox="0 0 1439 567.21" style="enable-background:new 0 0 1439 567.21;" xml:space="preserve">
<style type="text/css">
	.st0{fill:#FFFFFF;}
	.st1{fill:#0E0E2B;stroke:#000000;stroke-miterlimit:10;}
	.st2{fill:#0E0E2B;}
</style>
<path class="st0" d="M0,0c479.67,0,959.33,0,1439,0c-0.64,3.54-1.83,7.08-1.83,10.62c-0.09,180.47-0.08,360.94-0.08,541.42
	c0,15.18,0,15.18-14.87,15.18c-468.93,0-937.86,0-1406.78,0c-4.97,0-9.94,0-15.43,0C0,378.53,0,189.26,0,0z M440.42,331.96
	c-34.48,37.45-86.34,29.53-112.13,2.13c-25.86-27.47-27.62-70.94-3.3-100.46c23.99-29.11,72.55-39.85,110.18-7.18
	c19.39-30.65,38.74-61.24,58.06-91.76C420.5,73.5,301.39,73.01,227.49,156.53c-73.93,83.55-61.86,210.93,26.19,279.37
	c84.9,65.99,193.32,44.17,247.78-10.38C481.21,394.5,460.94,363.42,440.42,331.96z M1053,97.43c0,124.43,0,248.59,0,372.71
	c43.75,0,87.02,0,130.9,0c0-44.73,0-89.12,0-134.14c34.5,0,68.39,0,102.25,0c0-30.06,0-59.48,0-89.59c-34.21,0-68.09,0-102.03,0
	c0-16.78,0-32.87,0-49.47c39.01,0,77.75,0,116.62,0c0-33.43,0-66.34,0-99.51C1218.06,97.43,1135.65,97.43,1053,97.43z M550.44,97.43
	c0,124.51,0,248.43,0,372.65c82.59,0,164.91,0,247.25,0c0-37.67,0-74.92,0-112.7c-39.23,0-78.15,0-117.61,0
	c0-86.92,0-173.31,0-259.95C636.64,97.43,593.74,97.43,550.44,97.43z M977.16,470.18c0-124.4,0-248.42,0-372.7
	c-43.37,0-86.42,0-129.69,0c0,124.34,0,248.37,0,372.7C890.7,470.18,933.62,470.18,977.16,470.18z M131.86,225.57
	c-20.86,20.42-42.07,41.17-62.32,60.99c20.73,21.34,41.19,42.39,62.32,64.13C131.86,307.89,131.86,266.24,131.86,225.57z"/>
<path class="st1" d="M440.42,331.96c20.51,31.45,40.79,62.53,61.03,93.56c-54.46,54.55-162.88,76.36-247.78,10.38
	c-88.05-68.44-100.12-195.81-26.19-279.37c73.9-83.52,193.01-83.03,265.75-21.85c-19.31,30.53-38.66,61.11-58.06,91.76
	c-37.63-32.67-86.2-21.93-110.18,7.18c-24.33,29.52-22.57,72.99,3.3,100.46C354.08,361.49,405.95,369.41,440.42,331.96z"/>
<path class="st2" d="M1053,97.43c82.65,0,165.06,0,247.74,0c0,33.18,0,66.09,0,99.51c-38.87,0-77.6,0-116.62,0
	c0,16.6,0,32.69,0,49.47c33.94,0,67.82,0,102.03,0c0,30.11,0,59.53,0,89.59c-33.86,0-67.75,0-102.25,0c0,45.01,0,89.4,0,134.14
	c-43.88,0-87.14,0-130.9,0C1053,346.03,1053,221.86,1053,97.43z"/>
<path class="st2" d="M550.44,97.43c43.3,0,86.2,0,129.65,0c0,86.64,0,173.03,0,259.95c39.46,0,78.38,0,117.61,0
	c0,37.78,0,75.03,0,112.7c-82.34,0-164.66,0-247.25,0C550.44,345.86,550.44,221.94,550.44,97.43z"/>
<path class="st1" d="M977.16,470.18c-43.54,0-86.46,0-129.69,0c0-124.33,0-248.36,0-372.7c43.27,0,86.32,0,129.69,0
	C977.16,221.77,977.16,345.78,977.16,470.18z"/>
<path class="st2" d="M131.86,225.57c0,40.67,0,82.32,0,125.12c-21.13-21.75-41.58-42.8-62.32-64.13
	C89.79,266.74,110.99,245.99,131.86,225.57z"/>
</svg>
